%TF.GenerationSoftware,KiCad,Pcbnew,8.0.4*%
%TF.CreationDate,2024-08-28T22:22:44-04:00*%
%TF.ProjectId,pcb,7063622e-6b69-4636-9164-5f7063625858,1.0*%
%TF.SameCoordinates,Original*%
%TF.FileFunction,Drillmap*%
%TF.FilePolarity,Positive*%
%FSLAX45Y45*%
G04 Gerber Fmt 4.5, Leading zero omitted, Abs format (unit mm)*
G04 Created by KiCad (PCBNEW 8.0.4) date 2024-08-28 22:22:44*
%MOMM*%
%LPD*%
G01*
G04 APERTURE LIST*
%ADD10C,0.050000*%
%ADD11C,0.200000*%
%ADD12C,0.320000*%
G04 APERTURE END LIST*
D10*
X7917500Y-14200000D02*
X7917500Y-7950000D01*
X8517500Y-14800000D02*
X18917500Y-14800000D01*
X18917500Y-7350000D02*
G75*
G02*
X19517500Y-7950000I0J-600000D01*
G01*
X18917500Y-7350000D02*
X8517500Y-7350000D01*
X8517500Y-14800000D02*
G75*
G02*
X7917500Y-14200000I0J600000D01*
G01*
X19517500Y-14200000D02*
G75*
G02*
X18917500Y-14800000I-600000J0D01*
G01*
X7917500Y-7950000D02*
G75*
G02*
X8517500Y-7350000I600000J0D01*
G01*
X19517500Y-7950000D02*
X19517500Y-14200000D01*
D11*
D12*
X8319750Y-8190000D02*
X8639750Y-8510000D01*
X8639750Y-8190000D02*
X8319750Y-8510000D01*
X8330500Y-13615000D02*
X8650500Y-13935000D01*
X8650500Y-13615000D02*
X8330500Y-13935000D01*
X9462750Y-8190000D02*
X9782750Y-8510000D01*
X9782750Y-8190000D02*
X9462750Y-8510000D01*
X9473500Y-13615000D02*
X9793500Y-13935000D01*
X9793500Y-13615000D02*
X9473500Y-13935000D01*
D11*
X8175777Y-15113984D02*
X8175777Y-14913984D01*
X8175777Y-14913984D02*
X8223396Y-14913984D01*
X8223396Y-14913984D02*
X8251967Y-14923508D01*
X8251967Y-14923508D02*
X8271015Y-14942555D01*
X8271015Y-14942555D02*
X8280539Y-14961603D01*
X8280539Y-14961603D02*
X8290062Y-14999698D01*
X8290062Y-14999698D02*
X8290062Y-15028269D01*
X8290062Y-15028269D02*
X8280539Y-15066365D01*
X8280539Y-15066365D02*
X8271015Y-15085412D01*
X8271015Y-15085412D02*
X8251967Y-15104460D01*
X8251967Y-15104460D02*
X8223396Y-15113984D01*
X8223396Y-15113984D02*
X8175777Y-15113984D01*
X8375777Y-15113984D02*
X8375777Y-14980650D01*
X8375777Y-15018746D02*
X8385301Y-14999698D01*
X8385301Y-14999698D02*
X8394824Y-14990174D01*
X8394824Y-14990174D02*
X8413872Y-14980650D01*
X8413872Y-14980650D02*
X8432920Y-14980650D01*
X8499586Y-15113984D02*
X8499586Y-14980650D01*
X8499586Y-14913984D02*
X8490063Y-14923508D01*
X8490063Y-14923508D02*
X8499586Y-14933031D01*
X8499586Y-14933031D02*
X8509110Y-14923508D01*
X8509110Y-14923508D02*
X8499586Y-14913984D01*
X8499586Y-14913984D02*
X8499586Y-14933031D01*
X8623396Y-15113984D02*
X8604348Y-15104460D01*
X8604348Y-15104460D02*
X8594824Y-15085412D01*
X8594824Y-15085412D02*
X8594824Y-14913984D01*
X8728158Y-15113984D02*
X8709110Y-15104460D01*
X8709110Y-15104460D02*
X8699586Y-15085412D01*
X8699586Y-15085412D02*
X8699586Y-14913984D01*
X8956729Y-15113984D02*
X8956729Y-14913984D01*
X8956729Y-14913984D02*
X9023396Y-15056841D01*
X9023396Y-15056841D02*
X9090063Y-14913984D01*
X9090063Y-14913984D02*
X9090063Y-15113984D01*
X9271015Y-15113984D02*
X9271015Y-15009222D01*
X9271015Y-15009222D02*
X9261491Y-14990174D01*
X9261491Y-14990174D02*
X9242444Y-14980650D01*
X9242444Y-14980650D02*
X9204348Y-14980650D01*
X9204348Y-14980650D02*
X9185301Y-14990174D01*
X9271015Y-15104460D02*
X9251967Y-15113984D01*
X9251967Y-15113984D02*
X9204348Y-15113984D01*
X9204348Y-15113984D02*
X9185301Y-15104460D01*
X9185301Y-15104460D02*
X9175777Y-15085412D01*
X9175777Y-15085412D02*
X9175777Y-15066365D01*
X9175777Y-15066365D02*
X9185301Y-15047317D01*
X9185301Y-15047317D02*
X9204348Y-15037793D01*
X9204348Y-15037793D02*
X9251967Y-15037793D01*
X9251967Y-15037793D02*
X9271015Y-15028269D01*
X9366253Y-14980650D02*
X9366253Y-15180650D01*
X9366253Y-14990174D02*
X9385301Y-14980650D01*
X9385301Y-14980650D02*
X9423396Y-14980650D01*
X9423396Y-14980650D02*
X9442444Y-14990174D01*
X9442444Y-14990174D02*
X9451967Y-14999698D01*
X9451967Y-14999698D02*
X9461491Y-15018746D01*
X9461491Y-15018746D02*
X9461491Y-15075888D01*
X9461491Y-15075888D02*
X9451967Y-15094936D01*
X9451967Y-15094936D02*
X9442444Y-15104460D01*
X9442444Y-15104460D02*
X9423396Y-15113984D01*
X9423396Y-15113984D02*
X9385301Y-15113984D01*
X9385301Y-15113984D02*
X9366253Y-15104460D01*
X9547205Y-15094936D02*
X9556729Y-15104460D01*
X9556729Y-15104460D02*
X9547205Y-15113984D01*
X9547205Y-15113984D02*
X9537682Y-15104460D01*
X9537682Y-15104460D02*
X9547205Y-15094936D01*
X9547205Y-15094936D02*
X9547205Y-15113984D01*
X9547205Y-14990174D02*
X9556729Y-14999698D01*
X9556729Y-14999698D02*
X9547205Y-15009222D01*
X9547205Y-15009222D02*
X9537682Y-14999698D01*
X9537682Y-14999698D02*
X9547205Y-14990174D01*
X9547205Y-14990174D02*
X9547205Y-15009222D01*
X7715000Y-15342500D02*
X7915000Y-15542500D01*
X7915000Y-15342500D02*
X7715000Y-15542500D01*
X8156729Y-15333984D02*
X8280539Y-15333984D01*
X8280539Y-15333984D02*
X8213872Y-15410174D01*
X8213872Y-15410174D02*
X8242443Y-15410174D01*
X8242443Y-15410174D02*
X8261491Y-15419698D01*
X8261491Y-15419698D02*
X8271015Y-15429222D01*
X8271015Y-15429222D02*
X8280539Y-15448269D01*
X8280539Y-15448269D02*
X8280539Y-15495888D01*
X8280539Y-15495888D02*
X8271015Y-15514936D01*
X8271015Y-15514936D02*
X8261491Y-15524460D01*
X8261491Y-15524460D02*
X8242443Y-15533984D01*
X8242443Y-15533984D02*
X8185301Y-15533984D01*
X8185301Y-15533984D02*
X8166253Y-15524460D01*
X8166253Y-15524460D02*
X8156729Y-15514936D01*
X8366253Y-15514936D02*
X8375777Y-15524460D01*
X8375777Y-15524460D02*
X8366253Y-15533984D01*
X8366253Y-15533984D02*
X8356729Y-15524460D01*
X8356729Y-15524460D02*
X8366253Y-15514936D01*
X8366253Y-15514936D02*
X8366253Y-15533984D01*
X8451967Y-15353031D02*
X8461491Y-15343508D01*
X8461491Y-15343508D02*
X8480539Y-15333984D01*
X8480539Y-15333984D02*
X8528158Y-15333984D01*
X8528158Y-15333984D02*
X8547205Y-15343508D01*
X8547205Y-15343508D02*
X8556729Y-15353031D01*
X8556729Y-15353031D02*
X8566253Y-15372079D01*
X8566253Y-15372079D02*
X8566253Y-15391127D01*
X8566253Y-15391127D02*
X8556729Y-15419698D01*
X8556729Y-15419698D02*
X8442444Y-15533984D01*
X8442444Y-15533984D02*
X8566253Y-15533984D01*
X8690063Y-15333984D02*
X8709110Y-15333984D01*
X8709110Y-15333984D02*
X8728158Y-15343508D01*
X8728158Y-15343508D02*
X8737682Y-15353031D01*
X8737682Y-15353031D02*
X8747205Y-15372079D01*
X8747205Y-15372079D02*
X8756729Y-15410174D01*
X8756729Y-15410174D02*
X8756729Y-15457793D01*
X8756729Y-15457793D02*
X8747205Y-15495888D01*
X8747205Y-15495888D02*
X8737682Y-15514936D01*
X8737682Y-15514936D02*
X8728158Y-15524460D01*
X8728158Y-15524460D02*
X8709110Y-15533984D01*
X8709110Y-15533984D02*
X8690063Y-15533984D01*
X8690063Y-15533984D02*
X8671015Y-15524460D01*
X8671015Y-15524460D02*
X8661491Y-15514936D01*
X8661491Y-15514936D02*
X8651967Y-15495888D01*
X8651967Y-15495888D02*
X8642444Y-15457793D01*
X8642444Y-15457793D02*
X8642444Y-15410174D01*
X8642444Y-15410174D02*
X8651967Y-15372079D01*
X8651967Y-15372079D02*
X8661491Y-15353031D01*
X8661491Y-15353031D02*
X8671015Y-15343508D01*
X8671015Y-15343508D02*
X8690063Y-15333984D01*
X8880539Y-15333984D02*
X8899586Y-15333984D01*
X8899586Y-15333984D02*
X8918634Y-15343508D01*
X8918634Y-15343508D02*
X8928158Y-15353031D01*
X8928158Y-15353031D02*
X8937682Y-15372079D01*
X8937682Y-15372079D02*
X8947205Y-15410174D01*
X8947205Y-15410174D02*
X8947205Y-15457793D01*
X8947205Y-15457793D02*
X8937682Y-15495888D01*
X8937682Y-15495888D02*
X8928158Y-15514936D01*
X8928158Y-15514936D02*
X8918634Y-15524460D01*
X8918634Y-15524460D02*
X8899586Y-15533984D01*
X8899586Y-15533984D02*
X8880539Y-15533984D01*
X8880539Y-15533984D02*
X8861491Y-15524460D01*
X8861491Y-15524460D02*
X8851967Y-15514936D01*
X8851967Y-15514936D02*
X8842444Y-15495888D01*
X8842444Y-15495888D02*
X8832920Y-15457793D01*
X8832920Y-15457793D02*
X8832920Y-15410174D01*
X8832920Y-15410174D02*
X8842444Y-15372079D01*
X8842444Y-15372079D02*
X8851967Y-15353031D01*
X8851967Y-15353031D02*
X8861491Y-15343508D01*
X8861491Y-15343508D02*
X8880539Y-15333984D01*
X9032920Y-15533984D02*
X9032920Y-15400650D01*
X9032920Y-15419698D02*
X9042444Y-15410174D01*
X9042444Y-15410174D02*
X9061491Y-15400650D01*
X9061491Y-15400650D02*
X9090063Y-15400650D01*
X9090063Y-15400650D02*
X9109110Y-15410174D01*
X9109110Y-15410174D02*
X9118634Y-15429222D01*
X9118634Y-15429222D02*
X9118634Y-15533984D01*
X9118634Y-15429222D02*
X9128158Y-15410174D01*
X9128158Y-15410174D02*
X9147205Y-15400650D01*
X9147205Y-15400650D02*
X9175777Y-15400650D01*
X9175777Y-15400650D02*
X9194825Y-15410174D01*
X9194825Y-15410174D02*
X9204348Y-15429222D01*
X9204348Y-15429222D02*
X9204348Y-15533984D01*
X9299586Y-15533984D02*
X9299586Y-15400650D01*
X9299586Y-15419698D02*
X9309110Y-15410174D01*
X9309110Y-15410174D02*
X9328158Y-15400650D01*
X9328158Y-15400650D02*
X9356729Y-15400650D01*
X9356729Y-15400650D02*
X9375777Y-15410174D01*
X9375777Y-15410174D02*
X9385301Y-15429222D01*
X9385301Y-15429222D02*
X9385301Y-15533984D01*
X9385301Y-15429222D02*
X9394825Y-15410174D01*
X9394825Y-15410174D02*
X9413872Y-15400650D01*
X9413872Y-15400650D02*
X9442444Y-15400650D01*
X9442444Y-15400650D02*
X9461491Y-15410174D01*
X9461491Y-15410174D02*
X9471015Y-15429222D01*
X9471015Y-15429222D02*
X9471015Y-15533984D01*
X9861491Y-15324460D02*
X9690063Y-15581603D01*
X10118634Y-15333984D02*
X10137682Y-15333984D01*
X10137682Y-15333984D02*
X10156729Y-15343508D01*
X10156729Y-15343508D02*
X10166253Y-15353031D01*
X10166253Y-15353031D02*
X10175777Y-15372079D01*
X10175777Y-15372079D02*
X10185301Y-15410174D01*
X10185301Y-15410174D02*
X10185301Y-15457793D01*
X10185301Y-15457793D02*
X10175777Y-15495888D01*
X10175777Y-15495888D02*
X10166253Y-15514936D01*
X10166253Y-15514936D02*
X10156729Y-15524460D01*
X10156729Y-15524460D02*
X10137682Y-15533984D01*
X10137682Y-15533984D02*
X10118634Y-15533984D01*
X10118634Y-15533984D02*
X10099587Y-15524460D01*
X10099587Y-15524460D02*
X10090063Y-15514936D01*
X10090063Y-15514936D02*
X10080539Y-15495888D01*
X10080539Y-15495888D02*
X10071015Y-15457793D01*
X10071015Y-15457793D02*
X10071015Y-15410174D01*
X10071015Y-15410174D02*
X10080539Y-15372079D01*
X10080539Y-15372079D02*
X10090063Y-15353031D01*
X10090063Y-15353031D02*
X10099587Y-15343508D01*
X10099587Y-15343508D02*
X10118634Y-15333984D01*
X10271015Y-15514936D02*
X10280539Y-15524460D01*
X10280539Y-15524460D02*
X10271015Y-15533984D01*
X10271015Y-15533984D02*
X10261491Y-15524460D01*
X10261491Y-15524460D02*
X10271015Y-15514936D01*
X10271015Y-15514936D02*
X10271015Y-15533984D01*
X10471015Y-15533984D02*
X10356729Y-15533984D01*
X10413872Y-15533984D02*
X10413872Y-15333984D01*
X10413872Y-15333984D02*
X10394825Y-15362555D01*
X10394825Y-15362555D02*
X10375777Y-15381603D01*
X10375777Y-15381603D02*
X10356729Y-15391127D01*
X10547206Y-15353031D02*
X10556729Y-15343508D01*
X10556729Y-15343508D02*
X10575777Y-15333984D01*
X10575777Y-15333984D02*
X10623396Y-15333984D01*
X10623396Y-15333984D02*
X10642444Y-15343508D01*
X10642444Y-15343508D02*
X10651968Y-15353031D01*
X10651968Y-15353031D02*
X10661491Y-15372079D01*
X10661491Y-15372079D02*
X10661491Y-15391127D01*
X10661491Y-15391127D02*
X10651968Y-15419698D01*
X10651968Y-15419698D02*
X10537682Y-15533984D01*
X10537682Y-15533984D02*
X10661491Y-15533984D01*
X10832920Y-15333984D02*
X10794825Y-15333984D01*
X10794825Y-15333984D02*
X10775777Y-15343508D01*
X10775777Y-15343508D02*
X10766253Y-15353031D01*
X10766253Y-15353031D02*
X10747206Y-15381603D01*
X10747206Y-15381603D02*
X10737682Y-15419698D01*
X10737682Y-15419698D02*
X10737682Y-15495888D01*
X10737682Y-15495888D02*
X10747206Y-15514936D01*
X10747206Y-15514936D02*
X10756729Y-15524460D01*
X10756729Y-15524460D02*
X10775777Y-15533984D01*
X10775777Y-15533984D02*
X10813872Y-15533984D01*
X10813872Y-15533984D02*
X10832920Y-15524460D01*
X10832920Y-15524460D02*
X10842444Y-15514936D01*
X10842444Y-15514936D02*
X10851968Y-15495888D01*
X10851968Y-15495888D02*
X10851968Y-15448269D01*
X10851968Y-15448269D02*
X10842444Y-15429222D01*
X10842444Y-15429222D02*
X10832920Y-15419698D01*
X10832920Y-15419698D02*
X10813872Y-15410174D01*
X10813872Y-15410174D02*
X10775777Y-15410174D01*
X10775777Y-15410174D02*
X10756729Y-15419698D01*
X10756729Y-15419698D02*
X10747206Y-15429222D01*
X10747206Y-15429222D02*
X10737682Y-15448269D01*
X10975777Y-15333984D02*
X10994825Y-15333984D01*
X10994825Y-15333984D02*
X11013872Y-15343508D01*
X11013872Y-15343508D02*
X11023396Y-15353031D01*
X11023396Y-15353031D02*
X11032920Y-15372079D01*
X11032920Y-15372079D02*
X11042444Y-15410174D01*
X11042444Y-15410174D02*
X11042444Y-15457793D01*
X11042444Y-15457793D02*
X11032920Y-15495888D01*
X11032920Y-15495888D02*
X11023396Y-15514936D01*
X11023396Y-15514936D02*
X11013872Y-15524460D01*
X11013872Y-15524460D02*
X10994825Y-15533984D01*
X10994825Y-15533984D02*
X10975777Y-15533984D01*
X10975777Y-15533984D02*
X10956729Y-15524460D01*
X10956729Y-15524460D02*
X10947206Y-15514936D01*
X10947206Y-15514936D02*
X10937682Y-15495888D01*
X10937682Y-15495888D02*
X10928158Y-15457793D01*
X10928158Y-15457793D02*
X10928158Y-15410174D01*
X10928158Y-15410174D02*
X10937682Y-15372079D01*
X10937682Y-15372079D02*
X10947206Y-15353031D01*
X10947206Y-15353031D02*
X10956729Y-15343508D01*
X10956729Y-15343508D02*
X10975777Y-15333984D01*
X11118634Y-15333984D02*
X11118634Y-15372079D01*
X11194825Y-15333984D02*
X11194825Y-15372079D01*
X11490063Y-15610174D02*
X11480539Y-15600650D01*
X11480539Y-15600650D02*
X11461491Y-15572079D01*
X11461491Y-15572079D02*
X11451968Y-15553031D01*
X11451968Y-15553031D02*
X11442444Y-15524460D01*
X11442444Y-15524460D02*
X11432920Y-15476841D01*
X11432920Y-15476841D02*
X11432920Y-15438746D01*
X11432920Y-15438746D02*
X11442444Y-15391127D01*
X11442444Y-15391127D02*
X11451968Y-15362555D01*
X11451968Y-15362555D02*
X11461491Y-15343508D01*
X11461491Y-15343508D02*
X11480539Y-15314936D01*
X11480539Y-15314936D02*
X11490063Y-15305412D01*
X11651968Y-15400650D02*
X11651968Y-15533984D01*
X11604348Y-15324460D02*
X11556729Y-15467317D01*
X11556729Y-15467317D02*
X11680539Y-15467317D01*
X11909110Y-15533984D02*
X11909110Y-15333984D01*
X11994825Y-15533984D02*
X11994825Y-15429222D01*
X11994825Y-15429222D02*
X11985301Y-15410174D01*
X11985301Y-15410174D02*
X11966253Y-15400650D01*
X11966253Y-15400650D02*
X11937682Y-15400650D01*
X11937682Y-15400650D02*
X11918634Y-15410174D01*
X11918634Y-15410174D02*
X11909110Y-15419698D01*
X12118634Y-15533984D02*
X12099587Y-15524460D01*
X12099587Y-15524460D02*
X12090063Y-15514936D01*
X12090063Y-15514936D02*
X12080539Y-15495888D01*
X12080539Y-15495888D02*
X12080539Y-15438746D01*
X12080539Y-15438746D02*
X12090063Y-15419698D01*
X12090063Y-15419698D02*
X12099587Y-15410174D01*
X12099587Y-15410174D02*
X12118634Y-15400650D01*
X12118634Y-15400650D02*
X12147206Y-15400650D01*
X12147206Y-15400650D02*
X12166253Y-15410174D01*
X12166253Y-15410174D02*
X12175777Y-15419698D01*
X12175777Y-15419698D02*
X12185301Y-15438746D01*
X12185301Y-15438746D02*
X12185301Y-15495888D01*
X12185301Y-15495888D02*
X12175777Y-15514936D01*
X12175777Y-15514936D02*
X12166253Y-15524460D01*
X12166253Y-15524460D02*
X12147206Y-15533984D01*
X12147206Y-15533984D02*
X12118634Y-15533984D01*
X12299587Y-15533984D02*
X12280539Y-15524460D01*
X12280539Y-15524460D02*
X12271015Y-15505412D01*
X12271015Y-15505412D02*
X12271015Y-15333984D01*
X12451968Y-15524460D02*
X12432920Y-15533984D01*
X12432920Y-15533984D02*
X12394825Y-15533984D01*
X12394825Y-15533984D02*
X12375777Y-15524460D01*
X12375777Y-15524460D02*
X12366253Y-15505412D01*
X12366253Y-15505412D02*
X12366253Y-15429222D01*
X12366253Y-15429222D02*
X12375777Y-15410174D01*
X12375777Y-15410174D02*
X12394825Y-15400650D01*
X12394825Y-15400650D02*
X12432920Y-15400650D01*
X12432920Y-15400650D02*
X12451968Y-15410174D01*
X12451968Y-15410174D02*
X12461491Y-15429222D01*
X12461491Y-15429222D02*
X12461491Y-15448269D01*
X12461491Y-15448269D02*
X12366253Y-15467317D01*
X12537682Y-15524460D02*
X12556730Y-15533984D01*
X12556730Y-15533984D02*
X12594825Y-15533984D01*
X12594825Y-15533984D02*
X12613872Y-15524460D01*
X12613872Y-15524460D02*
X12623396Y-15505412D01*
X12623396Y-15505412D02*
X12623396Y-15495888D01*
X12623396Y-15495888D02*
X12613872Y-15476841D01*
X12613872Y-15476841D02*
X12594825Y-15467317D01*
X12594825Y-15467317D02*
X12566253Y-15467317D01*
X12566253Y-15467317D02*
X12547206Y-15457793D01*
X12547206Y-15457793D02*
X12537682Y-15438746D01*
X12537682Y-15438746D02*
X12537682Y-15429222D01*
X12537682Y-15429222D02*
X12547206Y-15410174D01*
X12547206Y-15410174D02*
X12566253Y-15400650D01*
X12566253Y-15400650D02*
X12594825Y-15400650D01*
X12594825Y-15400650D02*
X12613872Y-15410174D01*
X12690063Y-15610174D02*
X12699587Y-15600650D01*
X12699587Y-15600650D02*
X12718634Y-15572079D01*
X12718634Y-15572079D02*
X12728158Y-15553031D01*
X12728158Y-15553031D02*
X12737682Y-15524460D01*
X12737682Y-15524460D02*
X12747206Y-15476841D01*
X12747206Y-15476841D02*
X12747206Y-15438746D01*
X12747206Y-15438746D02*
X12737682Y-15391127D01*
X12737682Y-15391127D02*
X12728158Y-15362555D01*
X12728158Y-15362555D02*
X12718634Y-15343508D01*
X12718634Y-15343508D02*
X12699587Y-15314936D01*
X12699587Y-15314936D02*
X12690063Y-15305412D01*
X13051968Y-15610174D02*
X13042444Y-15600650D01*
X13042444Y-15600650D02*
X13023396Y-15572079D01*
X13023396Y-15572079D02*
X13013872Y-15553031D01*
X13013872Y-15553031D02*
X13004349Y-15524460D01*
X13004349Y-15524460D02*
X12994825Y-15476841D01*
X12994825Y-15476841D02*
X12994825Y-15438746D01*
X12994825Y-15438746D02*
X13004349Y-15391127D01*
X13004349Y-15391127D02*
X13013872Y-15362555D01*
X13013872Y-15362555D02*
X13023396Y-15343508D01*
X13023396Y-15343508D02*
X13042444Y-15314936D01*
X13042444Y-15314936D02*
X13051968Y-15305412D01*
X13128158Y-15400650D02*
X13128158Y-15533984D01*
X13128158Y-15419698D02*
X13137682Y-15410174D01*
X13137682Y-15410174D02*
X13156730Y-15400650D01*
X13156730Y-15400650D02*
X13185301Y-15400650D01*
X13185301Y-15400650D02*
X13204349Y-15410174D01*
X13204349Y-15410174D02*
X13213872Y-15429222D01*
X13213872Y-15429222D02*
X13213872Y-15533984D01*
X13337682Y-15533984D02*
X13318634Y-15524460D01*
X13318634Y-15524460D02*
X13309111Y-15514936D01*
X13309111Y-15514936D02*
X13299587Y-15495888D01*
X13299587Y-15495888D02*
X13299587Y-15438746D01*
X13299587Y-15438746D02*
X13309111Y-15419698D01*
X13309111Y-15419698D02*
X13318634Y-15410174D01*
X13318634Y-15410174D02*
X13337682Y-15400650D01*
X13337682Y-15400650D02*
X13366253Y-15400650D01*
X13366253Y-15400650D02*
X13385301Y-15410174D01*
X13385301Y-15410174D02*
X13394825Y-15419698D01*
X13394825Y-15419698D02*
X13404349Y-15438746D01*
X13404349Y-15438746D02*
X13404349Y-15495888D01*
X13404349Y-15495888D02*
X13394825Y-15514936D01*
X13394825Y-15514936D02*
X13385301Y-15524460D01*
X13385301Y-15524460D02*
X13366253Y-15533984D01*
X13366253Y-15533984D02*
X13337682Y-15533984D01*
X13461492Y-15400650D02*
X13537682Y-15400650D01*
X13490063Y-15333984D02*
X13490063Y-15505412D01*
X13490063Y-15505412D02*
X13499587Y-15524460D01*
X13499587Y-15524460D02*
X13518634Y-15533984D01*
X13518634Y-15533984D02*
X13537682Y-15533984D01*
X13756730Y-15400650D02*
X13756730Y-15600650D01*
X13756730Y-15410174D02*
X13775777Y-15400650D01*
X13775777Y-15400650D02*
X13813873Y-15400650D01*
X13813873Y-15400650D02*
X13832920Y-15410174D01*
X13832920Y-15410174D02*
X13842444Y-15419698D01*
X13842444Y-15419698D02*
X13851968Y-15438746D01*
X13851968Y-15438746D02*
X13851968Y-15495888D01*
X13851968Y-15495888D02*
X13842444Y-15514936D01*
X13842444Y-15514936D02*
X13832920Y-15524460D01*
X13832920Y-15524460D02*
X13813873Y-15533984D01*
X13813873Y-15533984D02*
X13775777Y-15533984D01*
X13775777Y-15533984D02*
X13756730Y-15524460D01*
X13966253Y-15533984D02*
X13947206Y-15524460D01*
X13947206Y-15524460D02*
X13937682Y-15505412D01*
X13937682Y-15505412D02*
X13937682Y-15333984D01*
X14128158Y-15533984D02*
X14128158Y-15429222D01*
X14128158Y-15429222D02*
X14118634Y-15410174D01*
X14118634Y-15410174D02*
X14099587Y-15400650D01*
X14099587Y-15400650D02*
X14061492Y-15400650D01*
X14061492Y-15400650D02*
X14042444Y-15410174D01*
X14128158Y-15524460D02*
X14109111Y-15533984D01*
X14109111Y-15533984D02*
X14061492Y-15533984D01*
X14061492Y-15533984D02*
X14042444Y-15524460D01*
X14042444Y-15524460D02*
X14032920Y-15505412D01*
X14032920Y-15505412D02*
X14032920Y-15486365D01*
X14032920Y-15486365D02*
X14042444Y-15467317D01*
X14042444Y-15467317D02*
X14061492Y-15457793D01*
X14061492Y-15457793D02*
X14109111Y-15457793D01*
X14109111Y-15457793D02*
X14128158Y-15448269D01*
X14194825Y-15400650D02*
X14271015Y-15400650D01*
X14223396Y-15333984D02*
X14223396Y-15505412D01*
X14223396Y-15505412D02*
X14232920Y-15524460D01*
X14232920Y-15524460D02*
X14251968Y-15533984D01*
X14251968Y-15533984D02*
X14271015Y-15533984D01*
X14413873Y-15524460D02*
X14394825Y-15533984D01*
X14394825Y-15533984D02*
X14356730Y-15533984D01*
X14356730Y-15533984D02*
X14337682Y-15524460D01*
X14337682Y-15524460D02*
X14328158Y-15505412D01*
X14328158Y-15505412D02*
X14328158Y-15429222D01*
X14328158Y-15429222D02*
X14337682Y-15410174D01*
X14337682Y-15410174D02*
X14356730Y-15400650D01*
X14356730Y-15400650D02*
X14394825Y-15400650D01*
X14394825Y-15400650D02*
X14413873Y-15410174D01*
X14413873Y-15410174D02*
X14423396Y-15429222D01*
X14423396Y-15429222D02*
X14423396Y-15448269D01*
X14423396Y-15448269D02*
X14328158Y-15467317D01*
X14594825Y-15533984D02*
X14594825Y-15333984D01*
X14594825Y-15524460D02*
X14575777Y-15533984D01*
X14575777Y-15533984D02*
X14537682Y-15533984D01*
X14537682Y-15533984D02*
X14518634Y-15524460D01*
X14518634Y-15524460D02*
X14509111Y-15514936D01*
X14509111Y-15514936D02*
X14499587Y-15495888D01*
X14499587Y-15495888D02*
X14499587Y-15438746D01*
X14499587Y-15438746D02*
X14509111Y-15419698D01*
X14509111Y-15419698D02*
X14518634Y-15410174D01*
X14518634Y-15410174D02*
X14537682Y-15400650D01*
X14537682Y-15400650D02*
X14575777Y-15400650D01*
X14575777Y-15400650D02*
X14594825Y-15410174D01*
X14671015Y-15610174D02*
X14680539Y-15600650D01*
X14680539Y-15600650D02*
X14699587Y-15572079D01*
X14699587Y-15572079D02*
X14709111Y-15553031D01*
X14709111Y-15553031D02*
X14718634Y-15524460D01*
X14718634Y-15524460D02*
X14728158Y-15476841D01*
X14728158Y-15476841D02*
X14728158Y-15438746D01*
X14728158Y-15438746D02*
X14718634Y-15391127D01*
X14718634Y-15391127D02*
X14709111Y-15362555D01*
X14709111Y-15362555D02*
X14699587Y-15343508D01*
X14699587Y-15343508D02*
X14680539Y-15314936D01*
X14680539Y-15314936D02*
X14671015Y-15305412D01*
M02*
