M48
; DRILL file {KiCad 9.0.1} date 2026-01-14T23:07:25-0500
; FORMAT={-:-/ absolute / metric / decimal}
; #@! TF.CreationDate,2026-01-14T23:07:25-05:00
; #@! TF.GenerationSoftware,Kicad,Pcbnew,9.0.1
; #@! TF.FileFunction,Plated,1,2,PTH
FMAT,2
METRIC
; #@! TA.AperFunction,Plated,PTH,ViaDrill
T1C0.400
; #@! TA.AperFunction,Plated,PTH,ComponentDrill
T2C0.760
; #@! TA.AperFunction,Plated,PTH,ComponentDrill
T3C1.000
; #@! TA.AperFunction,Plated,PTH,ComponentDrill
T4C1.200
; #@! TA.AperFunction,Plated,PTH,ComponentDrill
T5C3.200
%
G90
G05
T1
X44.75Y-57.5
X44.75Y-63.5
X44.75Y-70.5
X44.75Y-77.75
X44.75Y-84.75
X44.75Y-94.5
X44.75Y-102.25
X44.75Y-108.0
X44.75Y-113.75
X44.75Y-118.5
X47.5Y-53.0
X48.0Y-119.75
X49.75Y-50.25
X49.75Y-55.75
X50.0Y-84.75
X50.25Y-70.5
X50.25Y-77.75
X50.25Y-94.0
X50.5Y-62.5
X50.5Y-110.75
X50.5Y-116.5
X52.5Y-53.0
X52.5Y-59.0
X52.75Y-113.5
X52.75Y-119.75
X53.9Y-85.25
X53.9Y-86.75
X55.0Y-50.25
X55.0Y-55.75
X55.0Y-110.75
X55.0Y-116.5
X55.25Y-102.25
X56.175Y-75.75
X56.75Y-81.0
X57.0Y-113.5
X57.0Y-120.0
X57.175Y-100.5
X57.25Y-53.0
X57.25Y-59.0
X59.0Y-110.75
X59.0Y-116.5
X59.75Y-55.75
X60.0Y-50.25
X60.0Y-107.5
X60.175Y-90.0
X60.175Y-93.75
X60.175Y-98.5
X60.65Y-85.25
X60.675Y-86.75
X61.0Y-66.25
X61.0Y-69.75
X62.0Y-53.0
X62.0Y-120.0
X62.175Y-78.5
X62.175Y-81.5
X62.675Y-73.75
X62.675Y-103.25
X62.925Y-107.0
X63.65Y-88.0
X63.75Y-69.25
X63.75Y-91.25
X63.75Y-94.75
X64.175Y-77.0
X64.25Y-109.25
X64.425Y-80.25
X65.0Y-121.0
X67.5Y-53.0
X68.25Y-80.5
X68.25Y-94.0
X68.425Y-77.0
X68.5Y-86.75
X68.5Y-90.0
X68.675Y-71.25
X68.675Y-74.5
X68.75Y-116.0
X69.25Y-121.0
X69.675Y-68.75
X69.675Y-73.0
X69.75Y-83.75
X70.5Y-78.75
X71.25Y-88.5
X71.25Y-95.5
X71.25Y-100.0
X71.25Y-103.25
X71.25Y-108.0
X71.25Y-113.0
X71.25Y-118.5
X72.25Y-53.0
X72.425Y-76.25
X72.425Y-80.25
X72.425Y-83.75
X72.75Y-50.0
X73.25Y-55.75
X73.75Y-116.0
X73.75Y-121.0
X74.25Y-91.75
X74.25Y-95.5
X74.25Y-101.25
X74.5Y-110.0
X75.75Y-118.5
X76.0Y-104.0
X76.25Y-93.5
X76.25Y-97.75
X76.5Y-107.5
X77.0Y-112.5
X77.25Y-53.0
X77.75Y-102.0
X77.75Y-105.75
X78.25Y-121.0
X78.75Y-109.5
X79.25Y-61.75
X79.25Y-114.75
X80.0Y-65.25
X80.75Y-58.25
X81.0Y-93.25
X81.0Y-97.75
X81.425Y-74.75
X81.75Y-100.5
X81.925Y-78.75
X82.5Y-69.5
X82.5Y-85.5
X82.75Y-89.5
X83.0Y-53.0
X83.0Y-95.75
X83.425Y-65.5
X83.75Y-80.5
X84.0Y-72.0
X84.25Y-112.0
X84.25Y-116.0
X84.25Y-120.25
X85.25Y-108.0
X85.5Y-76.25
X86.25Y-98.25
X86.25Y-103.0
X86.5Y-50.0
X86.5Y-55.75
X87.0Y-67.75
X87.0Y-69.25
X87.5Y-80.5
X87.5Y-118.0
X87.5Y-122.5
X87.75Y-60.75
X87.75Y-93.5
X87.75Y-113.75
X88.0Y-63.25
X88.75Y-90.75
X89.0Y-53.0
X89.0Y-72.0
X89.0Y-106.5
X89.5Y-101.0
X90.0Y-67.5
X90.25Y-97.0
X90.5Y-93.25
X90.75Y-80.5
X90.75Y-84.25
X90.75Y-89.0
X91.25Y-58.0
X91.25Y-64.0
X91.25Y-68.5
X91.5Y-115.0
X92.0Y-74.75
X92.25Y-104.25
X92.75Y-108.5
X93.0Y-99.75
X93.25Y-83.25
X93.25Y-96.0
X93.5Y-53.0
X94.25Y-71.5
X94.25Y-77.0
X94.75Y-93.25
X95.0Y-60.85
X95.25Y-66.0
X95.5Y-50.0
X95.5Y-122.5
X95.541Y-89.719
X95.75Y-82.75
X96.25Y-98.5
X96.25Y-102.75
X96.25Y-107.0
X96.25Y-111.5
X96.25Y-117.0
X96.5Y-93.25
X96.75Y-82.75
X96.75Y-90.0
X97.75Y-53.0
X98.0Y-57.75
X98.0Y-61.75
X98.25Y-64.75
X98.75Y-114.25
X100.25Y-110.75
X101.25Y-60.5
X101.5Y-50.0
X101.5Y-122.5
X104.0Y-107.5
X104.25Y-62.5
X105.0Y-74.5
X105.0Y-86.5
X105.0Y-98.5
X106.0Y-54.25
X106.5Y-110.75
X106.5Y-116.0
X106.75Y-59.75
T2
X50.317Y-67.89
X50.425Y-106.9
X51.587Y-65.35
X51.695Y-104.36
X52.857Y-67.89
X52.965Y-106.9
X54.127Y-65.35
X54.235Y-104.36
X55.398Y-67.89
X55.505Y-106.9
X56.667Y-65.35
X56.775Y-104.36
X57.938Y-67.89
X58.045Y-106.9
X59.207Y-65.35
X59.315Y-104.36
T3
X66.425Y-102.88
X66.425Y-105.42
X66.425Y-107.96
X66.425Y-110.5
X66.425Y-113.04
X66.425Y-115.58
X66.425Y-118.12
X81.665Y-102.88
X81.665Y-105.42
X81.665Y-107.96
X81.665Y-110.5
X81.665Y-113.04
X81.665Y-115.58
X81.665Y-118.12
X86.775Y-82.95
X86.775Y-85.49
X86.775Y-88.03
X86.775Y-90.57
T4
X66.25Y-56.117
X69.75Y-56.117
X76.0Y-56.0
X79.5Y-56.0
X83.0Y-56.0
X89.75Y-56.0
X89.75Y-116.875
X93.25Y-56.0
X93.25Y-116.875
X100.5Y-65.0
X100.5Y-68.5
X100.5Y-72.0
X100.5Y-77.0
X100.5Y-80.5
X100.5Y-84.0
X100.5Y-89.0
X100.5Y-92.5
X100.5Y-96.0
X100.5Y-101.0
X100.5Y-104.5
X100.5Y-108.0
T5
X47.75Y-74.0
X47.75Y-98.25
X101.425Y-117.5
X101.425Y-55.0
M30
