%TF.GenerationSoftware,KiCad,Pcbnew,9.0.1*%
%TF.CreationDate,2025-04-25T16:38:00-04:00*%
%TF.ProjectId,pcb,7063622e-6b69-4636-9164-5f7063625858,1.0*%
%TF.SameCoordinates,Original*%
%TF.FileFunction,Soldermask,Bot*%
%TF.FilePolarity,Negative*%
%FSLAX46Y46*%
G04 Gerber Fmt 4.6, Leading zero omitted, Abs format (unit mm)*
G04 Created by KiCad (PCBNEW 9.0.1) date 2025-04-25 16:38:00*
%MOMM*%
%LPD*%
G01*
G04 APERTURE LIST*
G04 Aperture macros list*
%AMRoundRect*
0 Rectangle with rounded corners*
0 $1 Rounding radius*
0 $2 $3 $4 $5 $6 $7 $8 $9 X,Y pos of 4 corners*
0 Add a 4 corners polygon primitive as box body*
4,1,4,$2,$3,$4,$5,$6,$7,$8,$9,$2,$3,0*
0 Add four circle primitives for the rounded corners*
1,1,$1+$1,$2,$3*
1,1,$1+$1,$4,$5*
1,1,$1+$1,$6,$7*
1,1,$1+$1,$8,$9*
0 Add four rect primitives between the rounded corners*
20,1,$1+$1,$2,$3,$4,$5,0*
20,1,$1+$1,$4,$5,$6,$7,0*
20,1,$1+$1,$6,$7,$8,$9,0*
20,1,$1+$1,$8,$9,$2,$3,0*%
G04 Aperture macros list end*
%ADD10C,2.400000*%
%ADD11RoundRect,0.250001X0.949999X-0.949999X0.949999X0.949999X-0.949999X0.949999X-0.949999X-0.949999X0*%
%ADD12C,6.400000*%
%ADD13C,1.500000*%
%ADD14R,1.500000X1.500000*%
%ADD15C,3.200000*%
%ADD16R,1.700000X1.700000*%
%ADD17C,1.700000*%
%ADD18RoundRect,0.250001X0.949999X0.949999X-0.949999X0.949999X-0.949999X-0.949999X0.949999X-0.949999X0*%
%ADD19O,3.000000X2.000000*%
%ADD20R,2.400000X2.400000*%
G04 APERTURE END LIST*
D10*
%TO.C,J7*%
X136250000Y-113500000D03*
X136250000Y-117000000D03*
D11*
X136250000Y-120500000D03*
%TD*%
%TO.C,J2*%
X136250000Y-132500000D03*
D10*
X136250000Y-129000000D03*
X136250000Y-125500000D03*
%TD*%
D12*
%TO.C,H1*%
X137175000Y-79500000D03*
%TD*%
%TO.C,H2*%
X137174996Y-142000000D03*
%TD*%
D13*
%TO.C,J4*%
X86067500Y-92390000D03*
X87337500Y-89850000D03*
X88607500Y-92390000D03*
X89877500Y-89850000D03*
X91147500Y-92390000D03*
X92417500Y-89850000D03*
X93687500Y-92390000D03*
D14*
X94957500Y-89850000D03*
D15*
X84797500Y-83500000D03*
X96227500Y-83500000D03*
%TD*%
D16*
%TO.C,J11*%
X122525000Y-107450000D03*
D17*
X122525000Y-109990000D03*
X122525000Y-112530000D03*
X122525000Y-115070000D03*
%TD*%
D18*
%TO.C,J10*%
X118750000Y-80500000D03*
D10*
X115250000Y-80500000D03*
X111750000Y-80500000D03*
%TD*%
D11*
%TO.C,J9*%
X136250000Y-96500000D03*
D10*
X136250000Y-93000000D03*
X136250000Y-89500000D03*
%TD*%
D11*
%TO.C,J8*%
X136250000Y-108500000D03*
D10*
X136250000Y-105000000D03*
X136250000Y-101500000D03*
%TD*%
D18*
%TO.C,J6*%
X129000000Y-80500000D03*
D10*
X125500000Y-80500000D03*
%TD*%
D19*
%TO.C,U8*%
X117415000Y-142620000D03*
X117415000Y-140080000D03*
X117415000Y-137540000D03*
X117415000Y-135000000D03*
X117415000Y-132460000D03*
X117415000Y-129920000D03*
X117415000Y-127380000D03*
X102175000Y-127380000D03*
X102175000Y-129920000D03*
X102175000Y-132460000D03*
X102175000Y-135000000D03*
X102175000Y-137540000D03*
X102175000Y-140080000D03*
X102175000Y-142620000D03*
%TD*%
D15*
%TO.C,J3*%
X84905000Y-137750000D03*
X96335000Y-137750000D03*
D14*
X86175000Y-131400000D03*
D13*
X87445000Y-128860000D03*
X88715000Y-131400000D03*
X89985000Y-128860000D03*
X91255000Y-131400000D03*
X92525000Y-128860000D03*
X93795000Y-131400000D03*
X95065000Y-128860000D03*
%TD*%
D12*
%TO.C,H4*%
X83500000Y-98500000D03*
%TD*%
D20*
%TO.C,J5*%
X125500000Y-141375000D03*
D10*
X129000000Y-141375000D03*
%TD*%
D20*
%TO.C,J1*%
X105500000Y-80617500D03*
D10*
X102000000Y-80617500D03*
%TD*%
D12*
%TO.C,H3*%
X83500000Y-122750000D03*
%TD*%
M02*
