%TF.GenerationSoftware,KiCad,Pcbnew,8.0.4*%
%TF.CreationDate,2024-08-28T22:22:44-04:00*%
%TF.ProjectId,pcb,7063622e-6b69-4636-9164-5f7063625858,1.0*%
%TF.SameCoordinates,Original*%
%TF.FileFunction,Drillmap*%
%TF.FilePolarity,Positive*%
%FSLAX45Y45*%
G04 Gerber Fmt 4.5, Leading zero omitted, Abs format (unit mm)*
G04 Created by KiCad (PCBNEW 8.0.4) date 2024-08-28 22:22:44*
%MOMM*%
%LPD*%
G01*
G04 APERTURE LIST*
%ADD10C,0.050000*%
%ADD11C,0.200000*%
%ADD12C,0.100000*%
%ADD13C,0.120000*%
%ADD14C,0.320000*%
G04 APERTURE END LIST*
D10*
X7917500Y-14200000D02*
X7917500Y-7950000D01*
X8517500Y-14800000D02*
X18917500Y-14800000D01*
X18917500Y-7350000D02*
G75*
G02*
X19517500Y-7950000I0J-600000D01*
G01*
X18917500Y-7350000D02*
X8517500Y-7350000D01*
X8517500Y-14800000D02*
G75*
G02*
X7917500Y-14200000I0J600000D01*
G01*
X19517500Y-14200000D02*
G75*
G02*
X18917500Y-14800000I-600000J0D01*
G01*
X7917500Y-7950000D02*
G75*
G02*
X8517500Y-7350000I600000J0D01*
G01*
X19517500Y-7950000D02*
X19517500Y-14200000D01*
D11*
D12*
X8030000Y-9480000D02*
X8070000Y-9520000D01*
X8070000Y-9480000D02*
X8030000Y-9520000D01*
X8030000Y-10205000D02*
X8070000Y-10245000D01*
X8070000Y-10205000D02*
X8030000Y-10245000D01*
X8030000Y-10905000D02*
X8070000Y-10945000D01*
X8070000Y-10905000D02*
X8030000Y-10945000D01*
X8030000Y-11880000D02*
X8070000Y-11920000D01*
X8070000Y-11880000D02*
X8030000Y-11920000D01*
X8030000Y-12655000D02*
X8070000Y-12695000D01*
X8070000Y-12655000D02*
X8030000Y-12695000D01*
X8555000Y-10905000D02*
X8595000Y-10945000D01*
X8595000Y-10905000D02*
X8555000Y-10945000D01*
X8580000Y-9480000D02*
X8620000Y-9520000D01*
X8620000Y-9480000D02*
X8580000Y-9520000D01*
X8580000Y-10205000D02*
X8620000Y-10245000D01*
X8620000Y-10205000D02*
X8580000Y-10245000D01*
X8580000Y-11830000D02*
X8620000Y-11870000D01*
X8620000Y-11830000D02*
X8580000Y-11870000D01*
X8605000Y-13505000D02*
X8645000Y-13545000D01*
X8645000Y-13505000D02*
X8605000Y-13545000D01*
X8605000Y-14080000D02*
X8645000Y-14120000D01*
X8645000Y-14080000D02*
X8605000Y-14120000D01*
X8730000Y-8130000D02*
X8770000Y-8170000D01*
X8770000Y-8130000D02*
X8730000Y-8170000D01*
X8830000Y-13780000D02*
X8870000Y-13820000D01*
X8870000Y-13780000D02*
X8830000Y-13820000D01*
X8945000Y-10955000D02*
X8985000Y-10995000D01*
X8985000Y-10955000D02*
X8945000Y-10995000D01*
X8945000Y-11105000D02*
X8985000Y-11145000D01*
X8985000Y-11105000D02*
X8945000Y-11145000D01*
X8980000Y-8680000D02*
X9020000Y-8720000D01*
X9020000Y-8680000D02*
X8980000Y-8720000D01*
X9055000Y-13505000D02*
X9095000Y-13545000D01*
X9095000Y-13505000D02*
X9055000Y-13545000D01*
X9055000Y-14080000D02*
X9095000Y-14120000D01*
X9095000Y-14080000D02*
X9055000Y-14120000D01*
X9080000Y-12655000D02*
X9120000Y-12695000D01*
X9120000Y-12655000D02*
X9080000Y-12695000D01*
X9172500Y-10005000D02*
X9212500Y-10045000D01*
X9212500Y-10005000D02*
X9172500Y-10045000D01*
X9180000Y-8430000D02*
X9220000Y-8470000D01*
X9220000Y-8430000D02*
X9180000Y-8470000D01*
X9230000Y-10530000D02*
X9270000Y-10570000D01*
X9270000Y-10530000D02*
X9230000Y-10570000D01*
X9255000Y-13780000D02*
X9295000Y-13820000D01*
X9295000Y-13780000D02*
X9255000Y-13820000D01*
X9272500Y-12480000D02*
X9312500Y-12520000D01*
X9312500Y-12480000D02*
X9272500Y-12520000D01*
X9380000Y-8680000D02*
X9420000Y-8720000D01*
X9420000Y-8680000D02*
X9380000Y-8720000D01*
X9455000Y-13505000D02*
X9495000Y-13545000D01*
X9495000Y-13505000D02*
X9455000Y-13545000D01*
X9455000Y-14080000D02*
X9495000Y-14120000D01*
X9495000Y-14080000D02*
X9455000Y-14120000D01*
X9555000Y-13180000D02*
X9595000Y-13220000D01*
X9595000Y-13180000D02*
X9555000Y-13220000D01*
X9572500Y-11430000D02*
X9612500Y-11470000D01*
X9612500Y-11430000D02*
X9572500Y-11470000D01*
X9572500Y-11805000D02*
X9612500Y-11845000D01*
X9612500Y-11805000D02*
X9572500Y-11845000D01*
X9572500Y-12280000D02*
X9612500Y-12320000D01*
X9612500Y-12280000D02*
X9572500Y-12320000D01*
X9620000Y-10955000D02*
X9660000Y-10995000D01*
X9660000Y-10955000D02*
X9620000Y-10995000D01*
X9622500Y-11105000D02*
X9662500Y-11145000D01*
X9662500Y-11105000D02*
X9622500Y-11145000D01*
X9630000Y-8580000D02*
X9670000Y-8620000D01*
X9670000Y-8580000D02*
X9630000Y-8620000D01*
X9647500Y-8930000D02*
X9687500Y-8970000D01*
X9687500Y-8930000D02*
X9647500Y-8970000D01*
X9647500Y-9355000D02*
X9687500Y-9395000D01*
X9687500Y-9355000D02*
X9647500Y-9395000D01*
X9772500Y-10280000D02*
X9812500Y-10320000D01*
X9812500Y-10280000D02*
X9772500Y-10320000D01*
X9772500Y-10580000D02*
X9812500Y-10620000D01*
X9812500Y-10580000D02*
X9772500Y-10620000D01*
X9822500Y-9805000D02*
X9862500Y-9845000D01*
X9862500Y-9805000D02*
X9822500Y-9845000D01*
X9822500Y-12755000D02*
X9862500Y-12795000D01*
X9862500Y-12755000D02*
X9822500Y-12795000D01*
X9830000Y-9130000D02*
X9870000Y-9170000D01*
X9870000Y-9130000D02*
X9830000Y-9170000D01*
X9847500Y-13130000D02*
X9887500Y-13170000D01*
X9887500Y-13130000D02*
X9847500Y-13170000D01*
X9920000Y-11230000D02*
X9960000Y-11270000D01*
X9960000Y-11230000D02*
X9920000Y-11270000D01*
X9947500Y-11830000D02*
X9987500Y-11870000D01*
X9987500Y-11830000D02*
X9947500Y-11870000D01*
X9955000Y-11580000D02*
X9995000Y-11620000D01*
X9995000Y-11580000D02*
X9955000Y-11620000D01*
X9972500Y-10130000D02*
X10012500Y-10170000D01*
X10012500Y-10130000D02*
X9972500Y-10170000D01*
X9980000Y-9380000D02*
X10020000Y-9420000D01*
X10020000Y-9380000D02*
X9980000Y-9420000D01*
X9980000Y-13355000D02*
X10020000Y-13395000D01*
X10020000Y-13355000D02*
X9980000Y-13395000D01*
X9997500Y-10455000D02*
X10037500Y-10495000D01*
X10037500Y-10455000D02*
X9997500Y-10495000D01*
X10055000Y-14530000D02*
X10095000Y-14570000D01*
X10095000Y-14530000D02*
X10055000Y-14570000D01*
X10397500Y-10130000D02*
X10437500Y-10170000D01*
X10437500Y-10130000D02*
X10397500Y-10170000D01*
X10405000Y-10430000D02*
X10445000Y-10470000D01*
X10445000Y-10430000D02*
X10405000Y-10470000D01*
X10405000Y-10955000D02*
X10445000Y-10995000D01*
X10445000Y-10955000D02*
X10405000Y-10995000D01*
X10405000Y-11430000D02*
X10445000Y-11470000D01*
X10445000Y-11430000D02*
X10405000Y-11470000D01*
X10405000Y-11680000D02*
X10445000Y-11720000D01*
X10445000Y-11680000D02*
X10405000Y-11720000D01*
X10422500Y-9555000D02*
X10462500Y-9595000D01*
X10462500Y-9555000D02*
X10422500Y-9595000D01*
X10422500Y-9880000D02*
X10462500Y-9920000D01*
X10462500Y-9880000D02*
X10422500Y-9920000D01*
X10430000Y-14030000D02*
X10470000Y-14070000D01*
X10470000Y-14030000D02*
X10430000Y-14070000D01*
X10480000Y-14530000D02*
X10520000Y-14570000D01*
X10520000Y-14530000D02*
X10480000Y-14570000D01*
X10522500Y-9305000D02*
X10562500Y-9345000D01*
X10562500Y-9305000D02*
X10522500Y-9345000D01*
X10522500Y-9730000D02*
X10562500Y-9770000D01*
X10562500Y-9730000D02*
X10522500Y-9770000D01*
X10530000Y-10680000D02*
X10570000Y-10720000D01*
X10570000Y-10680000D02*
X10530000Y-10720000D01*
X10597500Y-10255000D02*
X10637500Y-10295000D01*
X10637500Y-10255000D02*
X10597500Y-10295000D01*
X10680000Y-12430000D02*
X10720000Y-12470000D01*
X10720000Y-12430000D02*
X10680000Y-12470000D01*
X10680000Y-12755000D02*
X10720000Y-12795000D01*
X10720000Y-12755000D02*
X10680000Y-12795000D01*
X10680000Y-13230000D02*
X10720000Y-13270000D01*
X10720000Y-13230000D02*
X10680000Y-13270000D01*
X10680000Y-13730000D02*
X10720000Y-13770000D01*
X10720000Y-13730000D02*
X10680000Y-13770000D01*
X10680000Y-14280000D02*
X10720000Y-14320000D01*
X10720000Y-14280000D02*
X10680000Y-14320000D01*
X10705000Y-11680000D02*
X10745000Y-11720000D01*
X10745000Y-11680000D02*
X10705000Y-11720000D01*
X10797500Y-10055000D02*
X10837500Y-10095000D01*
X10837500Y-10055000D02*
X10797500Y-10095000D01*
X10797500Y-10455000D02*
X10837500Y-10495000D01*
X10837500Y-10455000D02*
X10797500Y-10495000D01*
X10797500Y-10805000D02*
X10837500Y-10845000D01*
X10837500Y-10805000D02*
X10797500Y-10845000D01*
X10880000Y-11230000D02*
X10920000Y-11270000D01*
X10920000Y-11230000D02*
X10880000Y-11270000D01*
X10905000Y-12505000D02*
X10945000Y-12545000D01*
X10945000Y-12505000D02*
X10905000Y-12545000D01*
X10930000Y-7455000D02*
X10970000Y-7495000D01*
X10970000Y-7455000D02*
X10930000Y-7495000D01*
X10930000Y-7780000D02*
X10970000Y-7820000D01*
X10970000Y-7780000D02*
X10930000Y-7820000D01*
X10930000Y-12980000D02*
X10970000Y-13020000D01*
X10970000Y-12980000D02*
X10930000Y-13020000D01*
X10930000Y-13480000D02*
X10970000Y-13520000D01*
X10970000Y-13480000D02*
X10930000Y-13520000D01*
X10930000Y-14030000D02*
X10970000Y-14070000D01*
X10970000Y-14030000D02*
X10930000Y-14070000D01*
X10930000Y-14530000D02*
X10970000Y-14570000D01*
X10970000Y-14530000D02*
X10930000Y-14570000D01*
X10980000Y-11680000D02*
X11020000Y-11720000D01*
X11020000Y-11680000D02*
X10980000Y-11720000D01*
X11005000Y-12155000D02*
X11045000Y-12195000D01*
X11045000Y-12155000D02*
X11005000Y-12195000D01*
X11030000Y-8230000D02*
X11070000Y-8270000D01*
X11070000Y-8230000D02*
X11030000Y-8270000D01*
X11130000Y-14280000D02*
X11170000Y-14320000D01*
X11170000Y-14280000D02*
X11130000Y-14320000D01*
X11380000Y-14530000D02*
X11420000Y-14570000D01*
X11420000Y-14530000D02*
X11380000Y-14570000D01*
X11455000Y-8230000D02*
X11495000Y-8270000D01*
X11495000Y-8230000D02*
X11455000Y-8270000D01*
X11480000Y-13305000D02*
X11520000Y-13345000D01*
X11520000Y-13305000D02*
X11480000Y-13345000D01*
X11530000Y-8880000D02*
X11570000Y-8920000D01*
X11570000Y-8880000D02*
X11530000Y-8920000D01*
X11697500Y-9855000D02*
X11737500Y-9895000D01*
X11737500Y-9855000D02*
X11697500Y-9895000D01*
X11705000Y-11055000D02*
X11745000Y-11095000D01*
X11745000Y-11055000D02*
X11705000Y-11095000D01*
X11730000Y-8530000D02*
X11770000Y-8570000D01*
X11770000Y-8530000D02*
X11730000Y-8570000D01*
X11730000Y-12480000D02*
X11770000Y-12520000D01*
X11770000Y-12480000D02*
X11730000Y-12520000D01*
X11747500Y-10305000D02*
X11787500Y-10345000D01*
X11787500Y-10305000D02*
X11747500Y-10345000D01*
X11747500Y-12155000D02*
X11787500Y-12195000D01*
X11787500Y-12155000D02*
X11747500Y-12195000D01*
X11872500Y-9630000D02*
X11912500Y-9670000D01*
X11912500Y-9630000D02*
X11872500Y-9670000D01*
X11897500Y-9105000D02*
X11937500Y-9145000D01*
X11937500Y-9105000D02*
X11897500Y-9145000D01*
X11897500Y-10030000D02*
X11937500Y-10070000D01*
X11937500Y-10030000D02*
X11897500Y-10070000D01*
X11972500Y-11530000D02*
X12012500Y-11570000D01*
X12012500Y-11530000D02*
X11972500Y-11570000D01*
X11980000Y-7455000D02*
X12020000Y-7495000D01*
X12020000Y-7455000D02*
X11980000Y-7495000D01*
X11980000Y-7780000D02*
X12020000Y-7820000D01*
X12020000Y-7780000D02*
X11980000Y-7820000D01*
X11980000Y-10580000D02*
X12020000Y-10620000D01*
X12020000Y-10580000D02*
X11980000Y-10620000D01*
X11980000Y-13630000D02*
X12020000Y-13670000D01*
X12020000Y-13630000D02*
X11980000Y-13670000D01*
X11980000Y-14030000D02*
X12020000Y-14070000D01*
X12020000Y-14030000D02*
X11980000Y-14070000D01*
X11980000Y-14455000D02*
X12020000Y-14495000D01*
X12020000Y-14455000D02*
X11980000Y-14495000D01*
X11997500Y-12680000D02*
X12037500Y-12720000D01*
X12037500Y-12680000D02*
X11997500Y-12720000D01*
X12022500Y-12080000D02*
X12062500Y-12120000D01*
X12062500Y-12080000D02*
X12022500Y-12120000D01*
X12022500Y-12355000D02*
X12062500Y-12395000D01*
X12062500Y-12355000D02*
X12022500Y-12395000D01*
X12030000Y-11780000D02*
X12070000Y-11820000D01*
X12070000Y-11780000D02*
X12030000Y-11820000D01*
X12047500Y-9805000D02*
X12087500Y-9845000D01*
X12087500Y-9805000D02*
X12047500Y-9845000D01*
X12072500Y-10255000D02*
X12112500Y-10295000D01*
X12112500Y-10255000D02*
X12072500Y-10295000D01*
X12180000Y-10780000D02*
X12220000Y-10820000D01*
X12220000Y-10780000D02*
X12180000Y-10820000D01*
X12330000Y-10580000D02*
X12370000Y-10620000D01*
X12370000Y-10580000D02*
X12330000Y-10620000D01*
X12397500Y-9755000D02*
X12437500Y-9795000D01*
X12437500Y-9755000D02*
X12397500Y-9795000D01*
X12397500Y-11505000D02*
X12437500Y-11545000D01*
X12437500Y-11505000D02*
X12397500Y-11545000D01*
X12422500Y-11855000D02*
X12462500Y-11895000D01*
X12462500Y-11855000D02*
X12422500Y-11895000D01*
X12422500Y-12105000D02*
X12462500Y-12145000D01*
X12462500Y-12105000D02*
X12422500Y-12145000D01*
X12422500Y-12330000D02*
X12462500Y-12370000D01*
X12462500Y-12330000D02*
X12422500Y-12370000D01*
X12497500Y-10230000D02*
X12537500Y-10270000D01*
X12537500Y-10230000D02*
X12497500Y-10270000D01*
X12530000Y-10780000D02*
X12570000Y-10820000D01*
X12570000Y-10780000D02*
X12530000Y-10820000D01*
X12730000Y-10580000D02*
X12770000Y-10620000D01*
X12770000Y-10580000D02*
X12730000Y-10620000D01*
X12747500Y-11505000D02*
X12787500Y-11545000D01*
X12787500Y-11505000D02*
X12747500Y-11545000D01*
X12772500Y-11955000D02*
X12812500Y-11995000D01*
X12812500Y-11955000D02*
X12772500Y-11995000D01*
X12797500Y-12655000D02*
X12837500Y-12695000D01*
X12837500Y-12655000D02*
X12797500Y-12695000D01*
X12872500Y-9405000D02*
X12912500Y-9445000D01*
X12912500Y-9405000D02*
X12872500Y-9445000D01*
X12897500Y-10280000D02*
X12937500Y-10320000D01*
X12937500Y-10280000D02*
X12897500Y-10320000D01*
X12930000Y-10830000D02*
X12970000Y-10870000D01*
X12970000Y-10830000D02*
X12930000Y-10870000D01*
X13022500Y-11855000D02*
X13062500Y-11895000D01*
X13062500Y-11855000D02*
X13022500Y-11895000D01*
X13072500Y-11505000D02*
X13112500Y-11545000D01*
X13112500Y-11505000D02*
X13072500Y-11545000D01*
X13130000Y-10580000D02*
X13170000Y-10620000D01*
X13170000Y-10580000D02*
X13130000Y-10620000D01*
X13130000Y-11105000D02*
X13170000Y-11145000D01*
X13170000Y-11105000D02*
X13130000Y-11145000D01*
X13197500Y-8255000D02*
X13237500Y-8295000D01*
X13237500Y-8255000D02*
X13197500Y-8295000D01*
X13222500Y-10280000D02*
X13262500Y-10320000D01*
X13262500Y-10280000D02*
X13222500Y-10320000D01*
X13247500Y-12355000D02*
X13287500Y-12395000D01*
X13287500Y-12355000D02*
X13247500Y-12395000D01*
X13330000Y-10830000D02*
X13370000Y-10870000D01*
X13370000Y-10830000D02*
X13330000Y-10870000D01*
X13330000Y-11405000D02*
X13370000Y-11445000D01*
X13370000Y-11405000D02*
X13330000Y-11445000D01*
X13422500Y-9780000D02*
X13462500Y-9820000D01*
X13462500Y-9780000D02*
X13422500Y-9820000D01*
X13447500Y-11030000D02*
X13487500Y-11070000D01*
X13487500Y-11030000D02*
X13447500Y-11070000D01*
X13447500Y-11155000D02*
X13487500Y-11195000D01*
X13487500Y-11155000D02*
X13447500Y-11195000D01*
X13447500Y-11380000D02*
X13487500Y-11420000D01*
X13487500Y-11380000D02*
X13447500Y-11420000D01*
X13447500Y-11555000D02*
X13487500Y-11595000D01*
X13487500Y-11555000D02*
X13447500Y-11595000D01*
X13530000Y-10580000D02*
X13570000Y-10620000D01*
X13570000Y-10580000D02*
X13530000Y-10620000D01*
X13647500Y-12130000D02*
X13687500Y-12170000D01*
X13687500Y-12130000D02*
X13647500Y-12170000D01*
X13697500Y-9780000D02*
X13737500Y-9820000D01*
X13737500Y-9780000D02*
X13697500Y-9820000D01*
X13722500Y-10055000D02*
X13762500Y-10095000D01*
X13762500Y-10055000D02*
X13722500Y-10095000D01*
X13722500Y-11930000D02*
X13762500Y-11970000D01*
X13762500Y-11930000D02*
X13722500Y-11970000D01*
X13730000Y-10780000D02*
X13770000Y-10820000D01*
X13770000Y-10780000D02*
X13730000Y-10820000D01*
X13772500Y-12330000D02*
X13812500Y-12370000D01*
X13812500Y-12330000D02*
X13772500Y-12370000D01*
X13972500Y-9780000D02*
X14012500Y-9820000D01*
X14012500Y-9780000D02*
X13972500Y-9820000D01*
X13972500Y-10530000D02*
X14012500Y-10570000D01*
X14012500Y-10530000D02*
X13972500Y-10570000D01*
X14097500Y-12280000D02*
X14137500Y-12320000D01*
X14137500Y-12280000D02*
X14097500Y-12320000D01*
X14147500Y-13855000D02*
X14187500Y-13895000D01*
X14187500Y-13855000D02*
X14147500Y-13895000D01*
X14272500Y-10530000D02*
X14312500Y-10570000D01*
X14312500Y-10530000D02*
X14272500Y-10570000D01*
X14322500Y-9780000D02*
X14362500Y-9820000D01*
X14362500Y-9780000D02*
X14322500Y-9820000D01*
X14447500Y-10130000D02*
X14487500Y-10170000D01*
X14487500Y-10130000D02*
X14447500Y-10170000D01*
X14522500Y-12630000D02*
X14562500Y-12670000D01*
X14562500Y-12630000D02*
X14522500Y-12670000D01*
X14547500Y-11980000D02*
X14587500Y-12020000D01*
X14587500Y-11980000D02*
X14547500Y-12020000D01*
X14572500Y-9430000D02*
X14612500Y-9470000D01*
X14612500Y-9430000D02*
X14572500Y-9470000D01*
X14572500Y-10530000D02*
X14612500Y-10570000D01*
X14612500Y-10530000D02*
X14572500Y-10570000D01*
X14697500Y-10130000D02*
X14737500Y-10170000D01*
X14737500Y-10130000D02*
X14697500Y-10170000D01*
X14735000Y-11717500D02*
X14775000Y-11757500D01*
X14775000Y-11717500D02*
X14735000Y-11757500D01*
X14772500Y-12280000D02*
X14812500Y-12320000D01*
X14812500Y-12280000D02*
X14772500Y-12320000D01*
X14847500Y-11280000D02*
X14887500Y-11320000D01*
X14887500Y-11280000D02*
X14847500Y-11320000D01*
X14847500Y-11455000D02*
X14887500Y-11495000D01*
X14887500Y-11455000D02*
X14847500Y-11495000D01*
X14872500Y-10530000D02*
X14912500Y-10570000D01*
X14912500Y-10530000D02*
X14872500Y-10570000D01*
X14927500Y-11455000D02*
X14967500Y-11495000D01*
X14967500Y-11455000D02*
X14927500Y-11495000D01*
X14972500Y-11240000D02*
X15012500Y-11280000D01*
X15012500Y-11240000D02*
X14972500Y-11280000D01*
X14997500Y-9780000D02*
X15037500Y-9820000D01*
X15037500Y-9780000D02*
X14997500Y-9820000D01*
X15097500Y-10530000D02*
X15137500Y-10570000D01*
X15137500Y-10530000D02*
X15097500Y-10570000D01*
X15097500Y-11680000D02*
X15137500Y-11720000D01*
X15137500Y-11680000D02*
X15097500Y-11720000D01*
X15122500Y-10780000D02*
X15162500Y-10820000D01*
X15162500Y-10780000D02*
X15122500Y-10820000D01*
X15122500Y-12280000D02*
X15162500Y-12320000D01*
X15162500Y-12280000D02*
X15122500Y-12320000D01*
X15297500Y-10655000D02*
X15337500Y-10695000D01*
X15337500Y-10655000D02*
X15297500Y-10695000D01*
X15397500Y-9830000D02*
X15437500Y-9870000D01*
X15437500Y-9830000D02*
X15397500Y-9870000D01*
X15397500Y-12055000D02*
X15437500Y-12095000D01*
X15437500Y-12055000D02*
X15397500Y-12095000D01*
X15397500Y-12330000D02*
X15437500Y-12370000D01*
X15437500Y-12330000D02*
X15397500Y-12370000D01*
X15422500Y-11605000D02*
X15462500Y-11645000D01*
X15462500Y-11605000D02*
X15422500Y-11645000D01*
X15447500Y-10105000D02*
X15487500Y-10145000D01*
X15487500Y-10105000D02*
X15447500Y-10145000D01*
X15497500Y-11255000D02*
X15537500Y-11295000D01*
X15537500Y-11255000D02*
X15497500Y-11295000D01*
X15522500Y-10805000D02*
X15562500Y-10845000D01*
X15562500Y-10805000D02*
X15522500Y-10845000D01*
X15672500Y-12280000D02*
X15712500Y-12320000D01*
X15712500Y-12280000D02*
X15672500Y-12320000D01*
X15797500Y-9780000D02*
X15837500Y-9820000D01*
X15837500Y-9780000D02*
X15797500Y-9820000D01*
X15797500Y-11255000D02*
X15837500Y-11295000D01*
X15837500Y-11255000D02*
X15797500Y-11295000D01*
X15872500Y-10805000D02*
X15912500Y-10845000D01*
X15912500Y-10805000D02*
X15872500Y-10845000D01*
X15922500Y-10205000D02*
X15962500Y-10245000D01*
X15962500Y-10205000D02*
X15922500Y-10245000D01*
X15922500Y-11855000D02*
X15962500Y-11895000D01*
X15962500Y-11855000D02*
X15922500Y-11895000D01*
X15972500Y-12280000D02*
X16012500Y-12320000D01*
X16012500Y-12280000D02*
X15972500Y-12320000D01*
X16122500Y-11955000D02*
X16162500Y-11995000D01*
X16162500Y-11955000D02*
X16122500Y-11995000D01*
X16147500Y-10355000D02*
X16187500Y-10395000D01*
X16187500Y-10355000D02*
X16147500Y-10395000D01*
X16147500Y-11255000D02*
X16187500Y-11295000D01*
X16187500Y-11255000D02*
X16147500Y-11295000D01*
X16172500Y-10155000D02*
X16212500Y-10195000D01*
X16212500Y-10155000D02*
X16172500Y-10195000D01*
X16172500Y-10805000D02*
X16212500Y-10845000D01*
X16212500Y-10805000D02*
X16172500Y-10845000D01*
X16222500Y-11030000D02*
X16262500Y-11070000D01*
X16262500Y-11030000D02*
X16222500Y-11070000D01*
X16222500Y-12655000D02*
X16262500Y-12695000D01*
X16262500Y-12655000D02*
X16222500Y-12695000D01*
X16297500Y-9430000D02*
X16337500Y-9470000D01*
X16337500Y-9430000D02*
X16297500Y-9470000D01*
X16322500Y-11955000D02*
X16362500Y-11995000D01*
X16362500Y-11955000D02*
X16322500Y-11995000D01*
X16372500Y-10130000D02*
X16412500Y-10170000D01*
X16412500Y-10130000D02*
X16372500Y-10170000D01*
X16472500Y-11030000D02*
X16512500Y-11070000D01*
X16512500Y-11030000D02*
X16472500Y-11070000D01*
X16472500Y-11255000D02*
X16512500Y-11295000D01*
X16512500Y-11255000D02*
X16472500Y-11295000D01*
X16497500Y-10805000D02*
X16537500Y-10845000D01*
X16537500Y-10805000D02*
X16497500Y-10845000D01*
X16497500Y-12280000D02*
X16537500Y-12320000D01*
X16537500Y-12280000D02*
X16497500Y-12320000D01*
X16597500Y-8155000D02*
X16637500Y-8195000D01*
X16637500Y-8155000D02*
X16597500Y-8195000D01*
X16647500Y-12055000D02*
X16687500Y-12095000D01*
X16687500Y-12055000D02*
X16647500Y-12095000D01*
X16697500Y-9755000D02*
X16737500Y-9795000D01*
X16737500Y-9755000D02*
X16697500Y-9795000D01*
X16697500Y-11355000D02*
X16737500Y-11395000D01*
X16737500Y-11355000D02*
X16697500Y-11395000D01*
X16747500Y-11030000D02*
X16787500Y-11070000D01*
X16787500Y-11030000D02*
X16747500Y-11070000D01*
X16822500Y-12280000D02*
X16862500Y-12320000D01*
X16862500Y-12280000D02*
X16822500Y-12320000D01*
X16947500Y-10230000D02*
X16987500Y-10270000D01*
X16987500Y-10230000D02*
X16947500Y-10270000D01*
X16997500Y-11180000D02*
X17037500Y-11220000D01*
X17037500Y-11180000D02*
X16997500Y-11220000D01*
X17005000Y-10755000D02*
X17045000Y-10795000D01*
X17045000Y-10755000D02*
X17005000Y-10795000D01*
X17072500Y-12180000D02*
X17112500Y-12220000D01*
X17112500Y-12180000D02*
X17072500Y-12220000D01*
X17097500Y-9780000D02*
X17137500Y-9820000D01*
X17137500Y-9780000D02*
X17097500Y-9820000D01*
X17097500Y-10030000D02*
X17137500Y-10070000D01*
X17137500Y-10030000D02*
X17097500Y-10070000D01*
X17155000Y-10755000D02*
X17195000Y-10795000D01*
X17195000Y-10755000D02*
X17155000Y-10795000D01*
X17172500Y-11330000D02*
X17212500Y-11370000D01*
X17212500Y-11330000D02*
X17172500Y-11370000D01*
X17197500Y-10305000D02*
X17237500Y-10345000D01*
X17237500Y-10305000D02*
X17197500Y-10345000D01*
X17272500Y-11180000D02*
X17312500Y-11220000D01*
X17312500Y-11180000D02*
X17272500Y-11220000D01*
X17297500Y-10530000D02*
X17337500Y-10570000D01*
X17337500Y-10530000D02*
X17297500Y-10570000D01*
X17472500Y-11605000D02*
X17512500Y-11645000D01*
X17512500Y-11605000D02*
X17472500Y-11645000D01*
X17497500Y-9755000D02*
X17537500Y-9795000D01*
X17537500Y-9755000D02*
X17497500Y-9795000D01*
X17497500Y-12280000D02*
X17537500Y-12320000D01*
X17537500Y-12280000D02*
X17497500Y-12320000D01*
X17572500Y-10255000D02*
X17612500Y-10295000D01*
X17612500Y-10255000D02*
X17572500Y-10295000D01*
X17572500Y-10530000D02*
X17612500Y-10570000D01*
X17612500Y-10530000D02*
X17572500Y-10570000D01*
X17597500Y-13805000D02*
X17637500Y-13845000D01*
X17637500Y-13805000D02*
X17597500Y-13845000D01*
X17722500Y-10780000D02*
X17762500Y-10820000D01*
X17762500Y-10780000D02*
X17722500Y-10820000D01*
X17722500Y-11180000D02*
X17762500Y-11220000D01*
X17762500Y-11180000D02*
X17722500Y-11220000D01*
X17722500Y-11655000D02*
X17762500Y-11695000D01*
X17762500Y-11655000D02*
X17722500Y-11695000D01*
X17747500Y-12280000D02*
X17787500Y-12320000D01*
X17787500Y-12280000D02*
X17747500Y-12320000D01*
X17797500Y-10980000D02*
X17837500Y-11020000D01*
X17837500Y-10980000D02*
X17797500Y-11020000D01*
X17797500Y-11380000D02*
X17837500Y-11420000D01*
X17837500Y-11380000D02*
X17797500Y-11420000D01*
X17797500Y-12755000D02*
X17837500Y-12795000D01*
X17837500Y-12755000D02*
X17797500Y-12795000D01*
X17822500Y-11905000D02*
X17862500Y-11945000D01*
X17862500Y-11905000D02*
X17822500Y-11945000D01*
X17847500Y-10530000D02*
X17887500Y-10570000D01*
X17887500Y-10530000D02*
X17847500Y-10570000D01*
X17897500Y-10255000D02*
X17937500Y-10295000D01*
X17937500Y-10255000D02*
X17897500Y-10295000D01*
X17947500Y-9430000D02*
X17987500Y-9470000D01*
X17987500Y-9430000D02*
X17947500Y-9470000D01*
X18372500Y-11705000D02*
X18412500Y-11745000D01*
X18412500Y-11705000D02*
X18372500Y-11745000D01*
X18422500Y-11255000D02*
X18462500Y-11295000D01*
X18462500Y-11255000D02*
X18422500Y-11295000D01*
X18472500Y-9805000D02*
X18512500Y-9845000D01*
X18512500Y-9805000D02*
X18472500Y-9845000D01*
X18522500Y-10330000D02*
X18562500Y-10370000D01*
X18562500Y-10330000D02*
X18522500Y-10370000D01*
X18522500Y-10530000D02*
X18562500Y-10570000D01*
X18562500Y-10530000D02*
X18522500Y-10570000D01*
X18597500Y-10855000D02*
X18637500Y-10895000D01*
X18637500Y-10855000D02*
X18597500Y-10895000D01*
X18622500Y-11480000D02*
X18662500Y-11520000D01*
X18662500Y-11480000D02*
X18622500Y-11520000D01*
X18830000Y-9430000D02*
X18870000Y-9470000D01*
X18870000Y-9430000D02*
X18830000Y-9470000D01*
X18830000Y-12630000D02*
X18870000Y-12670000D01*
X18870000Y-12630000D02*
X18830000Y-12670000D01*
X8644750Y-9239000D02*
G75*
G02*
X8568750Y-9239000I-38000J0D01*
G01*
X8568750Y-9239000D02*
G75*
G02*
X8644750Y-9239000I38000J0D01*
G01*
X8655500Y-13140000D02*
G75*
G02*
X8579500Y-13140000I-38000J0D01*
G01*
X8579500Y-13140000D02*
G75*
G02*
X8655500Y-13140000I38000J0D01*
G01*
X8771750Y-8985000D02*
G75*
G02*
X8695750Y-8985000I-38000J0D01*
G01*
X8695750Y-8985000D02*
G75*
G02*
X8771750Y-8985000I38000J0D01*
G01*
X8782500Y-12886000D02*
G75*
G02*
X8706500Y-12886000I-38000J0D01*
G01*
X8706500Y-12886000D02*
G75*
G02*
X8782500Y-12886000I38000J0D01*
G01*
X8898750Y-9239000D02*
G75*
G02*
X8822750Y-9239000I-38000J0D01*
G01*
X8822750Y-9239000D02*
G75*
G02*
X8898750Y-9239000I38000J0D01*
G01*
X8909500Y-13140000D02*
G75*
G02*
X8833500Y-13140000I-38000J0D01*
G01*
X8833500Y-13140000D02*
G75*
G02*
X8909500Y-13140000I38000J0D01*
G01*
X9025750Y-8985000D02*
G75*
G02*
X8949750Y-8985000I-38000J0D01*
G01*
X8949750Y-8985000D02*
G75*
G02*
X9025750Y-8985000I38000J0D01*
G01*
X9036500Y-12886000D02*
G75*
G02*
X8960500Y-12886000I-38000J0D01*
G01*
X8960500Y-12886000D02*
G75*
G02*
X9036500Y-12886000I38000J0D01*
G01*
X9152750Y-9239000D02*
G75*
G02*
X9076750Y-9239000I-38000J0D01*
G01*
X9076750Y-9239000D02*
G75*
G02*
X9152750Y-9239000I38000J0D01*
G01*
X9163500Y-13140000D02*
G75*
G02*
X9087500Y-13140000I-38000J0D01*
G01*
X9087500Y-13140000D02*
G75*
G02*
X9163500Y-13140000I38000J0D01*
G01*
X9279750Y-8985000D02*
G75*
G02*
X9203750Y-8985000I-38000J0D01*
G01*
X9203750Y-8985000D02*
G75*
G02*
X9279750Y-8985000I38000J0D01*
G01*
X9290500Y-12886000D02*
G75*
G02*
X9214500Y-12886000I-38000J0D01*
G01*
X9214500Y-12886000D02*
G75*
G02*
X9290500Y-12886000I38000J0D01*
G01*
X9406750Y-9239000D02*
G75*
G02*
X9330750Y-9239000I-38000J0D01*
G01*
X9330750Y-9239000D02*
G75*
G02*
X9406750Y-9239000I38000J0D01*
G01*
X9417500Y-13140000D02*
G75*
G02*
X9341500Y-13140000I-38000J0D01*
G01*
X9341500Y-13140000D02*
G75*
G02*
X9417500Y-13140000I38000J0D01*
G01*
X9533750Y-8985000D02*
G75*
G02*
X9457750Y-8985000I-38000J0D01*
G01*
X9457750Y-8985000D02*
G75*
G02*
X9533750Y-8985000I38000J0D01*
G01*
X9544500Y-12886000D02*
G75*
G02*
X9468500Y-12886000I-38000J0D01*
G01*
X9468500Y-12886000D02*
G75*
G02*
X9544500Y-12886000I38000J0D01*
G01*
X10212000Y-8175000D02*
X10212000Y-8275000D01*
X10162000Y-8225000D02*
X10262000Y-8225000D01*
X10217500Y-12688000D02*
X10217500Y-12788000D01*
X10167500Y-12738000D02*
X10267500Y-12738000D01*
X10217500Y-12942000D02*
X10217500Y-13042000D01*
X10167500Y-12992000D02*
X10267500Y-12992000D01*
X10217500Y-13196000D02*
X10217500Y-13296000D01*
X10167500Y-13246000D02*
X10267500Y-13246000D01*
X10217500Y-13450000D02*
X10217500Y-13550000D01*
X10167500Y-13500000D02*
X10267500Y-13500000D01*
X10217500Y-13704000D02*
X10217500Y-13804000D01*
X10167500Y-13754000D02*
X10267500Y-13754000D01*
X10217500Y-13958000D02*
X10217500Y-14058000D01*
X10167500Y-14008000D02*
X10267500Y-14008000D01*
X10217500Y-14212000D02*
X10217500Y-14312000D01*
X10167500Y-14262000D02*
X10267500Y-14262000D01*
X10466000Y-8175000D02*
X10466000Y-8275000D01*
X10416000Y-8225000D02*
X10516000Y-8225000D01*
X10720000Y-8175000D02*
X10720000Y-8275000D01*
X10670000Y-8225000D02*
X10770000Y-8225000D01*
X11741500Y-12688000D02*
X11741500Y-12788000D01*
X11691500Y-12738000D02*
X11791500Y-12738000D01*
X11741500Y-12942000D02*
X11741500Y-13042000D01*
X11691500Y-12992000D02*
X11791500Y-12992000D01*
X11741500Y-13196000D02*
X11741500Y-13296000D01*
X11691500Y-13246000D02*
X11791500Y-13246000D01*
X11741500Y-13450000D02*
X11741500Y-13550000D01*
X11691500Y-13500000D02*
X11791500Y-13500000D01*
X11741500Y-13704000D02*
X11741500Y-13804000D01*
X11691500Y-13754000D02*
X11791500Y-13754000D01*
X11741500Y-13958000D02*
X11741500Y-14058000D01*
X11691500Y-14008000D02*
X11791500Y-14008000D01*
X11741500Y-14212000D02*
X11741500Y-14312000D01*
X11691500Y-14262000D02*
X11791500Y-14262000D01*
X12196750Y-13007750D02*
X12196750Y-13107750D01*
X12146750Y-13057750D02*
X12246750Y-13057750D01*
X12196750Y-13515750D02*
X12196750Y-13615750D01*
X12146750Y-13565750D02*
X12246750Y-13565750D01*
X12230500Y-8509250D02*
X12230500Y-8609250D01*
X12180500Y-8559250D02*
X12280500Y-8559250D01*
X12230500Y-9017250D02*
X12230500Y-9117250D01*
X12180500Y-9067250D02*
X12280500Y-9067250D01*
X12438500Y-14100000D02*
X12438500Y-14200000D01*
X12388500Y-14150000D02*
X12488500Y-14150000D01*
X12462000Y-7900000D02*
X12462000Y-8000000D01*
X12412000Y-7950000D02*
X12512000Y-7950000D01*
X12484500Y-8509250D02*
X12484500Y-8609250D01*
X12434500Y-8559250D02*
X12534500Y-8559250D01*
X12484500Y-9017250D02*
X12484500Y-9117250D01*
X12434500Y-9067250D02*
X12534500Y-9067250D01*
X12692500Y-14100000D02*
X12692500Y-14200000D01*
X12642500Y-14150000D02*
X12742500Y-14150000D01*
X12704750Y-13007750D02*
X12704750Y-13107750D01*
X12654750Y-13057750D02*
X12754750Y-13057750D01*
X12704750Y-13515750D02*
X12704750Y-13615750D01*
X12654750Y-13565750D02*
X12754750Y-13565750D01*
X12716000Y-7900000D02*
X12716000Y-8000000D01*
X12666000Y-7950000D02*
X12766000Y-7950000D01*
X12738500Y-8509250D02*
X12738500Y-8609250D01*
X12688500Y-8559250D02*
X12788500Y-8559250D01*
X12738500Y-9017250D02*
X12738500Y-9117250D01*
X12688500Y-9067250D02*
X12788500Y-9067250D01*
X12946500Y-14100000D02*
X12946500Y-14200000D01*
X12896500Y-14150000D02*
X12996500Y-14150000D01*
X12958750Y-13007750D02*
X12958750Y-13107750D01*
X12908750Y-13057750D02*
X13008750Y-13057750D01*
X12958750Y-13515750D02*
X12958750Y-13615750D01*
X12908750Y-13565750D02*
X13008750Y-13565750D01*
X12970000Y-7900000D02*
X12970000Y-8000000D01*
X12920000Y-7950000D02*
X13020000Y-7950000D01*
X12992500Y-8509250D02*
X12992500Y-8609250D01*
X12942500Y-8559250D02*
X13042500Y-8559250D01*
X12992500Y-9017250D02*
X12992500Y-9117250D01*
X12942500Y-9067250D02*
X13042500Y-9067250D01*
X13212750Y-13007750D02*
X13212750Y-13107750D01*
X13162750Y-13057750D02*
X13262750Y-13057750D01*
X13212750Y-13515750D02*
X13212750Y-13615750D01*
X13162750Y-13565750D02*
X13262750Y-13565750D01*
X13466750Y-13007750D02*
X13466750Y-13107750D01*
X13416750Y-13057750D02*
X13516750Y-13057750D01*
X13466750Y-13515750D02*
X13466750Y-13615750D01*
X13416750Y-13565750D02*
X13516750Y-13565750D01*
X13500500Y-8509250D02*
X13500500Y-8609250D01*
X13450500Y-8559250D02*
X13550500Y-8559250D01*
X13500500Y-9017250D02*
X13500500Y-9117250D01*
X13450500Y-9067250D02*
X13550500Y-9067250D01*
X13909750Y-13007750D02*
X13909750Y-13107750D01*
X13859750Y-13057750D02*
X13959750Y-13057750D01*
X13909750Y-13515750D02*
X13909750Y-13615750D01*
X13859750Y-13565750D02*
X13959750Y-13565750D01*
X13930500Y-8509250D02*
X13930500Y-8609250D01*
X13880500Y-8559250D02*
X13980500Y-8559250D01*
X13930500Y-9017250D02*
X13930500Y-9117250D01*
X13880500Y-9067250D02*
X13980500Y-9067250D01*
X14184500Y-8509250D02*
X14184500Y-8609250D01*
X14134500Y-8559250D02*
X14234500Y-8559250D01*
X14184500Y-9017250D02*
X14184500Y-9117250D01*
X14134500Y-9067250D02*
X14234500Y-9067250D01*
X14413500Y-14100000D02*
X14413500Y-14200000D01*
X14363500Y-14150000D02*
X14463500Y-14150000D01*
X14417750Y-13007750D02*
X14417750Y-13107750D01*
X14367750Y-13057750D02*
X14467750Y-13057750D01*
X14417750Y-13515750D02*
X14417750Y-13615750D01*
X14367750Y-13565750D02*
X14467750Y-13565750D01*
X14437000Y-7900000D02*
X14437000Y-8000000D01*
X14387000Y-7950000D02*
X14487000Y-7950000D01*
X14438500Y-8509250D02*
X14438500Y-8609250D01*
X14388500Y-8559250D02*
X14488500Y-8559250D01*
X14438500Y-9017250D02*
X14438500Y-9117250D01*
X14388500Y-9067250D02*
X14488500Y-9067250D01*
X14667500Y-14100000D02*
X14667500Y-14200000D01*
X14617500Y-14150000D02*
X14717500Y-14150000D01*
X14671750Y-13007750D02*
X14671750Y-13107750D01*
X14621750Y-13057750D02*
X14721750Y-13057750D01*
X14671750Y-13515750D02*
X14671750Y-13615750D01*
X14621750Y-13565750D02*
X14721750Y-13565750D01*
X14691000Y-7900000D02*
X14691000Y-8000000D01*
X14641000Y-7950000D02*
X14741000Y-7950000D01*
X14692500Y-8509250D02*
X14692500Y-8609250D01*
X14642500Y-8559250D02*
X14742500Y-8559250D01*
X14692500Y-9017250D02*
X14692500Y-9117250D01*
X14642500Y-9067250D02*
X14742500Y-9067250D01*
X14921500Y-14100000D02*
X14921500Y-14200000D01*
X14871500Y-14150000D02*
X14971500Y-14150000D01*
X14925750Y-13007750D02*
X14925750Y-13107750D01*
X14875750Y-13057750D02*
X14975750Y-13057750D01*
X14925750Y-13515750D02*
X14925750Y-13615750D01*
X14875750Y-13565750D02*
X14975750Y-13565750D01*
X14945000Y-7900000D02*
X14945000Y-8000000D01*
X14895000Y-7950000D02*
X14995000Y-7950000D01*
X15179750Y-13007750D02*
X15179750Y-13107750D01*
X15129750Y-13057750D02*
X15229750Y-13057750D01*
X15179750Y-13515750D02*
X15179750Y-13615750D01*
X15129750Y-13565750D02*
X15229750Y-13565750D01*
X15200500Y-8509250D02*
X15200500Y-8609250D01*
X15150500Y-8559250D02*
X15250500Y-8559250D01*
X15200500Y-9017250D02*
X15200500Y-9117250D01*
X15150500Y-9067250D02*
X15250500Y-9067250D01*
X15621750Y-13007750D02*
X15621750Y-13107750D01*
X15571750Y-13057750D02*
X15671750Y-13057750D01*
X15621750Y-13515750D02*
X15621750Y-13615750D01*
X15571750Y-13565750D02*
X15671750Y-13565750D01*
X15630500Y-8509250D02*
X15630500Y-8609250D01*
X15580500Y-8559250D02*
X15680500Y-8559250D01*
X15630500Y-9017250D02*
X15630500Y-9117250D01*
X15580500Y-9067250D02*
X15680500Y-9067250D01*
X15863500Y-14100000D02*
X15863500Y-14200000D01*
X15813500Y-14150000D02*
X15913500Y-14150000D01*
X15884500Y-8509250D02*
X15884500Y-8609250D01*
X15834500Y-8559250D02*
X15934500Y-8559250D01*
X15884500Y-9017250D02*
X15884500Y-9117250D01*
X15834500Y-9067250D02*
X15934500Y-9067250D01*
X15888500Y-7900000D02*
X15888500Y-8000000D01*
X15838500Y-7950000D02*
X15938500Y-7950000D01*
X16117500Y-14100000D02*
X16117500Y-14200000D01*
X16067500Y-14150000D02*
X16167500Y-14150000D01*
X16129750Y-13007750D02*
X16129750Y-13107750D01*
X16079750Y-13057750D02*
X16179750Y-13057750D01*
X16129750Y-13515750D02*
X16129750Y-13615750D01*
X16079750Y-13565750D02*
X16179750Y-13565750D01*
X16138500Y-8509250D02*
X16138500Y-8609250D01*
X16088500Y-8559250D02*
X16188500Y-8559250D01*
X16138500Y-9017250D02*
X16138500Y-9117250D01*
X16088500Y-9067250D02*
X16188500Y-9067250D01*
X16142500Y-7900000D02*
X16142500Y-8000000D01*
X16092500Y-7950000D02*
X16192500Y-7950000D01*
X16371500Y-14100000D02*
X16371500Y-14200000D01*
X16321500Y-14150000D02*
X16421500Y-14150000D01*
X16383750Y-13007750D02*
X16383750Y-13107750D01*
X16333750Y-13057750D02*
X16433750Y-13057750D01*
X16383750Y-13515750D02*
X16383750Y-13615750D01*
X16333750Y-13565750D02*
X16433750Y-13565750D01*
X16392500Y-8509250D02*
X16392500Y-8609250D01*
X16342500Y-8559250D02*
X16442500Y-8559250D01*
X16392500Y-9017250D02*
X16392500Y-9117250D01*
X16342500Y-9067250D02*
X16442500Y-9067250D01*
X16396500Y-7900000D02*
X16396500Y-8000000D01*
X16346500Y-7950000D02*
X16446500Y-7950000D01*
X16637750Y-13007750D02*
X16637750Y-13107750D01*
X16587750Y-13057750D02*
X16687750Y-13057750D01*
X16637750Y-13515750D02*
X16637750Y-13615750D01*
X16587750Y-13565750D02*
X16687750Y-13565750D01*
X16891750Y-13007750D02*
X16891750Y-13107750D01*
X16841750Y-13057750D02*
X16941750Y-13057750D01*
X16891750Y-13515750D02*
X16891750Y-13615750D01*
X16841750Y-13565750D02*
X16941750Y-13565750D01*
X16900500Y-8509250D02*
X16900500Y-8609250D01*
X16850500Y-8559250D02*
X16950500Y-8559250D01*
X16900500Y-9017250D02*
X16900500Y-9117250D01*
X16850500Y-9067250D02*
X16950500Y-9067250D01*
X17330500Y-8509250D02*
X17330500Y-8609250D01*
X17280500Y-8559250D02*
X17380500Y-8559250D01*
X17330500Y-9017250D02*
X17330500Y-9117250D01*
X17280500Y-9067250D02*
X17380500Y-9067250D01*
X17346750Y-13007750D02*
X17346750Y-13107750D01*
X17296750Y-13057750D02*
X17396750Y-13057750D01*
X17346750Y-13515750D02*
X17346750Y-13615750D01*
X17296750Y-13565750D02*
X17396750Y-13565750D01*
X17584500Y-8509250D02*
X17584500Y-8609250D01*
X17534500Y-8559250D02*
X17634500Y-8559250D01*
X17584500Y-9017250D02*
X17584500Y-9117250D01*
X17534500Y-9067250D02*
X17634500Y-9067250D01*
X17838500Y-8509250D02*
X17838500Y-8609250D01*
X17788500Y-8559250D02*
X17888500Y-8559250D01*
X17838500Y-9017250D02*
X17838500Y-9117250D01*
X17788500Y-9067250D02*
X17888500Y-9067250D01*
X17854750Y-13007750D02*
X17854750Y-13107750D01*
X17804750Y-13057750D02*
X17904750Y-13057750D01*
X17854750Y-13515750D02*
X17854750Y-13615750D01*
X17804750Y-13565750D02*
X17904750Y-13565750D01*
X17863500Y-7900000D02*
X17863500Y-8000000D01*
X17813500Y-7950000D02*
X17913500Y-7950000D01*
X17865000Y-14100000D02*
X17865000Y-14200000D01*
X17815000Y-14150000D02*
X17915000Y-14150000D01*
X18092500Y-8509250D02*
X18092500Y-8609250D01*
X18042500Y-8559250D02*
X18142500Y-8559250D01*
X18092500Y-9017250D02*
X18092500Y-9117250D01*
X18042500Y-9067250D02*
X18142500Y-9067250D01*
X18108750Y-13007750D02*
X18108750Y-13107750D01*
X18058750Y-13057750D02*
X18158750Y-13057750D01*
X18108750Y-13515750D02*
X18108750Y-13615750D01*
X18058750Y-13565750D02*
X18158750Y-13565750D01*
X18117500Y-7900000D02*
X18117500Y-8000000D01*
X18067500Y-7950000D02*
X18167500Y-7950000D01*
X18119000Y-14100000D02*
X18119000Y-14200000D01*
X18069000Y-14150000D02*
X18169000Y-14150000D01*
X18362750Y-13007750D02*
X18362750Y-13107750D01*
X18312750Y-13057750D02*
X18412750Y-13057750D01*
X18362750Y-13515750D02*
X18362750Y-13615750D01*
X18312750Y-13565750D02*
X18412750Y-13565750D01*
X18371500Y-7900000D02*
X18371500Y-8000000D01*
X18321500Y-7950000D02*
X18421500Y-7950000D01*
X18373000Y-14100000D02*
X18373000Y-14200000D01*
X18323000Y-14150000D02*
X18423000Y-14150000D01*
X18600500Y-8509250D02*
X18600500Y-8609250D01*
X18550500Y-8559250D02*
X18650500Y-8559250D01*
X18600500Y-9017250D02*
X18600500Y-9117250D01*
X18550500Y-9067250D02*
X18650500Y-9067250D01*
X18616750Y-13007750D02*
X18616750Y-13107750D01*
X18566750Y-13057750D02*
X18666750Y-13057750D01*
X18616750Y-13515750D02*
X18616750Y-13615750D01*
X18566750Y-13565750D02*
X18666750Y-13565750D01*
D13*
X11359927Y-8087427D02*
X11359927Y-8002573D01*
X11275073Y-8002573D01*
X11275073Y-8087427D01*
X11359927Y-8087427D01*
X11709927Y-8087427D02*
X11709927Y-8002573D01*
X11625073Y-8002573D01*
X11625073Y-8087427D01*
X11709927Y-8087427D01*
X13534927Y-14122427D02*
X13534927Y-14037573D01*
X13450073Y-14037573D01*
X13450073Y-14122427D01*
X13534927Y-14122427D01*
X13584927Y-8087427D02*
X13584927Y-8002573D01*
X13500073Y-8002573D01*
X13500073Y-8087427D01*
X13584927Y-8087427D01*
X13884927Y-14122427D02*
X13884927Y-14037573D01*
X13800073Y-14037573D01*
X13800073Y-14122427D01*
X13884927Y-14122427D01*
X13934927Y-8087427D02*
X13934927Y-8002573D01*
X13850073Y-8002573D01*
X13850073Y-8087427D01*
X13934927Y-8087427D01*
X16984927Y-8087427D02*
X16984927Y-8002573D01*
X16900073Y-8002573D01*
X16900073Y-8087427D01*
X16984927Y-8087427D01*
X16984927Y-14122427D02*
X16984927Y-14037573D01*
X16900073Y-14037573D01*
X16900073Y-14122427D01*
X16984927Y-14122427D01*
X17334927Y-8087427D02*
X17334927Y-8002573D01*
X17250073Y-8002573D01*
X17250073Y-8087427D01*
X17334927Y-8087427D01*
X17334927Y-14122427D02*
X17334927Y-14037573D01*
X17250073Y-14037573D01*
X17250073Y-14122427D01*
X17334927Y-14122427D01*
X18264927Y-10917427D02*
X18264927Y-10832573D01*
X18180073Y-10832573D01*
X18180073Y-10917427D01*
X18264927Y-10917427D01*
X18264927Y-11267427D02*
X18264927Y-11182573D01*
X18180073Y-11182573D01*
X18180073Y-11267427D01*
X18264927Y-11267427D01*
D14*
X8350000Y-10010000D02*
X8510000Y-9850000D01*
X8350000Y-9690000D01*
X8190000Y-9850000D01*
X8350000Y-10010000D01*
X8350000Y-12435000D02*
X8510000Y-12275000D01*
X8350000Y-12115000D01*
X8190000Y-12275000D01*
X8350000Y-12435000D01*
X18917500Y-14360000D02*
X19077500Y-14200000D01*
X18917500Y-14040000D01*
X18757500Y-14200000D01*
X18917500Y-14360000D01*
X18917500Y-8110000D02*
X19077500Y-7950000D01*
X18917500Y-7790000D01*
X18757500Y-7950000D01*
X18917500Y-8110000D01*
D11*
X8175777Y-15113984D02*
X8175777Y-14913984D01*
X8175777Y-14913984D02*
X8223396Y-14913984D01*
X8223396Y-14913984D02*
X8251967Y-14923508D01*
X8251967Y-14923508D02*
X8271015Y-14942555D01*
X8271015Y-14942555D02*
X8280539Y-14961603D01*
X8280539Y-14961603D02*
X8290062Y-14999698D01*
X8290062Y-14999698D02*
X8290062Y-15028269D01*
X8290062Y-15028269D02*
X8280539Y-15066365D01*
X8280539Y-15066365D02*
X8271015Y-15085412D01*
X8271015Y-15085412D02*
X8251967Y-15104460D01*
X8251967Y-15104460D02*
X8223396Y-15113984D01*
X8223396Y-15113984D02*
X8175777Y-15113984D01*
X8375777Y-15113984D02*
X8375777Y-14980650D01*
X8375777Y-15018746D02*
X8385301Y-14999698D01*
X8385301Y-14999698D02*
X8394824Y-14990174D01*
X8394824Y-14990174D02*
X8413872Y-14980650D01*
X8413872Y-14980650D02*
X8432920Y-14980650D01*
X8499586Y-15113984D02*
X8499586Y-14980650D01*
X8499586Y-14913984D02*
X8490063Y-14923508D01*
X8490063Y-14923508D02*
X8499586Y-14933031D01*
X8499586Y-14933031D02*
X8509110Y-14923508D01*
X8509110Y-14923508D02*
X8499586Y-14913984D01*
X8499586Y-14913984D02*
X8499586Y-14933031D01*
X8623396Y-15113984D02*
X8604348Y-15104460D01*
X8604348Y-15104460D02*
X8594824Y-15085412D01*
X8594824Y-15085412D02*
X8594824Y-14913984D01*
X8728158Y-15113984D02*
X8709110Y-15104460D01*
X8709110Y-15104460D02*
X8699586Y-15085412D01*
X8699586Y-15085412D02*
X8699586Y-14913984D01*
X8956729Y-15113984D02*
X8956729Y-14913984D01*
X8956729Y-14913984D02*
X9023396Y-15056841D01*
X9023396Y-15056841D02*
X9090063Y-14913984D01*
X9090063Y-14913984D02*
X9090063Y-15113984D01*
X9271015Y-15113984D02*
X9271015Y-15009222D01*
X9271015Y-15009222D02*
X9261491Y-14990174D01*
X9261491Y-14990174D02*
X9242444Y-14980650D01*
X9242444Y-14980650D02*
X9204348Y-14980650D01*
X9204348Y-14980650D02*
X9185301Y-14990174D01*
X9271015Y-15104460D02*
X9251967Y-15113984D01*
X9251967Y-15113984D02*
X9204348Y-15113984D01*
X9204348Y-15113984D02*
X9185301Y-15104460D01*
X9185301Y-15104460D02*
X9175777Y-15085412D01*
X9175777Y-15085412D02*
X9175777Y-15066365D01*
X9175777Y-15066365D02*
X9185301Y-15047317D01*
X9185301Y-15047317D02*
X9204348Y-15037793D01*
X9204348Y-15037793D02*
X9251967Y-15037793D01*
X9251967Y-15037793D02*
X9271015Y-15028269D01*
X9366253Y-14980650D02*
X9366253Y-15180650D01*
X9366253Y-14990174D02*
X9385301Y-14980650D01*
X9385301Y-14980650D02*
X9423396Y-14980650D01*
X9423396Y-14980650D02*
X9442444Y-14990174D01*
X9442444Y-14990174D02*
X9451967Y-14999698D01*
X9451967Y-14999698D02*
X9461491Y-15018746D01*
X9461491Y-15018746D02*
X9461491Y-15075888D01*
X9461491Y-15075888D02*
X9451967Y-15094936D01*
X9451967Y-15094936D02*
X9442444Y-15104460D01*
X9442444Y-15104460D02*
X9423396Y-15113984D01*
X9423396Y-15113984D02*
X9385301Y-15113984D01*
X9385301Y-15113984D02*
X9366253Y-15104460D01*
X9547205Y-15094936D02*
X9556729Y-15104460D01*
X9556729Y-15104460D02*
X9547205Y-15113984D01*
X9547205Y-15113984D02*
X9537682Y-15104460D01*
X9537682Y-15104460D02*
X9547205Y-15094936D01*
X9547205Y-15094936D02*
X9547205Y-15113984D01*
X9547205Y-14990174D02*
X9556729Y-14999698D01*
X9556729Y-14999698D02*
X9547205Y-15009222D01*
X9547205Y-15009222D02*
X9537682Y-14999698D01*
X9537682Y-14999698D02*
X9547205Y-14990174D01*
X9547205Y-14990174D02*
X9547205Y-15009222D01*
D12*
X7875000Y-15422500D02*
X7915000Y-15462500D01*
X7915000Y-15422500D02*
X7875000Y-15462500D01*
D11*
X8213872Y-15333984D02*
X8232920Y-15333984D01*
X8232920Y-15333984D02*
X8251967Y-15343508D01*
X8251967Y-15343508D02*
X8261491Y-15353031D01*
X8261491Y-15353031D02*
X8271015Y-15372079D01*
X8271015Y-15372079D02*
X8280539Y-15410174D01*
X8280539Y-15410174D02*
X8280539Y-15457793D01*
X8280539Y-15457793D02*
X8271015Y-15495888D01*
X8271015Y-15495888D02*
X8261491Y-15514936D01*
X8261491Y-15514936D02*
X8251967Y-15524460D01*
X8251967Y-15524460D02*
X8232920Y-15533984D01*
X8232920Y-15533984D02*
X8213872Y-15533984D01*
X8213872Y-15533984D02*
X8194824Y-15524460D01*
X8194824Y-15524460D02*
X8185301Y-15514936D01*
X8185301Y-15514936D02*
X8175777Y-15495888D01*
X8175777Y-15495888D02*
X8166253Y-15457793D01*
X8166253Y-15457793D02*
X8166253Y-15410174D01*
X8166253Y-15410174D02*
X8175777Y-15372079D01*
X8175777Y-15372079D02*
X8185301Y-15353031D01*
X8185301Y-15353031D02*
X8194824Y-15343508D01*
X8194824Y-15343508D02*
X8213872Y-15333984D01*
X8366253Y-15514936D02*
X8375777Y-15524460D01*
X8375777Y-15524460D02*
X8366253Y-15533984D01*
X8366253Y-15533984D02*
X8356729Y-15524460D01*
X8356729Y-15524460D02*
X8366253Y-15514936D01*
X8366253Y-15514936D02*
X8366253Y-15533984D01*
X8547205Y-15400650D02*
X8547205Y-15533984D01*
X8499586Y-15324460D02*
X8451967Y-15467317D01*
X8451967Y-15467317D02*
X8575777Y-15467317D01*
X8690063Y-15333984D02*
X8709110Y-15333984D01*
X8709110Y-15333984D02*
X8728158Y-15343508D01*
X8728158Y-15343508D02*
X8737682Y-15353031D01*
X8737682Y-15353031D02*
X8747205Y-15372079D01*
X8747205Y-15372079D02*
X8756729Y-15410174D01*
X8756729Y-15410174D02*
X8756729Y-15457793D01*
X8756729Y-15457793D02*
X8747205Y-15495888D01*
X8747205Y-15495888D02*
X8737682Y-15514936D01*
X8737682Y-15514936D02*
X8728158Y-15524460D01*
X8728158Y-15524460D02*
X8709110Y-15533984D01*
X8709110Y-15533984D02*
X8690063Y-15533984D01*
X8690063Y-15533984D02*
X8671015Y-15524460D01*
X8671015Y-15524460D02*
X8661491Y-15514936D01*
X8661491Y-15514936D02*
X8651967Y-15495888D01*
X8651967Y-15495888D02*
X8642444Y-15457793D01*
X8642444Y-15457793D02*
X8642444Y-15410174D01*
X8642444Y-15410174D02*
X8651967Y-15372079D01*
X8651967Y-15372079D02*
X8661491Y-15353031D01*
X8661491Y-15353031D02*
X8671015Y-15343508D01*
X8671015Y-15343508D02*
X8690063Y-15333984D01*
X8880539Y-15333984D02*
X8899586Y-15333984D01*
X8899586Y-15333984D02*
X8918634Y-15343508D01*
X8918634Y-15343508D02*
X8928158Y-15353031D01*
X8928158Y-15353031D02*
X8937682Y-15372079D01*
X8937682Y-15372079D02*
X8947205Y-15410174D01*
X8947205Y-15410174D02*
X8947205Y-15457793D01*
X8947205Y-15457793D02*
X8937682Y-15495888D01*
X8937682Y-15495888D02*
X8928158Y-15514936D01*
X8928158Y-15514936D02*
X8918634Y-15524460D01*
X8918634Y-15524460D02*
X8899586Y-15533984D01*
X8899586Y-15533984D02*
X8880539Y-15533984D01*
X8880539Y-15533984D02*
X8861491Y-15524460D01*
X8861491Y-15524460D02*
X8851967Y-15514936D01*
X8851967Y-15514936D02*
X8842444Y-15495888D01*
X8842444Y-15495888D02*
X8832920Y-15457793D01*
X8832920Y-15457793D02*
X8832920Y-15410174D01*
X8832920Y-15410174D02*
X8842444Y-15372079D01*
X8842444Y-15372079D02*
X8851967Y-15353031D01*
X8851967Y-15353031D02*
X8861491Y-15343508D01*
X8861491Y-15343508D02*
X8880539Y-15333984D01*
X9032920Y-15533984D02*
X9032920Y-15400650D01*
X9032920Y-15419698D02*
X9042444Y-15410174D01*
X9042444Y-15410174D02*
X9061491Y-15400650D01*
X9061491Y-15400650D02*
X9090063Y-15400650D01*
X9090063Y-15400650D02*
X9109110Y-15410174D01*
X9109110Y-15410174D02*
X9118634Y-15429222D01*
X9118634Y-15429222D02*
X9118634Y-15533984D01*
X9118634Y-15429222D02*
X9128158Y-15410174D01*
X9128158Y-15410174D02*
X9147205Y-15400650D01*
X9147205Y-15400650D02*
X9175777Y-15400650D01*
X9175777Y-15400650D02*
X9194825Y-15410174D01*
X9194825Y-15410174D02*
X9204348Y-15429222D01*
X9204348Y-15429222D02*
X9204348Y-15533984D01*
X9299586Y-15533984D02*
X9299586Y-15400650D01*
X9299586Y-15419698D02*
X9309110Y-15410174D01*
X9309110Y-15410174D02*
X9328158Y-15400650D01*
X9328158Y-15400650D02*
X9356729Y-15400650D01*
X9356729Y-15400650D02*
X9375777Y-15410174D01*
X9375777Y-15410174D02*
X9385301Y-15429222D01*
X9385301Y-15429222D02*
X9385301Y-15533984D01*
X9385301Y-15429222D02*
X9394825Y-15410174D01*
X9394825Y-15410174D02*
X9413872Y-15400650D01*
X9413872Y-15400650D02*
X9442444Y-15400650D01*
X9442444Y-15400650D02*
X9461491Y-15410174D01*
X9461491Y-15410174D02*
X9471015Y-15429222D01*
X9471015Y-15429222D02*
X9471015Y-15533984D01*
X9861491Y-15324460D02*
X9690063Y-15581603D01*
X10118634Y-15333984D02*
X10137682Y-15333984D01*
X10137682Y-15333984D02*
X10156729Y-15343508D01*
X10156729Y-15343508D02*
X10166253Y-15353031D01*
X10166253Y-15353031D02*
X10175777Y-15372079D01*
X10175777Y-15372079D02*
X10185301Y-15410174D01*
X10185301Y-15410174D02*
X10185301Y-15457793D01*
X10185301Y-15457793D02*
X10175777Y-15495888D01*
X10175777Y-15495888D02*
X10166253Y-15514936D01*
X10166253Y-15514936D02*
X10156729Y-15524460D01*
X10156729Y-15524460D02*
X10137682Y-15533984D01*
X10137682Y-15533984D02*
X10118634Y-15533984D01*
X10118634Y-15533984D02*
X10099587Y-15524460D01*
X10099587Y-15524460D02*
X10090063Y-15514936D01*
X10090063Y-15514936D02*
X10080539Y-15495888D01*
X10080539Y-15495888D02*
X10071015Y-15457793D01*
X10071015Y-15457793D02*
X10071015Y-15410174D01*
X10071015Y-15410174D02*
X10080539Y-15372079D01*
X10080539Y-15372079D02*
X10090063Y-15353031D01*
X10090063Y-15353031D02*
X10099587Y-15343508D01*
X10099587Y-15343508D02*
X10118634Y-15333984D01*
X10271015Y-15514936D02*
X10280539Y-15524460D01*
X10280539Y-15524460D02*
X10271015Y-15533984D01*
X10271015Y-15533984D02*
X10261491Y-15524460D01*
X10261491Y-15524460D02*
X10271015Y-15514936D01*
X10271015Y-15514936D02*
X10271015Y-15533984D01*
X10404348Y-15333984D02*
X10423396Y-15333984D01*
X10423396Y-15333984D02*
X10442444Y-15343508D01*
X10442444Y-15343508D02*
X10451968Y-15353031D01*
X10451968Y-15353031D02*
X10461491Y-15372079D01*
X10461491Y-15372079D02*
X10471015Y-15410174D01*
X10471015Y-15410174D02*
X10471015Y-15457793D01*
X10471015Y-15457793D02*
X10461491Y-15495888D01*
X10461491Y-15495888D02*
X10451968Y-15514936D01*
X10451968Y-15514936D02*
X10442444Y-15524460D01*
X10442444Y-15524460D02*
X10423396Y-15533984D01*
X10423396Y-15533984D02*
X10404348Y-15533984D01*
X10404348Y-15533984D02*
X10385301Y-15524460D01*
X10385301Y-15524460D02*
X10375777Y-15514936D01*
X10375777Y-15514936D02*
X10366253Y-15495888D01*
X10366253Y-15495888D02*
X10356729Y-15457793D01*
X10356729Y-15457793D02*
X10356729Y-15410174D01*
X10356729Y-15410174D02*
X10366253Y-15372079D01*
X10366253Y-15372079D02*
X10375777Y-15353031D01*
X10375777Y-15353031D02*
X10385301Y-15343508D01*
X10385301Y-15343508D02*
X10404348Y-15333984D01*
X10661491Y-15533984D02*
X10547206Y-15533984D01*
X10604348Y-15533984D02*
X10604348Y-15333984D01*
X10604348Y-15333984D02*
X10585301Y-15362555D01*
X10585301Y-15362555D02*
X10566253Y-15381603D01*
X10566253Y-15381603D02*
X10547206Y-15391127D01*
X10842444Y-15333984D02*
X10747206Y-15333984D01*
X10747206Y-15333984D02*
X10737682Y-15429222D01*
X10737682Y-15429222D02*
X10747206Y-15419698D01*
X10747206Y-15419698D02*
X10766253Y-15410174D01*
X10766253Y-15410174D02*
X10813872Y-15410174D01*
X10813872Y-15410174D02*
X10832920Y-15419698D01*
X10832920Y-15419698D02*
X10842444Y-15429222D01*
X10842444Y-15429222D02*
X10851968Y-15448269D01*
X10851968Y-15448269D02*
X10851968Y-15495888D01*
X10851968Y-15495888D02*
X10842444Y-15514936D01*
X10842444Y-15514936D02*
X10832920Y-15524460D01*
X10832920Y-15524460D02*
X10813872Y-15533984D01*
X10813872Y-15533984D02*
X10766253Y-15533984D01*
X10766253Y-15533984D02*
X10747206Y-15524460D01*
X10747206Y-15524460D02*
X10737682Y-15514936D01*
X10918634Y-15333984D02*
X11051968Y-15333984D01*
X11051968Y-15333984D02*
X10966253Y-15533984D01*
X11118634Y-15333984D02*
X11118634Y-15372079D01*
X11194825Y-15333984D02*
X11194825Y-15372079D01*
X11490063Y-15610174D02*
X11480539Y-15600650D01*
X11480539Y-15600650D02*
X11461491Y-15572079D01*
X11461491Y-15572079D02*
X11451968Y-15553031D01*
X11451968Y-15553031D02*
X11442444Y-15524460D01*
X11442444Y-15524460D02*
X11432920Y-15476841D01*
X11432920Y-15476841D02*
X11432920Y-15438746D01*
X11432920Y-15438746D02*
X11442444Y-15391127D01*
X11442444Y-15391127D02*
X11451968Y-15362555D01*
X11451968Y-15362555D02*
X11461491Y-15343508D01*
X11461491Y-15343508D02*
X11480539Y-15314936D01*
X11480539Y-15314936D02*
X11490063Y-15305412D01*
X11556729Y-15353031D02*
X11566253Y-15343508D01*
X11566253Y-15343508D02*
X11585301Y-15333984D01*
X11585301Y-15333984D02*
X11632920Y-15333984D01*
X11632920Y-15333984D02*
X11651968Y-15343508D01*
X11651968Y-15343508D02*
X11661491Y-15353031D01*
X11661491Y-15353031D02*
X11671015Y-15372079D01*
X11671015Y-15372079D02*
X11671015Y-15391127D01*
X11671015Y-15391127D02*
X11661491Y-15419698D01*
X11661491Y-15419698D02*
X11547206Y-15533984D01*
X11547206Y-15533984D02*
X11671015Y-15533984D01*
X11842444Y-15400650D02*
X11842444Y-15533984D01*
X11794825Y-15324460D02*
X11747206Y-15467317D01*
X11747206Y-15467317D02*
X11871015Y-15467317D01*
X11928158Y-15333984D02*
X12051968Y-15333984D01*
X12051968Y-15333984D02*
X11985301Y-15410174D01*
X11985301Y-15410174D02*
X12013872Y-15410174D01*
X12013872Y-15410174D02*
X12032920Y-15419698D01*
X12032920Y-15419698D02*
X12042444Y-15429222D01*
X12042444Y-15429222D02*
X12051968Y-15448269D01*
X12051968Y-15448269D02*
X12051968Y-15495888D01*
X12051968Y-15495888D02*
X12042444Y-15514936D01*
X12042444Y-15514936D02*
X12032920Y-15524460D01*
X12032920Y-15524460D02*
X12013872Y-15533984D01*
X12013872Y-15533984D02*
X11956729Y-15533984D01*
X11956729Y-15533984D02*
X11937682Y-15524460D01*
X11937682Y-15524460D02*
X11928158Y-15514936D01*
X12290063Y-15533984D02*
X12290063Y-15333984D01*
X12375777Y-15533984D02*
X12375777Y-15429222D01*
X12375777Y-15429222D02*
X12366253Y-15410174D01*
X12366253Y-15410174D02*
X12347206Y-15400650D01*
X12347206Y-15400650D02*
X12318634Y-15400650D01*
X12318634Y-15400650D02*
X12299587Y-15410174D01*
X12299587Y-15410174D02*
X12290063Y-15419698D01*
X12499587Y-15533984D02*
X12480539Y-15524460D01*
X12480539Y-15524460D02*
X12471015Y-15514936D01*
X12471015Y-15514936D02*
X12461491Y-15495888D01*
X12461491Y-15495888D02*
X12461491Y-15438746D01*
X12461491Y-15438746D02*
X12471015Y-15419698D01*
X12471015Y-15419698D02*
X12480539Y-15410174D01*
X12480539Y-15410174D02*
X12499587Y-15400650D01*
X12499587Y-15400650D02*
X12528158Y-15400650D01*
X12528158Y-15400650D02*
X12547206Y-15410174D01*
X12547206Y-15410174D02*
X12556730Y-15419698D01*
X12556730Y-15419698D02*
X12566253Y-15438746D01*
X12566253Y-15438746D02*
X12566253Y-15495888D01*
X12566253Y-15495888D02*
X12556730Y-15514936D01*
X12556730Y-15514936D02*
X12547206Y-15524460D01*
X12547206Y-15524460D02*
X12528158Y-15533984D01*
X12528158Y-15533984D02*
X12499587Y-15533984D01*
X12680539Y-15533984D02*
X12661491Y-15524460D01*
X12661491Y-15524460D02*
X12651968Y-15505412D01*
X12651968Y-15505412D02*
X12651968Y-15333984D01*
X12832920Y-15524460D02*
X12813872Y-15533984D01*
X12813872Y-15533984D02*
X12775777Y-15533984D01*
X12775777Y-15533984D02*
X12756730Y-15524460D01*
X12756730Y-15524460D02*
X12747206Y-15505412D01*
X12747206Y-15505412D02*
X12747206Y-15429222D01*
X12747206Y-15429222D02*
X12756730Y-15410174D01*
X12756730Y-15410174D02*
X12775777Y-15400650D01*
X12775777Y-15400650D02*
X12813872Y-15400650D01*
X12813872Y-15400650D02*
X12832920Y-15410174D01*
X12832920Y-15410174D02*
X12842444Y-15429222D01*
X12842444Y-15429222D02*
X12842444Y-15448269D01*
X12842444Y-15448269D02*
X12747206Y-15467317D01*
X12918634Y-15524460D02*
X12937682Y-15533984D01*
X12937682Y-15533984D02*
X12975777Y-15533984D01*
X12975777Y-15533984D02*
X12994825Y-15524460D01*
X12994825Y-15524460D02*
X13004349Y-15505412D01*
X13004349Y-15505412D02*
X13004349Y-15495888D01*
X13004349Y-15495888D02*
X12994825Y-15476841D01*
X12994825Y-15476841D02*
X12975777Y-15467317D01*
X12975777Y-15467317D02*
X12947206Y-15467317D01*
X12947206Y-15467317D02*
X12928158Y-15457793D01*
X12928158Y-15457793D02*
X12918634Y-15438746D01*
X12918634Y-15438746D02*
X12918634Y-15429222D01*
X12918634Y-15429222D02*
X12928158Y-15410174D01*
X12928158Y-15410174D02*
X12947206Y-15400650D01*
X12947206Y-15400650D02*
X12975777Y-15400650D01*
X12975777Y-15400650D02*
X12994825Y-15410174D01*
X13071015Y-15610174D02*
X13080539Y-15600650D01*
X13080539Y-15600650D02*
X13099587Y-15572079D01*
X13099587Y-15572079D02*
X13109111Y-15553031D01*
X13109111Y-15553031D02*
X13118634Y-15524460D01*
X13118634Y-15524460D02*
X13128158Y-15476841D01*
X13128158Y-15476841D02*
X13128158Y-15438746D01*
X13128158Y-15438746D02*
X13118634Y-15391127D01*
X13118634Y-15391127D02*
X13109111Y-15362555D01*
X13109111Y-15362555D02*
X13099587Y-15343508D01*
X13099587Y-15343508D02*
X13080539Y-15314936D01*
X13080539Y-15314936D02*
X13071015Y-15305412D01*
D12*
X7915000Y-15706500D02*
G75*
G02*
X7839000Y-15706500I-38000J0D01*
G01*
X7839000Y-15706500D02*
G75*
G02*
X7915000Y-15706500I38000J0D01*
G01*
D11*
X8213872Y-15597984D02*
X8232920Y-15597984D01*
X8232920Y-15597984D02*
X8251967Y-15607508D01*
X8251967Y-15607508D02*
X8261491Y-15617031D01*
X8261491Y-15617031D02*
X8271015Y-15636079D01*
X8271015Y-15636079D02*
X8280539Y-15674174D01*
X8280539Y-15674174D02*
X8280539Y-15721793D01*
X8280539Y-15721793D02*
X8271015Y-15759888D01*
X8271015Y-15759888D02*
X8261491Y-15778936D01*
X8261491Y-15778936D02*
X8251967Y-15788460D01*
X8251967Y-15788460D02*
X8232920Y-15797984D01*
X8232920Y-15797984D02*
X8213872Y-15797984D01*
X8213872Y-15797984D02*
X8194824Y-15788460D01*
X8194824Y-15788460D02*
X8185301Y-15778936D01*
X8185301Y-15778936D02*
X8175777Y-15759888D01*
X8175777Y-15759888D02*
X8166253Y-15721793D01*
X8166253Y-15721793D02*
X8166253Y-15674174D01*
X8166253Y-15674174D02*
X8175777Y-15636079D01*
X8175777Y-15636079D02*
X8185301Y-15617031D01*
X8185301Y-15617031D02*
X8194824Y-15607508D01*
X8194824Y-15607508D02*
X8213872Y-15597984D01*
X8366253Y-15778936D02*
X8375777Y-15788460D01*
X8375777Y-15788460D02*
X8366253Y-15797984D01*
X8366253Y-15797984D02*
X8356729Y-15788460D01*
X8356729Y-15788460D02*
X8366253Y-15778936D01*
X8366253Y-15778936D02*
X8366253Y-15797984D01*
X8442444Y-15597984D02*
X8575777Y-15597984D01*
X8575777Y-15597984D02*
X8490063Y-15797984D01*
X8737682Y-15597984D02*
X8699586Y-15597984D01*
X8699586Y-15597984D02*
X8680539Y-15607508D01*
X8680539Y-15607508D02*
X8671015Y-15617031D01*
X8671015Y-15617031D02*
X8651967Y-15645603D01*
X8651967Y-15645603D02*
X8642444Y-15683698D01*
X8642444Y-15683698D02*
X8642444Y-15759888D01*
X8642444Y-15759888D02*
X8651967Y-15778936D01*
X8651967Y-15778936D02*
X8661491Y-15788460D01*
X8661491Y-15788460D02*
X8680539Y-15797984D01*
X8680539Y-15797984D02*
X8718634Y-15797984D01*
X8718634Y-15797984D02*
X8737682Y-15788460D01*
X8737682Y-15788460D02*
X8747205Y-15778936D01*
X8747205Y-15778936D02*
X8756729Y-15759888D01*
X8756729Y-15759888D02*
X8756729Y-15712269D01*
X8756729Y-15712269D02*
X8747205Y-15693222D01*
X8747205Y-15693222D02*
X8737682Y-15683698D01*
X8737682Y-15683698D02*
X8718634Y-15674174D01*
X8718634Y-15674174D02*
X8680539Y-15674174D01*
X8680539Y-15674174D02*
X8661491Y-15683698D01*
X8661491Y-15683698D02*
X8651967Y-15693222D01*
X8651967Y-15693222D02*
X8642444Y-15712269D01*
X8880539Y-15597984D02*
X8899586Y-15597984D01*
X8899586Y-15597984D02*
X8918634Y-15607508D01*
X8918634Y-15607508D02*
X8928158Y-15617031D01*
X8928158Y-15617031D02*
X8937682Y-15636079D01*
X8937682Y-15636079D02*
X8947205Y-15674174D01*
X8947205Y-15674174D02*
X8947205Y-15721793D01*
X8947205Y-15721793D02*
X8937682Y-15759888D01*
X8937682Y-15759888D02*
X8928158Y-15778936D01*
X8928158Y-15778936D02*
X8918634Y-15788460D01*
X8918634Y-15788460D02*
X8899586Y-15797984D01*
X8899586Y-15797984D02*
X8880539Y-15797984D01*
X8880539Y-15797984D02*
X8861491Y-15788460D01*
X8861491Y-15788460D02*
X8851967Y-15778936D01*
X8851967Y-15778936D02*
X8842444Y-15759888D01*
X8842444Y-15759888D02*
X8832920Y-15721793D01*
X8832920Y-15721793D02*
X8832920Y-15674174D01*
X8832920Y-15674174D02*
X8842444Y-15636079D01*
X8842444Y-15636079D02*
X8851967Y-15617031D01*
X8851967Y-15617031D02*
X8861491Y-15607508D01*
X8861491Y-15607508D02*
X8880539Y-15597984D01*
X9032920Y-15797984D02*
X9032920Y-15664650D01*
X9032920Y-15683698D02*
X9042444Y-15674174D01*
X9042444Y-15674174D02*
X9061491Y-15664650D01*
X9061491Y-15664650D02*
X9090063Y-15664650D01*
X9090063Y-15664650D02*
X9109110Y-15674174D01*
X9109110Y-15674174D02*
X9118634Y-15693222D01*
X9118634Y-15693222D02*
X9118634Y-15797984D01*
X9118634Y-15693222D02*
X9128158Y-15674174D01*
X9128158Y-15674174D02*
X9147205Y-15664650D01*
X9147205Y-15664650D02*
X9175777Y-15664650D01*
X9175777Y-15664650D02*
X9194825Y-15674174D01*
X9194825Y-15674174D02*
X9204348Y-15693222D01*
X9204348Y-15693222D02*
X9204348Y-15797984D01*
X9299586Y-15797984D02*
X9299586Y-15664650D01*
X9299586Y-15683698D02*
X9309110Y-15674174D01*
X9309110Y-15674174D02*
X9328158Y-15664650D01*
X9328158Y-15664650D02*
X9356729Y-15664650D01*
X9356729Y-15664650D02*
X9375777Y-15674174D01*
X9375777Y-15674174D02*
X9385301Y-15693222D01*
X9385301Y-15693222D02*
X9385301Y-15797984D01*
X9385301Y-15693222D02*
X9394825Y-15674174D01*
X9394825Y-15674174D02*
X9413872Y-15664650D01*
X9413872Y-15664650D02*
X9442444Y-15664650D01*
X9442444Y-15664650D02*
X9461491Y-15674174D01*
X9461491Y-15674174D02*
X9471015Y-15693222D01*
X9471015Y-15693222D02*
X9471015Y-15797984D01*
X9861491Y-15588460D02*
X9690063Y-15845603D01*
X10118634Y-15597984D02*
X10137682Y-15597984D01*
X10137682Y-15597984D02*
X10156729Y-15607508D01*
X10156729Y-15607508D02*
X10166253Y-15617031D01*
X10166253Y-15617031D02*
X10175777Y-15636079D01*
X10175777Y-15636079D02*
X10185301Y-15674174D01*
X10185301Y-15674174D02*
X10185301Y-15721793D01*
X10185301Y-15721793D02*
X10175777Y-15759888D01*
X10175777Y-15759888D02*
X10166253Y-15778936D01*
X10166253Y-15778936D02*
X10156729Y-15788460D01*
X10156729Y-15788460D02*
X10137682Y-15797984D01*
X10137682Y-15797984D02*
X10118634Y-15797984D01*
X10118634Y-15797984D02*
X10099587Y-15788460D01*
X10099587Y-15788460D02*
X10090063Y-15778936D01*
X10090063Y-15778936D02*
X10080539Y-15759888D01*
X10080539Y-15759888D02*
X10071015Y-15721793D01*
X10071015Y-15721793D02*
X10071015Y-15674174D01*
X10071015Y-15674174D02*
X10080539Y-15636079D01*
X10080539Y-15636079D02*
X10090063Y-15617031D01*
X10090063Y-15617031D02*
X10099587Y-15607508D01*
X10099587Y-15607508D02*
X10118634Y-15597984D01*
X10271015Y-15778936D02*
X10280539Y-15788460D01*
X10280539Y-15788460D02*
X10271015Y-15797984D01*
X10271015Y-15797984D02*
X10261491Y-15788460D01*
X10261491Y-15788460D02*
X10271015Y-15778936D01*
X10271015Y-15778936D02*
X10271015Y-15797984D01*
X10404348Y-15597984D02*
X10423396Y-15597984D01*
X10423396Y-15597984D02*
X10442444Y-15607508D01*
X10442444Y-15607508D02*
X10451968Y-15617031D01*
X10451968Y-15617031D02*
X10461491Y-15636079D01*
X10461491Y-15636079D02*
X10471015Y-15674174D01*
X10471015Y-15674174D02*
X10471015Y-15721793D01*
X10471015Y-15721793D02*
X10461491Y-15759888D01*
X10461491Y-15759888D02*
X10451968Y-15778936D01*
X10451968Y-15778936D02*
X10442444Y-15788460D01*
X10442444Y-15788460D02*
X10423396Y-15797984D01*
X10423396Y-15797984D02*
X10404348Y-15797984D01*
X10404348Y-15797984D02*
X10385301Y-15788460D01*
X10385301Y-15788460D02*
X10375777Y-15778936D01*
X10375777Y-15778936D02*
X10366253Y-15759888D01*
X10366253Y-15759888D02*
X10356729Y-15721793D01*
X10356729Y-15721793D02*
X10356729Y-15674174D01*
X10356729Y-15674174D02*
X10366253Y-15636079D01*
X10366253Y-15636079D02*
X10375777Y-15617031D01*
X10375777Y-15617031D02*
X10385301Y-15607508D01*
X10385301Y-15607508D02*
X10404348Y-15597984D01*
X10547206Y-15617031D02*
X10556729Y-15607508D01*
X10556729Y-15607508D02*
X10575777Y-15597984D01*
X10575777Y-15597984D02*
X10623396Y-15597984D01*
X10623396Y-15597984D02*
X10642444Y-15607508D01*
X10642444Y-15607508D02*
X10651968Y-15617031D01*
X10651968Y-15617031D02*
X10661491Y-15636079D01*
X10661491Y-15636079D02*
X10661491Y-15655127D01*
X10661491Y-15655127D02*
X10651968Y-15683698D01*
X10651968Y-15683698D02*
X10537682Y-15797984D01*
X10537682Y-15797984D02*
X10661491Y-15797984D01*
X10756729Y-15797984D02*
X10794825Y-15797984D01*
X10794825Y-15797984D02*
X10813872Y-15788460D01*
X10813872Y-15788460D02*
X10823396Y-15778936D01*
X10823396Y-15778936D02*
X10842444Y-15750365D01*
X10842444Y-15750365D02*
X10851968Y-15712269D01*
X10851968Y-15712269D02*
X10851968Y-15636079D01*
X10851968Y-15636079D02*
X10842444Y-15617031D01*
X10842444Y-15617031D02*
X10832920Y-15607508D01*
X10832920Y-15607508D02*
X10813872Y-15597984D01*
X10813872Y-15597984D02*
X10775777Y-15597984D01*
X10775777Y-15597984D02*
X10756729Y-15607508D01*
X10756729Y-15607508D02*
X10747206Y-15617031D01*
X10747206Y-15617031D02*
X10737682Y-15636079D01*
X10737682Y-15636079D02*
X10737682Y-15683698D01*
X10737682Y-15683698D02*
X10747206Y-15702746D01*
X10747206Y-15702746D02*
X10756729Y-15712269D01*
X10756729Y-15712269D02*
X10775777Y-15721793D01*
X10775777Y-15721793D02*
X10813872Y-15721793D01*
X10813872Y-15721793D02*
X10832920Y-15712269D01*
X10832920Y-15712269D02*
X10842444Y-15702746D01*
X10842444Y-15702746D02*
X10851968Y-15683698D01*
X10947206Y-15797984D02*
X10985301Y-15797984D01*
X10985301Y-15797984D02*
X11004349Y-15788460D01*
X11004349Y-15788460D02*
X11013872Y-15778936D01*
X11013872Y-15778936D02*
X11032920Y-15750365D01*
X11032920Y-15750365D02*
X11042444Y-15712269D01*
X11042444Y-15712269D02*
X11042444Y-15636079D01*
X11042444Y-15636079D02*
X11032920Y-15617031D01*
X11032920Y-15617031D02*
X11023396Y-15607508D01*
X11023396Y-15607508D02*
X11004349Y-15597984D01*
X11004349Y-15597984D02*
X10966253Y-15597984D01*
X10966253Y-15597984D02*
X10947206Y-15607508D01*
X10947206Y-15607508D02*
X10937682Y-15617031D01*
X10937682Y-15617031D02*
X10928158Y-15636079D01*
X10928158Y-15636079D02*
X10928158Y-15683698D01*
X10928158Y-15683698D02*
X10937682Y-15702746D01*
X10937682Y-15702746D02*
X10947206Y-15712269D01*
X10947206Y-15712269D02*
X10966253Y-15721793D01*
X10966253Y-15721793D02*
X11004349Y-15721793D01*
X11004349Y-15721793D02*
X11023396Y-15712269D01*
X11023396Y-15712269D02*
X11032920Y-15702746D01*
X11032920Y-15702746D02*
X11042444Y-15683698D01*
X11118634Y-15597984D02*
X11118634Y-15636079D01*
X11194825Y-15597984D02*
X11194825Y-15636079D01*
X11490063Y-15874174D02*
X11480539Y-15864650D01*
X11480539Y-15864650D02*
X11461491Y-15836079D01*
X11461491Y-15836079D02*
X11451968Y-15817031D01*
X11451968Y-15817031D02*
X11442444Y-15788460D01*
X11442444Y-15788460D02*
X11432920Y-15740841D01*
X11432920Y-15740841D02*
X11432920Y-15702746D01*
X11432920Y-15702746D02*
X11442444Y-15655127D01*
X11442444Y-15655127D02*
X11451968Y-15626555D01*
X11451968Y-15626555D02*
X11461491Y-15607508D01*
X11461491Y-15607508D02*
X11480539Y-15578936D01*
X11480539Y-15578936D02*
X11490063Y-15569412D01*
X11671015Y-15797984D02*
X11556729Y-15797984D01*
X11613872Y-15797984D02*
X11613872Y-15597984D01*
X11613872Y-15597984D02*
X11594825Y-15626555D01*
X11594825Y-15626555D02*
X11575777Y-15645603D01*
X11575777Y-15645603D02*
X11556729Y-15655127D01*
X11842444Y-15597984D02*
X11804348Y-15597984D01*
X11804348Y-15597984D02*
X11785301Y-15607508D01*
X11785301Y-15607508D02*
X11775777Y-15617031D01*
X11775777Y-15617031D02*
X11756729Y-15645603D01*
X11756729Y-15645603D02*
X11747206Y-15683698D01*
X11747206Y-15683698D02*
X11747206Y-15759888D01*
X11747206Y-15759888D02*
X11756729Y-15778936D01*
X11756729Y-15778936D02*
X11766253Y-15788460D01*
X11766253Y-15788460D02*
X11785301Y-15797984D01*
X11785301Y-15797984D02*
X11823396Y-15797984D01*
X11823396Y-15797984D02*
X11842444Y-15788460D01*
X11842444Y-15788460D02*
X11851968Y-15778936D01*
X11851968Y-15778936D02*
X11861491Y-15759888D01*
X11861491Y-15759888D02*
X11861491Y-15712269D01*
X11861491Y-15712269D02*
X11851968Y-15693222D01*
X11851968Y-15693222D02*
X11842444Y-15683698D01*
X11842444Y-15683698D02*
X11823396Y-15674174D01*
X11823396Y-15674174D02*
X11785301Y-15674174D01*
X11785301Y-15674174D02*
X11766253Y-15683698D01*
X11766253Y-15683698D02*
X11756729Y-15693222D01*
X11756729Y-15693222D02*
X11747206Y-15712269D01*
X12099587Y-15797984D02*
X12099587Y-15597984D01*
X12185301Y-15797984D02*
X12185301Y-15693222D01*
X12185301Y-15693222D02*
X12175777Y-15674174D01*
X12175777Y-15674174D02*
X12156730Y-15664650D01*
X12156730Y-15664650D02*
X12128158Y-15664650D01*
X12128158Y-15664650D02*
X12109110Y-15674174D01*
X12109110Y-15674174D02*
X12099587Y-15683698D01*
X12309110Y-15797984D02*
X12290063Y-15788460D01*
X12290063Y-15788460D02*
X12280539Y-15778936D01*
X12280539Y-15778936D02*
X12271015Y-15759888D01*
X12271015Y-15759888D02*
X12271015Y-15702746D01*
X12271015Y-15702746D02*
X12280539Y-15683698D01*
X12280539Y-15683698D02*
X12290063Y-15674174D01*
X12290063Y-15674174D02*
X12309110Y-15664650D01*
X12309110Y-15664650D02*
X12337682Y-15664650D01*
X12337682Y-15664650D02*
X12356730Y-15674174D01*
X12356730Y-15674174D02*
X12366253Y-15683698D01*
X12366253Y-15683698D02*
X12375777Y-15702746D01*
X12375777Y-15702746D02*
X12375777Y-15759888D01*
X12375777Y-15759888D02*
X12366253Y-15778936D01*
X12366253Y-15778936D02*
X12356730Y-15788460D01*
X12356730Y-15788460D02*
X12337682Y-15797984D01*
X12337682Y-15797984D02*
X12309110Y-15797984D01*
X12490063Y-15797984D02*
X12471015Y-15788460D01*
X12471015Y-15788460D02*
X12461491Y-15769412D01*
X12461491Y-15769412D02*
X12461491Y-15597984D01*
X12642444Y-15788460D02*
X12623396Y-15797984D01*
X12623396Y-15797984D02*
X12585301Y-15797984D01*
X12585301Y-15797984D02*
X12566253Y-15788460D01*
X12566253Y-15788460D02*
X12556730Y-15769412D01*
X12556730Y-15769412D02*
X12556730Y-15693222D01*
X12556730Y-15693222D02*
X12566253Y-15674174D01*
X12566253Y-15674174D02*
X12585301Y-15664650D01*
X12585301Y-15664650D02*
X12623396Y-15664650D01*
X12623396Y-15664650D02*
X12642444Y-15674174D01*
X12642444Y-15674174D02*
X12651968Y-15693222D01*
X12651968Y-15693222D02*
X12651968Y-15712269D01*
X12651968Y-15712269D02*
X12556730Y-15731317D01*
X12728158Y-15788460D02*
X12747206Y-15797984D01*
X12747206Y-15797984D02*
X12785301Y-15797984D01*
X12785301Y-15797984D02*
X12804349Y-15788460D01*
X12804349Y-15788460D02*
X12813872Y-15769412D01*
X12813872Y-15769412D02*
X12813872Y-15759888D01*
X12813872Y-15759888D02*
X12804349Y-15740841D01*
X12804349Y-15740841D02*
X12785301Y-15731317D01*
X12785301Y-15731317D02*
X12756730Y-15731317D01*
X12756730Y-15731317D02*
X12737682Y-15721793D01*
X12737682Y-15721793D02*
X12728158Y-15702746D01*
X12728158Y-15702746D02*
X12728158Y-15693222D01*
X12728158Y-15693222D02*
X12737682Y-15674174D01*
X12737682Y-15674174D02*
X12756730Y-15664650D01*
X12756730Y-15664650D02*
X12785301Y-15664650D01*
X12785301Y-15664650D02*
X12804349Y-15674174D01*
X12880539Y-15874174D02*
X12890063Y-15864650D01*
X12890063Y-15864650D02*
X12909111Y-15836079D01*
X12909111Y-15836079D02*
X12918634Y-15817031D01*
X12918634Y-15817031D02*
X12928158Y-15788460D01*
X12928158Y-15788460D02*
X12937682Y-15740841D01*
X12937682Y-15740841D02*
X12937682Y-15702746D01*
X12937682Y-15702746D02*
X12928158Y-15655127D01*
X12928158Y-15655127D02*
X12918634Y-15626555D01*
X12918634Y-15626555D02*
X12909111Y-15607508D01*
X12909111Y-15607508D02*
X12890063Y-15578936D01*
X12890063Y-15578936D02*
X12880539Y-15569412D01*
D12*
X7865000Y-15920500D02*
X7865000Y-16020500D01*
X7815000Y-15970500D02*
X7915000Y-15970500D01*
D11*
X8280539Y-16061984D02*
X8166253Y-16061984D01*
X8223396Y-16061984D02*
X8223396Y-15861984D01*
X8223396Y-15861984D02*
X8204348Y-15890555D01*
X8204348Y-15890555D02*
X8185301Y-15909603D01*
X8185301Y-15909603D02*
X8166253Y-15919127D01*
X8366253Y-16042936D02*
X8375777Y-16052460D01*
X8375777Y-16052460D02*
X8366253Y-16061984D01*
X8366253Y-16061984D02*
X8356729Y-16052460D01*
X8356729Y-16052460D02*
X8366253Y-16042936D01*
X8366253Y-16042936D02*
X8366253Y-16061984D01*
X8499586Y-15861984D02*
X8518634Y-15861984D01*
X8518634Y-15861984D02*
X8537682Y-15871508D01*
X8537682Y-15871508D02*
X8547205Y-15881031D01*
X8547205Y-15881031D02*
X8556729Y-15900079D01*
X8556729Y-15900079D02*
X8566253Y-15938174D01*
X8566253Y-15938174D02*
X8566253Y-15985793D01*
X8566253Y-15985793D02*
X8556729Y-16023888D01*
X8556729Y-16023888D02*
X8547205Y-16042936D01*
X8547205Y-16042936D02*
X8537682Y-16052460D01*
X8537682Y-16052460D02*
X8518634Y-16061984D01*
X8518634Y-16061984D02*
X8499586Y-16061984D01*
X8499586Y-16061984D02*
X8480539Y-16052460D01*
X8480539Y-16052460D02*
X8471015Y-16042936D01*
X8471015Y-16042936D02*
X8461491Y-16023888D01*
X8461491Y-16023888D02*
X8451967Y-15985793D01*
X8451967Y-15985793D02*
X8451967Y-15938174D01*
X8451967Y-15938174D02*
X8461491Y-15900079D01*
X8461491Y-15900079D02*
X8471015Y-15881031D01*
X8471015Y-15881031D02*
X8480539Y-15871508D01*
X8480539Y-15871508D02*
X8499586Y-15861984D01*
X8690063Y-15861984D02*
X8709110Y-15861984D01*
X8709110Y-15861984D02*
X8728158Y-15871508D01*
X8728158Y-15871508D02*
X8737682Y-15881031D01*
X8737682Y-15881031D02*
X8747205Y-15900079D01*
X8747205Y-15900079D02*
X8756729Y-15938174D01*
X8756729Y-15938174D02*
X8756729Y-15985793D01*
X8756729Y-15985793D02*
X8747205Y-16023888D01*
X8747205Y-16023888D02*
X8737682Y-16042936D01*
X8737682Y-16042936D02*
X8728158Y-16052460D01*
X8728158Y-16052460D02*
X8709110Y-16061984D01*
X8709110Y-16061984D02*
X8690063Y-16061984D01*
X8690063Y-16061984D02*
X8671015Y-16052460D01*
X8671015Y-16052460D02*
X8661491Y-16042936D01*
X8661491Y-16042936D02*
X8651967Y-16023888D01*
X8651967Y-16023888D02*
X8642444Y-15985793D01*
X8642444Y-15985793D02*
X8642444Y-15938174D01*
X8642444Y-15938174D02*
X8651967Y-15900079D01*
X8651967Y-15900079D02*
X8661491Y-15881031D01*
X8661491Y-15881031D02*
X8671015Y-15871508D01*
X8671015Y-15871508D02*
X8690063Y-15861984D01*
X8880539Y-15861984D02*
X8899586Y-15861984D01*
X8899586Y-15861984D02*
X8918634Y-15871508D01*
X8918634Y-15871508D02*
X8928158Y-15881031D01*
X8928158Y-15881031D02*
X8937682Y-15900079D01*
X8937682Y-15900079D02*
X8947205Y-15938174D01*
X8947205Y-15938174D02*
X8947205Y-15985793D01*
X8947205Y-15985793D02*
X8937682Y-16023888D01*
X8937682Y-16023888D02*
X8928158Y-16042936D01*
X8928158Y-16042936D02*
X8918634Y-16052460D01*
X8918634Y-16052460D02*
X8899586Y-16061984D01*
X8899586Y-16061984D02*
X8880539Y-16061984D01*
X8880539Y-16061984D02*
X8861491Y-16052460D01*
X8861491Y-16052460D02*
X8851967Y-16042936D01*
X8851967Y-16042936D02*
X8842444Y-16023888D01*
X8842444Y-16023888D02*
X8832920Y-15985793D01*
X8832920Y-15985793D02*
X8832920Y-15938174D01*
X8832920Y-15938174D02*
X8842444Y-15900079D01*
X8842444Y-15900079D02*
X8851967Y-15881031D01*
X8851967Y-15881031D02*
X8861491Y-15871508D01*
X8861491Y-15871508D02*
X8880539Y-15861984D01*
X9032920Y-16061984D02*
X9032920Y-15928650D01*
X9032920Y-15947698D02*
X9042444Y-15938174D01*
X9042444Y-15938174D02*
X9061491Y-15928650D01*
X9061491Y-15928650D02*
X9090063Y-15928650D01*
X9090063Y-15928650D02*
X9109110Y-15938174D01*
X9109110Y-15938174D02*
X9118634Y-15957222D01*
X9118634Y-15957222D02*
X9118634Y-16061984D01*
X9118634Y-15957222D02*
X9128158Y-15938174D01*
X9128158Y-15938174D02*
X9147205Y-15928650D01*
X9147205Y-15928650D02*
X9175777Y-15928650D01*
X9175777Y-15928650D02*
X9194825Y-15938174D01*
X9194825Y-15938174D02*
X9204348Y-15957222D01*
X9204348Y-15957222D02*
X9204348Y-16061984D01*
X9299586Y-16061984D02*
X9299586Y-15928650D01*
X9299586Y-15947698D02*
X9309110Y-15938174D01*
X9309110Y-15938174D02*
X9328158Y-15928650D01*
X9328158Y-15928650D02*
X9356729Y-15928650D01*
X9356729Y-15928650D02*
X9375777Y-15938174D01*
X9375777Y-15938174D02*
X9385301Y-15957222D01*
X9385301Y-15957222D02*
X9385301Y-16061984D01*
X9385301Y-15957222D02*
X9394825Y-15938174D01*
X9394825Y-15938174D02*
X9413872Y-15928650D01*
X9413872Y-15928650D02*
X9442444Y-15928650D01*
X9442444Y-15928650D02*
X9461491Y-15938174D01*
X9461491Y-15938174D02*
X9471015Y-15957222D01*
X9471015Y-15957222D02*
X9471015Y-16061984D01*
X9861491Y-15852460D02*
X9690063Y-16109603D01*
X10118634Y-15861984D02*
X10137682Y-15861984D01*
X10137682Y-15861984D02*
X10156729Y-15871508D01*
X10156729Y-15871508D02*
X10166253Y-15881031D01*
X10166253Y-15881031D02*
X10175777Y-15900079D01*
X10175777Y-15900079D02*
X10185301Y-15938174D01*
X10185301Y-15938174D02*
X10185301Y-15985793D01*
X10185301Y-15985793D02*
X10175777Y-16023888D01*
X10175777Y-16023888D02*
X10166253Y-16042936D01*
X10166253Y-16042936D02*
X10156729Y-16052460D01*
X10156729Y-16052460D02*
X10137682Y-16061984D01*
X10137682Y-16061984D02*
X10118634Y-16061984D01*
X10118634Y-16061984D02*
X10099587Y-16052460D01*
X10099587Y-16052460D02*
X10090063Y-16042936D01*
X10090063Y-16042936D02*
X10080539Y-16023888D01*
X10080539Y-16023888D02*
X10071015Y-15985793D01*
X10071015Y-15985793D02*
X10071015Y-15938174D01*
X10071015Y-15938174D02*
X10080539Y-15900079D01*
X10080539Y-15900079D02*
X10090063Y-15881031D01*
X10090063Y-15881031D02*
X10099587Y-15871508D01*
X10099587Y-15871508D02*
X10118634Y-15861984D01*
X10271015Y-16042936D02*
X10280539Y-16052460D01*
X10280539Y-16052460D02*
X10271015Y-16061984D01*
X10271015Y-16061984D02*
X10261491Y-16052460D01*
X10261491Y-16052460D02*
X10271015Y-16042936D01*
X10271015Y-16042936D02*
X10271015Y-16061984D01*
X10404348Y-15861984D02*
X10423396Y-15861984D01*
X10423396Y-15861984D02*
X10442444Y-15871508D01*
X10442444Y-15871508D02*
X10451968Y-15881031D01*
X10451968Y-15881031D02*
X10461491Y-15900079D01*
X10461491Y-15900079D02*
X10471015Y-15938174D01*
X10471015Y-15938174D02*
X10471015Y-15985793D01*
X10471015Y-15985793D02*
X10461491Y-16023888D01*
X10461491Y-16023888D02*
X10451968Y-16042936D01*
X10451968Y-16042936D02*
X10442444Y-16052460D01*
X10442444Y-16052460D02*
X10423396Y-16061984D01*
X10423396Y-16061984D02*
X10404348Y-16061984D01*
X10404348Y-16061984D02*
X10385301Y-16052460D01*
X10385301Y-16052460D02*
X10375777Y-16042936D01*
X10375777Y-16042936D02*
X10366253Y-16023888D01*
X10366253Y-16023888D02*
X10356729Y-15985793D01*
X10356729Y-15985793D02*
X10356729Y-15938174D01*
X10356729Y-15938174D02*
X10366253Y-15900079D01*
X10366253Y-15900079D02*
X10375777Y-15881031D01*
X10375777Y-15881031D02*
X10385301Y-15871508D01*
X10385301Y-15871508D02*
X10404348Y-15861984D01*
X10537682Y-15861984D02*
X10661491Y-15861984D01*
X10661491Y-15861984D02*
X10594825Y-15938174D01*
X10594825Y-15938174D02*
X10623396Y-15938174D01*
X10623396Y-15938174D02*
X10642444Y-15947698D01*
X10642444Y-15947698D02*
X10651968Y-15957222D01*
X10651968Y-15957222D02*
X10661491Y-15976269D01*
X10661491Y-15976269D02*
X10661491Y-16023888D01*
X10661491Y-16023888D02*
X10651968Y-16042936D01*
X10651968Y-16042936D02*
X10642444Y-16052460D01*
X10642444Y-16052460D02*
X10623396Y-16061984D01*
X10623396Y-16061984D02*
X10566253Y-16061984D01*
X10566253Y-16061984D02*
X10547206Y-16052460D01*
X10547206Y-16052460D02*
X10537682Y-16042936D01*
X10756729Y-16061984D02*
X10794825Y-16061984D01*
X10794825Y-16061984D02*
X10813872Y-16052460D01*
X10813872Y-16052460D02*
X10823396Y-16042936D01*
X10823396Y-16042936D02*
X10842444Y-16014365D01*
X10842444Y-16014365D02*
X10851968Y-15976269D01*
X10851968Y-15976269D02*
X10851968Y-15900079D01*
X10851968Y-15900079D02*
X10842444Y-15881031D01*
X10842444Y-15881031D02*
X10832920Y-15871508D01*
X10832920Y-15871508D02*
X10813872Y-15861984D01*
X10813872Y-15861984D02*
X10775777Y-15861984D01*
X10775777Y-15861984D02*
X10756729Y-15871508D01*
X10756729Y-15871508D02*
X10747206Y-15881031D01*
X10747206Y-15881031D02*
X10737682Y-15900079D01*
X10737682Y-15900079D02*
X10737682Y-15947698D01*
X10737682Y-15947698D02*
X10747206Y-15966746D01*
X10747206Y-15966746D02*
X10756729Y-15976269D01*
X10756729Y-15976269D02*
X10775777Y-15985793D01*
X10775777Y-15985793D02*
X10813872Y-15985793D01*
X10813872Y-15985793D02*
X10832920Y-15976269D01*
X10832920Y-15976269D02*
X10842444Y-15966746D01*
X10842444Y-15966746D02*
X10851968Y-15947698D01*
X11023396Y-15928650D02*
X11023396Y-16061984D01*
X10975777Y-15852460D02*
X10928158Y-15995317D01*
X10928158Y-15995317D02*
X11051968Y-15995317D01*
X11118634Y-15861984D02*
X11118634Y-15900079D01*
X11194825Y-15861984D02*
X11194825Y-15900079D01*
X11490063Y-16138174D02*
X11480539Y-16128650D01*
X11480539Y-16128650D02*
X11461491Y-16100079D01*
X11461491Y-16100079D02*
X11451968Y-16081031D01*
X11451968Y-16081031D02*
X11442444Y-16052460D01*
X11442444Y-16052460D02*
X11432920Y-16004841D01*
X11432920Y-16004841D02*
X11432920Y-15966746D01*
X11432920Y-15966746D02*
X11442444Y-15919127D01*
X11442444Y-15919127D02*
X11451968Y-15890555D01*
X11451968Y-15890555D02*
X11461491Y-15871508D01*
X11461491Y-15871508D02*
X11480539Y-15842936D01*
X11480539Y-15842936D02*
X11490063Y-15833412D01*
X11671015Y-16061984D02*
X11556729Y-16061984D01*
X11613872Y-16061984D02*
X11613872Y-15861984D01*
X11613872Y-15861984D02*
X11594825Y-15890555D01*
X11594825Y-15890555D02*
X11575777Y-15909603D01*
X11575777Y-15909603D02*
X11556729Y-15919127D01*
X11747206Y-15881031D02*
X11756729Y-15871508D01*
X11756729Y-15871508D02*
X11775777Y-15861984D01*
X11775777Y-15861984D02*
X11823396Y-15861984D01*
X11823396Y-15861984D02*
X11842444Y-15871508D01*
X11842444Y-15871508D02*
X11851968Y-15881031D01*
X11851968Y-15881031D02*
X11861491Y-15900079D01*
X11861491Y-15900079D02*
X11861491Y-15919127D01*
X11861491Y-15919127D02*
X11851968Y-15947698D01*
X11851968Y-15947698D02*
X11737682Y-16061984D01*
X11737682Y-16061984D02*
X11861491Y-16061984D01*
X12051968Y-16061984D02*
X11937682Y-16061984D01*
X11994825Y-16061984D02*
X11994825Y-15861984D01*
X11994825Y-15861984D02*
X11975777Y-15890555D01*
X11975777Y-15890555D02*
X11956729Y-15909603D01*
X11956729Y-15909603D02*
X11937682Y-15919127D01*
X12290063Y-16061984D02*
X12290063Y-15861984D01*
X12375777Y-16061984D02*
X12375777Y-15957222D01*
X12375777Y-15957222D02*
X12366253Y-15938174D01*
X12366253Y-15938174D02*
X12347206Y-15928650D01*
X12347206Y-15928650D02*
X12318634Y-15928650D01*
X12318634Y-15928650D02*
X12299587Y-15938174D01*
X12299587Y-15938174D02*
X12290063Y-15947698D01*
X12499587Y-16061984D02*
X12480539Y-16052460D01*
X12480539Y-16052460D02*
X12471015Y-16042936D01*
X12471015Y-16042936D02*
X12461491Y-16023888D01*
X12461491Y-16023888D02*
X12461491Y-15966746D01*
X12461491Y-15966746D02*
X12471015Y-15947698D01*
X12471015Y-15947698D02*
X12480539Y-15938174D01*
X12480539Y-15938174D02*
X12499587Y-15928650D01*
X12499587Y-15928650D02*
X12528158Y-15928650D01*
X12528158Y-15928650D02*
X12547206Y-15938174D01*
X12547206Y-15938174D02*
X12556730Y-15947698D01*
X12556730Y-15947698D02*
X12566253Y-15966746D01*
X12566253Y-15966746D02*
X12566253Y-16023888D01*
X12566253Y-16023888D02*
X12556730Y-16042936D01*
X12556730Y-16042936D02*
X12547206Y-16052460D01*
X12547206Y-16052460D02*
X12528158Y-16061984D01*
X12528158Y-16061984D02*
X12499587Y-16061984D01*
X12680539Y-16061984D02*
X12661491Y-16052460D01*
X12661491Y-16052460D02*
X12651968Y-16033412D01*
X12651968Y-16033412D02*
X12651968Y-15861984D01*
X12832920Y-16052460D02*
X12813872Y-16061984D01*
X12813872Y-16061984D02*
X12775777Y-16061984D01*
X12775777Y-16061984D02*
X12756730Y-16052460D01*
X12756730Y-16052460D02*
X12747206Y-16033412D01*
X12747206Y-16033412D02*
X12747206Y-15957222D01*
X12747206Y-15957222D02*
X12756730Y-15938174D01*
X12756730Y-15938174D02*
X12775777Y-15928650D01*
X12775777Y-15928650D02*
X12813872Y-15928650D01*
X12813872Y-15928650D02*
X12832920Y-15938174D01*
X12832920Y-15938174D02*
X12842444Y-15957222D01*
X12842444Y-15957222D02*
X12842444Y-15976269D01*
X12842444Y-15976269D02*
X12747206Y-15995317D01*
X12918634Y-16052460D02*
X12937682Y-16061984D01*
X12937682Y-16061984D02*
X12975777Y-16061984D01*
X12975777Y-16061984D02*
X12994825Y-16052460D01*
X12994825Y-16052460D02*
X13004349Y-16033412D01*
X13004349Y-16033412D02*
X13004349Y-16023888D01*
X13004349Y-16023888D02*
X12994825Y-16004841D01*
X12994825Y-16004841D02*
X12975777Y-15995317D01*
X12975777Y-15995317D02*
X12947206Y-15995317D01*
X12947206Y-15995317D02*
X12928158Y-15985793D01*
X12928158Y-15985793D02*
X12918634Y-15966746D01*
X12918634Y-15966746D02*
X12918634Y-15957222D01*
X12918634Y-15957222D02*
X12928158Y-15938174D01*
X12928158Y-15938174D02*
X12947206Y-15928650D01*
X12947206Y-15928650D02*
X12975777Y-15928650D01*
X12975777Y-15928650D02*
X12994825Y-15938174D01*
X13071015Y-16138174D02*
X13080539Y-16128650D01*
X13080539Y-16128650D02*
X13099587Y-16100079D01*
X13099587Y-16100079D02*
X13109111Y-16081031D01*
X13109111Y-16081031D02*
X13118634Y-16052460D01*
X13118634Y-16052460D02*
X13128158Y-16004841D01*
X13128158Y-16004841D02*
X13128158Y-15966746D01*
X13128158Y-15966746D02*
X13118634Y-15919127D01*
X13118634Y-15919127D02*
X13109111Y-15890555D01*
X13109111Y-15890555D02*
X13099587Y-15871508D01*
X13099587Y-15871508D02*
X13080539Y-15842936D01*
X13080539Y-15842936D02*
X13071015Y-15833412D01*
D13*
X7897427Y-16276927D02*
X7897427Y-16192073D01*
X7812573Y-16192073D01*
X7812573Y-16276927D01*
X7897427Y-16276927D01*
D11*
X8280539Y-16325984D02*
X8166253Y-16325984D01*
X8223396Y-16325984D02*
X8223396Y-16125984D01*
X8223396Y-16125984D02*
X8204348Y-16154555D01*
X8204348Y-16154555D02*
X8185301Y-16173603D01*
X8185301Y-16173603D02*
X8166253Y-16183127D01*
X8366253Y-16306936D02*
X8375777Y-16316460D01*
X8375777Y-16316460D02*
X8366253Y-16325984D01*
X8366253Y-16325984D02*
X8356729Y-16316460D01*
X8356729Y-16316460D02*
X8366253Y-16306936D01*
X8366253Y-16306936D02*
X8366253Y-16325984D01*
X8451967Y-16145031D02*
X8461491Y-16135508D01*
X8461491Y-16135508D02*
X8480539Y-16125984D01*
X8480539Y-16125984D02*
X8528158Y-16125984D01*
X8528158Y-16125984D02*
X8547205Y-16135508D01*
X8547205Y-16135508D02*
X8556729Y-16145031D01*
X8556729Y-16145031D02*
X8566253Y-16164079D01*
X8566253Y-16164079D02*
X8566253Y-16183127D01*
X8566253Y-16183127D02*
X8556729Y-16211698D01*
X8556729Y-16211698D02*
X8442444Y-16325984D01*
X8442444Y-16325984D02*
X8566253Y-16325984D01*
X8690063Y-16125984D02*
X8709110Y-16125984D01*
X8709110Y-16125984D02*
X8728158Y-16135508D01*
X8728158Y-16135508D02*
X8737682Y-16145031D01*
X8737682Y-16145031D02*
X8747205Y-16164079D01*
X8747205Y-16164079D02*
X8756729Y-16202174D01*
X8756729Y-16202174D02*
X8756729Y-16249793D01*
X8756729Y-16249793D02*
X8747205Y-16287888D01*
X8747205Y-16287888D02*
X8737682Y-16306936D01*
X8737682Y-16306936D02*
X8728158Y-16316460D01*
X8728158Y-16316460D02*
X8709110Y-16325984D01*
X8709110Y-16325984D02*
X8690063Y-16325984D01*
X8690063Y-16325984D02*
X8671015Y-16316460D01*
X8671015Y-16316460D02*
X8661491Y-16306936D01*
X8661491Y-16306936D02*
X8651967Y-16287888D01*
X8651967Y-16287888D02*
X8642444Y-16249793D01*
X8642444Y-16249793D02*
X8642444Y-16202174D01*
X8642444Y-16202174D02*
X8651967Y-16164079D01*
X8651967Y-16164079D02*
X8661491Y-16145031D01*
X8661491Y-16145031D02*
X8671015Y-16135508D01*
X8671015Y-16135508D02*
X8690063Y-16125984D01*
X8880539Y-16125984D02*
X8899586Y-16125984D01*
X8899586Y-16125984D02*
X8918634Y-16135508D01*
X8918634Y-16135508D02*
X8928158Y-16145031D01*
X8928158Y-16145031D02*
X8937682Y-16164079D01*
X8937682Y-16164079D02*
X8947205Y-16202174D01*
X8947205Y-16202174D02*
X8947205Y-16249793D01*
X8947205Y-16249793D02*
X8937682Y-16287888D01*
X8937682Y-16287888D02*
X8928158Y-16306936D01*
X8928158Y-16306936D02*
X8918634Y-16316460D01*
X8918634Y-16316460D02*
X8899586Y-16325984D01*
X8899586Y-16325984D02*
X8880539Y-16325984D01*
X8880539Y-16325984D02*
X8861491Y-16316460D01*
X8861491Y-16316460D02*
X8851967Y-16306936D01*
X8851967Y-16306936D02*
X8842444Y-16287888D01*
X8842444Y-16287888D02*
X8832920Y-16249793D01*
X8832920Y-16249793D02*
X8832920Y-16202174D01*
X8832920Y-16202174D02*
X8842444Y-16164079D01*
X8842444Y-16164079D02*
X8851967Y-16145031D01*
X8851967Y-16145031D02*
X8861491Y-16135508D01*
X8861491Y-16135508D02*
X8880539Y-16125984D01*
X9032920Y-16325984D02*
X9032920Y-16192650D01*
X9032920Y-16211698D02*
X9042444Y-16202174D01*
X9042444Y-16202174D02*
X9061491Y-16192650D01*
X9061491Y-16192650D02*
X9090063Y-16192650D01*
X9090063Y-16192650D02*
X9109110Y-16202174D01*
X9109110Y-16202174D02*
X9118634Y-16221222D01*
X9118634Y-16221222D02*
X9118634Y-16325984D01*
X9118634Y-16221222D02*
X9128158Y-16202174D01*
X9128158Y-16202174D02*
X9147205Y-16192650D01*
X9147205Y-16192650D02*
X9175777Y-16192650D01*
X9175777Y-16192650D02*
X9194825Y-16202174D01*
X9194825Y-16202174D02*
X9204348Y-16221222D01*
X9204348Y-16221222D02*
X9204348Y-16325984D01*
X9299586Y-16325984D02*
X9299586Y-16192650D01*
X9299586Y-16211698D02*
X9309110Y-16202174D01*
X9309110Y-16202174D02*
X9328158Y-16192650D01*
X9328158Y-16192650D02*
X9356729Y-16192650D01*
X9356729Y-16192650D02*
X9375777Y-16202174D01*
X9375777Y-16202174D02*
X9385301Y-16221222D01*
X9385301Y-16221222D02*
X9385301Y-16325984D01*
X9385301Y-16221222D02*
X9394825Y-16202174D01*
X9394825Y-16202174D02*
X9413872Y-16192650D01*
X9413872Y-16192650D02*
X9442444Y-16192650D01*
X9442444Y-16192650D02*
X9461491Y-16202174D01*
X9461491Y-16202174D02*
X9471015Y-16221222D01*
X9471015Y-16221222D02*
X9471015Y-16325984D01*
X9861491Y-16116460D02*
X9690063Y-16373603D01*
X10118634Y-16125984D02*
X10137682Y-16125984D01*
X10137682Y-16125984D02*
X10156729Y-16135508D01*
X10156729Y-16135508D02*
X10166253Y-16145031D01*
X10166253Y-16145031D02*
X10175777Y-16164079D01*
X10175777Y-16164079D02*
X10185301Y-16202174D01*
X10185301Y-16202174D02*
X10185301Y-16249793D01*
X10185301Y-16249793D02*
X10175777Y-16287888D01*
X10175777Y-16287888D02*
X10166253Y-16306936D01*
X10166253Y-16306936D02*
X10156729Y-16316460D01*
X10156729Y-16316460D02*
X10137682Y-16325984D01*
X10137682Y-16325984D02*
X10118634Y-16325984D01*
X10118634Y-16325984D02*
X10099587Y-16316460D01*
X10099587Y-16316460D02*
X10090063Y-16306936D01*
X10090063Y-16306936D02*
X10080539Y-16287888D01*
X10080539Y-16287888D02*
X10071015Y-16249793D01*
X10071015Y-16249793D02*
X10071015Y-16202174D01*
X10071015Y-16202174D02*
X10080539Y-16164079D01*
X10080539Y-16164079D02*
X10090063Y-16145031D01*
X10090063Y-16145031D02*
X10099587Y-16135508D01*
X10099587Y-16135508D02*
X10118634Y-16125984D01*
X10271015Y-16306936D02*
X10280539Y-16316460D01*
X10280539Y-16316460D02*
X10271015Y-16325984D01*
X10271015Y-16325984D02*
X10261491Y-16316460D01*
X10261491Y-16316460D02*
X10271015Y-16306936D01*
X10271015Y-16306936D02*
X10271015Y-16325984D01*
X10404348Y-16125984D02*
X10423396Y-16125984D01*
X10423396Y-16125984D02*
X10442444Y-16135508D01*
X10442444Y-16135508D02*
X10451968Y-16145031D01*
X10451968Y-16145031D02*
X10461491Y-16164079D01*
X10461491Y-16164079D02*
X10471015Y-16202174D01*
X10471015Y-16202174D02*
X10471015Y-16249793D01*
X10471015Y-16249793D02*
X10461491Y-16287888D01*
X10461491Y-16287888D02*
X10451968Y-16306936D01*
X10451968Y-16306936D02*
X10442444Y-16316460D01*
X10442444Y-16316460D02*
X10423396Y-16325984D01*
X10423396Y-16325984D02*
X10404348Y-16325984D01*
X10404348Y-16325984D02*
X10385301Y-16316460D01*
X10385301Y-16316460D02*
X10375777Y-16306936D01*
X10375777Y-16306936D02*
X10366253Y-16287888D01*
X10366253Y-16287888D02*
X10356729Y-16249793D01*
X10356729Y-16249793D02*
X10356729Y-16202174D01*
X10356729Y-16202174D02*
X10366253Y-16164079D01*
X10366253Y-16164079D02*
X10375777Y-16145031D01*
X10375777Y-16145031D02*
X10385301Y-16135508D01*
X10385301Y-16135508D02*
X10404348Y-16125984D01*
X10642444Y-16192650D02*
X10642444Y-16325984D01*
X10594825Y-16116460D02*
X10547206Y-16259317D01*
X10547206Y-16259317D02*
X10671015Y-16259317D01*
X10728158Y-16125984D02*
X10861491Y-16125984D01*
X10861491Y-16125984D02*
X10775777Y-16325984D01*
X10928158Y-16145031D02*
X10937682Y-16135508D01*
X10937682Y-16135508D02*
X10956729Y-16125984D01*
X10956729Y-16125984D02*
X11004349Y-16125984D01*
X11004349Y-16125984D02*
X11023396Y-16135508D01*
X11023396Y-16135508D02*
X11032920Y-16145031D01*
X11032920Y-16145031D02*
X11042444Y-16164079D01*
X11042444Y-16164079D02*
X11042444Y-16183127D01*
X11042444Y-16183127D02*
X11032920Y-16211698D01*
X11032920Y-16211698D02*
X10918634Y-16325984D01*
X10918634Y-16325984D02*
X11042444Y-16325984D01*
X11118634Y-16125984D02*
X11118634Y-16164079D01*
X11194825Y-16125984D02*
X11194825Y-16164079D01*
X11490063Y-16402174D02*
X11480539Y-16392650D01*
X11480539Y-16392650D02*
X11461491Y-16364079D01*
X11461491Y-16364079D02*
X11451968Y-16345031D01*
X11451968Y-16345031D02*
X11442444Y-16316460D01*
X11442444Y-16316460D02*
X11432920Y-16268841D01*
X11432920Y-16268841D02*
X11432920Y-16230746D01*
X11432920Y-16230746D02*
X11442444Y-16183127D01*
X11442444Y-16183127D02*
X11451968Y-16154555D01*
X11451968Y-16154555D02*
X11461491Y-16135508D01*
X11461491Y-16135508D02*
X11480539Y-16106936D01*
X11480539Y-16106936D02*
X11490063Y-16097412D01*
X11671015Y-16325984D02*
X11556729Y-16325984D01*
X11613872Y-16325984D02*
X11613872Y-16125984D01*
X11613872Y-16125984D02*
X11594825Y-16154555D01*
X11594825Y-16154555D02*
X11575777Y-16173603D01*
X11575777Y-16173603D02*
X11556729Y-16183127D01*
X11747206Y-16145031D02*
X11756729Y-16135508D01*
X11756729Y-16135508D02*
X11775777Y-16125984D01*
X11775777Y-16125984D02*
X11823396Y-16125984D01*
X11823396Y-16125984D02*
X11842444Y-16135508D01*
X11842444Y-16135508D02*
X11851968Y-16145031D01*
X11851968Y-16145031D02*
X11861491Y-16164079D01*
X11861491Y-16164079D02*
X11861491Y-16183127D01*
X11861491Y-16183127D02*
X11851968Y-16211698D01*
X11851968Y-16211698D02*
X11737682Y-16325984D01*
X11737682Y-16325984D02*
X11861491Y-16325984D01*
X12099587Y-16325984D02*
X12099587Y-16125984D01*
X12185301Y-16325984D02*
X12185301Y-16221222D01*
X12185301Y-16221222D02*
X12175777Y-16202174D01*
X12175777Y-16202174D02*
X12156730Y-16192650D01*
X12156730Y-16192650D02*
X12128158Y-16192650D01*
X12128158Y-16192650D02*
X12109110Y-16202174D01*
X12109110Y-16202174D02*
X12099587Y-16211698D01*
X12309110Y-16325984D02*
X12290063Y-16316460D01*
X12290063Y-16316460D02*
X12280539Y-16306936D01*
X12280539Y-16306936D02*
X12271015Y-16287888D01*
X12271015Y-16287888D02*
X12271015Y-16230746D01*
X12271015Y-16230746D02*
X12280539Y-16211698D01*
X12280539Y-16211698D02*
X12290063Y-16202174D01*
X12290063Y-16202174D02*
X12309110Y-16192650D01*
X12309110Y-16192650D02*
X12337682Y-16192650D01*
X12337682Y-16192650D02*
X12356730Y-16202174D01*
X12356730Y-16202174D02*
X12366253Y-16211698D01*
X12366253Y-16211698D02*
X12375777Y-16230746D01*
X12375777Y-16230746D02*
X12375777Y-16287888D01*
X12375777Y-16287888D02*
X12366253Y-16306936D01*
X12366253Y-16306936D02*
X12356730Y-16316460D01*
X12356730Y-16316460D02*
X12337682Y-16325984D01*
X12337682Y-16325984D02*
X12309110Y-16325984D01*
X12490063Y-16325984D02*
X12471015Y-16316460D01*
X12471015Y-16316460D02*
X12461491Y-16297412D01*
X12461491Y-16297412D02*
X12461491Y-16125984D01*
X12642444Y-16316460D02*
X12623396Y-16325984D01*
X12623396Y-16325984D02*
X12585301Y-16325984D01*
X12585301Y-16325984D02*
X12566253Y-16316460D01*
X12566253Y-16316460D02*
X12556730Y-16297412D01*
X12556730Y-16297412D02*
X12556730Y-16221222D01*
X12556730Y-16221222D02*
X12566253Y-16202174D01*
X12566253Y-16202174D02*
X12585301Y-16192650D01*
X12585301Y-16192650D02*
X12623396Y-16192650D01*
X12623396Y-16192650D02*
X12642444Y-16202174D01*
X12642444Y-16202174D02*
X12651968Y-16221222D01*
X12651968Y-16221222D02*
X12651968Y-16240269D01*
X12651968Y-16240269D02*
X12556730Y-16259317D01*
X12728158Y-16316460D02*
X12747206Y-16325984D01*
X12747206Y-16325984D02*
X12785301Y-16325984D01*
X12785301Y-16325984D02*
X12804349Y-16316460D01*
X12804349Y-16316460D02*
X12813872Y-16297412D01*
X12813872Y-16297412D02*
X12813872Y-16287888D01*
X12813872Y-16287888D02*
X12804349Y-16268841D01*
X12804349Y-16268841D02*
X12785301Y-16259317D01*
X12785301Y-16259317D02*
X12756730Y-16259317D01*
X12756730Y-16259317D02*
X12737682Y-16249793D01*
X12737682Y-16249793D02*
X12728158Y-16230746D01*
X12728158Y-16230746D02*
X12728158Y-16221222D01*
X12728158Y-16221222D02*
X12737682Y-16202174D01*
X12737682Y-16202174D02*
X12756730Y-16192650D01*
X12756730Y-16192650D02*
X12785301Y-16192650D01*
X12785301Y-16192650D02*
X12804349Y-16202174D01*
X12880539Y-16402174D02*
X12890063Y-16392650D01*
X12890063Y-16392650D02*
X12909111Y-16364079D01*
X12909111Y-16364079D02*
X12918634Y-16345031D01*
X12918634Y-16345031D02*
X12928158Y-16316460D01*
X12928158Y-16316460D02*
X12937682Y-16268841D01*
X12937682Y-16268841D02*
X12937682Y-16230746D01*
X12937682Y-16230746D02*
X12928158Y-16183127D01*
X12928158Y-16183127D02*
X12918634Y-16154555D01*
X12918634Y-16154555D02*
X12909111Y-16135508D01*
X12909111Y-16135508D02*
X12890063Y-16106936D01*
X12890063Y-16106936D02*
X12880539Y-16097412D01*
X7815000Y-16598500D02*
X7915000Y-16498500D01*
X7815000Y-16398500D01*
X7715000Y-16498500D01*
X7815000Y-16598500D01*
X8156729Y-16389984D02*
X8280539Y-16389984D01*
X8280539Y-16389984D02*
X8213872Y-16466174D01*
X8213872Y-16466174D02*
X8242443Y-16466174D01*
X8242443Y-16466174D02*
X8261491Y-16475698D01*
X8261491Y-16475698D02*
X8271015Y-16485222D01*
X8271015Y-16485222D02*
X8280539Y-16504269D01*
X8280539Y-16504269D02*
X8280539Y-16551888D01*
X8280539Y-16551888D02*
X8271015Y-16570936D01*
X8271015Y-16570936D02*
X8261491Y-16580460D01*
X8261491Y-16580460D02*
X8242443Y-16589984D01*
X8242443Y-16589984D02*
X8185301Y-16589984D01*
X8185301Y-16589984D02*
X8166253Y-16580460D01*
X8166253Y-16580460D02*
X8156729Y-16570936D01*
X8366253Y-16570936D02*
X8375777Y-16580460D01*
X8375777Y-16580460D02*
X8366253Y-16589984D01*
X8366253Y-16589984D02*
X8356729Y-16580460D01*
X8356729Y-16580460D02*
X8366253Y-16570936D01*
X8366253Y-16570936D02*
X8366253Y-16589984D01*
X8451967Y-16409031D02*
X8461491Y-16399508D01*
X8461491Y-16399508D02*
X8480539Y-16389984D01*
X8480539Y-16389984D02*
X8528158Y-16389984D01*
X8528158Y-16389984D02*
X8547205Y-16399508D01*
X8547205Y-16399508D02*
X8556729Y-16409031D01*
X8556729Y-16409031D02*
X8566253Y-16428079D01*
X8566253Y-16428079D02*
X8566253Y-16447127D01*
X8566253Y-16447127D02*
X8556729Y-16475698D01*
X8556729Y-16475698D02*
X8442444Y-16589984D01*
X8442444Y-16589984D02*
X8566253Y-16589984D01*
X8690063Y-16389984D02*
X8709110Y-16389984D01*
X8709110Y-16389984D02*
X8728158Y-16399508D01*
X8728158Y-16399508D02*
X8737682Y-16409031D01*
X8737682Y-16409031D02*
X8747205Y-16428079D01*
X8747205Y-16428079D02*
X8756729Y-16466174D01*
X8756729Y-16466174D02*
X8756729Y-16513793D01*
X8756729Y-16513793D02*
X8747205Y-16551888D01*
X8747205Y-16551888D02*
X8737682Y-16570936D01*
X8737682Y-16570936D02*
X8728158Y-16580460D01*
X8728158Y-16580460D02*
X8709110Y-16589984D01*
X8709110Y-16589984D02*
X8690063Y-16589984D01*
X8690063Y-16589984D02*
X8671015Y-16580460D01*
X8671015Y-16580460D02*
X8661491Y-16570936D01*
X8661491Y-16570936D02*
X8651967Y-16551888D01*
X8651967Y-16551888D02*
X8642444Y-16513793D01*
X8642444Y-16513793D02*
X8642444Y-16466174D01*
X8642444Y-16466174D02*
X8651967Y-16428079D01*
X8651967Y-16428079D02*
X8661491Y-16409031D01*
X8661491Y-16409031D02*
X8671015Y-16399508D01*
X8671015Y-16399508D02*
X8690063Y-16389984D01*
X8880539Y-16389984D02*
X8899586Y-16389984D01*
X8899586Y-16389984D02*
X8918634Y-16399508D01*
X8918634Y-16399508D02*
X8928158Y-16409031D01*
X8928158Y-16409031D02*
X8937682Y-16428079D01*
X8937682Y-16428079D02*
X8947205Y-16466174D01*
X8947205Y-16466174D02*
X8947205Y-16513793D01*
X8947205Y-16513793D02*
X8937682Y-16551888D01*
X8937682Y-16551888D02*
X8928158Y-16570936D01*
X8928158Y-16570936D02*
X8918634Y-16580460D01*
X8918634Y-16580460D02*
X8899586Y-16589984D01*
X8899586Y-16589984D02*
X8880539Y-16589984D01*
X8880539Y-16589984D02*
X8861491Y-16580460D01*
X8861491Y-16580460D02*
X8851967Y-16570936D01*
X8851967Y-16570936D02*
X8842444Y-16551888D01*
X8842444Y-16551888D02*
X8832920Y-16513793D01*
X8832920Y-16513793D02*
X8832920Y-16466174D01*
X8832920Y-16466174D02*
X8842444Y-16428079D01*
X8842444Y-16428079D02*
X8851967Y-16409031D01*
X8851967Y-16409031D02*
X8861491Y-16399508D01*
X8861491Y-16399508D02*
X8880539Y-16389984D01*
X9032920Y-16589984D02*
X9032920Y-16456650D01*
X9032920Y-16475698D02*
X9042444Y-16466174D01*
X9042444Y-16466174D02*
X9061491Y-16456650D01*
X9061491Y-16456650D02*
X9090063Y-16456650D01*
X9090063Y-16456650D02*
X9109110Y-16466174D01*
X9109110Y-16466174D02*
X9118634Y-16485222D01*
X9118634Y-16485222D02*
X9118634Y-16589984D01*
X9118634Y-16485222D02*
X9128158Y-16466174D01*
X9128158Y-16466174D02*
X9147205Y-16456650D01*
X9147205Y-16456650D02*
X9175777Y-16456650D01*
X9175777Y-16456650D02*
X9194825Y-16466174D01*
X9194825Y-16466174D02*
X9204348Y-16485222D01*
X9204348Y-16485222D02*
X9204348Y-16589984D01*
X9299586Y-16589984D02*
X9299586Y-16456650D01*
X9299586Y-16475698D02*
X9309110Y-16466174D01*
X9309110Y-16466174D02*
X9328158Y-16456650D01*
X9328158Y-16456650D02*
X9356729Y-16456650D01*
X9356729Y-16456650D02*
X9375777Y-16466174D01*
X9375777Y-16466174D02*
X9385301Y-16485222D01*
X9385301Y-16485222D02*
X9385301Y-16589984D01*
X9385301Y-16485222D02*
X9394825Y-16466174D01*
X9394825Y-16466174D02*
X9413872Y-16456650D01*
X9413872Y-16456650D02*
X9442444Y-16456650D01*
X9442444Y-16456650D02*
X9461491Y-16466174D01*
X9461491Y-16466174D02*
X9471015Y-16485222D01*
X9471015Y-16485222D02*
X9471015Y-16589984D01*
X9861491Y-16380460D02*
X9690063Y-16637603D01*
X10118634Y-16389984D02*
X10137682Y-16389984D01*
X10137682Y-16389984D02*
X10156729Y-16399508D01*
X10156729Y-16399508D02*
X10166253Y-16409031D01*
X10166253Y-16409031D02*
X10175777Y-16428079D01*
X10175777Y-16428079D02*
X10185301Y-16466174D01*
X10185301Y-16466174D02*
X10185301Y-16513793D01*
X10185301Y-16513793D02*
X10175777Y-16551888D01*
X10175777Y-16551888D02*
X10166253Y-16570936D01*
X10166253Y-16570936D02*
X10156729Y-16580460D01*
X10156729Y-16580460D02*
X10137682Y-16589984D01*
X10137682Y-16589984D02*
X10118634Y-16589984D01*
X10118634Y-16589984D02*
X10099587Y-16580460D01*
X10099587Y-16580460D02*
X10090063Y-16570936D01*
X10090063Y-16570936D02*
X10080539Y-16551888D01*
X10080539Y-16551888D02*
X10071015Y-16513793D01*
X10071015Y-16513793D02*
X10071015Y-16466174D01*
X10071015Y-16466174D02*
X10080539Y-16428079D01*
X10080539Y-16428079D02*
X10090063Y-16409031D01*
X10090063Y-16409031D02*
X10099587Y-16399508D01*
X10099587Y-16399508D02*
X10118634Y-16389984D01*
X10271015Y-16570936D02*
X10280539Y-16580460D01*
X10280539Y-16580460D02*
X10271015Y-16589984D01*
X10271015Y-16589984D02*
X10261491Y-16580460D01*
X10261491Y-16580460D02*
X10271015Y-16570936D01*
X10271015Y-16570936D02*
X10271015Y-16589984D01*
X10471015Y-16589984D02*
X10356729Y-16589984D01*
X10413872Y-16589984D02*
X10413872Y-16389984D01*
X10413872Y-16389984D02*
X10394825Y-16418555D01*
X10394825Y-16418555D02*
X10375777Y-16437603D01*
X10375777Y-16437603D02*
X10356729Y-16447127D01*
X10547206Y-16409031D02*
X10556729Y-16399508D01*
X10556729Y-16399508D02*
X10575777Y-16389984D01*
X10575777Y-16389984D02*
X10623396Y-16389984D01*
X10623396Y-16389984D02*
X10642444Y-16399508D01*
X10642444Y-16399508D02*
X10651968Y-16409031D01*
X10651968Y-16409031D02*
X10661491Y-16428079D01*
X10661491Y-16428079D02*
X10661491Y-16447127D01*
X10661491Y-16447127D02*
X10651968Y-16475698D01*
X10651968Y-16475698D02*
X10537682Y-16589984D01*
X10537682Y-16589984D02*
X10661491Y-16589984D01*
X10832920Y-16389984D02*
X10794825Y-16389984D01*
X10794825Y-16389984D02*
X10775777Y-16399508D01*
X10775777Y-16399508D02*
X10766253Y-16409031D01*
X10766253Y-16409031D02*
X10747206Y-16437603D01*
X10747206Y-16437603D02*
X10737682Y-16475698D01*
X10737682Y-16475698D02*
X10737682Y-16551888D01*
X10737682Y-16551888D02*
X10747206Y-16570936D01*
X10747206Y-16570936D02*
X10756729Y-16580460D01*
X10756729Y-16580460D02*
X10775777Y-16589984D01*
X10775777Y-16589984D02*
X10813872Y-16589984D01*
X10813872Y-16589984D02*
X10832920Y-16580460D01*
X10832920Y-16580460D02*
X10842444Y-16570936D01*
X10842444Y-16570936D02*
X10851968Y-16551888D01*
X10851968Y-16551888D02*
X10851968Y-16504269D01*
X10851968Y-16504269D02*
X10842444Y-16485222D01*
X10842444Y-16485222D02*
X10832920Y-16475698D01*
X10832920Y-16475698D02*
X10813872Y-16466174D01*
X10813872Y-16466174D02*
X10775777Y-16466174D01*
X10775777Y-16466174D02*
X10756729Y-16475698D01*
X10756729Y-16475698D02*
X10747206Y-16485222D01*
X10747206Y-16485222D02*
X10737682Y-16504269D01*
X10975777Y-16389984D02*
X10994825Y-16389984D01*
X10994825Y-16389984D02*
X11013872Y-16399508D01*
X11013872Y-16399508D02*
X11023396Y-16409031D01*
X11023396Y-16409031D02*
X11032920Y-16428079D01*
X11032920Y-16428079D02*
X11042444Y-16466174D01*
X11042444Y-16466174D02*
X11042444Y-16513793D01*
X11042444Y-16513793D02*
X11032920Y-16551888D01*
X11032920Y-16551888D02*
X11023396Y-16570936D01*
X11023396Y-16570936D02*
X11013872Y-16580460D01*
X11013872Y-16580460D02*
X10994825Y-16589984D01*
X10994825Y-16589984D02*
X10975777Y-16589984D01*
X10975777Y-16589984D02*
X10956729Y-16580460D01*
X10956729Y-16580460D02*
X10947206Y-16570936D01*
X10947206Y-16570936D02*
X10937682Y-16551888D01*
X10937682Y-16551888D02*
X10928158Y-16513793D01*
X10928158Y-16513793D02*
X10928158Y-16466174D01*
X10928158Y-16466174D02*
X10937682Y-16428079D01*
X10937682Y-16428079D02*
X10947206Y-16409031D01*
X10947206Y-16409031D02*
X10956729Y-16399508D01*
X10956729Y-16399508D02*
X10975777Y-16389984D01*
X11118634Y-16389984D02*
X11118634Y-16428079D01*
X11194825Y-16389984D02*
X11194825Y-16428079D01*
X11490063Y-16666174D02*
X11480539Y-16656650D01*
X11480539Y-16656650D02*
X11461491Y-16628079D01*
X11461491Y-16628079D02*
X11451968Y-16609031D01*
X11451968Y-16609031D02*
X11442444Y-16580460D01*
X11442444Y-16580460D02*
X11432920Y-16532841D01*
X11432920Y-16532841D02*
X11432920Y-16494746D01*
X11432920Y-16494746D02*
X11442444Y-16447127D01*
X11442444Y-16447127D02*
X11451968Y-16418555D01*
X11451968Y-16418555D02*
X11461491Y-16399508D01*
X11461491Y-16399508D02*
X11480539Y-16370936D01*
X11480539Y-16370936D02*
X11490063Y-16361412D01*
X11651968Y-16456650D02*
X11651968Y-16589984D01*
X11604348Y-16380460D02*
X11556729Y-16523317D01*
X11556729Y-16523317D02*
X11680539Y-16523317D01*
X11909110Y-16589984D02*
X11909110Y-16389984D01*
X11994825Y-16589984D02*
X11994825Y-16485222D01*
X11994825Y-16485222D02*
X11985301Y-16466174D01*
X11985301Y-16466174D02*
X11966253Y-16456650D01*
X11966253Y-16456650D02*
X11937682Y-16456650D01*
X11937682Y-16456650D02*
X11918634Y-16466174D01*
X11918634Y-16466174D02*
X11909110Y-16475698D01*
X12118634Y-16589984D02*
X12099587Y-16580460D01*
X12099587Y-16580460D02*
X12090063Y-16570936D01*
X12090063Y-16570936D02*
X12080539Y-16551888D01*
X12080539Y-16551888D02*
X12080539Y-16494746D01*
X12080539Y-16494746D02*
X12090063Y-16475698D01*
X12090063Y-16475698D02*
X12099587Y-16466174D01*
X12099587Y-16466174D02*
X12118634Y-16456650D01*
X12118634Y-16456650D02*
X12147206Y-16456650D01*
X12147206Y-16456650D02*
X12166253Y-16466174D01*
X12166253Y-16466174D02*
X12175777Y-16475698D01*
X12175777Y-16475698D02*
X12185301Y-16494746D01*
X12185301Y-16494746D02*
X12185301Y-16551888D01*
X12185301Y-16551888D02*
X12175777Y-16570936D01*
X12175777Y-16570936D02*
X12166253Y-16580460D01*
X12166253Y-16580460D02*
X12147206Y-16589984D01*
X12147206Y-16589984D02*
X12118634Y-16589984D01*
X12299587Y-16589984D02*
X12280539Y-16580460D01*
X12280539Y-16580460D02*
X12271015Y-16561412D01*
X12271015Y-16561412D02*
X12271015Y-16389984D01*
X12451968Y-16580460D02*
X12432920Y-16589984D01*
X12432920Y-16589984D02*
X12394825Y-16589984D01*
X12394825Y-16589984D02*
X12375777Y-16580460D01*
X12375777Y-16580460D02*
X12366253Y-16561412D01*
X12366253Y-16561412D02*
X12366253Y-16485222D01*
X12366253Y-16485222D02*
X12375777Y-16466174D01*
X12375777Y-16466174D02*
X12394825Y-16456650D01*
X12394825Y-16456650D02*
X12432920Y-16456650D01*
X12432920Y-16456650D02*
X12451968Y-16466174D01*
X12451968Y-16466174D02*
X12461491Y-16485222D01*
X12461491Y-16485222D02*
X12461491Y-16504269D01*
X12461491Y-16504269D02*
X12366253Y-16523317D01*
X12537682Y-16580460D02*
X12556730Y-16589984D01*
X12556730Y-16589984D02*
X12594825Y-16589984D01*
X12594825Y-16589984D02*
X12613872Y-16580460D01*
X12613872Y-16580460D02*
X12623396Y-16561412D01*
X12623396Y-16561412D02*
X12623396Y-16551888D01*
X12623396Y-16551888D02*
X12613872Y-16532841D01*
X12613872Y-16532841D02*
X12594825Y-16523317D01*
X12594825Y-16523317D02*
X12566253Y-16523317D01*
X12566253Y-16523317D02*
X12547206Y-16513793D01*
X12547206Y-16513793D02*
X12537682Y-16494746D01*
X12537682Y-16494746D02*
X12537682Y-16485222D01*
X12537682Y-16485222D02*
X12547206Y-16466174D01*
X12547206Y-16466174D02*
X12566253Y-16456650D01*
X12566253Y-16456650D02*
X12594825Y-16456650D01*
X12594825Y-16456650D02*
X12613872Y-16466174D01*
X12690063Y-16666174D02*
X12699587Y-16656650D01*
X12699587Y-16656650D02*
X12718634Y-16628079D01*
X12718634Y-16628079D02*
X12728158Y-16609031D01*
X12728158Y-16609031D02*
X12737682Y-16580460D01*
X12737682Y-16580460D02*
X12747206Y-16532841D01*
X12747206Y-16532841D02*
X12747206Y-16494746D01*
X12747206Y-16494746D02*
X12737682Y-16447127D01*
X12737682Y-16447127D02*
X12728158Y-16418555D01*
X12728158Y-16418555D02*
X12718634Y-16399508D01*
X12718634Y-16399508D02*
X12699587Y-16370936D01*
X12699587Y-16370936D02*
X12690063Y-16361412D01*
M02*
