%TF.GenerationSoftware,KiCad,Pcbnew,9.0.1*%
%TF.CreationDate,2026-01-14T23:07:50-05:00*%
%TF.ProjectId,pcb,7063622e-6b69-4636-9164-5f7063625858,1.0*%
%TF.SameCoordinates,Original*%
%TF.FileFunction,Copper,L2,Bot*%
%TF.FilePolarity,Positive*%
%FSLAX46Y46*%
G04 Gerber Fmt 4.6, Leading zero omitted, Abs format (unit mm)*
G04 Created by KiCad (PCBNEW 9.0.1) date 2026-01-14 23:07:50*
%MOMM*%
%LPD*%
G01*
G04 APERTURE LIST*
G04 Aperture macros list*
%AMRoundRect*
0 Rectangle with rounded corners*
0 $1 Rounding radius*
0 $2 $3 $4 $5 $6 $7 $8 $9 X,Y pos of 4 corners*
0 Add a 4 corners polygon primitive as box body*
4,1,4,$2,$3,$4,$5,$6,$7,$8,$9,$2,$3,0*
0 Add four circle primitives for the rounded corners*
1,1,$1+$1,$2,$3*
1,1,$1+$1,$4,$5*
1,1,$1+$1,$6,$7*
1,1,$1+$1,$8,$9*
0 Add four rect primitives between the rounded corners*
20,1,$1+$1,$2,$3,$4,$5,0*
20,1,$1+$1,$4,$5,$6,$7,0*
20,1,$1+$1,$6,$7,$8,$9,0*
20,1,$1+$1,$8,$9,$2,$3,0*%
G04 Aperture macros list end*
%TA.AperFunction,ComponentPad*%
%ADD10C,6.400000*%
%TD*%
%TA.AperFunction,ComponentPad*%
%ADD11RoundRect,0.250001X0.949999X0.949999X-0.949999X0.949999X-0.949999X-0.949999X0.949999X-0.949999X0*%
%TD*%
%TA.AperFunction,ComponentPad*%
%ADD12C,2.400000*%
%TD*%
%TA.AperFunction,ComponentPad*%
%ADD13O,3.000000X2.000000*%
%TD*%
%TA.AperFunction,ComponentPad*%
%ADD14R,1.500000X1.500000*%
%TD*%
%TA.AperFunction,ComponentPad*%
%ADD15C,1.500000*%
%TD*%
%TA.AperFunction,ComponentPad*%
%ADD16RoundRect,0.250001X0.949999X-0.949999X0.949999X0.949999X-0.949999X0.949999X-0.949999X-0.949999X0*%
%TD*%
%TA.AperFunction,ComponentPad*%
%ADD17R,1.700000X1.700000*%
%TD*%
%TA.AperFunction,ComponentPad*%
%ADD18C,1.700000*%
%TD*%
%TA.AperFunction,ComponentPad*%
%ADD19R,2.400000X2.400000*%
%TD*%
%TA.AperFunction,ViaPad*%
%ADD20C,0.600000*%
%TD*%
%TA.AperFunction,Conductor*%
%ADD21C,0.200000*%
%TD*%
%TA.AperFunction,Conductor*%
%ADD22C,0.750000*%
%TD*%
%TA.AperFunction,Conductor*%
%ADD23C,2.000000*%
%TD*%
%TA.AperFunction,Conductor*%
%ADD24C,0.500000*%
%TD*%
G04 APERTURE END LIST*
D10*
%TO.P,H1,1*%
%TO.N,N/C*%
X101425000Y-55000000D03*
%TD*%
D11*
%TO.P,J10,1,Pin_1*%
%TO.N,GND*%
X83000000Y-56000000D03*
D12*
%TO.P,J10,2,Pin_2*%
%TO.N,NEOPIXEL_DOUT*%
X79500000Y-56000000D03*
%TO.P,J10,3,Pin_3*%
%TO.N,+12v*%
X76000000Y-56000000D03*
%TD*%
D13*
%TO.P,U8,1,PA02_A0_D0*%
%TO.N,WIFI_LED*%
X81665000Y-118120000D03*
%TO.P,U8,2,PA4_A1_D1*%
%TO.N,USER_BTN_0*%
X81665000Y-115580000D03*
%TO.P,U8,3,PA10_A2_D2*%
%TO.N,FACTORY_RESET*%
X81665000Y-113040000D03*
%TO.P,U8,4,PA11_A3_D3*%
%TO.N,USER_BTN_1*%
X81665000Y-110500000D03*
%TO.P,U8,5,PA8_A4_D4_SDA*%
%TO.N,I2C_SDA*%
X81665000Y-107960000D03*
%TO.P,U8,6,PA9_A5_D5_SCL*%
%TO.N,I2C_SCL*%
X81665000Y-105420000D03*
%TO.P,U8,7,PB08_A6_TX*%
%TO.N,unconnected-(U8-PB08_A6_TX-Pad7)*%
X81665000Y-102880000D03*
%TO.P,U8,8,PB09_D7_RX*%
%TO.N,unconnected-(U8-PB09_D7_RX-Pad8)*%
X66425000Y-102880000D03*
%TO.P,U8,9,PA7_A8_D8_SCK*%
%TO.N,CAN-RX*%
X66425000Y-105420000D03*
%TO.P,U8,10,PA5_A9_D9_MISO*%
%TO.N,CAN-TX*%
X66425000Y-107960000D03*
%TO.P,U8,11,PA6_A10_D10_MOSI*%
%TO.N,DOUT_3V*%
X66425000Y-110500000D03*
%TO.P,U8,12,3V3*%
%TO.N,+3V3*%
X66425000Y-113040000D03*
%TO.P,U8,13,GND*%
%TO.N,GND*%
X66425000Y-115580000D03*
%TO.P,U8,14,5V*%
%TO.N,unconnected-(U8-5V-Pad14)*%
X66425000Y-118120000D03*
%TD*%
D14*
%TO.P,J3,1*%
%TO.N,CAN-H*%
X50425000Y-106900000D03*
D15*
%TO.P,J3,2*%
%TO.N,CAN-L*%
X51695000Y-104360000D03*
%TO.P,J3,3*%
%TO.N,GND*%
X52965000Y-106900000D03*
%TO.P,J3,4*%
%TO.N,ALT-A*%
X54235000Y-104360000D03*
%TO.P,J3,5*%
%TO.N,ALT-B*%
X55505000Y-106900000D03*
%TO.P,J3,6*%
%TO.N,GND*%
X56775000Y-104360000D03*
%TO.P,J3,7*%
X58045000Y-106900000D03*
%TO.P,J3,8*%
%TO.N,VDDA*%
X59315000Y-104360000D03*
%TD*%
D10*
%TO.P,H2,1*%
%TO.N,N/C*%
X101424996Y-117500000D03*
%TD*%
D16*
%TO.P,J8,1,Pin_1*%
%TO.N,GND*%
X100500000Y-84000000D03*
D12*
%TO.P,J8,2,Pin_2*%
%TO.N,+3V3*%
X100500000Y-80500000D03*
%TO.P,J8,3,Pin_3*%
%TO.N,POT2*%
X100500000Y-77000000D03*
%TD*%
D10*
%TO.P,H4,1*%
%TO.N,N/C*%
X47750000Y-74000000D03*
%TD*%
D11*
%TO.P,J6,1,Pin_1*%
%TO.N,GND*%
X93250000Y-56000000D03*
D12*
%TO.P,J6,2,Pin_2*%
%TO.N,USER_BTN_1*%
X89750000Y-56000000D03*
%TD*%
D16*
%TO.P,J7,1,Pin_1*%
%TO.N,GND*%
X100500000Y-96000000D03*
D12*
%TO.P,J7,2,Pin_2*%
%TO.N,+3V3*%
X100500000Y-92500000D03*
%TO.P,J7,3,Pin_3*%
%TO.N,POT1*%
X100500000Y-89000000D03*
%TD*%
D16*
%TO.P,J2,1,Pin_1*%
%TO.N,GND*%
X100500000Y-108000000D03*
D12*
%TO.P,J2,2,Pin_2*%
%TO.N,+3V3*%
X100500000Y-104500000D03*
%TO.P,J2,3,Pin_3*%
%TO.N,POT0*%
X100500000Y-101000000D03*
%TD*%
D16*
%TO.P,J9,1,Pin_1*%
%TO.N,GND*%
X100500000Y-72000000D03*
D12*
%TO.P,J9,2,Pin_2*%
%TO.N,+3V3*%
X100500000Y-68500000D03*
%TO.P,J9,3,Pin_3*%
%TO.N,POT3*%
X100500000Y-65000000D03*
%TD*%
D17*
%TO.P,J11,1,Pin_1*%
%TO.N,GND*%
X86775000Y-82950000D03*
D18*
%TO.P,J11,2,Pin_2*%
%TO.N,Net-(J11-Pin_2)*%
X86775000Y-85490000D03*
%TO.P,J11,3,Pin_3*%
%TO.N,I2C_SCL*%
X86775000Y-88030000D03*
%TO.P,J11,4,Pin_4*%
%TO.N,I2C_SDA*%
X86775000Y-90570000D03*
%TD*%
D19*
%TO.P,J5,1,Pin_1*%
%TO.N,GND*%
X89750000Y-116875000D03*
D12*
%TO.P,J5,2,Pin_2*%
%TO.N,USER_BTN_0*%
X93250000Y-116875000D03*
%TD*%
D19*
%TO.P,J1,1,Pin_1*%
%TO.N,GND*%
X69750000Y-56117500D03*
D12*
%TO.P,J1,2,Pin_2*%
%TO.N,+12v*%
X66250000Y-56117500D03*
%TD*%
D14*
%TO.P,J4,1*%
%TO.N,CAN-H*%
X59207500Y-65350000D03*
D15*
%TO.P,J4,2*%
%TO.N,CAN-L*%
X57937500Y-67890000D03*
%TO.P,J4,3*%
%TO.N,GND*%
X56667500Y-65350000D03*
%TO.P,J4,4*%
%TO.N,ALT-A*%
X55397500Y-67890000D03*
%TO.P,J4,5*%
%TO.N,ALT-B*%
X54127500Y-65350000D03*
%TO.P,J4,6*%
%TO.N,GND*%
X52857500Y-67890000D03*
%TO.P,J4,7*%
X51587500Y-65350000D03*
%TO.P,J4,8*%
%TO.N,VDDA*%
X50317500Y-67890000D03*
%TD*%
D10*
%TO.P,H3,1*%
%TO.N,N/C*%
X47750000Y-98250000D03*
%TD*%
D20*
%TO.N,GND*%
X89000000Y-72000000D03*
X72250000Y-53000000D03*
X104250000Y-62500000D03*
X78250000Y-121000000D03*
X92000000Y-74750000D03*
X93250000Y-96000000D03*
X57250000Y-59000000D03*
X62000000Y-120000000D03*
X52500000Y-53000000D03*
X57175000Y-100500000D03*
X90250000Y-97000000D03*
X97750000Y-53000000D03*
X71250000Y-118500000D03*
X74250000Y-101250000D03*
X96250000Y-111500000D03*
X55250000Y-102250000D03*
X50500000Y-116500000D03*
X80000000Y-65250000D03*
X81425000Y-74750000D03*
X83000000Y-95750000D03*
X68675000Y-71250000D03*
X90750000Y-80500000D03*
X69750000Y-83750000D03*
X52750000Y-119750000D03*
X86500000Y-50000000D03*
X96250000Y-117000000D03*
X62175000Y-81500000D03*
X98250000Y-64750000D03*
X64250000Y-109250000D03*
X68500000Y-86750000D03*
X88750000Y-90750000D03*
X91250000Y-64000000D03*
X106000000Y-54250000D03*
X106750000Y-59750000D03*
X62175000Y-78500000D03*
X91250000Y-68500000D03*
X49750000Y-50250000D03*
X72425000Y-80250000D03*
X84250000Y-112000000D03*
X68750000Y-116000000D03*
X77000000Y-112500000D03*
X60175000Y-93750000D03*
X79250000Y-61750000D03*
X82750000Y-89500000D03*
X64425000Y-80250000D03*
X73750000Y-116000000D03*
X63750000Y-94750000D03*
X76250000Y-97750000D03*
X81000000Y-97750000D03*
X62925000Y-107000000D03*
X87500000Y-80500000D03*
X44750000Y-102250000D03*
X86250000Y-98250000D03*
X61000000Y-66250000D03*
X55000000Y-55750000D03*
X87750000Y-93500000D03*
X88000000Y-63250000D03*
X44750000Y-94500000D03*
X68250000Y-80500000D03*
X68425000Y-77000000D03*
X95000000Y-60850000D03*
X72425000Y-83750000D03*
X47500000Y-53000000D03*
X57250000Y-53000000D03*
X49750000Y-55750000D03*
X104000000Y-107500000D03*
X59000000Y-110750000D03*
X95250000Y-66000000D03*
X60675000Y-86750000D03*
X52750000Y-113500000D03*
X80750000Y-58250000D03*
X96250000Y-102750000D03*
X62675000Y-103250000D03*
X71250000Y-88500000D03*
X74250000Y-95500000D03*
X72750000Y-50000000D03*
X87500000Y-118000000D03*
X81925000Y-78750000D03*
X92750000Y-108500000D03*
X69675000Y-73000000D03*
X62000000Y-53000000D03*
X62675000Y-73750000D03*
X61000000Y-69750000D03*
X59000000Y-116500000D03*
X44750000Y-118500000D03*
X87750000Y-60750000D03*
X70500000Y-78750000D03*
X87750000Y-113750000D03*
X91500000Y-115000000D03*
X94250000Y-77000000D03*
X50250000Y-94000000D03*
X105000000Y-86500000D03*
X90500000Y-93250000D03*
X48000000Y-119750000D03*
X83000000Y-53000000D03*
X73250000Y-55750000D03*
X50250000Y-70500000D03*
X100250000Y-110750000D03*
X60000000Y-50250000D03*
X76000000Y-104000000D03*
X87000000Y-69250000D03*
X91250000Y-58000000D03*
X82500000Y-85500000D03*
X44750000Y-77750000D03*
X74500000Y-110000000D03*
X84000000Y-72000000D03*
X77750000Y-102000000D03*
X98000000Y-61750000D03*
X106500000Y-110750000D03*
X93000000Y-99750000D03*
X55000000Y-116500000D03*
X60175000Y-98500000D03*
X60000000Y-107500000D03*
X90750000Y-89000000D03*
X85500000Y-76250000D03*
X57000000Y-120000000D03*
X92250000Y-104250000D03*
X83425000Y-65500000D03*
X50250000Y-77750000D03*
X77250000Y-53000000D03*
X63750000Y-69250000D03*
X77750000Y-105750000D03*
X55000000Y-50250000D03*
X93500000Y-53000000D03*
X89000000Y-106500000D03*
X71250000Y-95500000D03*
X83750000Y-80500000D03*
X75750000Y-118500000D03*
X56175000Y-75750000D03*
X94250000Y-71500000D03*
X52500000Y-59000000D03*
X94750000Y-93250000D03*
X95500000Y-122500000D03*
X105000000Y-74500000D03*
X76500000Y-107500000D03*
X87500000Y-122500000D03*
X55000000Y-110750000D03*
X101500000Y-50000000D03*
X81750000Y-100500000D03*
X44750000Y-57500000D03*
X69675000Y-68750000D03*
X89000000Y-53000000D03*
X50000000Y-84750000D03*
X71250000Y-108000000D03*
X71250000Y-103250000D03*
X82500000Y-69500000D03*
X57000000Y-113500000D03*
X84250000Y-116000000D03*
X71250000Y-113000000D03*
X44750000Y-108000000D03*
X96250000Y-107000000D03*
X68250000Y-94000000D03*
X63750000Y-91250000D03*
X86250000Y-103000000D03*
X101250000Y-60500000D03*
X68675000Y-74500000D03*
X79250000Y-114750000D03*
X105000000Y-98500000D03*
X98750000Y-114250000D03*
X64175000Y-77000000D03*
X76250000Y-93500000D03*
X44750000Y-84750000D03*
X44750000Y-70500000D03*
X95500000Y-50000000D03*
X85250000Y-108000000D03*
X56750000Y-81000000D03*
X96250000Y-98500000D03*
X96500000Y-93250000D03*
X74250000Y-91750000D03*
X71250000Y-100000000D03*
X98000000Y-57750000D03*
X60175000Y-90000000D03*
X81000000Y-93250000D03*
X89500000Y-101000000D03*
X72425000Y-76250000D03*
X67500000Y-53000000D03*
X101500000Y-122500000D03*
X44750000Y-63500000D03*
X69250000Y-121000000D03*
X84250000Y-120250000D03*
X86500000Y-55750000D03*
X50500000Y-110750000D03*
X44750000Y-113750000D03*
X73750000Y-121000000D03*
X106500000Y-116000000D03*
X68500000Y-90000000D03*
X59750000Y-55750000D03*
X65000000Y-121000000D03*
X78750000Y-109500000D03*
%TO.N,VDDA*%
X50500000Y-62500000D03*
%TO.N,I2C_SDA*%
X93250000Y-83250000D03*
%TO.N,I2C_SCL*%
X90750000Y-84250000D03*
%TO.N,Net-(U6A--)*%
X63650000Y-88000000D03*
X53900000Y-86750000D03*
%TO.N,Net-(U6B--)*%
X53900000Y-85250000D03*
X60650000Y-85250000D03*
%TO.N,USER_BTN_1*%
X90000000Y-67500000D03*
%TO.N,POT0*%
X95541267Y-89719303D03*
%TO.N,POT1*%
X96750000Y-90000000D03*
%TO.N,POT2*%
X96750000Y-82750000D03*
%TO.N,POT3*%
X95750000Y-82750000D03*
%TO.N,DOUT_3V*%
X87000000Y-67750000D03*
%TD*%
D21*
%TO.N,USER_BTN_1*%
X79000000Y-107835000D02*
X81665000Y-110500000D01*
X79000000Y-78500000D02*
X79000000Y-107835000D01*
X90000000Y-67500000D02*
X79000000Y-78500000D01*
%TO.N,DOUT_3V*%
X70000000Y-107925000D02*
X67425000Y-110500000D01*
X70075000Y-107925000D02*
X70000000Y-107925000D01*
X77750000Y-100250000D02*
X70075000Y-107925000D01*
X77750000Y-77000000D02*
X77750000Y-100250000D01*
X87000000Y-67750000D02*
X77750000Y-77000000D01*
D22*
%TO.N,GND*%
X66425000Y-115580000D02*
X67670000Y-115580000D01*
X67670000Y-115580000D02*
X68750000Y-114500000D01*
X66425000Y-115580000D02*
X63830000Y-115580000D01*
D23*
%TO.N,VDDA*%
X60500000Y-62500000D02*
X66425000Y-68425000D01*
X59315000Y-103360000D02*
X59315000Y-104360000D01*
X66425000Y-96250000D02*
X59315000Y-103360000D01*
X50500000Y-62500000D02*
X60500000Y-62500000D01*
X66425000Y-68425000D02*
X66425000Y-96250000D01*
D24*
%TO.N,ALT-A*%
X55397500Y-68777500D02*
X52925000Y-71250000D01*
X54235000Y-103212993D02*
X54235000Y-104360000D01*
X52925000Y-101902993D02*
X54235000Y-103212993D01*
X52925000Y-71250000D02*
X52925000Y-101902993D01*
X55397500Y-67890000D02*
X55397500Y-68777500D01*
%TO.N,ALT-B*%
X52895000Y-102862943D02*
X52895000Y-104717057D01*
X51925000Y-101892943D02*
X52895000Y-102862943D01*
X55077943Y-106900000D02*
X55505000Y-106900000D01*
X54127500Y-65350000D02*
X54057500Y-65420000D01*
X51925000Y-70519557D02*
X51925000Y-101892943D01*
X52895000Y-104717057D02*
X55077943Y-106900000D01*
X54057500Y-65420000D02*
X54057500Y-68387057D01*
X54057500Y-68387057D02*
X51925000Y-70519557D01*
D21*
%TO.N,I2C_SDA*%
X86775000Y-90570000D02*
X86775000Y-90475000D01*
X85250000Y-92095000D02*
X86775000Y-90570000D01*
X85250000Y-104375000D02*
X85250000Y-92095000D01*
X86775000Y-90475000D02*
X93250000Y-84000000D01*
X93250000Y-84000000D02*
X93250000Y-83250000D01*
X81665000Y-107960000D02*
X85250000Y-104375000D01*
%TO.N,I2C_SCL*%
X81665000Y-105420000D02*
X82080000Y-105420000D01*
X86970000Y-88030000D02*
X86775000Y-88030000D01*
X84000000Y-90805000D02*
X86775000Y-88030000D01*
X82080000Y-105420000D02*
X84000000Y-103500000D01*
X84000000Y-103500000D02*
X84000000Y-90805000D01*
X90750000Y-84250000D02*
X86970000Y-88030000D01*
%TO.N,Net-(U6A--)*%
X55150000Y-88000000D02*
X53900000Y-86750000D01*
X63650000Y-88000000D02*
X55150000Y-88000000D01*
%TO.N,Net-(U6B--)*%
X60650000Y-85250000D02*
X53900000Y-85250000D01*
%TO.N,POT0*%
X95500000Y-96000000D02*
X100500000Y-101000000D01*
X95500000Y-89760570D02*
X95500000Y-96000000D01*
X95541267Y-89719303D02*
X95500000Y-89760570D01*
%TO.N,POT1*%
X97750000Y-89000000D02*
X100500000Y-89000000D01*
X96750000Y-90000000D02*
X97750000Y-89000000D01*
%TO.N,POT2*%
X96750000Y-80750000D02*
X100500000Y-77000000D01*
X96750000Y-82750000D02*
X96750000Y-80750000D01*
%TO.N,POT3*%
X95750000Y-69750000D02*
X100500000Y-65000000D01*
X95750000Y-82750000D02*
X95750000Y-69750000D01*
D24*
%TO.N,DOUT_3V*%
X67425000Y-110500000D02*
X66425000Y-110500000D01*
%TD*%
%TA.AperFunction,Conductor*%
%TO.N,GND*%
G36*
X102252562Y-49500605D02*
G01*
X102699036Y-49519072D01*
X102709209Y-49519915D01*
X103150114Y-49574873D01*
X103160194Y-49576555D01*
X103595042Y-49667733D01*
X103604950Y-49670242D01*
X104030786Y-49797019D01*
X104040454Y-49800338D01*
X104381430Y-49933388D01*
X104454339Y-49961838D01*
X104463724Y-49965954D01*
X104862869Y-50161083D01*
X104871877Y-50165958D01*
X105253544Y-50393383D01*
X105262123Y-50398989D01*
X105623693Y-50657144D01*
X105631775Y-50663435D01*
X105970796Y-50950571D01*
X105978336Y-50957512D01*
X106292487Y-51271663D01*
X106299428Y-51279203D01*
X106586564Y-51618224D01*
X106592859Y-51626312D01*
X106851010Y-51987876D01*
X106856616Y-51996455D01*
X107084041Y-52378122D01*
X107088919Y-52387136D01*
X107284045Y-52786275D01*
X107288161Y-52795660D01*
X107449656Y-53209533D01*
X107452984Y-53219226D01*
X107579753Y-53645036D01*
X107582269Y-53654971D01*
X107673441Y-54089791D01*
X107675128Y-54099900D01*
X107730082Y-54540769D01*
X107730928Y-54550983D01*
X107749394Y-54997437D01*
X107749500Y-55002561D01*
X107749500Y-117497438D01*
X107749394Y-117502562D01*
X107730928Y-117949016D01*
X107730082Y-117959230D01*
X107675128Y-118400099D01*
X107673441Y-118410208D01*
X107582269Y-118845028D01*
X107579753Y-118854963D01*
X107452984Y-119280773D01*
X107449656Y-119290466D01*
X107288161Y-119704339D01*
X107284045Y-119713724D01*
X107088919Y-120112863D01*
X107084041Y-120121877D01*
X106856616Y-120503544D01*
X106851010Y-120512123D01*
X106592859Y-120873687D01*
X106586564Y-120881775D01*
X106299428Y-121220796D01*
X106292487Y-121228336D01*
X105978336Y-121542487D01*
X105970796Y-121549428D01*
X105631775Y-121836564D01*
X105623687Y-121842859D01*
X105262123Y-122101010D01*
X105253544Y-122106616D01*
X104871877Y-122334041D01*
X104862863Y-122338919D01*
X104463724Y-122534045D01*
X104454339Y-122538161D01*
X104040466Y-122699656D01*
X104030773Y-122702984D01*
X103604963Y-122829753D01*
X103595028Y-122832269D01*
X103160208Y-122923441D01*
X103150099Y-122925128D01*
X102709230Y-122980082D01*
X102699016Y-122980928D01*
X102252563Y-122999394D01*
X102247439Y-122999500D01*
X49427561Y-122999500D01*
X49422437Y-122999394D01*
X48975983Y-122980928D01*
X48965769Y-122980082D01*
X48524900Y-122925128D01*
X48514791Y-122923441D01*
X48079971Y-122832269D01*
X48070036Y-122829753D01*
X47644226Y-122702984D01*
X47634533Y-122699656D01*
X47220660Y-122538161D01*
X47211275Y-122534045D01*
X46812136Y-122338919D01*
X46803122Y-122334041D01*
X46421455Y-122106616D01*
X46412876Y-122101010D01*
X46051312Y-121842859D01*
X46043224Y-121836564D01*
X45704203Y-121549428D01*
X45696663Y-121542487D01*
X45382512Y-121228336D01*
X45375571Y-121220796D01*
X45088435Y-120881775D01*
X45082140Y-120873687D01*
X45069859Y-120856487D01*
X44823989Y-120512123D01*
X44818383Y-120503544D01*
X44590958Y-120121877D01*
X44586080Y-120112863D01*
X44390954Y-119713724D01*
X44386838Y-119704339D01*
X44272058Y-119410185D01*
X44225338Y-119290454D01*
X44222019Y-119280786D01*
X44095242Y-118854950D01*
X44092733Y-118845042D01*
X44001555Y-118410194D01*
X43999873Y-118400114D01*
X43944915Y-117959209D01*
X43944072Y-117949036D01*
X43925606Y-117502562D01*
X43925500Y-117497438D01*
X43925500Y-113128711D01*
X47304500Y-113128711D01*
X47304500Y-113371288D01*
X47336161Y-113611785D01*
X47398947Y-113846104D01*
X47420567Y-113898298D01*
X47491776Y-114070212D01*
X47613064Y-114280289D01*
X47613066Y-114280292D01*
X47613067Y-114280293D01*
X47760733Y-114472736D01*
X47760739Y-114472743D01*
X47932256Y-114644260D01*
X47932262Y-114644265D01*
X48124711Y-114791936D01*
X48334788Y-114913224D01*
X48558900Y-115006054D01*
X48793211Y-115068838D01*
X48973586Y-115092584D01*
X49033711Y-115100500D01*
X49033712Y-115100500D01*
X49276289Y-115100500D01*
X49324388Y-115094167D01*
X49516789Y-115068838D01*
X49751100Y-115006054D01*
X49975212Y-114913224D01*
X50185289Y-114791936D01*
X50377738Y-114644265D01*
X50549265Y-114472738D01*
X50696936Y-114280289D01*
X50818224Y-114070212D01*
X50911054Y-113846100D01*
X50973838Y-113611789D01*
X51005500Y-113371288D01*
X51005500Y-113128712D01*
X51005500Y-113128711D01*
X58734500Y-113128711D01*
X58734500Y-113371288D01*
X58766161Y-113611785D01*
X58828947Y-113846104D01*
X58850567Y-113898298D01*
X58921776Y-114070212D01*
X59043064Y-114280289D01*
X59043066Y-114280292D01*
X59043067Y-114280293D01*
X59190733Y-114472736D01*
X59190739Y-114472743D01*
X59362256Y-114644260D01*
X59362262Y-114644265D01*
X59554711Y-114791936D01*
X59764788Y-114913224D01*
X59988900Y-115006054D01*
X60223211Y-115068838D01*
X60403586Y-115092584D01*
X60463711Y-115100500D01*
X60463712Y-115100500D01*
X60706289Y-115100500D01*
X60754388Y-115094167D01*
X60946789Y-115068838D01*
X61181100Y-115006054D01*
X61405212Y-114913224D01*
X61615289Y-114791936D01*
X61807738Y-114644265D01*
X61979265Y-114472738D01*
X62126936Y-114280289D01*
X62248224Y-114070212D01*
X62341054Y-113846100D01*
X62403838Y-113611789D01*
X62435500Y-113371288D01*
X62435500Y-113128712D01*
X62403838Y-112888211D01*
X62341054Y-112653900D01*
X62248224Y-112429788D01*
X62126936Y-112219711D01*
X61979265Y-112027262D01*
X61979260Y-112027256D01*
X61807743Y-111855739D01*
X61807736Y-111855733D01*
X61615293Y-111708067D01*
X61615292Y-111708066D01*
X61615289Y-111708064D01*
X61405212Y-111586776D01*
X61405205Y-111586773D01*
X61181104Y-111493947D01*
X60946785Y-111431161D01*
X60706289Y-111399500D01*
X60706288Y-111399500D01*
X60463712Y-111399500D01*
X60463711Y-111399500D01*
X60223214Y-111431161D01*
X59988895Y-111493947D01*
X59764794Y-111586773D01*
X59764785Y-111586777D01*
X59554706Y-111708067D01*
X59362263Y-111855733D01*
X59362256Y-111855739D01*
X59190739Y-112027256D01*
X59190733Y-112027263D01*
X59043067Y-112219706D01*
X58921777Y-112429785D01*
X58921773Y-112429794D01*
X58828947Y-112653895D01*
X58766161Y-112888214D01*
X58734500Y-113128711D01*
X51005500Y-113128711D01*
X50973838Y-112888211D01*
X50911054Y-112653900D01*
X50818224Y-112429788D01*
X50696936Y-112219711D01*
X50549265Y-112027262D01*
X50549260Y-112027256D01*
X50377743Y-111855739D01*
X50377736Y-111855733D01*
X50185293Y-111708067D01*
X50185292Y-111708066D01*
X50185289Y-111708064D01*
X49975212Y-111586776D01*
X49975205Y-111586773D01*
X49751104Y-111493947D01*
X49516785Y-111431161D01*
X49276289Y-111399500D01*
X49276288Y-111399500D01*
X49033712Y-111399500D01*
X49033711Y-111399500D01*
X48793214Y-111431161D01*
X48558895Y-111493947D01*
X48334794Y-111586773D01*
X48334785Y-111586777D01*
X48124706Y-111708067D01*
X47932263Y-111855733D01*
X47932256Y-111855739D01*
X47760739Y-112027256D01*
X47760733Y-112027263D01*
X47613067Y-112219706D01*
X47491777Y-112429785D01*
X47491773Y-112429794D01*
X47398947Y-112653895D01*
X47336161Y-112888214D01*
X47304500Y-113128711D01*
X43925500Y-113128711D01*
X43925500Y-99253641D01*
X43945185Y-99186602D01*
X43997989Y-99140847D01*
X44067147Y-99130903D01*
X44130703Y-99159928D01*
X44168159Y-99217643D01*
X44199432Y-99320734D01*
X44254074Y-99500868D01*
X44393514Y-99837502D01*
X44393516Y-99837507D01*
X44565271Y-100158837D01*
X44565282Y-100158855D01*
X44767707Y-100461806D01*
X44767717Y-100461820D01*
X44998873Y-100743485D01*
X45256514Y-101001126D01*
X45256519Y-101001130D01*
X45256520Y-101001131D01*
X45538185Y-101232287D01*
X45841151Y-101434722D01*
X45841160Y-101434727D01*
X45841162Y-101434728D01*
X46162492Y-101606483D01*
X46162494Y-101606483D01*
X46162500Y-101606487D01*
X46324998Y-101673796D01*
X46499131Y-101745925D01*
X46499135Y-101745926D01*
X46499137Y-101745927D01*
X46847821Y-101851699D01*
X46847827Y-101851700D01*
X46847830Y-101851701D01*
X46847841Y-101851704D01*
X47071927Y-101896276D01*
X47205194Y-101922785D01*
X47567813Y-101958500D01*
X47567816Y-101958500D01*
X47932184Y-101958500D01*
X47932187Y-101958500D01*
X48294806Y-101922785D01*
X48471696Y-101887599D01*
X48652158Y-101851704D01*
X48652169Y-101851701D01*
X48652169Y-101851700D01*
X48652179Y-101851699D01*
X49000863Y-101745927D01*
X49337500Y-101606487D01*
X49658849Y-101434722D01*
X49961815Y-101232287D01*
X50243480Y-101001131D01*
X50501131Y-100743480D01*
X50732287Y-100461815D01*
X50934722Y-100158849D01*
X50934735Y-100158824D01*
X50936137Y-100156487D01*
X50987483Y-100109102D01*
X51056296Y-100096998D01*
X51120729Y-100124019D01*
X51160325Y-100181586D01*
X51166500Y-100220228D01*
X51166500Y-101967652D01*
X51195647Y-102114182D01*
X51195649Y-102114190D01*
X51252826Y-102252227D01*
X51285373Y-102300937D01*
X51335835Y-102376460D01*
X51335836Y-102376461D01*
X51849195Y-102889819D01*
X51882680Y-102951142D01*
X51877696Y-103020833D01*
X51835825Y-103076767D01*
X51770360Y-103101184D01*
X51761514Y-103101500D01*
X51595949Y-103101500D01*
X51400299Y-103132487D01*
X51211898Y-103193703D01*
X51035401Y-103283634D01*
X50961543Y-103337296D01*
X50875142Y-103400070D01*
X50875140Y-103400072D01*
X50875139Y-103400072D01*
X50735072Y-103540139D01*
X50735072Y-103540140D01*
X50735070Y-103540142D01*
X50725727Y-103553002D01*
X50618634Y-103700401D01*
X50528703Y-103876898D01*
X50467487Y-104065299D01*
X50436500Y-104260948D01*
X50436500Y-104459051D01*
X50467487Y-104654700D01*
X50528703Y-104843101D01*
X50607869Y-104998470D01*
X50618634Y-105019598D01*
X50735070Y-105179858D01*
X50875142Y-105319930D01*
X50980438Y-105396432D01*
X51008998Y-105417182D01*
X51051663Y-105472512D01*
X51057642Y-105542126D01*
X51025036Y-105603921D01*
X50964197Y-105638278D01*
X50936112Y-105641500D01*
X49626345Y-105641500D01*
X49565797Y-105648011D01*
X49565795Y-105648011D01*
X49428795Y-105699111D01*
X49311739Y-105786739D01*
X49224111Y-105903795D01*
X49173011Y-106040795D01*
X49173011Y-106040797D01*
X49166500Y-106101345D01*
X49166500Y-107698654D01*
X49173011Y-107759202D01*
X49173011Y-107759204D01*
X49203622Y-107841272D01*
X49224111Y-107896204D01*
X49311739Y-108013261D01*
X49428796Y-108100889D01*
X49565799Y-108151989D01*
X49593050Y-108154918D01*
X49626345Y-108158499D01*
X49626362Y-108158500D01*
X51223638Y-108158500D01*
X51223654Y-108158499D01*
X51250692Y-108155591D01*
X51284201Y-108151989D01*
X51421204Y-108100889D01*
X51538261Y-108013261D01*
X51625889Y-107896204D01*
X51654052Y-107820696D01*
X52574631Y-107820696D01*
X52673310Y-107861570D01*
X52673318Y-107861572D01*
X52866504Y-107899999D01*
X52866508Y-107900000D01*
X53063492Y-107900000D01*
X53063495Y-107899999D01*
X53256681Y-107861572D01*
X53256689Y-107861570D01*
X53355367Y-107820696D01*
X52965001Y-107430330D01*
X52965000Y-107430330D01*
X52574631Y-107820696D01*
X51654052Y-107820696D01*
X51676989Y-107759201D01*
X51677834Y-107751335D01*
X51683499Y-107698654D01*
X51683500Y-107698637D01*
X51683500Y-106801504D01*
X51965000Y-106801504D01*
X51965000Y-106998495D01*
X52003427Y-107191680D01*
X52003429Y-107191687D01*
X52044301Y-107290366D01*
X52434670Y-106900000D01*
X52044302Y-106509632D01*
X52044301Y-106509632D01*
X52003432Y-106608300D01*
X52003427Y-106608317D01*
X51965000Y-106801504D01*
X51683500Y-106801504D01*
X51683500Y-106101362D01*
X51683499Y-106101345D01*
X51680157Y-106070270D01*
X51676989Y-106040799D01*
X51675049Y-106035599D01*
X51639419Y-105940072D01*
X51625889Y-105903796D01*
X51560771Y-105816809D01*
X51536355Y-105751347D01*
X51551206Y-105683074D01*
X51600611Y-105633668D01*
X51660039Y-105618500D01*
X51794051Y-105618500D01*
X51989700Y-105587512D01*
X52058778Y-105565067D01*
X52178097Y-105526298D01*
X52354598Y-105436366D01*
X52377243Y-105419912D01*
X52443049Y-105396432D01*
X52511103Y-105412256D01*
X52537811Y-105432549D01*
X52818201Y-105712939D01*
X52851686Y-105774262D01*
X52846702Y-105843954D01*
X52804830Y-105899887D01*
X52754712Y-105922237D01*
X52673315Y-105938428D01*
X52673300Y-105938432D01*
X52574632Y-105979301D01*
X52574632Y-105979302D01*
X53181594Y-106586264D01*
X53111675Y-106545896D01*
X53015028Y-106520000D01*
X52914972Y-106520000D01*
X52818325Y-106545896D01*
X52731675Y-106595924D01*
X52660924Y-106666675D01*
X52610896Y-106753325D01*
X52585000Y-106849972D01*
X52585000Y-106950028D01*
X52610896Y-107046675D01*
X52660924Y-107133325D01*
X52731675Y-107204076D01*
X52818325Y-107254104D01*
X52914972Y-107280000D01*
X53015028Y-107280000D01*
X53111675Y-107254104D01*
X53198325Y-107204076D01*
X53269076Y-107133325D01*
X53319104Y-107046675D01*
X53345000Y-106950028D01*
X53345000Y-106849972D01*
X53319104Y-106753325D01*
X53278735Y-106683405D01*
X53885696Y-107290367D01*
X53926570Y-107191689D01*
X53942761Y-107110289D01*
X53947471Y-107101282D01*
X53948197Y-107091145D01*
X53963393Y-107070845D01*
X53975146Y-107048378D01*
X53983977Y-107043348D01*
X53990069Y-107035212D01*
X54013826Y-107026350D01*
X54035861Y-107013803D01*
X54046010Y-107014346D01*
X54055533Y-107010795D01*
X54080310Y-107016185D01*
X54105630Y-107017542D01*
X54115691Y-107023881D01*
X54123806Y-107025647D01*
X54152060Y-107046798D01*
X54245659Y-107140397D01*
X54273886Y-107190748D01*
X54275983Y-107190067D01*
X54277487Y-107194697D01*
X54277488Y-107194700D01*
X54338702Y-107383097D01*
X54428634Y-107559598D01*
X54545070Y-107719858D01*
X54685142Y-107859930D01*
X54845402Y-107976366D01*
X54917810Y-108013260D01*
X55021898Y-108066296D01*
X55021900Y-108066296D01*
X55021903Y-108066298D01*
X55122888Y-108099110D01*
X55210299Y-108127512D01*
X55405949Y-108158500D01*
X55405954Y-108158500D01*
X55604051Y-108158500D01*
X55799700Y-108127512D01*
X55988097Y-108066298D01*
X56164598Y-107976366D01*
X56324858Y-107859930D01*
X56364092Y-107820696D01*
X57654631Y-107820696D01*
X57753310Y-107861570D01*
X57753318Y-107861572D01*
X57946504Y-107899999D01*
X57946508Y-107900000D01*
X58143492Y-107900000D01*
X58143495Y-107899999D01*
X58336681Y-107861572D01*
X58336689Y-107861570D01*
X58435367Y-107820696D01*
X58045001Y-107430330D01*
X58045000Y-107430330D01*
X57654631Y-107820696D01*
X56364092Y-107820696D01*
X56464930Y-107719858D01*
X56581366Y-107559598D01*
X56671298Y-107383097D01*
X56732512Y-107194700D01*
X56736523Y-107169373D01*
X56763500Y-106999051D01*
X56763500Y-106801504D01*
X57045000Y-106801504D01*
X57045000Y-106998495D01*
X57083427Y-107191680D01*
X57083429Y-107191687D01*
X57124301Y-107290366D01*
X57514670Y-106900000D01*
X57464642Y-106849972D01*
X57665000Y-106849972D01*
X57665000Y-106950028D01*
X57690896Y-107046675D01*
X57740924Y-107133325D01*
X57811675Y-107204076D01*
X57898325Y-107254104D01*
X57994972Y-107280000D01*
X58095028Y-107280000D01*
X58191675Y-107254104D01*
X58278325Y-107204076D01*
X58349076Y-107133325D01*
X58399104Y-107046675D01*
X58425000Y-106950028D01*
X58425000Y-106899999D01*
X58575330Y-106899999D01*
X58575330Y-106900001D01*
X58965696Y-107290367D01*
X59006570Y-107191689D01*
X59006572Y-107191681D01*
X59044999Y-106998495D01*
X59045000Y-106998492D01*
X59045000Y-106801508D01*
X59044999Y-106801504D01*
X59006572Y-106608318D01*
X59006570Y-106608310D01*
X58965696Y-106509631D01*
X58575330Y-106899999D01*
X58425000Y-106899999D01*
X58425000Y-106849972D01*
X58399104Y-106753325D01*
X58349076Y-106666675D01*
X58278325Y-106595924D01*
X58191675Y-106545896D01*
X58095028Y-106520000D01*
X57994972Y-106520000D01*
X57898325Y-106545896D01*
X57811675Y-106595924D01*
X57740924Y-106666675D01*
X57690896Y-106753325D01*
X57665000Y-106849972D01*
X57464642Y-106849972D01*
X57124302Y-106509632D01*
X57124301Y-106509632D01*
X57083432Y-106608300D01*
X57083427Y-106608317D01*
X57045000Y-106801504D01*
X56763500Y-106801504D01*
X56763500Y-106800949D01*
X56763499Y-106800947D01*
X56732512Y-106605299D01*
X56704110Y-106517888D01*
X56671298Y-106416903D01*
X56671296Y-106416900D01*
X56671296Y-106416898D01*
X56581365Y-106240401D01*
X56559733Y-106210627D01*
X56464930Y-106080142D01*
X56364089Y-105979301D01*
X57654632Y-105979301D01*
X57654632Y-105979302D01*
X58045000Y-106369670D01*
X58045001Y-106369670D01*
X58435367Y-105979302D01*
X58336687Y-105938429D01*
X58336680Y-105938427D01*
X58143495Y-105900000D01*
X57946504Y-105900000D01*
X57753317Y-105938427D01*
X57753300Y-105938432D01*
X57654632Y-105979301D01*
X56364089Y-105979301D01*
X56324858Y-105940070D01*
X56164598Y-105823634D01*
X56093240Y-105787275D01*
X55988101Y-105733703D01*
X55799700Y-105672487D01*
X55604051Y-105641500D01*
X55604046Y-105641500D01*
X55405954Y-105641500D01*
X55405949Y-105641500D01*
X55210298Y-105672488D01*
X55210295Y-105672488D01*
X55065808Y-105719435D01*
X55050595Y-105719869D01*
X55036336Y-105725188D01*
X55016380Y-105720846D01*
X54995966Y-105721430D01*
X54981879Y-105713341D01*
X54968063Y-105710336D01*
X54939809Y-105689185D01*
X54877014Y-105626390D01*
X54843529Y-105565067D01*
X54848513Y-105495375D01*
X54890385Y-105439442D01*
X54891810Y-105438391D01*
X54894595Y-105436367D01*
X54894598Y-105436366D01*
X55054858Y-105319930D01*
X55094092Y-105280696D01*
X56384631Y-105280696D01*
X56483310Y-105321570D01*
X56483318Y-105321572D01*
X56676504Y-105359999D01*
X56676508Y-105360000D01*
X56873492Y-105360000D01*
X56873495Y-105359999D01*
X57066681Y-105321572D01*
X57066689Y-105321570D01*
X57165367Y-105280696D01*
X56775001Y-104890330D01*
X56775000Y-104890330D01*
X56384631Y-105280696D01*
X55094092Y-105280696D01*
X55194930Y-105179858D01*
X55311366Y-105019598D01*
X55401298Y-104843097D01*
X55462512Y-104654700D01*
X55466523Y-104629373D01*
X55493500Y-104459051D01*
X55493500Y-104261504D01*
X55775000Y-104261504D01*
X55775000Y-104458495D01*
X55813427Y-104651680D01*
X55813429Y-104651687D01*
X55854301Y-104750366D01*
X56244670Y-104360000D01*
X56194642Y-104309972D01*
X56395000Y-104309972D01*
X56395000Y-104410028D01*
X56420896Y-104506675D01*
X56470924Y-104593325D01*
X56541675Y-104664076D01*
X56628325Y-104714104D01*
X56724972Y-104740000D01*
X56825028Y-104740000D01*
X56921675Y-104714104D01*
X57008325Y-104664076D01*
X57079076Y-104593325D01*
X57129104Y-104506675D01*
X57155000Y-104410028D01*
X57155000Y-104309972D01*
X57129104Y-104213325D01*
X57079076Y-104126675D01*
X57008325Y-104055924D01*
X56921675Y-104005896D01*
X56825028Y-103980000D01*
X56724972Y-103980000D01*
X56628325Y-104005896D01*
X56541675Y-104055924D01*
X56470924Y-104126675D01*
X56420896Y-104213325D01*
X56395000Y-104309972D01*
X56194642Y-104309972D01*
X55854302Y-103969632D01*
X55854301Y-103969632D01*
X55813432Y-104068300D01*
X55813427Y-104068317D01*
X55775000Y-104261504D01*
X55493500Y-104261504D01*
X55493500Y-104260949D01*
X55493499Y-104260947D01*
X55462512Y-104065299D01*
X55434110Y-103977888D01*
X55401298Y-103876903D01*
X55401296Y-103876900D01*
X55401296Y-103876898D01*
X55311365Y-103700401D01*
X55289733Y-103670627D01*
X55194930Y-103540142D01*
X55094089Y-103439301D01*
X56384632Y-103439301D01*
X56384632Y-103439302D01*
X56775000Y-103829670D01*
X56775001Y-103829670D01*
X57165367Y-103439302D01*
X57066687Y-103398429D01*
X57066680Y-103398427D01*
X56873495Y-103360000D01*
X56676504Y-103360000D01*
X56483317Y-103398427D01*
X56483300Y-103398432D01*
X56384632Y-103439301D01*
X55094089Y-103439301D01*
X55054858Y-103400070D01*
X55054855Y-103400067D01*
X55044613Y-103392626D01*
X55001948Y-103337296D01*
X54993500Y-103292309D01*
X54993500Y-103138284D01*
X54964352Y-102991752D01*
X54964351Y-102991751D01*
X54964351Y-102991747D01*
X54947532Y-102951142D01*
X54907177Y-102853715D01*
X54907169Y-102853701D01*
X54885141Y-102820734D01*
X54885140Y-102820732D01*
X54824167Y-102729479D01*
X54824161Y-102729472D01*
X53719819Y-101625130D01*
X53686334Y-101563807D01*
X53683500Y-101537449D01*
X53683500Y-87693411D01*
X53703185Y-87626372D01*
X53755989Y-87580617D01*
X53825147Y-87570673D01*
X53888703Y-87599698D01*
X53895181Y-87605730D01*
X54776373Y-88486922D01*
X54915127Y-88567032D01*
X54933668Y-88572000D01*
X54942938Y-88574484D01*
X54942939Y-88574484D01*
X55069889Y-88608500D01*
X55069890Y-88608500D01*
X55230110Y-88608500D01*
X63067808Y-88608500D01*
X63134847Y-88628185D01*
X63136698Y-88629398D01*
X63267030Y-88716482D01*
X63267031Y-88716482D01*
X63267032Y-88716483D01*
X63414169Y-88777430D01*
X63570365Y-88808499D01*
X63570369Y-88808500D01*
X63570370Y-88808500D01*
X63729631Y-88808500D01*
X63729632Y-88808499D01*
X63885831Y-88777430D01*
X64032968Y-88716483D01*
X64165389Y-88628003D01*
X64278003Y-88515389D01*
X64366483Y-88382968D01*
X64427430Y-88235831D01*
X64458500Y-88079630D01*
X64458500Y-87920370D01*
X64427430Y-87764169D01*
X64366483Y-87617032D01*
X64358931Y-87605730D01*
X64278004Y-87484612D01*
X64277998Y-87484605D01*
X64165394Y-87372001D01*
X64165387Y-87371995D01*
X64032969Y-87283517D01*
X63885831Y-87222570D01*
X63885823Y-87222568D01*
X63729634Y-87191500D01*
X63729630Y-87191500D01*
X63570370Y-87191500D01*
X63570365Y-87191500D01*
X63414176Y-87222568D01*
X63414168Y-87222570D01*
X63267030Y-87283517D01*
X63267029Y-87283517D01*
X63136698Y-87370602D01*
X63070021Y-87391480D01*
X63067808Y-87391500D01*
X55453411Y-87391500D01*
X55386372Y-87371815D01*
X55365730Y-87355181D01*
X54741946Y-86731397D01*
X54708461Y-86670074D01*
X54708032Y-86668019D01*
X54677430Y-86514169D01*
X54616483Y-86367032D01*
X54528003Y-86234611D01*
X54527998Y-86234605D01*
X54415394Y-86122001D01*
X54415389Y-86121997D01*
X54387109Y-86103101D01*
X54366067Y-86077924D01*
X54344142Y-86053514D01*
X54343775Y-86051251D01*
X54342305Y-86049492D01*
X54338213Y-86016926D01*
X54332967Y-85984543D01*
X54333881Y-85982441D01*
X54333596Y-85980167D01*
X54347761Y-85950557D01*
X54360855Y-85920481D01*
X54363127Y-85918439D01*
X54363750Y-85917139D01*
X54387107Y-85896899D01*
X54413304Y-85879395D01*
X54479982Y-85858520D01*
X54482192Y-85858500D01*
X60067808Y-85858500D01*
X60134847Y-85878185D01*
X60136698Y-85879398D01*
X60267030Y-85966482D01*
X60267031Y-85966482D01*
X60267032Y-85966483D01*
X60414169Y-86027430D01*
X60570365Y-86058499D01*
X60570369Y-86058500D01*
X60570370Y-86058500D01*
X60729631Y-86058500D01*
X60729632Y-86058499D01*
X60885831Y-86027430D01*
X61032968Y-85966483D01*
X61165389Y-85878003D01*
X61278003Y-85765389D01*
X61366483Y-85632968D01*
X61427430Y-85485831D01*
X61458500Y-85329630D01*
X61458500Y-85170370D01*
X61427430Y-85014169D01*
X61366483Y-84867032D01*
X61306988Y-84777991D01*
X61278004Y-84734612D01*
X61277998Y-84734605D01*
X61165394Y-84622001D01*
X61165387Y-84621995D01*
X61032969Y-84533517D01*
X60885831Y-84472570D01*
X60885823Y-84472568D01*
X60729634Y-84441500D01*
X60729630Y-84441500D01*
X60570370Y-84441500D01*
X60570365Y-84441500D01*
X60414176Y-84472568D01*
X60414168Y-84472570D01*
X60267030Y-84533517D01*
X60267029Y-84533517D01*
X60136698Y-84620602D01*
X60070021Y-84641480D01*
X60067808Y-84641500D01*
X54482192Y-84641500D01*
X54415153Y-84621815D01*
X54413302Y-84620602D01*
X54282969Y-84533517D01*
X54135831Y-84472570D01*
X54135823Y-84472568D01*
X53979634Y-84441500D01*
X53979630Y-84441500D01*
X53820370Y-84441500D01*
X53820364Y-84441500D01*
X53819642Y-84441571D01*
X53819268Y-84441500D01*
X53814279Y-84441500D01*
X53814279Y-84440553D01*
X53750997Y-84428546D01*
X53700292Y-84380476D01*
X53683500Y-84318167D01*
X53683500Y-71615543D01*
X53703185Y-71548504D01*
X53719819Y-71527862D01*
X55986663Y-69261018D01*
X55986666Y-69261015D01*
X56069674Y-69136785D01*
X56126851Y-68998747D01*
X56136695Y-68949254D01*
X56169078Y-68887345D01*
X56185420Y-68873133D01*
X56217358Y-68849930D01*
X56357430Y-68709858D01*
X56473866Y-68549598D01*
X56557015Y-68386408D01*
X56604990Y-68335613D01*
X56672811Y-68318818D01*
X56738946Y-68341355D01*
X56777984Y-68386408D01*
X56861134Y-68549598D01*
X56977570Y-68709858D01*
X57117642Y-68849930D01*
X57277902Y-68966366D01*
X57341449Y-68998745D01*
X57454398Y-69056296D01*
X57454400Y-69056296D01*
X57454403Y-69056298D01*
X57511485Y-69074845D01*
X57642799Y-69117512D01*
X57838449Y-69148500D01*
X57838454Y-69148500D01*
X58036551Y-69148500D01*
X58232200Y-69117512D01*
X58420597Y-69056298D01*
X58597098Y-68966366D01*
X58757358Y-68849930D01*
X58897430Y-68709858D01*
X59013866Y-68549598D01*
X59103798Y-68373097D01*
X59165012Y-68184700D01*
X59165490Y-68181680D01*
X59196000Y-67989051D01*
X59196000Y-67790948D01*
X59165012Y-67595299D01*
X59136610Y-67507888D01*
X59103798Y-67406903D01*
X59103796Y-67406900D01*
X59103796Y-67406898D01*
X59034681Y-67271254D01*
X59013866Y-67230402D01*
X58897430Y-67070142D01*
X58757358Y-66930070D01*
X58623501Y-66832817D01*
X58580837Y-66777488D01*
X58574858Y-66707874D01*
X58607464Y-66646079D01*
X58668303Y-66611722D01*
X58696388Y-66608500D01*
X60006138Y-66608500D01*
X60006154Y-66608499D01*
X60033192Y-66605591D01*
X60066701Y-66601989D01*
X60203704Y-66550889D01*
X60320761Y-66463261D01*
X60408389Y-66346204D01*
X60459489Y-66209201D01*
X60463091Y-66175692D01*
X60465999Y-66148654D01*
X60466000Y-66148637D01*
X60466000Y-64898703D01*
X60485685Y-64831664D01*
X60538489Y-64785909D01*
X60607647Y-64775965D01*
X60671203Y-64804990D01*
X60677681Y-64811022D01*
X64880181Y-69013522D01*
X64913666Y-69074845D01*
X64916500Y-69101203D01*
X64916500Y-95573796D01*
X64896815Y-95640835D01*
X64880181Y-95661477D01*
X58164378Y-102377279D01*
X58164374Y-102377283D01*
X58088217Y-102482107D01*
X58088217Y-102482108D01*
X58024815Y-102569372D01*
X57917019Y-102780934D01*
X57843643Y-103006761D01*
X57843643Y-103006762D01*
X57806499Y-103241278D01*
X57806499Y-103483832D01*
X57806500Y-103483857D01*
X57806500Y-103840577D01*
X57786815Y-103907616D01*
X57734011Y-103953371D01*
X57708253Y-103957074D01*
X57305330Y-104359999D01*
X57305330Y-104360001D01*
X57695696Y-104750367D01*
X57737920Y-104741968D01*
X57807512Y-104748195D01*
X57862689Y-104791058D01*
X57880043Y-104825266D01*
X57917019Y-104939067D01*
X57982082Y-105066759D01*
X58024815Y-105150627D01*
X58164380Y-105342722D01*
X58332278Y-105510620D01*
X58524373Y-105650185D01*
X58600915Y-105689185D01*
X58735932Y-105757980D01*
X58735934Y-105757980D01*
X58735937Y-105757982D01*
X58826092Y-105787275D01*
X58961758Y-105831356D01*
X59196273Y-105868500D01*
X59196278Y-105868500D01*
X59433727Y-105868500D01*
X59668241Y-105831356D01*
X59692007Y-105823634D01*
X59894063Y-105757982D01*
X60105627Y-105650185D01*
X60297722Y-105510620D01*
X60465620Y-105342722D01*
X60605185Y-105150627D01*
X60712982Y-104939063D01*
X60786356Y-104713241D01*
X60789745Y-104691843D01*
X60823500Y-104478727D01*
X60823500Y-104036202D01*
X60843185Y-103969163D01*
X60859814Y-103948526D01*
X62047068Y-102761272D01*
X64416500Y-102761272D01*
X64416500Y-102998727D01*
X64453643Y-103233241D01*
X64527019Y-103459067D01*
X64631668Y-103664451D01*
X64634815Y-103670627D01*
X64774380Y-103862722D01*
X64942278Y-104030620D01*
X64942284Y-104030624D01*
X64968515Y-104049683D01*
X65011181Y-104105013D01*
X65017159Y-104174626D01*
X64984553Y-104236421D01*
X64968515Y-104250317D01*
X64942284Y-104269375D01*
X64942275Y-104269382D01*
X64774382Y-104437275D01*
X64634815Y-104629372D01*
X64527019Y-104840932D01*
X64453643Y-105066758D01*
X64416500Y-105301272D01*
X64416500Y-105538727D01*
X64453643Y-105773241D01*
X64527019Y-105999067D01*
X64597510Y-106137412D01*
X64634815Y-106210627D01*
X64774380Y-106402722D01*
X64942278Y-106570620D01*
X64942284Y-106570624D01*
X64968515Y-106589683D01*
X65011181Y-106645013D01*
X65017159Y-106714626D01*
X64984553Y-106776421D01*
X64968515Y-106790317D01*
X64942284Y-106809375D01*
X64942275Y-106809382D01*
X64774382Y-106977275D01*
X64634815Y-107169372D01*
X64527019Y-107380932D01*
X64453643Y-107606758D01*
X64416500Y-107841272D01*
X64416500Y-108078727D01*
X64453643Y-108313241D01*
X64527019Y-108539067D01*
X64634815Y-108750627D01*
X64774380Y-108942722D01*
X64942278Y-109110620D01*
X64942284Y-109110624D01*
X64968515Y-109129683D01*
X65011181Y-109185013D01*
X65017159Y-109254626D01*
X64984553Y-109316421D01*
X64968515Y-109330317D01*
X64942284Y-109349375D01*
X64942275Y-109349382D01*
X64774382Y-109517275D01*
X64634815Y-109709372D01*
X64527019Y-109920932D01*
X64453643Y-110146758D01*
X64416500Y-110381272D01*
X64416500Y-110618727D01*
X64453643Y-110853241D01*
X64527019Y-111079067D01*
X64634815Y-111290627D01*
X64774380Y-111482722D01*
X64942278Y-111650620D01*
X64942284Y-111650624D01*
X64968515Y-111669683D01*
X65011181Y-111725013D01*
X65017159Y-111794626D01*
X64984553Y-111856421D01*
X64968515Y-111870317D01*
X64942284Y-111889375D01*
X64942275Y-111889382D01*
X64774382Y-112057275D01*
X64634815Y-112249372D01*
X64527019Y-112460932D01*
X64453643Y-112686758D01*
X64416500Y-112921272D01*
X64416500Y-113158727D01*
X64453643Y-113393241D01*
X64527019Y-113619067D01*
X64633077Y-113827216D01*
X64634815Y-113830627D01*
X64774380Y-114022722D01*
X64942278Y-114190620D01*
X65072699Y-114285376D01*
X65134374Y-114330186D01*
X65163199Y-114344873D01*
X65179918Y-114353391D01*
X65230714Y-114401364D01*
X65247510Y-114469185D01*
X65224973Y-114535320D01*
X65196511Y-114564193D01*
X65110680Y-114626553D01*
X64971555Y-114765678D01*
X64855904Y-114924856D01*
X64766581Y-115100164D01*
X64705778Y-115287294D01*
X64675000Y-115481617D01*
X64675000Y-115678382D01*
X64705778Y-115872705D01*
X64766581Y-116059835D01*
X64855904Y-116235143D01*
X64971555Y-116394321D01*
X65110677Y-116533443D01*
X65196510Y-116595805D01*
X65239175Y-116651135D01*
X65245154Y-116720749D01*
X65212548Y-116782544D01*
X65179919Y-116806608D01*
X65134372Y-116829815D01*
X64942275Y-116969382D01*
X64774382Y-117137275D01*
X64634815Y-117329372D01*
X64527019Y-117540932D01*
X64453643Y-117766758D01*
X64416500Y-118001272D01*
X64416500Y-118238727D01*
X64453643Y-118473241D01*
X64527019Y-118699067D01*
X64603948Y-118850047D01*
X64634815Y-118910627D01*
X64774380Y-119102722D01*
X64942278Y-119270620D01*
X65134373Y-119410185D01*
X65234328Y-119461114D01*
X65345932Y-119517980D01*
X65345934Y-119517980D01*
X65345937Y-119517982D01*
X65466984Y-119557312D01*
X65571758Y-119591356D01*
X65806273Y-119628500D01*
X65806278Y-119628500D01*
X67043727Y-119628500D01*
X67278241Y-119591356D01*
X67504063Y-119517982D01*
X67715627Y-119410185D01*
X67907722Y-119270620D01*
X68075620Y-119102722D01*
X68215185Y-118910627D01*
X68322982Y-118699063D01*
X68396356Y-118473241D01*
X68433500Y-118238727D01*
X68433500Y-118001272D01*
X68396356Y-117766758D01*
X68352661Y-117632279D01*
X68322982Y-117540937D01*
X68322980Y-117540934D01*
X68322980Y-117540932D01*
X68215184Y-117329372D01*
X68206786Y-117317813D01*
X68075620Y-117137278D01*
X67907722Y-116969380D01*
X67715627Y-116829815D01*
X67670081Y-116806608D01*
X67619285Y-116758633D01*
X67602490Y-116690812D01*
X67625028Y-116624677D01*
X67653490Y-116595805D01*
X67739321Y-116533443D01*
X67739322Y-116533443D01*
X67878444Y-116394321D01*
X67994095Y-116235143D01*
X68083418Y-116059835D01*
X68144221Y-115872705D01*
X68175000Y-115678382D01*
X68175000Y-115481617D01*
X68144221Y-115287294D01*
X68083418Y-115100164D01*
X67994095Y-114924856D01*
X67878444Y-114765678D01*
X67739319Y-114626553D01*
X67653489Y-114564193D01*
X67610824Y-114508863D01*
X67604846Y-114439249D01*
X67637453Y-114377455D01*
X67670080Y-114353391D01*
X67715627Y-114330185D01*
X67907722Y-114190620D01*
X68075620Y-114022722D01*
X68215185Y-113830627D01*
X68322982Y-113619063D01*
X68396356Y-113393241D01*
X68399833Y-113371288D01*
X68433500Y-113158727D01*
X68433500Y-112921272D01*
X68396356Y-112686758D01*
X68322980Y-112460932D01*
X68215184Y-112249372D01*
X68193634Y-112219711D01*
X68075620Y-112057278D01*
X67907722Y-111889380D01*
X67907718Y-111889376D01*
X67881487Y-111870319D01*
X67838820Y-111814990D01*
X67832840Y-111745376D01*
X67865446Y-111683581D01*
X67881487Y-111669681D01*
X67907718Y-111650623D01*
X67907718Y-111650622D01*
X67907722Y-111650620D01*
X68075620Y-111482722D01*
X68215185Y-111290627D01*
X68322982Y-111079063D01*
X68396356Y-110853241D01*
X68433500Y-110618727D01*
X68433500Y-110403410D01*
X68453185Y-110336371D01*
X68469819Y-110315729D01*
X69341951Y-109443597D01*
X70264512Y-108521035D01*
X70304747Y-108494154D01*
X70309863Y-108492034D01*
X70309873Y-108492032D01*
X70448627Y-108411922D01*
X78179819Y-100680730D01*
X78241142Y-100647245D01*
X78310834Y-100652229D01*
X78366767Y-100694101D01*
X78391184Y-100759565D01*
X78391500Y-100768411D01*
X78391500Y-107915109D01*
X78432968Y-108069874D01*
X78450875Y-108100889D01*
X78513078Y-108208627D01*
X78513080Y-108208629D01*
X79858510Y-109554059D01*
X79891995Y-109615382D01*
X79887011Y-109685074D01*
X79876562Y-109706521D01*
X79874817Y-109709367D01*
X79767019Y-109920932D01*
X79693643Y-110146758D01*
X79656500Y-110381272D01*
X79656500Y-110618727D01*
X79693643Y-110853241D01*
X79767019Y-111079067D01*
X79874815Y-111290627D01*
X80014380Y-111482722D01*
X80182278Y-111650620D01*
X80182284Y-111650624D01*
X80208515Y-111669683D01*
X80251181Y-111725013D01*
X80257159Y-111794626D01*
X80224553Y-111856421D01*
X80208515Y-111870317D01*
X80182284Y-111889375D01*
X80182275Y-111889382D01*
X80014382Y-112057275D01*
X79874815Y-112249372D01*
X79767019Y-112460932D01*
X79693643Y-112686758D01*
X79656500Y-112921272D01*
X79656500Y-113158727D01*
X79693643Y-113393241D01*
X79767019Y-113619067D01*
X79873077Y-113827216D01*
X79874815Y-113830627D01*
X80014380Y-114022722D01*
X80182278Y-114190620D01*
X80182284Y-114190624D01*
X80208515Y-114209683D01*
X80251181Y-114265013D01*
X80257159Y-114334626D01*
X80224553Y-114396421D01*
X80208515Y-114410317D01*
X80182284Y-114429375D01*
X80182275Y-114429382D01*
X80014382Y-114597275D01*
X79874815Y-114789372D01*
X79767019Y-115000932D01*
X79693643Y-115226758D01*
X79656500Y-115461272D01*
X79656500Y-115698727D01*
X79693643Y-115933241D01*
X79767019Y-116159067D01*
X79874815Y-116370627D01*
X80014380Y-116562722D01*
X80182278Y-116730620D01*
X80182284Y-116730624D01*
X80208515Y-116749683D01*
X80251181Y-116805013D01*
X80257159Y-116874626D01*
X80224553Y-116936421D01*
X80208515Y-116950317D01*
X80182284Y-116969375D01*
X80182275Y-116969382D01*
X80014382Y-117137275D01*
X79874815Y-117329372D01*
X79767019Y-117540932D01*
X79693643Y-117766758D01*
X79656500Y-118001272D01*
X79656500Y-118238727D01*
X79693643Y-118473241D01*
X79767019Y-118699067D01*
X79843948Y-118850047D01*
X79874815Y-118910627D01*
X80014380Y-119102722D01*
X80182278Y-119270620D01*
X80374373Y-119410185D01*
X80474328Y-119461114D01*
X80585932Y-119517980D01*
X80585934Y-119517980D01*
X80585937Y-119517982D01*
X80706984Y-119557312D01*
X80811758Y-119591356D01*
X81046273Y-119628500D01*
X81046278Y-119628500D01*
X82283727Y-119628500D01*
X82518241Y-119591356D01*
X82744063Y-119517982D01*
X82955627Y-119410185D01*
X83147722Y-119270620D01*
X83315620Y-119102722D01*
X83455185Y-118910627D01*
X83562982Y-118699063D01*
X83636356Y-118473241D01*
X83673500Y-118238727D01*
X83673500Y-118001272D01*
X83636356Y-117766758D01*
X83592661Y-117632279D01*
X83562982Y-117540937D01*
X83562980Y-117540934D01*
X83562980Y-117540932D01*
X83455184Y-117329372D01*
X83446786Y-117317813D01*
X83315620Y-117137278D01*
X83147722Y-116969380D01*
X83147718Y-116969376D01*
X83121487Y-116950319D01*
X83108272Y-116933183D01*
X83091603Y-116919388D01*
X83087360Y-116906065D01*
X83078820Y-116894990D01*
X83076967Y-116873427D01*
X83070403Y-116852812D01*
X83074036Y-116839310D01*
X83072840Y-116825376D01*
X83082938Y-116806237D01*
X83088562Y-116785343D01*
X83101167Y-116771689D01*
X83105446Y-116763581D01*
X83111064Y-116758153D01*
X83116047Y-116753632D01*
X83147722Y-116730620D01*
X83315620Y-116562722D01*
X83455185Y-116370627D01*
X83562982Y-116159063D01*
X83636356Y-115933241D01*
X83661737Y-115772993D01*
X83673500Y-115698727D01*
X83673500Y-115650371D01*
X88300000Y-115650371D01*
X88300000Y-116500000D01*
X89276473Y-116500000D01*
X89269881Y-116506592D01*
X89190889Y-116643409D01*
X89150000Y-116796009D01*
X89150000Y-116953991D01*
X89190889Y-117106591D01*
X89269881Y-117243408D01*
X89276473Y-117250000D01*
X88300000Y-117250000D01*
X88300000Y-118099628D01*
X88314503Y-118172540D01*
X88314505Y-118172544D01*
X88369760Y-118255239D01*
X88452455Y-118310494D01*
X88452459Y-118310496D01*
X88525371Y-118324999D01*
X88525374Y-118325000D01*
X89375000Y-118325000D01*
X89375000Y-117348527D01*
X89381592Y-117355119D01*
X89518409Y-117434111D01*
X89671009Y-117475000D01*
X89828991Y-117475000D01*
X89981591Y-117434111D01*
X90118408Y-117355119D01*
X90125000Y-117348527D01*
X90125000Y-118325000D01*
X90974626Y-118325000D01*
X90974628Y-118324999D01*
X91047540Y-118310496D01*
X91047544Y-118310494D01*
X91130239Y-118255239D01*
X91185494Y-118172544D01*
X91185496Y-118172540D01*
X91199999Y-118099628D01*
X91200000Y-118099626D01*
X91200000Y-117250000D01*
X90223527Y-117250000D01*
X90230119Y-117243408D01*
X90309111Y-117106591D01*
X90350000Y-116953991D01*
X90350000Y-116796009D01*
X90341162Y-116763025D01*
X91541500Y-116763025D01*
X91541500Y-116986974D01*
X91541501Y-116986990D01*
X91570731Y-117209016D01*
X91570732Y-117209021D01*
X91570733Y-117209027D01*
X91587479Y-117271524D01*
X91628698Y-117425358D01*
X91714400Y-117632262D01*
X91714408Y-117632279D01*
X91826381Y-117826220D01*
X91826392Y-117826236D01*
X91962723Y-118003907D01*
X91962729Y-118003914D01*
X92121085Y-118162270D01*
X92121092Y-118162276D01*
X92134474Y-118172544D01*
X92298772Y-118298614D01*
X92298779Y-118298618D01*
X92492720Y-118410591D01*
X92492725Y-118410593D01*
X92492728Y-118410595D01*
X92492732Y-118410596D01*
X92492737Y-118410599D01*
X92558355Y-118437778D01*
X92699642Y-118496302D01*
X92915973Y-118554267D01*
X93138019Y-118583500D01*
X93138026Y-118583500D01*
X93361974Y-118583500D01*
X93361981Y-118583500D01*
X93584027Y-118554267D01*
X93800358Y-118496302D01*
X94007272Y-118410595D01*
X94201228Y-118298614D01*
X94378909Y-118162275D01*
X94537275Y-118003909D01*
X94673614Y-117826228D01*
X94785595Y-117632272D01*
X94871302Y-117425358D01*
X94900118Y-117317813D01*
X97716496Y-117317813D01*
X97716496Y-117682187D01*
X97724826Y-117766758D01*
X97752209Y-118044795D01*
X97752212Y-118044812D01*
X97823291Y-118402158D01*
X97823294Y-118402169D01*
X97929070Y-118750868D01*
X98068510Y-119087502D01*
X98068512Y-119087507D01*
X98240267Y-119408837D01*
X98240278Y-119408855D01*
X98442703Y-119711806D01*
X98442713Y-119711820D01*
X98673869Y-119993485D01*
X98931510Y-120251126D01*
X98931515Y-120251130D01*
X98931516Y-120251131D01*
X99213181Y-120482287D01*
X99516147Y-120684722D01*
X99516156Y-120684727D01*
X99516158Y-120684728D01*
X99837488Y-120856483D01*
X99837490Y-120856483D01*
X99837496Y-120856487D01*
X100042661Y-120941469D01*
X100174127Y-120995925D01*
X100174131Y-120995926D01*
X100174133Y-120995927D01*
X100522817Y-121101699D01*
X100522823Y-121101700D01*
X100522826Y-121101701D01*
X100522837Y-121101704D01*
X100746923Y-121146276D01*
X100880190Y-121172785D01*
X101242809Y-121208500D01*
X101242812Y-121208500D01*
X101607180Y-121208500D01*
X101607183Y-121208500D01*
X101969802Y-121172785D01*
X102146692Y-121137599D01*
X102327154Y-121101704D01*
X102327165Y-121101701D01*
X102327165Y-121101700D01*
X102327175Y-121101699D01*
X102675859Y-120995927D01*
X103012496Y-120856487D01*
X103333845Y-120684722D01*
X103636811Y-120482287D01*
X103918476Y-120251131D01*
X104176127Y-119993480D01*
X104407283Y-119711815D01*
X104609718Y-119408849D01*
X104781483Y-119087500D01*
X104920923Y-118750863D01*
X105026695Y-118402179D01*
X105026697Y-118402169D01*
X105026700Y-118402158D01*
X105072373Y-118172540D01*
X105097781Y-118044806D01*
X105133496Y-117682187D01*
X105133496Y-117317813D01*
X105097781Y-116955194D01*
X105066117Y-116796009D01*
X105026700Y-116597841D01*
X105026697Y-116597830D01*
X105026696Y-116597827D01*
X105026695Y-116597821D01*
X104920923Y-116249137D01*
X104915126Y-116235143D01*
X104842511Y-116059835D01*
X104781483Y-115912500D01*
X104692535Y-115746091D01*
X104609724Y-115591162D01*
X104609723Y-115591160D01*
X104609718Y-115591151D01*
X104407283Y-115288185D01*
X104176127Y-115006520D01*
X104176126Y-115006519D01*
X104176122Y-115006514D01*
X103918481Y-114748873D01*
X103636816Y-114517717D01*
X103636815Y-114517716D01*
X103636811Y-114517713D01*
X103333845Y-114315278D01*
X103333840Y-114315275D01*
X103333833Y-114315271D01*
X103012503Y-114143516D01*
X103012498Y-114143514D01*
X102675864Y-114004074D01*
X102327165Y-113898298D01*
X102327154Y-113898295D01*
X101969808Y-113827216D01*
X101969791Y-113827213D01*
X101695576Y-113800206D01*
X101607183Y-113791500D01*
X101242809Y-113791500D01*
X101161058Y-113799551D01*
X100880200Y-113827213D01*
X100880183Y-113827216D01*
X100522837Y-113898295D01*
X100522826Y-113898298D01*
X100174127Y-114004074D01*
X99837493Y-114143514D01*
X99837488Y-114143516D01*
X99516158Y-114315271D01*
X99516140Y-114315282D01*
X99213189Y-114517707D01*
X99213175Y-114517717D01*
X98931510Y-114748873D01*
X98673869Y-115006514D01*
X98442713Y-115288179D01*
X98442703Y-115288193D01*
X98240278Y-115591144D01*
X98240267Y-115591162D01*
X98068512Y-115912492D01*
X98068510Y-115912497D01*
X97929070Y-116249131D01*
X97823294Y-116597830D01*
X97823291Y-116597841D01*
X97752212Y-116955187D01*
X97752209Y-116955204D01*
X97727210Y-117209029D01*
X97716496Y-117317813D01*
X94900118Y-117317813D01*
X94929267Y-117209027D01*
X94958500Y-116986981D01*
X94958500Y-116763019D01*
X94929267Y-116540973D01*
X94871302Y-116324642D01*
X94785595Y-116117728D01*
X94785593Y-116117725D01*
X94785591Y-116117720D01*
X94673618Y-115923779D01*
X94673614Y-115923772D01*
X94537275Y-115746091D01*
X94537270Y-115746085D01*
X94378914Y-115587729D01*
X94378907Y-115587723D01*
X94201236Y-115451392D01*
X94201234Y-115451390D01*
X94201228Y-115451386D01*
X94201223Y-115451383D01*
X94201220Y-115451381D01*
X94007279Y-115339408D01*
X94007262Y-115339400D01*
X93800358Y-115253698D01*
X93584027Y-115195733D01*
X93584021Y-115195732D01*
X93584016Y-115195731D01*
X93361990Y-115166501D01*
X93361987Y-115166500D01*
X93361981Y-115166500D01*
X93138019Y-115166500D01*
X93138013Y-115166500D01*
X93138009Y-115166501D01*
X92915983Y-115195731D01*
X92915976Y-115195732D01*
X92915973Y-115195733D01*
X92824535Y-115220233D01*
X92699641Y-115253698D01*
X92492737Y-115339400D01*
X92492720Y-115339408D01*
X92298779Y-115451381D01*
X92298763Y-115451392D01*
X92121092Y-115587723D01*
X92121085Y-115587729D01*
X91962729Y-115746085D01*
X91962723Y-115746092D01*
X91826392Y-115923763D01*
X91826381Y-115923779D01*
X91714408Y-116117720D01*
X91714400Y-116117737D01*
X91628698Y-116324641D01*
X91570734Y-116540970D01*
X91570731Y-116540983D01*
X91541501Y-116763009D01*
X91541500Y-116763025D01*
X90341162Y-116763025D01*
X90309111Y-116643409D01*
X90230119Y-116506592D01*
X90223527Y-116500000D01*
X91200000Y-116500000D01*
X91200000Y-115650373D01*
X91199999Y-115650371D01*
X91185496Y-115577459D01*
X91185494Y-115577455D01*
X91130239Y-115494760D01*
X91047544Y-115439505D01*
X91047540Y-115439503D01*
X90974627Y-115425000D01*
X90125000Y-115425000D01*
X90125000Y-116401473D01*
X90118408Y-116394881D01*
X89981591Y-116315889D01*
X89828991Y-116275000D01*
X89671009Y-116275000D01*
X89518409Y-116315889D01*
X89381592Y-116394881D01*
X89375000Y-116401473D01*
X89375000Y-115425000D01*
X88525373Y-115425000D01*
X88452459Y-115439503D01*
X88452455Y-115439505D01*
X88369760Y-115494760D01*
X88314505Y-115577455D01*
X88314503Y-115577459D01*
X88300000Y-115650371D01*
X83673500Y-115650371D01*
X83673500Y-115461272D01*
X83636356Y-115226758D01*
X83564794Y-115006514D01*
X83562982Y-115000937D01*
X83562980Y-115000934D01*
X83562980Y-115000932D01*
X83506114Y-114889328D01*
X83455185Y-114789373D01*
X83315620Y-114597278D01*
X83147722Y-114429380D01*
X83147718Y-114429376D01*
X83121487Y-114410319D01*
X83078820Y-114354990D01*
X83072840Y-114285376D01*
X83105446Y-114223581D01*
X83121487Y-114209681D01*
X83147718Y-114190623D01*
X83147718Y-114190622D01*
X83147722Y-114190620D01*
X83315620Y-114022722D01*
X83455185Y-113830627D01*
X83562982Y-113619063D01*
X83636356Y-113393241D01*
X83639833Y-113371288D01*
X83673500Y-113158727D01*
X83673500Y-112921272D01*
X83636356Y-112686758D01*
X83562980Y-112460932D01*
X83455184Y-112249372D01*
X83433634Y-112219711D01*
X83315620Y-112057278D01*
X83147722Y-111889380D01*
X83147718Y-111889376D01*
X83121487Y-111870319D01*
X83078820Y-111814990D01*
X83072840Y-111745376D01*
X83105446Y-111683581D01*
X83121487Y-111669681D01*
X83147718Y-111650623D01*
X83147718Y-111650622D01*
X83147722Y-111650620D01*
X83315620Y-111482722D01*
X83455185Y-111290627D01*
X83562982Y-111079063D01*
X83636356Y-110853241D01*
X83673500Y-110618727D01*
X83673500Y-110381272D01*
X83636356Y-110146758D01*
X83562980Y-109920932D01*
X83455184Y-109709372D01*
X83315620Y-109517278D01*
X83147722Y-109349380D01*
X83147718Y-109349376D01*
X83121487Y-109330319D01*
X83078820Y-109274990D01*
X83072840Y-109205376D01*
X83105446Y-109143581D01*
X83121487Y-109129681D01*
X83147718Y-109110623D01*
X83147718Y-109110622D01*
X83147722Y-109110620D01*
X83315620Y-108942722D01*
X83455185Y-108750627D01*
X83562982Y-108539063D01*
X83636356Y-108313241D01*
X83652925Y-108208627D01*
X83673500Y-108078727D01*
X83673500Y-107841272D01*
X83636356Y-107606758D01*
X83602312Y-107501984D01*
X83562982Y-107380937D01*
X83562980Y-107380934D01*
X83562980Y-107380932D01*
X83507140Y-107271340D01*
X83455185Y-107169373D01*
X83455181Y-107169367D01*
X83453450Y-107166543D01*
X83453118Y-107165316D01*
X83452973Y-107165032D01*
X83453032Y-107165001D01*
X83445764Y-107138147D01*
X83435485Y-107110586D01*
X83436741Y-107104808D01*
X83435197Y-107099100D01*
X83444084Y-107071053D01*
X83450337Y-107042313D01*
X83455288Y-107035698D01*
X83456304Y-107032495D01*
X83471483Y-107014064D01*
X83483391Y-107002156D01*
X99050000Y-107002156D01*
X99050000Y-107625000D01*
X100026473Y-107625000D01*
X100019881Y-107631592D01*
X99940889Y-107768409D01*
X99900000Y-107921009D01*
X99900000Y-108078991D01*
X99940889Y-108231591D01*
X100019881Y-108368408D01*
X100026473Y-108375000D01*
X99050001Y-108375000D01*
X99050001Y-108997830D01*
X99056402Y-109057377D01*
X99106647Y-109192087D01*
X99192811Y-109307188D01*
X99307909Y-109393350D01*
X99442629Y-109443598D01*
X99442628Y-109443598D01*
X99502164Y-109449999D01*
X100124999Y-109449999D01*
X100125000Y-109449998D01*
X100125000Y-108473527D01*
X100131592Y-108480119D01*
X100268409Y-108559111D01*
X100421009Y-108600000D01*
X100578991Y-108600000D01*
X100731591Y-108559111D01*
X100868408Y-108480119D01*
X100875000Y-108473527D01*
X100875000Y-109449999D01*
X101497823Y-109449999D01*
X101497830Y-109449998D01*
X101557377Y-109443597D01*
X101692087Y-109393352D01*
X101807188Y-109307188D01*
X101893350Y-109192090D01*
X101943598Y-109057371D01*
X101949999Y-108997843D01*
X101950000Y-108997826D01*
X101950000Y-108375000D01*
X100973527Y-108375000D01*
X100980119Y-108368408D01*
X101059111Y-108231591D01*
X101100000Y-108078991D01*
X101100000Y-107921009D01*
X101059111Y-107768409D01*
X100980119Y-107631592D01*
X100973527Y-107625000D01*
X101949999Y-107625000D01*
X101949999Y-107002176D01*
X101949998Y-107002169D01*
X101943597Y-106942622D01*
X101893352Y-106807912D01*
X101807188Y-106692811D01*
X101692090Y-106606649D01*
X101557370Y-106556401D01*
X101557371Y-106556401D01*
X101497843Y-106550000D01*
X100875000Y-106550000D01*
X100875000Y-107526473D01*
X100868408Y-107519881D01*
X100731591Y-107440889D01*
X100578991Y-107400000D01*
X100421009Y-107400000D01*
X100268409Y-107440889D01*
X100131592Y-107519881D01*
X100125000Y-107526473D01*
X100125000Y-106550000D01*
X99502176Y-106550000D01*
X99502169Y-106550001D01*
X99442622Y-106556402D01*
X99307912Y-106606647D01*
X99192811Y-106692811D01*
X99106649Y-106807909D01*
X99056401Y-106942628D01*
X99050000Y-107002156D01*
X83483391Y-107002156D01*
X85736922Y-104748627D01*
X85817032Y-104609872D01*
X85824702Y-104581246D01*
X85858500Y-104455111D01*
X85858500Y-92398410D01*
X85878185Y-92331371D01*
X85894815Y-92310733D01*
X86292668Y-91912879D01*
X86353989Y-91879396D01*
X86418665Y-91882630D01*
X86435128Y-91887980D01*
X86456883Y-91895049D01*
X86562484Y-91911774D01*
X86668084Y-91928500D01*
X86668085Y-91928500D01*
X86881915Y-91928500D01*
X86881916Y-91928500D01*
X87093116Y-91895049D01*
X87296483Y-91828972D01*
X87487009Y-91731894D01*
X87660004Y-91606206D01*
X87811206Y-91455004D01*
X87936894Y-91282009D01*
X88033972Y-91091483D01*
X88100049Y-90888116D01*
X88133500Y-90676916D01*
X88133500Y-90463084D01*
X88100049Y-90251884D01*
X88064334Y-90141962D01*
X88062339Y-90072120D01*
X88094582Y-90015965D01*
X88470879Y-89639668D01*
X94732767Y-89639668D01*
X94732767Y-89798937D01*
X94763835Y-89955126D01*
X94763837Y-89955134D01*
X94815405Y-90079630D01*
X94824784Y-90102271D01*
X94870603Y-90170844D01*
X94891480Y-90237519D01*
X94891500Y-90239733D01*
X94891500Y-96080109D01*
X94932968Y-96234874D01*
X94958890Y-96279771D01*
X95013078Y-96373627D01*
X95013080Y-96373629D01*
X98881734Y-100242283D01*
X98915219Y-100303606D01*
X98910235Y-100373298D01*
X98908614Y-100377416D01*
X98878703Y-100449626D01*
X98878698Y-100449642D01*
X98820734Y-100665970D01*
X98820731Y-100665983D01*
X98791501Y-100888009D01*
X98791500Y-100888025D01*
X98791500Y-101111974D01*
X98791501Y-101111990D01*
X98820731Y-101334016D01*
X98820732Y-101334021D01*
X98820733Y-101334027D01*
X98860387Y-101482018D01*
X98878698Y-101550358D01*
X98964400Y-101757262D01*
X98964408Y-101757279D01*
X99076381Y-101951220D01*
X99076392Y-101951236D01*
X99212723Y-102128907D01*
X99212729Y-102128914D01*
X99371085Y-102287270D01*
X99371092Y-102287276D01*
X99487321Y-102376461D01*
X99548772Y-102423614D01*
X99548779Y-102423618D01*
X99742720Y-102535591D01*
X99742725Y-102535593D01*
X99742728Y-102535595D01*
X99742732Y-102535596D01*
X99742737Y-102535599D01*
X99808355Y-102562778D01*
X99949642Y-102621302D01*
X99982946Y-102630225D01*
X100042606Y-102666590D01*
X100073135Y-102729437D01*
X100064840Y-102798812D01*
X100020355Y-102852690D01*
X99982947Y-102869774D01*
X99962968Y-102875127D01*
X99949641Y-102878698D01*
X99742737Y-102964400D01*
X99742720Y-102964408D01*
X99548779Y-103076381D01*
X99548763Y-103076392D01*
X99371092Y-103212723D01*
X99371085Y-103212729D01*
X99212729Y-103371085D01*
X99212723Y-103371092D01*
X99076392Y-103548763D01*
X99076381Y-103548779D01*
X98964408Y-103742720D01*
X98964400Y-103742737D01*
X98878698Y-103949641D01*
X98820734Y-104165970D01*
X98820731Y-104165983D01*
X98791501Y-104388009D01*
X98791500Y-104388025D01*
X98791500Y-104611974D01*
X98791501Y-104611990D01*
X98820731Y-104834016D01*
X98820732Y-104834021D01*
X98820733Y-104834027D01*
X98857158Y-104969969D01*
X98878698Y-105050358D01*
X98964400Y-105257262D01*
X98964408Y-105257279D01*
X99076381Y-105451220D01*
X99076392Y-105451236D01*
X99212723Y-105628907D01*
X99212729Y-105628914D01*
X99371085Y-105787270D01*
X99371092Y-105787276D01*
X99444957Y-105843954D01*
X99548772Y-105923614D01*
X99548779Y-105923618D01*
X99742720Y-106035591D01*
X99742725Y-106035593D01*
X99742728Y-106035595D01*
X99742732Y-106035596D01*
X99742737Y-106035599D01*
X99808355Y-106062778D01*
X99949642Y-106121302D01*
X100165973Y-106179267D01*
X100388019Y-106208500D01*
X100388026Y-106208500D01*
X100611974Y-106208500D01*
X100611981Y-106208500D01*
X100834027Y-106179267D01*
X101050358Y-106121302D01*
X101257272Y-106035595D01*
X101451228Y-105923614D01*
X101628909Y-105787275D01*
X101787275Y-105628909D01*
X101923614Y-105451228D01*
X102035595Y-105257272D01*
X102121302Y-105050358D01*
X102179267Y-104834027D01*
X102208500Y-104611981D01*
X102208500Y-104388019D01*
X102179267Y-104165973D01*
X102121302Y-103949642D01*
X102035595Y-103742728D01*
X102035593Y-103742725D01*
X102035591Y-103742720D01*
X101923618Y-103548779D01*
X101923614Y-103548772D01*
X101809509Y-103400067D01*
X101787276Y-103371092D01*
X101787270Y-103371085D01*
X101628914Y-103212729D01*
X101628907Y-103212723D01*
X101451236Y-103076392D01*
X101451234Y-103076390D01*
X101451228Y-103076386D01*
X101451223Y-103076383D01*
X101451220Y-103076381D01*
X101257279Y-102964408D01*
X101257262Y-102964400D01*
X101050358Y-102878698D01*
X101050355Y-102878697D01*
X101039427Y-102875769D01*
X101017053Y-102869774D01*
X100957394Y-102833411D01*
X100926864Y-102770564D01*
X100935158Y-102701189D01*
X100979643Y-102647310D01*
X101017052Y-102630225D01*
X101050358Y-102621302D01*
X101257272Y-102535595D01*
X101451228Y-102423614D01*
X101628909Y-102287275D01*
X101787275Y-102128909D01*
X101923614Y-101951228D01*
X102035595Y-101757272D01*
X102121302Y-101550358D01*
X102179267Y-101334027D01*
X102208500Y-101111981D01*
X102208500Y-100888019D01*
X102179267Y-100665973D01*
X102121302Y-100449642D01*
X102035595Y-100242728D01*
X102035593Y-100242725D01*
X102035591Y-100242720D01*
X101923618Y-100048779D01*
X101923614Y-100048772D01*
X101787275Y-99871091D01*
X101787270Y-99871085D01*
X101628914Y-99712729D01*
X101628907Y-99712723D01*
X101451236Y-99576392D01*
X101451234Y-99576390D01*
X101451228Y-99576386D01*
X101451223Y-99576383D01*
X101451220Y-99576381D01*
X101257279Y-99464408D01*
X101257262Y-99464400D01*
X101050358Y-99378698D01*
X100834027Y-99320733D01*
X100834021Y-99320732D01*
X100834016Y-99320731D01*
X100611990Y-99291501D01*
X100611987Y-99291500D01*
X100611981Y-99291500D01*
X100388019Y-99291500D01*
X100388013Y-99291500D01*
X100388009Y-99291501D01*
X100165983Y-99320731D01*
X100165976Y-99320732D01*
X100165973Y-99320733D01*
X99949642Y-99378698D01*
X99949626Y-99378703D01*
X99877416Y-99408614D01*
X99807947Y-99416083D01*
X99745468Y-99384808D01*
X99742283Y-99381734D01*
X96144819Y-95784270D01*
X96111334Y-95722947D01*
X96108500Y-95696589D01*
X96108500Y-95002156D01*
X99050000Y-95002156D01*
X99050000Y-95625000D01*
X100026473Y-95625000D01*
X100019881Y-95631592D01*
X99940889Y-95768409D01*
X99900000Y-95921009D01*
X99900000Y-96078991D01*
X99940889Y-96231591D01*
X100019881Y-96368408D01*
X100026473Y-96375000D01*
X99050001Y-96375000D01*
X99050001Y-96997830D01*
X99056402Y-97057377D01*
X99106647Y-97192087D01*
X99192811Y-97307188D01*
X99307909Y-97393350D01*
X99442629Y-97443598D01*
X99442628Y-97443598D01*
X99502164Y-97449999D01*
X100124999Y-97449999D01*
X100125000Y-97449998D01*
X100125000Y-96473527D01*
X100131592Y-96480119D01*
X100268409Y-96559111D01*
X100421009Y-96600000D01*
X100578991Y-96600000D01*
X100731591Y-96559111D01*
X100868408Y-96480119D01*
X100875000Y-96473527D01*
X100875000Y-97449999D01*
X101497823Y-97449999D01*
X101497830Y-97449998D01*
X101557377Y-97443597D01*
X101692087Y-97393352D01*
X101807188Y-97307188D01*
X101893350Y-97192090D01*
X101943598Y-97057371D01*
X101949999Y-96997843D01*
X101950000Y-96997826D01*
X101950000Y-96375000D01*
X100973527Y-96375000D01*
X100980119Y-96368408D01*
X101059111Y-96231591D01*
X101100000Y-96078991D01*
X101100000Y-95921009D01*
X101059111Y-95768409D01*
X100980119Y-95631592D01*
X100973527Y-95625000D01*
X101949999Y-95625000D01*
X101949999Y-95002176D01*
X101949998Y-95002169D01*
X101943597Y-94942622D01*
X101893352Y-94807912D01*
X101807188Y-94692811D01*
X101692090Y-94606649D01*
X101557370Y-94556401D01*
X101557371Y-94556401D01*
X101497843Y-94550000D01*
X100875000Y-94550000D01*
X100875000Y-95526473D01*
X100868408Y-95519881D01*
X100731591Y-95440889D01*
X100578991Y-95400000D01*
X100421009Y-95400000D01*
X100268409Y-95440889D01*
X100131592Y-95519881D01*
X100125000Y-95526473D01*
X100125000Y-94550000D01*
X99502176Y-94550000D01*
X99502169Y-94550001D01*
X99442622Y-94556402D01*
X99307912Y-94606647D01*
X99192811Y-94692811D01*
X99106649Y-94807909D01*
X99056401Y-94942628D01*
X99050000Y-95002156D01*
X96108500Y-95002156D01*
X96108500Y-90775725D01*
X96128185Y-90708686D01*
X96180989Y-90662931D01*
X96250147Y-90652987D01*
X96301389Y-90672622D01*
X96367032Y-90716483D01*
X96514169Y-90777430D01*
X96621665Y-90798812D01*
X96670365Y-90808499D01*
X96670369Y-90808500D01*
X96670370Y-90808500D01*
X96829631Y-90808500D01*
X96829632Y-90808499D01*
X96985831Y-90777430D01*
X97132968Y-90716483D01*
X97265389Y-90628003D01*
X97378003Y-90515389D01*
X97466483Y-90382968D01*
X97527430Y-90235831D01*
X97558010Y-90082089D01*
X97590394Y-90020181D01*
X97591888Y-90018660D01*
X97965730Y-89644819D01*
X98027053Y-89611334D01*
X98053411Y-89608500D01*
X98819927Y-89608500D01*
X98886966Y-89628185D01*
X98932721Y-89680989D01*
X98934487Y-89685046D01*
X98964404Y-89757271D01*
X98964409Y-89757280D01*
X99076381Y-89951220D01*
X99076392Y-89951236D01*
X99212723Y-90128907D01*
X99212729Y-90128914D01*
X99371085Y-90287270D01*
X99371091Y-90287275D01*
X99548772Y-90423614D01*
X99548779Y-90423618D01*
X99742720Y-90535591D01*
X99742725Y-90535593D01*
X99742728Y-90535595D01*
X99742732Y-90535596D01*
X99742737Y-90535599D01*
X99773666Y-90548410D01*
X99949642Y-90621302D01*
X99982946Y-90630225D01*
X100042606Y-90666590D01*
X100073135Y-90729437D01*
X100064840Y-90798812D01*
X100020355Y-90852690D01*
X99982947Y-90869774D01*
X99962968Y-90875127D01*
X99949641Y-90878698D01*
X99742737Y-90964400D01*
X99742720Y-90964408D01*
X99548779Y-91076381D01*
X99548763Y-91076392D01*
X99371092Y-91212723D01*
X99371085Y-91212729D01*
X99212729Y-91371085D01*
X99212723Y-91371092D01*
X99076392Y-91548763D01*
X99076381Y-91548779D01*
X98964408Y-91742720D01*
X98964400Y-91742737D01*
X98878698Y-91949641D01*
X98820734Y-92165970D01*
X98820731Y-92165983D01*
X98791501Y-92388009D01*
X98791500Y-92388025D01*
X98791500Y-92611974D01*
X98791501Y-92611990D01*
X98820731Y-92834016D01*
X98820732Y-92834021D01*
X98820733Y-92834027D01*
X98820734Y-92834029D01*
X98878698Y-93050358D01*
X98964400Y-93257262D01*
X98964408Y-93257279D01*
X99076381Y-93451220D01*
X99076392Y-93451236D01*
X99212723Y-93628907D01*
X99212729Y-93628914D01*
X99371085Y-93787270D01*
X99371091Y-93787275D01*
X99548772Y-93923614D01*
X99548779Y-93923618D01*
X99742720Y-94035591D01*
X99742725Y-94035593D01*
X99742728Y-94035595D01*
X99742732Y-94035596D01*
X99742737Y-94035599D01*
X99808355Y-94062778D01*
X99949642Y-94121302D01*
X100165973Y-94179267D01*
X100388019Y-94208500D01*
X100388026Y-94208500D01*
X100611974Y-94208500D01*
X100611981Y-94208500D01*
X100834027Y-94179267D01*
X101050358Y-94121302D01*
X101257272Y-94035595D01*
X101451228Y-93923614D01*
X101628909Y-93787275D01*
X101787275Y-93628909D01*
X101923614Y-93451228D01*
X102035595Y-93257272D01*
X102121302Y-93050358D01*
X102179267Y-92834027D01*
X102208500Y-92611981D01*
X102208500Y-92388019D01*
X102179267Y-92165973D01*
X102121302Y-91949642D01*
X102035595Y-91742728D01*
X102035593Y-91742725D01*
X102035591Y-91742720D01*
X101923618Y-91548779D01*
X101923614Y-91548772D01*
X101787275Y-91371091D01*
X101787270Y-91371085D01*
X101628914Y-91212729D01*
X101628907Y-91212723D01*
X101451236Y-91076392D01*
X101451234Y-91076390D01*
X101451228Y-91076386D01*
X101451223Y-91076383D01*
X101451220Y-91076381D01*
X101257279Y-90964408D01*
X101257262Y-90964400D01*
X101050358Y-90878698D01*
X101050355Y-90878697D01*
X101039427Y-90875769D01*
X101017053Y-90869774D01*
X100957394Y-90833411D01*
X100926864Y-90770564D01*
X100935158Y-90701189D01*
X100979643Y-90647310D01*
X101017052Y-90630225D01*
X101050358Y-90621302D01*
X101257272Y-90535595D01*
X101451228Y-90423614D01*
X101628909Y-90287275D01*
X101787275Y-90128909D01*
X101923614Y-89951228D01*
X102035595Y-89757272D01*
X102121302Y-89550358D01*
X102179267Y-89334027D01*
X102208500Y-89111981D01*
X102208500Y-88888019D01*
X102179267Y-88665973D01*
X102121302Y-88449642D01*
X102035595Y-88242728D01*
X102035593Y-88242725D01*
X102035591Y-88242720D01*
X101923618Y-88048779D01*
X101923614Y-88048772D01*
X101787275Y-87871091D01*
X101787270Y-87871085D01*
X101628914Y-87712729D01*
X101628907Y-87712723D01*
X101451236Y-87576392D01*
X101451234Y-87576390D01*
X101451228Y-87576386D01*
X101451223Y-87576383D01*
X101451220Y-87576381D01*
X101257279Y-87464408D01*
X101257262Y-87464400D01*
X101050358Y-87378698D01*
X100962590Y-87355181D01*
X100834027Y-87320733D01*
X100834021Y-87320732D01*
X100834016Y-87320731D01*
X100611990Y-87291501D01*
X100611987Y-87291500D01*
X100611981Y-87291500D01*
X100388019Y-87291500D01*
X100388013Y-87291500D01*
X100388009Y-87291501D01*
X100165983Y-87320731D01*
X100165976Y-87320732D01*
X100165973Y-87320733D01*
X100074535Y-87345233D01*
X99949641Y-87378698D01*
X99742737Y-87464400D01*
X99742720Y-87464408D01*
X99548779Y-87576381D01*
X99548763Y-87576392D01*
X99371092Y-87712723D01*
X99371085Y-87712729D01*
X99212729Y-87871085D01*
X99212723Y-87871092D01*
X99076392Y-88048763D01*
X99076381Y-88048779D01*
X98964409Y-88242719D01*
X98964404Y-88242728D01*
X98934487Y-88314954D01*
X98890646Y-88369357D01*
X98824351Y-88391421D01*
X98819927Y-88391500D01*
X97669889Y-88391500D01*
X97515128Y-88432968D01*
X97515125Y-88432969D01*
X97376376Y-88513075D01*
X97376371Y-88513079D01*
X96731397Y-89158053D01*
X96670074Y-89191538D01*
X96667907Y-89191989D01*
X96514176Y-89222568D01*
X96514168Y-89222570D01*
X96367030Y-89283517D01*
X96361662Y-89286387D01*
X96360608Y-89284416D01*
X96303466Y-89302289D01*
X96236092Y-89283782D01*
X96198193Y-89247201D01*
X96169270Y-89203914D01*
X96169267Y-89203911D01*
X96169265Y-89203908D01*
X96056661Y-89091304D01*
X96056654Y-89091298D01*
X95924236Y-89002820D01*
X95777098Y-88941873D01*
X95777090Y-88941871D01*
X95620901Y-88910803D01*
X95620897Y-88910803D01*
X95461637Y-88910803D01*
X95461632Y-88910803D01*
X95305443Y-88941871D01*
X95305435Y-88941873D01*
X95158297Y-89002820D01*
X95025879Y-89091298D01*
X95025872Y-89091304D01*
X94913268Y-89203908D01*
X94913262Y-89203915D01*
X94824784Y-89336333D01*
X94763837Y-89483471D01*
X94763835Y-89483479D01*
X94732767Y-89639668D01*
X88470879Y-89639668D01*
X93736922Y-84373627D01*
X93817032Y-84234872D01*
X93858500Y-84080110D01*
X93858500Y-83919890D01*
X93858500Y-83832191D01*
X93878185Y-83765152D01*
X93879357Y-83763361D01*
X93966483Y-83632968D01*
X94027430Y-83485831D01*
X94058500Y-83329630D01*
X94058500Y-83170370D01*
X94027430Y-83014169D01*
X93966483Y-82867032D01*
X93878003Y-82734611D01*
X93878002Y-82734610D01*
X93878000Y-82734607D01*
X93813758Y-82670365D01*
X94941500Y-82670365D01*
X94941500Y-82829634D01*
X94972568Y-82985823D01*
X94972570Y-82985831D01*
X95033517Y-83132969D01*
X95121995Y-83265387D01*
X95122001Y-83265394D01*
X95234605Y-83377998D01*
X95234612Y-83378004D01*
X95367030Y-83466482D01*
X95367031Y-83466482D01*
X95367032Y-83466483D01*
X95514169Y-83527430D01*
X95670365Y-83558499D01*
X95670369Y-83558500D01*
X95670370Y-83558500D01*
X95829631Y-83558500D01*
X95829632Y-83558499D01*
X95985831Y-83527430D01*
X96132968Y-83466483D01*
X96132973Y-83466479D01*
X96132976Y-83466478D01*
X96181108Y-83434317D01*
X96247785Y-83413438D01*
X96315166Y-83431922D01*
X96318892Y-83434317D01*
X96367023Y-83466478D01*
X96367029Y-83466481D01*
X96367032Y-83466483D01*
X96514169Y-83527430D01*
X96670365Y-83558499D01*
X96670369Y-83558500D01*
X96670370Y-83558500D01*
X96829631Y-83558500D01*
X96829632Y-83558499D01*
X96985831Y-83527430D01*
X97132968Y-83466483D01*
X97265389Y-83378003D01*
X97378003Y-83265389D01*
X97466483Y-83132968D01*
X97520668Y-83002156D01*
X99050000Y-83002156D01*
X99050000Y-83625000D01*
X100026473Y-83625000D01*
X100019881Y-83631592D01*
X99940889Y-83768409D01*
X99900000Y-83921009D01*
X99900000Y-84078991D01*
X99940889Y-84231591D01*
X100019881Y-84368408D01*
X100026473Y-84375000D01*
X99050001Y-84375000D01*
X99050001Y-84997830D01*
X99056402Y-85057377D01*
X99106647Y-85192087D01*
X99192811Y-85307188D01*
X99307909Y-85393350D01*
X99442629Y-85443598D01*
X99442628Y-85443598D01*
X99502164Y-85449999D01*
X100124999Y-85449999D01*
X100125000Y-85449998D01*
X100125000Y-84473527D01*
X100131592Y-84480119D01*
X100268409Y-84559111D01*
X100421009Y-84600000D01*
X100578991Y-84600000D01*
X100731591Y-84559111D01*
X100868408Y-84480119D01*
X100875000Y-84473527D01*
X100875000Y-85449999D01*
X101497823Y-85449999D01*
X101497830Y-85449998D01*
X101557377Y-85443597D01*
X101692087Y-85393352D01*
X101807188Y-85307188D01*
X101893350Y-85192090D01*
X101943598Y-85057371D01*
X101949999Y-84997843D01*
X101950000Y-84997826D01*
X101950000Y-84375000D01*
X100973527Y-84375000D01*
X100980119Y-84368408D01*
X101059111Y-84231591D01*
X101100000Y-84078991D01*
X101100000Y-83921009D01*
X101059111Y-83768409D01*
X100980119Y-83631592D01*
X100973527Y-83625000D01*
X101949999Y-83625000D01*
X101949999Y-83002176D01*
X101949998Y-83002169D01*
X101943597Y-82942622D01*
X101893352Y-82807912D01*
X101807188Y-82692811D01*
X101692090Y-82606649D01*
X101557370Y-82556401D01*
X101557371Y-82556401D01*
X101497843Y-82550000D01*
X100875000Y-82550000D01*
X100875000Y-83526473D01*
X100868408Y-83519881D01*
X100731591Y-83440889D01*
X100578991Y-83400000D01*
X100421009Y-83400000D01*
X100268409Y-83440889D01*
X100131592Y-83519881D01*
X100125000Y-83526473D01*
X100125000Y-82550000D01*
X99502176Y-82550000D01*
X99502169Y-82550001D01*
X99442622Y-82556402D01*
X99307912Y-82606647D01*
X99192811Y-82692811D01*
X99106649Y-82807909D01*
X99056401Y-82942628D01*
X99050000Y-83002156D01*
X97520668Y-83002156D01*
X97527430Y-82985831D01*
X97558500Y-82829630D01*
X97558500Y-82670370D01*
X97527430Y-82514169D01*
X97466483Y-82367032D01*
X97466482Y-82367030D01*
X97466482Y-82367029D01*
X97379398Y-82236698D01*
X97358520Y-82170021D01*
X97358500Y-82167808D01*
X97358500Y-81053410D01*
X97378185Y-80986371D01*
X97394814Y-80965734D01*
X98771843Y-79588704D01*
X98833166Y-79555220D01*
X98902858Y-79560204D01*
X98958791Y-79602076D01*
X98983208Y-79667540D01*
X98968356Y-79735813D01*
X98966913Y-79738384D01*
X98964404Y-79742729D01*
X98964400Y-79742737D01*
X98878698Y-79949641D01*
X98820734Y-80165970D01*
X98820731Y-80165983D01*
X98791501Y-80388009D01*
X98791500Y-80388025D01*
X98791500Y-80611974D01*
X98791501Y-80611990D01*
X98820731Y-80834016D01*
X98820732Y-80834021D01*
X98820733Y-80834027D01*
X98820734Y-80834029D01*
X98878698Y-81050358D01*
X98964400Y-81257262D01*
X98964408Y-81257279D01*
X99076381Y-81451220D01*
X99076392Y-81451236D01*
X99212723Y-81628907D01*
X99212729Y-81628914D01*
X99371085Y-81787270D01*
X99371091Y-81787275D01*
X99548772Y-81923614D01*
X99548779Y-81923618D01*
X99742720Y-82035591D01*
X99742725Y-82035593D01*
X99742728Y-82035595D01*
X99742732Y-82035596D01*
X99742737Y-82035599D01*
X99808355Y-82062778D01*
X99949642Y-82121302D01*
X100165973Y-82179267D01*
X100388019Y-82208500D01*
X100388026Y-82208500D01*
X100611974Y-82208500D01*
X100611981Y-82208500D01*
X100834027Y-82179267D01*
X101050358Y-82121302D01*
X101257272Y-82035595D01*
X101451228Y-81923614D01*
X101628909Y-81787275D01*
X101787275Y-81628909D01*
X101923614Y-81451228D01*
X102035595Y-81257272D01*
X102121302Y-81050358D01*
X102179267Y-80834027D01*
X102208500Y-80611981D01*
X102208500Y-80388019D01*
X102179267Y-80165973D01*
X102121302Y-79949642D01*
X102035595Y-79742728D01*
X102035593Y-79742725D01*
X102035591Y-79742720D01*
X101923618Y-79548779D01*
X101923614Y-79548772D01*
X101787275Y-79371091D01*
X101787270Y-79371085D01*
X101628914Y-79212729D01*
X101628907Y-79212723D01*
X101451236Y-79076392D01*
X101451234Y-79076390D01*
X101451228Y-79076386D01*
X101451223Y-79076383D01*
X101451220Y-79076381D01*
X101257279Y-78964408D01*
X101257262Y-78964400D01*
X101050358Y-78878698D01*
X101050355Y-78878697D01*
X101039427Y-78875769D01*
X101017053Y-78869774D01*
X100957394Y-78833411D01*
X100926864Y-78770564D01*
X100935158Y-78701189D01*
X100979643Y-78647310D01*
X101017052Y-78630225D01*
X101050358Y-78621302D01*
X101257272Y-78535595D01*
X101451228Y-78423614D01*
X101628909Y-78287275D01*
X101787275Y-78128909D01*
X101923614Y-77951228D01*
X102035595Y-77757272D01*
X102121302Y-77550358D01*
X102179267Y-77334027D01*
X102208500Y-77111981D01*
X102208500Y-76888019D01*
X102179267Y-76665973D01*
X102121302Y-76449642D01*
X102035595Y-76242728D01*
X102035593Y-76242725D01*
X102035591Y-76242720D01*
X101923618Y-76048779D01*
X101923614Y-76048772D01*
X101816248Y-75908849D01*
X101787276Y-75871092D01*
X101787270Y-75871085D01*
X101628914Y-75712729D01*
X101628907Y-75712723D01*
X101451236Y-75576392D01*
X101451234Y-75576390D01*
X101451228Y-75576386D01*
X101451223Y-75576383D01*
X101451220Y-75576381D01*
X101257279Y-75464408D01*
X101257262Y-75464400D01*
X101050358Y-75378698D01*
X100834027Y-75320733D01*
X100834021Y-75320732D01*
X100834016Y-75320731D01*
X100611990Y-75291501D01*
X100611987Y-75291500D01*
X100611981Y-75291500D01*
X100388019Y-75291500D01*
X100388013Y-75291500D01*
X100388009Y-75291501D01*
X100165983Y-75320731D01*
X100165976Y-75320732D01*
X100165973Y-75320733D01*
X100074535Y-75345233D01*
X99949641Y-75378698D01*
X99742737Y-75464400D01*
X99742720Y-75464408D01*
X99548779Y-75576381D01*
X99548763Y-75576392D01*
X99371092Y-75712723D01*
X99371085Y-75712729D01*
X99212729Y-75871085D01*
X99212723Y-75871092D01*
X99076392Y-76048763D01*
X99076381Y-76048779D01*
X98964408Y-76242720D01*
X98964400Y-76242737D01*
X98878698Y-76449641D01*
X98878698Y-76449642D01*
X98831345Y-76626370D01*
X98820734Y-76665970D01*
X98820731Y-76665983D01*
X98791501Y-76888009D01*
X98791500Y-76888025D01*
X98791500Y-77111974D01*
X98791501Y-77111990D01*
X98820731Y-77334016D01*
X98820732Y-77334021D01*
X98820733Y-77334027D01*
X98878698Y-77550357D01*
X98878701Y-77550367D01*
X98908614Y-77622581D01*
X98916083Y-77692050D01*
X98884808Y-77754529D01*
X98881734Y-77757715D01*
X96570181Y-80069269D01*
X96508858Y-80102754D01*
X96439166Y-80097770D01*
X96383233Y-80055898D01*
X96358816Y-79990434D01*
X96358500Y-79981588D01*
X96358500Y-71002156D01*
X99050000Y-71002156D01*
X99050000Y-71625000D01*
X100026473Y-71625000D01*
X100019881Y-71631592D01*
X99940889Y-71768409D01*
X99900000Y-71921009D01*
X99900000Y-72078991D01*
X99940889Y-72231591D01*
X100019881Y-72368408D01*
X100026473Y-72375000D01*
X99050001Y-72375000D01*
X99050001Y-72997830D01*
X99056402Y-73057377D01*
X99106647Y-73192087D01*
X99192811Y-73307188D01*
X99307909Y-73393350D01*
X99442629Y-73443598D01*
X99442628Y-73443598D01*
X99502164Y-73449999D01*
X100124999Y-73449999D01*
X100125000Y-73449998D01*
X100125000Y-72473527D01*
X100131592Y-72480119D01*
X100268409Y-72559111D01*
X100421009Y-72600000D01*
X100578991Y-72600000D01*
X100731591Y-72559111D01*
X100868408Y-72480119D01*
X100875000Y-72473527D01*
X100875000Y-73449999D01*
X101497823Y-73449999D01*
X101497830Y-73449998D01*
X101557377Y-73443597D01*
X101692087Y-73393352D01*
X101807188Y-73307188D01*
X101893350Y-73192090D01*
X101943598Y-73057371D01*
X101949999Y-72997843D01*
X101950000Y-72997826D01*
X101950000Y-72375000D01*
X100973527Y-72375000D01*
X100980119Y-72368408D01*
X101059111Y-72231591D01*
X101100000Y-72078991D01*
X101100000Y-71921009D01*
X101059111Y-71768409D01*
X100980119Y-71631592D01*
X100973527Y-71625000D01*
X101949999Y-71625000D01*
X101949999Y-71002176D01*
X101949998Y-71002169D01*
X101943597Y-70942622D01*
X101893352Y-70807912D01*
X101807188Y-70692811D01*
X101692090Y-70606649D01*
X101557370Y-70556401D01*
X101557371Y-70556401D01*
X101497843Y-70550000D01*
X100875000Y-70550000D01*
X100875000Y-71526473D01*
X100868408Y-71519881D01*
X100731591Y-71440889D01*
X100578991Y-71400000D01*
X100421009Y-71400000D01*
X100268409Y-71440889D01*
X100131592Y-71519881D01*
X100125000Y-71526473D01*
X100125000Y-70550000D01*
X99502176Y-70550000D01*
X99502169Y-70550001D01*
X99442622Y-70556402D01*
X99307912Y-70606647D01*
X99192811Y-70692811D01*
X99106649Y-70807909D01*
X99056401Y-70942628D01*
X99050000Y-71002156D01*
X96358500Y-71002156D01*
X96358500Y-70053410D01*
X96378185Y-69986371D01*
X96394814Y-69965734D01*
X98771843Y-67588704D01*
X98833166Y-67555220D01*
X98902858Y-67560204D01*
X98958791Y-67602076D01*
X98983208Y-67667540D01*
X98968356Y-67735813D01*
X98966913Y-67738384D01*
X98964404Y-67742729D01*
X98964400Y-67742737D01*
X98878698Y-67949641D01*
X98820734Y-68165970D01*
X98820731Y-68165983D01*
X98791501Y-68388009D01*
X98791500Y-68388025D01*
X98791500Y-68611974D01*
X98791501Y-68611990D01*
X98820731Y-68834016D01*
X98820732Y-68834021D01*
X98820733Y-68834027D01*
X98856193Y-68966366D01*
X98878698Y-69050358D01*
X98964400Y-69257262D01*
X98964408Y-69257279D01*
X99076381Y-69451220D01*
X99076392Y-69451236D01*
X99212723Y-69628907D01*
X99212729Y-69628914D01*
X99371085Y-69787270D01*
X99371091Y-69787275D01*
X99548772Y-69923614D01*
X99548779Y-69923618D01*
X99742720Y-70035591D01*
X99742725Y-70035593D01*
X99742728Y-70035595D01*
X99742732Y-70035596D01*
X99742737Y-70035599D01*
X99743807Y-70036042D01*
X99949642Y-70121302D01*
X100165973Y-70179267D01*
X100388019Y-70208500D01*
X100388026Y-70208500D01*
X100611974Y-70208500D01*
X100611981Y-70208500D01*
X100834027Y-70179267D01*
X101050358Y-70121302D01*
X101257272Y-70035595D01*
X101451228Y-69923614D01*
X101628909Y-69787275D01*
X101787275Y-69628909D01*
X101923614Y-69451228D01*
X102035595Y-69257272D01*
X102121302Y-69050358D01*
X102179267Y-68834027D01*
X102208500Y-68611981D01*
X102208500Y-68388019D01*
X102179267Y-68165973D01*
X102121302Y-67949642D01*
X102055569Y-67790949D01*
X102035599Y-67742737D01*
X102035591Y-67742720D01*
X101923618Y-67548779D01*
X101923614Y-67548772D01*
X101841896Y-67442275D01*
X101787276Y-67371092D01*
X101787270Y-67371085D01*
X101628914Y-67212729D01*
X101628907Y-67212723D01*
X101451236Y-67076392D01*
X101451234Y-67076390D01*
X101451228Y-67076386D01*
X101451223Y-67076383D01*
X101451220Y-67076381D01*
X101257279Y-66964408D01*
X101257262Y-66964400D01*
X101050358Y-66878698D01*
X101050355Y-66878697D01*
X101039427Y-66875769D01*
X101017053Y-66869774D01*
X100957394Y-66833411D01*
X100926864Y-66770564D01*
X100935158Y-66701189D01*
X100979643Y-66647310D01*
X101017052Y-66630225D01*
X101050358Y-66621302D01*
X101257272Y-66535595D01*
X101451228Y-66423614D01*
X101628909Y-66287275D01*
X101787275Y-66128909D01*
X101923614Y-65951228D01*
X102035595Y-65757272D01*
X102121302Y-65550358D01*
X102179267Y-65334027D01*
X102208500Y-65111981D01*
X102208500Y-64888019D01*
X102179267Y-64665973D01*
X102121302Y-64449642D01*
X102048397Y-64273634D01*
X102035599Y-64242737D01*
X102035591Y-64242720D01*
X101923618Y-64048779D01*
X101923614Y-64048772D01*
X101787275Y-63871091D01*
X101787270Y-63871085D01*
X101628914Y-63712729D01*
X101628907Y-63712723D01*
X101451236Y-63576392D01*
X101451234Y-63576390D01*
X101451228Y-63576386D01*
X101451223Y-63576383D01*
X101451220Y-63576381D01*
X101257279Y-63464408D01*
X101257262Y-63464400D01*
X101050358Y-63378698D01*
X100834027Y-63320733D01*
X100834021Y-63320732D01*
X100834016Y-63320731D01*
X100611990Y-63291501D01*
X100611987Y-63291500D01*
X100611981Y-63291500D01*
X100388019Y-63291500D01*
X100388013Y-63291500D01*
X100388009Y-63291501D01*
X100165983Y-63320731D01*
X100165976Y-63320732D01*
X100165973Y-63320733D01*
X100074535Y-63345233D01*
X99949641Y-63378698D01*
X99742737Y-63464400D01*
X99742720Y-63464408D01*
X99548779Y-63576381D01*
X99548763Y-63576392D01*
X99371092Y-63712723D01*
X99371085Y-63712729D01*
X99212729Y-63871085D01*
X99212723Y-63871092D01*
X99076392Y-64048763D01*
X99076381Y-64048779D01*
X98964408Y-64242720D01*
X98964400Y-64242737D01*
X98878698Y-64449641D01*
X98820734Y-64665970D01*
X98820731Y-64665983D01*
X98791501Y-64888009D01*
X98791500Y-64888025D01*
X98791500Y-65111974D01*
X98791501Y-65111990D01*
X98820731Y-65334016D01*
X98820732Y-65334021D01*
X98820733Y-65334027D01*
X98864314Y-65496675D01*
X98878698Y-65550357D01*
X98878701Y-65550367D01*
X98908614Y-65622581D01*
X98916083Y-65692050D01*
X98884808Y-65754529D01*
X98881734Y-65757715D01*
X95263080Y-69376370D01*
X95263076Y-69376376D01*
X95182967Y-69515128D01*
X95165263Y-69581204D01*
X95141500Y-69669889D01*
X95141500Y-82167808D01*
X95121815Y-82234847D01*
X95120602Y-82236698D01*
X95033517Y-82367029D01*
X95033517Y-82367030D01*
X94972570Y-82514168D01*
X94972568Y-82514176D01*
X94941500Y-82670365D01*
X93813758Y-82670365D01*
X93765394Y-82622001D01*
X93765387Y-82621995D01*
X93632969Y-82533517D01*
X93485831Y-82472570D01*
X93485823Y-82472568D01*
X93329634Y-82441500D01*
X93329630Y-82441500D01*
X93170370Y-82441500D01*
X93170365Y-82441500D01*
X93014176Y-82472568D01*
X93014168Y-82472570D01*
X92867030Y-82533517D01*
X92734612Y-82621995D01*
X92734605Y-82622001D01*
X92622001Y-82734605D01*
X92621995Y-82734612D01*
X92533517Y-82867030D01*
X92472570Y-83014168D01*
X92472568Y-83014176D01*
X92441500Y-83170365D01*
X92441500Y-83329634D01*
X92472568Y-83485823D01*
X92472570Y-83485831D01*
X92533517Y-83632968D01*
X92566287Y-83682014D01*
X92587164Y-83748692D01*
X92568678Y-83816071D01*
X92550865Y-83838584D01*
X91702226Y-84687223D01*
X91640903Y-84720708D01*
X91571211Y-84715724D01*
X91515278Y-84673852D01*
X91490861Y-84608388D01*
X91499983Y-84552092D01*
X91527430Y-84485831D01*
X91558500Y-84329630D01*
X91558500Y-84170370D01*
X91527430Y-84014169D01*
X91466483Y-83867032D01*
X91443203Y-83832191D01*
X91378004Y-83734612D01*
X91377998Y-83734605D01*
X91265394Y-83622001D01*
X91265387Y-83621995D01*
X91132969Y-83533517D01*
X90985831Y-83472570D01*
X90985823Y-83472568D01*
X90829634Y-83441500D01*
X90829630Y-83441500D01*
X90670370Y-83441500D01*
X90670365Y-83441500D01*
X90514176Y-83472568D01*
X90514168Y-83472570D01*
X90367030Y-83533517D01*
X90234612Y-83621995D01*
X90234605Y-83622001D01*
X90122001Y-83734605D01*
X90121995Y-83734612D01*
X90033517Y-83867030D01*
X89972570Y-84014168D01*
X89972568Y-84014176D01*
X89941989Y-84167907D01*
X89909604Y-84229818D01*
X89908053Y-84231397D01*
X88326377Y-85813072D01*
X88265054Y-85846557D01*
X88195362Y-85841573D01*
X88139429Y-85799701D01*
X88115012Y-85734237D01*
X88116222Y-85706000D01*
X88133500Y-85596916D01*
X88133500Y-85383084D01*
X88100049Y-85171884D01*
X88053114Y-85027430D01*
X88033973Y-84968519D01*
X88033972Y-84968516D01*
X87936893Y-84777990D01*
X87905377Y-84734612D01*
X87811206Y-84604996D01*
X87660004Y-84453794D01*
X87487009Y-84328106D01*
X87401397Y-84284484D01*
X87350602Y-84236510D01*
X87333807Y-84168689D01*
X87356344Y-84102554D01*
X87411060Y-84059103D01*
X87457693Y-84050000D01*
X87649626Y-84050000D01*
X87649628Y-84049999D01*
X87722540Y-84035496D01*
X87722544Y-84035494D01*
X87805239Y-83980239D01*
X87860494Y-83897544D01*
X87860496Y-83897540D01*
X87874999Y-83824628D01*
X87875000Y-83824626D01*
X87875000Y-83325000D01*
X87107106Y-83325000D01*
X87175099Y-83257007D01*
X87240925Y-83142993D01*
X87275000Y-83015826D01*
X87275000Y-82884174D01*
X87240925Y-82757007D01*
X87175099Y-82642993D01*
X87107106Y-82575000D01*
X87150000Y-82575000D01*
X87875000Y-82575000D01*
X87875000Y-82075373D01*
X87874999Y-82075371D01*
X87860496Y-82002459D01*
X87860494Y-82002455D01*
X87805239Y-81919760D01*
X87722544Y-81864505D01*
X87722540Y-81864503D01*
X87649627Y-81850000D01*
X87150000Y-81850000D01*
X87150000Y-82575000D01*
X87107106Y-82575000D01*
X87082007Y-82549901D01*
X86967993Y-82484075D01*
X86840826Y-82450000D01*
X86709174Y-82450000D01*
X86582007Y-82484075D01*
X86467993Y-82549901D01*
X86374901Y-82642993D01*
X86309075Y-82757007D01*
X86275000Y-82884174D01*
X86275000Y-83015826D01*
X86309075Y-83142993D01*
X86374901Y-83257007D01*
X86442894Y-83325000D01*
X85675000Y-83325000D01*
X85675000Y-83824628D01*
X85689503Y-83897540D01*
X85689505Y-83897544D01*
X85744760Y-83980239D01*
X85827455Y-84035494D01*
X85827459Y-84035496D01*
X85900371Y-84049999D01*
X85900374Y-84050000D01*
X86092307Y-84050000D01*
X86159346Y-84069685D01*
X86205101Y-84122489D01*
X86215045Y-84191647D01*
X86186020Y-84255203D01*
X86148602Y-84284485D01*
X86062990Y-84328106D01*
X85889993Y-84453796D01*
X85738796Y-84604993D01*
X85613106Y-84777990D01*
X85516027Y-84968516D01*
X85516026Y-84968519D01*
X85449951Y-85171882D01*
X85416500Y-85383084D01*
X85416500Y-85596915D01*
X85449951Y-85808117D01*
X85516026Y-86011480D01*
X85516027Y-86011483D01*
X85613106Y-86202009D01*
X85738794Y-86375004D01*
X85889996Y-86526206D01*
X86060987Y-86650438D01*
X86062991Y-86651894D01*
X86066873Y-86654273D01*
X86113748Y-86706086D01*
X86125169Y-86775016D01*
X86097512Y-86839178D01*
X86066873Y-86865727D01*
X86062991Y-86868105D01*
X85889993Y-86993796D01*
X85738796Y-87144993D01*
X85613106Y-87317990D01*
X85516027Y-87508516D01*
X85516026Y-87508519D01*
X85449951Y-87711882D01*
X85416500Y-87923084D01*
X85416500Y-88136915D01*
X85449950Y-88348114D01*
X85449951Y-88348116D01*
X85461275Y-88382969D01*
X85462368Y-88386331D01*
X85464363Y-88456173D01*
X85432118Y-88512331D01*
X83513080Y-90431370D01*
X83513076Y-90431376D01*
X83432967Y-90570126D01*
X83432968Y-90570126D01*
X83432968Y-90570127D01*
X83391500Y-90724889D01*
X83391500Y-101673796D01*
X83371815Y-101740835D01*
X83319011Y-101786590D01*
X83249853Y-101796534D01*
X83186297Y-101767509D01*
X83179819Y-101761477D01*
X83147724Y-101729382D01*
X83147722Y-101729380D01*
X82955627Y-101589815D01*
X82744067Y-101482019D01*
X82518241Y-101408643D01*
X82283727Y-101371500D01*
X82283722Y-101371500D01*
X81046278Y-101371500D01*
X81046273Y-101371500D01*
X80811758Y-101408643D01*
X80585932Y-101482019D01*
X80374372Y-101589815D01*
X80182275Y-101729382D01*
X80014382Y-101897275D01*
X79874815Y-102089372D01*
X79842985Y-102151843D01*
X79795010Y-102202639D01*
X79727189Y-102219434D01*
X79661054Y-102196897D01*
X79617603Y-102142181D01*
X79608500Y-102095548D01*
X79608500Y-82075371D01*
X85675000Y-82075371D01*
X85675000Y-82575000D01*
X86400000Y-82575000D01*
X86400000Y-81850000D01*
X85900373Y-81850000D01*
X85827459Y-81864503D01*
X85827455Y-81864505D01*
X85744760Y-81919760D01*
X85689505Y-82002455D01*
X85689503Y-82002459D01*
X85675000Y-82075371D01*
X79608500Y-82075371D01*
X79608500Y-78803411D01*
X79628185Y-78736372D01*
X79644819Y-78715730D01*
X84542736Y-73817813D01*
X90018604Y-68341944D01*
X90079925Y-68308461D01*
X90081979Y-68308032D01*
X90235831Y-68277430D01*
X90382968Y-68216483D01*
X90515389Y-68128003D01*
X90628003Y-68015389D01*
X90716483Y-67882968D01*
X90777430Y-67735831D01*
X90808500Y-67579630D01*
X90808500Y-67420370D01*
X90777430Y-67264169D01*
X90716483Y-67117032D01*
X90689328Y-67076392D01*
X90628004Y-66984612D01*
X90627998Y-66984605D01*
X90515394Y-66872001D01*
X90515387Y-66871995D01*
X90382969Y-66783517D01*
X90235831Y-66722570D01*
X90235823Y-66722568D01*
X90079634Y-66691500D01*
X90079630Y-66691500D01*
X89920370Y-66691500D01*
X89920365Y-66691500D01*
X89764176Y-66722568D01*
X89764168Y-66722570D01*
X89617030Y-66783517D01*
X89484612Y-66871995D01*
X89484605Y-66872001D01*
X89372001Y-66984605D01*
X89371995Y-66984612D01*
X89283517Y-67117030D01*
X89222570Y-67264168D01*
X89222568Y-67264176D01*
X89191989Y-67417907D01*
X89159604Y-67479818D01*
X89158053Y-67481397D01*
X78570181Y-78069270D01*
X78508858Y-78102755D01*
X78439166Y-78097771D01*
X78383233Y-78055899D01*
X78358816Y-77990435D01*
X78358500Y-77981589D01*
X78358500Y-77303411D01*
X78378185Y-77236372D01*
X78394819Y-77215730D01*
X82614191Y-72996358D01*
X87018604Y-68591944D01*
X87079925Y-68558461D01*
X87081979Y-68558032D01*
X87235831Y-68527430D01*
X87382968Y-68466483D01*
X87515389Y-68378003D01*
X87628003Y-68265389D01*
X87716483Y-68132968D01*
X87777430Y-67985831D01*
X87808500Y-67829630D01*
X87808500Y-67670370D01*
X87777430Y-67514169D01*
X87716483Y-67367032D01*
X87652506Y-67271283D01*
X87628004Y-67234612D01*
X87627998Y-67234605D01*
X87515394Y-67122001D01*
X87515387Y-67121995D01*
X87382969Y-67033517D01*
X87235831Y-66972570D01*
X87235823Y-66972568D01*
X87079634Y-66941500D01*
X87079630Y-66941500D01*
X86920370Y-66941500D01*
X86920365Y-66941500D01*
X86764176Y-66972568D01*
X86764168Y-66972570D01*
X86617030Y-67033517D01*
X86484612Y-67121995D01*
X86484605Y-67122001D01*
X86372001Y-67234605D01*
X86371995Y-67234612D01*
X86283517Y-67367030D01*
X86222570Y-67514168D01*
X86222568Y-67514176D01*
X86191989Y-67667907D01*
X86159604Y-67729818D01*
X86158053Y-67731397D01*
X77263080Y-76626370D01*
X77263076Y-76626376D01*
X77182967Y-76765126D01*
X77182968Y-76765126D01*
X77182968Y-76765127D01*
X77141500Y-76919889D01*
X77141500Y-99946588D01*
X77121815Y-100013627D01*
X77105181Y-100034269D01*
X69810488Y-107328961D01*
X69770271Y-107355836D01*
X69765133Y-107357964D01*
X69626376Y-107438076D01*
X69626370Y-107438080D01*
X68590782Y-108473668D01*
X68529459Y-108507153D01*
X68459767Y-108502169D01*
X68403834Y-108460297D01*
X68379417Y-108394833D01*
X68385170Y-108347668D01*
X68396356Y-108313241D01*
X68433500Y-108078727D01*
X68433500Y-107841272D01*
X68396356Y-107606758D01*
X68362312Y-107501984D01*
X68322982Y-107380937D01*
X68322980Y-107380934D01*
X68322980Y-107380932D01*
X68266114Y-107269328D01*
X68215185Y-107169373D01*
X68075620Y-106977278D01*
X67907722Y-106809380D01*
X67907718Y-106809376D01*
X67881487Y-106790319D01*
X67838820Y-106734990D01*
X67832840Y-106665376D01*
X67865446Y-106603581D01*
X67881487Y-106589681D01*
X67907718Y-106570623D01*
X67907718Y-106570622D01*
X67907722Y-106570620D01*
X68075620Y-106402722D01*
X68215185Y-106210627D01*
X68322982Y-105999063D01*
X68396356Y-105773241D01*
X68415846Y-105650185D01*
X68433500Y-105538727D01*
X68433500Y-105301272D01*
X68396356Y-105066758D01*
X68323685Y-104843101D01*
X68322982Y-104840937D01*
X68322980Y-104840934D01*
X68322980Y-104840932D01*
X68266114Y-104729328D01*
X68215185Y-104629373D01*
X68075620Y-104437278D01*
X67907722Y-104269380D01*
X67907718Y-104269376D01*
X67881487Y-104250319D01*
X67838820Y-104194990D01*
X67832840Y-104125376D01*
X67865446Y-104063581D01*
X67881487Y-104049681D01*
X67907718Y-104030623D01*
X67907718Y-104030622D01*
X67907722Y-104030620D01*
X68075620Y-103862722D01*
X68215185Y-103670627D01*
X68322982Y-103459063D01*
X68396356Y-103233241D01*
X68421139Y-103076767D01*
X68433500Y-102998727D01*
X68433500Y-102761272D01*
X68396356Y-102526758D01*
X68322980Y-102300932D01*
X68235332Y-102128914D01*
X68215185Y-102089373D01*
X68075620Y-101897278D01*
X67907722Y-101729380D01*
X67715627Y-101589815D01*
X67504067Y-101482019D01*
X67278241Y-101408643D01*
X67043727Y-101371500D01*
X67043722Y-101371500D01*
X65806278Y-101371500D01*
X65806273Y-101371500D01*
X65571758Y-101408643D01*
X65345932Y-101482019D01*
X65134372Y-101589815D01*
X64942275Y-101729382D01*
X64774382Y-101897275D01*
X64634815Y-102089372D01*
X64527019Y-102300932D01*
X64453643Y-102526758D01*
X64416500Y-102761272D01*
X62047068Y-102761272D01*
X67400653Y-97407686D01*
X67400660Y-97407681D01*
X67407720Y-97400621D01*
X67407722Y-97400620D01*
X67575620Y-97232722D01*
X67715185Y-97040627D01*
X67822982Y-96829063D01*
X67896356Y-96603241D01*
X67896869Y-96600000D01*
X67933500Y-96368727D01*
X67933500Y-68306272D01*
X67896356Y-68071758D01*
X67822980Y-67845932D01*
X67755001Y-67712516D01*
X67715185Y-67634373D01*
X67575620Y-67442278D01*
X67500372Y-67367030D01*
X67404626Y-67271283D01*
X67404595Y-67271254D01*
X61654960Y-61521619D01*
X61654940Y-61521597D01*
X61482725Y-61349383D01*
X61482724Y-61349382D01*
X61482722Y-61349380D01*
X61290627Y-61209815D01*
X61079063Y-61102018D01*
X60891178Y-61040970D01*
X60833503Y-61001533D01*
X60806305Y-60937175D01*
X60818220Y-60868329D01*
X60865464Y-60816853D01*
X60897397Y-60803267D01*
X61073600Y-60756054D01*
X61297712Y-60663224D01*
X61507789Y-60541936D01*
X61700238Y-60394265D01*
X61871765Y-60222738D01*
X62019436Y-60030289D01*
X62140724Y-59820212D01*
X62233554Y-59596100D01*
X62296338Y-59361789D01*
X62328000Y-59121288D01*
X62328000Y-58878712D01*
X62296338Y-58638211D01*
X62233554Y-58403900D01*
X62140724Y-58179788D01*
X62019436Y-57969711D01*
X61909163Y-57826000D01*
X61871766Y-57777263D01*
X61871760Y-57777256D01*
X61700243Y-57605739D01*
X61700236Y-57605733D01*
X61507793Y-57458067D01*
X61507792Y-57458066D01*
X61507789Y-57458064D01*
X61306982Y-57342128D01*
X61297714Y-57336777D01*
X61297705Y-57336773D01*
X61073604Y-57243947D01*
X60839285Y-57181161D01*
X60598789Y-57149500D01*
X60598788Y-57149500D01*
X60356212Y-57149500D01*
X60356211Y-57149500D01*
X60115714Y-57181161D01*
X59881395Y-57243947D01*
X59657294Y-57336773D01*
X59657285Y-57336777D01*
X59447206Y-57458067D01*
X59254763Y-57605733D01*
X59254756Y-57605739D01*
X59083239Y-57777256D01*
X59083233Y-57777263D01*
X58935567Y-57969706D01*
X58814277Y-58179785D01*
X58814273Y-58179794D01*
X58721447Y-58403895D01*
X58658661Y-58638214D01*
X58627000Y-58878711D01*
X58627000Y-59121288D01*
X58658661Y-59361785D01*
X58721447Y-59596104D01*
X58814273Y-59820205D01*
X58814276Y-59820212D01*
X58935564Y-60030289D01*
X58935566Y-60030292D01*
X58935567Y-60030293D01*
X59083233Y-60222736D01*
X59083239Y-60222743D01*
X59254756Y-60394260D01*
X59254762Y-60394265D01*
X59447211Y-60541936D01*
X59657288Y-60663224D01*
X59792429Y-60719201D01*
X59873879Y-60752939D01*
X59928282Y-60796780D01*
X59950347Y-60863074D01*
X59933068Y-60930773D01*
X59881931Y-60978384D01*
X59826426Y-60991500D01*
X50381273Y-60991500D01*
X50146758Y-61028643D01*
X49920932Y-61102019D01*
X49709372Y-61209815D01*
X49517275Y-61349382D01*
X49349382Y-61517275D01*
X49209815Y-61709372D01*
X49102019Y-61920932D01*
X49028643Y-62146758D01*
X48991500Y-62381272D01*
X48991500Y-62618727D01*
X49028643Y-62853241D01*
X49102019Y-63079067D01*
X49209815Y-63290627D01*
X49349380Y-63482722D01*
X49517278Y-63650620D01*
X49709373Y-63790185D01*
X49809328Y-63841114D01*
X49920932Y-63897980D01*
X49920934Y-63897980D01*
X49920937Y-63897982D01*
X50041984Y-63937312D01*
X50146758Y-63971356D01*
X50381273Y-64008500D01*
X50381278Y-64008500D01*
X53471759Y-64008500D01*
X53538798Y-64028185D01*
X53584553Y-64080989D01*
X53594497Y-64150147D01*
X53565472Y-64213703D01*
X53528054Y-64242985D01*
X53467901Y-64273634D01*
X53376467Y-64340065D01*
X53307642Y-64390070D01*
X53307640Y-64390072D01*
X53307639Y-64390072D01*
X53167572Y-64530139D01*
X53167572Y-64530140D01*
X53167570Y-64530142D01*
X53158227Y-64543002D01*
X53051134Y-64690401D01*
X52961203Y-64866898D01*
X52899987Y-65055299D01*
X52869000Y-65250948D01*
X52869000Y-65449051D01*
X52899987Y-65644700D01*
X52961203Y-65833101D01*
X53021393Y-65951228D01*
X53051134Y-66009598D01*
X53167570Y-66169858D01*
X53167572Y-66169860D01*
X53262681Y-66264969D01*
X53296166Y-66326292D01*
X53299000Y-66352650D01*
X53299000Y-66807133D01*
X53279315Y-66874172D01*
X53226511Y-66919927D01*
X53157353Y-66929871D01*
X53150810Y-66928751D01*
X52955990Y-66890000D01*
X52759004Y-66890000D01*
X52565817Y-66928427D01*
X52565800Y-66928432D01*
X52467132Y-66969301D01*
X52467132Y-66969302D01*
X53034984Y-67537154D01*
X53048165Y-67561294D01*
X53004175Y-67535896D01*
X52907528Y-67510000D01*
X52807472Y-67510000D01*
X52710825Y-67535896D01*
X52624175Y-67585924D01*
X52553424Y-67656675D01*
X52503396Y-67743325D01*
X52477500Y-67839972D01*
X52477500Y-67940028D01*
X52503396Y-68036675D01*
X52553424Y-68123325D01*
X52624175Y-68194076D01*
X52710825Y-68244104D01*
X52807472Y-68270000D01*
X52907528Y-68270000D01*
X53004175Y-68244104D01*
X53051872Y-68216565D01*
X53034983Y-68242845D01*
X52467131Y-68810697D01*
X52469804Y-68824134D01*
X52463577Y-68893726D01*
X52435868Y-68936006D01*
X51335835Y-70036039D01*
X51252825Y-70160274D01*
X51195649Y-70298309D01*
X51195647Y-70298317D01*
X51181074Y-70371581D01*
X51166500Y-70444847D01*
X51166500Y-72029771D01*
X51146815Y-72096810D01*
X51094011Y-72142565D01*
X51024853Y-72152509D01*
X50961297Y-72123484D01*
X50936143Y-72093521D01*
X50934727Y-72091159D01*
X50732292Y-71788193D01*
X50732287Y-71788185D01*
X50501131Y-71506520D01*
X50501130Y-71506519D01*
X50501126Y-71506514D01*
X50243485Y-71248873D01*
X49961820Y-71017717D01*
X49961819Y-71017716D01*
X49961815Y-71017713D01*
X49658849Y-70815278D01*
X49658844Y-70815275D01*
X49658837Y-70815271D01*
X49337507Y-70643516D01*
X49337502Y-70643514D01*
X49000868Y-70504074D01*
X48652169Y-70398298D01*
X48652158Y-70398295D01*
X48294812Y-70327216D01*
X48294795Y-70327213D01*
X48020580Y-70300206D01*
X47932187Y-70291500D01*
X47567813Y-70291500D01*
X47486062Y-70299551D01*
X47205204Y-70327213D01*
X47205187Y-70327216D01*
X46847841Y-70398295D01*
X46847830Y-70398298D01*
X46499131Y-70504074D01*
X46162497Y-70643514D01*
X46162492Y-70643516D01*
X45841162Y-70815271D01*
X45841144Y-70815282D01*
X45538193Y-71017707D01*
X45538179Y-71017717D01*
X45256514Y-71248873D01*
X44998873Y-71506514D01*
X44767717Y-71788179D01*
X44767707Y-71788193D01*
X44565282Y-72091144D01*
X44565271Y-72091162D01*
X44393516Y-72412492D01*
X44393514Y-72412497D01*
X44254074Y-72749131D01*
X44201681Y-72921850D01*
X44168160Y-73032354D01*
X44129863Y-73090792D01*
X44066051Y-73119248D01*
X43996984Y-73108688D01*
X43944590Y-73062464D01*
X43925500Y-72996358D01*
X43925500Y-67790948D01*
X49059000Y-67790948D01*
X49059000Y-67989051D01*
X49089987Y-68184700D01*
X49151203Y-68373101D01*
X49229838Y-68527429D01*
X49241134Y-68549598D01*
X49357570Y-68709858D01*
X49497642Y-68849930D01*
X49657902Y-68966366D01*
X49721449Y-68998745D01*
X49834398Y-69056296D01*
X49834400Y-69056296D01*
X49834403Y-69056298D01*
X49891485Y-69074845D01*
X50022799Y-69117512D01*
X50218449Y-69148500D01*
X50218454Y-69148500D01*
X50416551Y-69148500D01*
X50612200Y-69117512D01*
X50800597Y-69056298D01*
X50977098Y-68966366D01*
X51137358Y-68849930D01*
X51277430Y-68709858D01*
X51393866Y-68549598D01*
X51483798Y-68373097D01*
X51545012Y-68184700D01*
X51545490Y-68181680D01*
X51576000Y-67989051D01*
X51576000Y-67791504D01*
X51857500Y-67791504D01*
X51857500Y-67988495D01*
X51895927Y-68181680D01*
X51895929Y-68181687D01*
X51936801Y-68280366D01*
X52327170Y-67890000D01*
X51936802Y-67499632D01*
X51936801Y-67499632D01*
X51895932Y-67598300D01*
X51895927Y-67598317D01*
X51857500Y-67791504D01*
X51576000Y-67791504D01*
X51576000Y-67790949D01*
X51575999Y-67790947D01*
X51545012Y-67595299D01*
X51516610Y-67507888D01*
X51483798Y-67406903D01*
X51483796Y-67406900D01*
X51483796Y-67406898D01*
X51414681Y-67271254D01*
X51393866Y-67230402D01*
X51277430Y-67070142D01*
X51137358Y-66930070D01*
X50977098Y-66813634D01*
X50964339Y-66807133D01*
X50800601Y-66723703D01*
X50612200Y-66662487D01*
X50416551Y-66631500D01*
X50416546Y-66631500D01*
X50218454Y-66631500D01*
X50218449Y-66631500D01*
X50022799Y-66662487D01*
X49834398Y-66723703D01*
X49657901Y-66813634D01*
X49630681Y-66833411D01*
X49497642Y-66930070D01*
X49497640Y-66930072D01*
X49497639Y-66930072D01*
X49357572Y-67070139D01*
X49357572Y-67070140D01*
X49357570Y-67070142D01*
X49319895Y-67121997D01*
X49241134Y-67230401D01*
X49151203Y-67406898D01*
X49089987Y-67595299D01*
X49059000Y-67790948D01*
X43925500Y-67790948D01*
X43925500Y-66270696D01*
X51197131Y-66270696D01*
X51295810Y-66311570D01*
X51295818Y-66311572D01*
X51489004Y-66349999D01*
X51489008Y-66350000D01*
X51685992Y-66350000D01*
X51685995Y-66349999D01*
X51879181Y-66311572D01*
X51879189Y-66311570D01*
X51977867Y-66270696D01*
X51587501Y-65880330D01*
X51587500Y-65880330D01*
X51197131Y-66270696D01*
X43925500Y-66270696D01*
X43925500Y-65251504D01*
X50587500Y-65251504D01*
X50587500Y-65448495D01*
X50625927Y-65641680D01*
X50625929Y-65641687D01*
X50666801Y-65740366D01*
X51057170Y-65350000D01*
X51007142Y-65299972D01*
X51207500Y-65299972D01*
X51207500Y-65400028D01*
X51233396Y-65496675D01*
X51283424Y-65583325D01*
X51354175Y-65654076D01*
X51440825Y-65704104D01*
X51537472Y-65730000D01*
X51637528Y-65730000D01*
X51734175Y-65704104D01*
X51820825Y-65654076D01*
X51891576Y-65583325D01*
X51941604Y-65496675D01*
X51967500Y-65400028D01*
X51967500Y-65349999D01*
X52117830Y-65349999D01*
X52117830Y-65350001D01*
X52508196Y-65740367D01*
X52549070Y-65641689D01*
X52549072Y-65641681D01*
X52587499Y-65448495D01*
X52587500Y-65448492D01*
X52587500Y-65251508D01*
X52587499Y-65251504D01*
X52549072Y-65058318D01*
X52549070Y-65058310D01*
X52508196Y-64959631D01*
X52117830Y-65349999D01*
X51967500Y-65349999D01*
X51967500Y-65299972D01*
X51941604Y-65203325D01*
X51891576Y-65116675D01*
X51820825Y-65045924D01*
X51734175Y-64995896D01*
X51637528Y-64970000D01*
X51537472Y-64970000D01*
X51440825Y-64995896D01*
X51354175Y-65045924D01*
X51283424Y-65116675D01*
X51233396Y-65203325D01*
X51207500Y-65299972D01*
X51007142Y-65299972D01*
X50666802Y-64959632D01*
X50666801Y-64959632D01*
X50625932Y-65058300D01*
X50625927Y-65058317D01*
X50587500Y-65251504D01*
X43925500Y-65251504D01*
X43925500Y-64429301D01*
X51197132Y-64429301D01*
X51197132Y-64429302D01*
X51587500Y-64819670D01*
X51587501Y-64819670D01*
X51977867Y-64429302D01*
X51879187Y-64388429D01*
X51879180Y-64388427D01*
X51685995Y-64350000D01*
X51489004Y-64350000D01*
X51295817Y-64388427D01*
X51295800Y-64388432D01*
X51197132Y-64429301D01*
X43925500Y-64429301D01*
X43925500Y-58878711D01*
X47197000Y-58878711D01*
X47197000Y-59121288D01*
X47228661Y-59361785D01*
X47291447Y-59596104D01*
X47384273Y-59820205D01*
X47384276Y-59820212D01*
X47505564Y-60030289D01*
X47505566Y-60030292D01*
X47505567Y-60030293D01*
X47653233Y-60222736D01*
X47653239Y-60222743D01*
X47824756Y-60394260D01*
X47824762Y-60394265D01*
X48017211Y-60541936D01*
X48227288Y-60663224D01*
X48451400Y-60756054D01*
X48685711Y-60818838D01*
X48866086Y-60842584D01*
X48926211Y-60850500D01*
X48926212Y-60850500D01*
X49168789Y-60850500D01*
X49216888Y-60844167D01*
X49409289Y-60818838D01*
X49643600Y-60756054D01*
X49867712Y-60663224D01*
X50077789Y-60541936D01*
X50270238Y-60394265D01*
X50441765Y-60222738D01*
X50589436Y-60030289D01*
X50710724Y-59820212D01*
X50803554Y-59596100D01*
X50866338Y-59361789D01*
X50898000Y-59121288D01*
X50898000Y-58878712D01*
X50866338Y-58638211D01*
X50803554Y-58403900D01*
X50710724Y-58179788D01*
X50589436Y-57969711D01*
X50479163Y-57826000D01*
X50441766Y-57777263D01*
X50441760Y-57777256D01*
X50270243Y-57605739D01*
X50270236Y-57605733D01*
X50077793Y-57458067D01*
X50077792Y-57458066D01*
X50077789Y-57458064D01*
X49876982Y-57342128D01*
X49867714Y-57336777D01*
X49867705Y-57336773D01*
X49643604Y-57243947D01*
X49409285Y-57181161D01*
X49168789Y-57149500D01*
X49168788Y-57149500D01*
X48926212Y-57149500D01*
X48926211Y-57149500D01*
X48685714Y-57181161D01*
X48451395Y-57243947D01*
X48227294Y-57336773D01*
X48227285Y-57336777D01*
X48017206Y-57458067D01*
X47824763Y-57605733D01*
X47824756Y-57605739D01*
X47653239Y-57777256D01*
X47653233Y-57777263D01*
X47505567Y-57969706D01*
X47384277Y-58179785D01*
X47384273Y-58179794D01*
X47291447Y-58403895D01*
X47228661Y-58638214D01*
X47197000Y-58878711D01*
X43925500Y-58878711D01*
X43925500Y-56005525D01*
X64541500Y-56005525D01*
X64541500Y-56229474D01*
X64541501Y-56229490D01*
X64570731Y-56451516D01*
X64570732Y-56451521D01*
X64570733Y-56451527D01*
X64607167Y-56587502D01*
X64628698Y-56667858D01*
X64714400Y-56874762D01*
X64714408Y-56874779D01*
X64826381Y-57068720D01*
X64826392Y-57068736D01*
X64962723Y-57246407D01*
X64962729Y-57246414D01*
X65121085Y-57404770D01*
X65121092Y-57404776D01*
X65145648Y-57423618D01*
X65298772Y-57541114D01*
X65298779Y-57541118D01*
X65492720Y-57653091D01*
X65492725Y-57653093D01*
X65492728Y-57653095D01*
X65492732Y-57653096D01*
X65492737Y-57653099D01*
X65555908Y-57679265D01*
X65699642Y-57738802D01*
X65915973Y-57796767D01*
X66138019Y-57826000D01*
X66138026Y-57826000D01*
X66361974Y-57826000D01*
X66361981Y-57826000D01*
X66584027Y-57796767D01*
X66800358Y-57738802D01*
X67007272Y-57653095D01*
X67201228Y-57541114D01*
X67378909Y-57404775D01*
X67537275Y-57246409D01*
X67673614Y-57068728D01*
X67785595Y-56874772D01*
X67871302Y-56667858D01*
X67929267Y-56451527D01*
X67958500Y-56229481D01*
X67958500Y-56005519D01*
X67929267Y-55783473D01*
X67871302Y-55567142D01*
X67785595Y-55360228D01*
X67785593Y-55360225D01*
X67785591Y-55360220D01*
X67673618Y-55166279D01*
X67673614Y-55166272D01*
X67634354Y-55115108D01*
X67537276Y-54988592D01*
X67537270Y-54988585D01*
X67441556Y-54892871D01*
X68300000Y-54892871D01*
X68300000Y-55742500D01*
X69276473Y-55742500D01*
X69269881Y-55749092D01*
X69190889Y-55885909D01*
X69150000Y-56038509D01*
X69150000Y-56196491D01*
X69190889Y-56349091D01*
X69269881Y-56485908D01*
X69276473Y-56492500D01*
X68300000Y-56492500D01*
X68300000Y-57342128D01*
X68314503Y-57415040D01*
X68314505Y-57415044D01*
X68369760Y-57497739D01*
X68452455Y-57552994D01*
X68452459Y-57552996D01*
X68525371Y-57567499D01*
X68525374Y-57567500D01*
X69375000Y-57567500D01*
X69375000Y-56591027D01*
X69381592Y-56597619D01*
X69518409Y-56676611D01*
X69671009Y-56717500D01*
X69828991Y-56717500D01*
X69981591Y-56676611D01*
X70118408Y-56597619D01*
X70125000Y-56591027D01*
X70125000Y-57567500D01*
X70974626Y-57567500D01*
X70974628Y-57567499D01*
X71047540Y-57552996D01*
X71047544Y-57552994D01*
X71130239Y-57497739D01*
X71185494Y-57415044D01*
X71185496Y-57415040D01*
X71199999Y-57342128D01*
X71200000Y-57342126D01*
X71200000Y-56492500D01*
X70223527Y-56492500D01*
X70230119Y-56485908D01*
X70309111Y-56349091D01*
X70350000Y-56196491D01*
X70350000Y-56038509D01*
X70309678Y-55888025D01*
X74291500Y-55888025D01*
X74291500Y-56111974D01*
X74291501Y-56111990D01*
X74320731Y-56334016D01*
X74320732Y-56334021D01*
X74320733Y-56334027D01*
X74352214Y-56451516D01*
X74378698Y-56550358D01*
X74464400Y-56757262D01*
X74464408Y-56757279D01*
X74576381Y-56951220D01*
X74576392Y-56951236D01*
X74712723Y-57128907D01*
X74712729Y-57128914D01*
X74871085Y-57287270D01*
X74871091Y-57287275D01*
X75048772Y-57423614D01*
X75048779Y-57423618D01*
X75242720Y-57535591D01*
X75242725Y-57535593D01*
X75242728Y-57535595D01*
X75242732Y-57535596D01*
X75242737Y-57535599D01*
X75308355Y-57562778D01*
X75449642Y-57621302D01*
X75665973Y-57679267D01*
X75888019Y-57708500D01*
X75888026Y-57708500D01*
X76111974Y-57708500D01*
X76111981Y-57708500D01*
X76334027Y-57679267D01*
X76550358Y-57621302D01*
X76757272Y-57535595D01*
X76951228Y-57423614D01*
X77128909Y-57287275D01*
X77287275Y-57128909D01*
X77423614Y-56951228D01*
X77535595Y-56757272D01*
X77621302Y-56550358D01*
X77630225Y-56517053D01*
X77666589Y-56457394D01*
X77729436Y-56426864D01*
X77798811Y-56435158D01*
X77852690Y-56479643D01*
X77869775Y-56517055D01*
X77878697Y-56550355D01*
X77878698Y-56550358D01*
X77964400Y-56757262D01*
X77964408Y-56757279D01*
X78076381Y-56951220D01*
X78076392Y-56951236D01*
X78212723Y-57128907D01*
X78212729Y-57128914D01*
X78371085Y-57287270D01*
X78371091Y-57287275D01*
X78548772Y-57423614D01*
X78548779Y-57423618D01*
X78742720Y-57535591D01*
X78742725Y-57535593D01*
X78742728Y-57535595D01*
X78742732Y-57535596D01*
X78742737Y-57535599D01*
X78808355Y-57562778D01*
X78949642Y-57621302D01*
X79165973Y-57679267D01*
X79388019Y-57708500D01*
X79388026Y-57708500D01*
X79611974Y-57708500D01*
X79611981Y-57708500D01*
X79834027Y-57679267D01*
X80050358Y-57621302D01*
X80257272Y-57535595D01*
X80451228Y-57423614D01*
X80628909Y-57287275D01*
X80787275Y-57128909D01*
X80923614Y-56951228D01*
X81035595Y-56757272D01*
X81121302Y-56550358D01*
X81179267Y-56334027D01*
X81208500Y-56111981D01*
X81208500Y-55888019D01*
X81179267Y-55665973D01*
X81121302Y-55449642D01*
X81035595Y-55242728D01*
X80923614Y-55048772D01*
X80887844Y-55002156D01*
X81550000Y-55002156D01*
X81550000Y-55625000D01*
X82526473Y-55625000D01*
X82519881Y-55631592D01*
X82440889Y-55768409D01*
X82400000Y-55921009D01*
X82400000Y-56078991D01*
X82440889Y-56231591D01*
X82519881Y-56368408D01*
X82526473Y-56375000D01*
X81550001Y-56375000D01*
X81550001Y-56997830D01*
X81556402Y-57057377D01*
X81606647Y-57192087D01*
X81692811Y-57307188D01*
X81807909Y-57393350D01*
X81942629Y-57443598D01*
X81942628Y-57443598D01*
X82002164Y-57449999D01*
X82624999Y-57449999D01*
X82625000Y-57449998D01*
X82625000Y-56473527D01*
X82631592Y-56480119D01*
X82768409Y-56559111D01*
X82921009Y-56600000D01*
X83078991Y-56600000D01*
X83231591Y-56559111D01*
X83368408Y-56480119D01*
X83375000Y-56473527D01*
X83375000Y-57449999D01*
X83997823Y-57449999D01*
X83997830Y-57449998D01*
X84057377Y-57443597D01*
X84192087Y-57393352D01*
X84307188Y-57307188D01*
X84393350Y-57192090D01*
X84443598Y-57057371D01*
X84449999Y-56997843D01*
X84450000Y-56997826D01*
X84450000Y-56375000D01*
X83473527Y-56375000D01*
X83480119Y-56368408D01*
X83559111Y-56231591D01*
X83600000Y-56078991D01*
X83600000Y-55921009D01*
X83591162Y-55888025D01*
X88041500Y-55888025D01*
X88041500Y-56111974D01*
X88041501Y-56111990D01*
X88070731Y-56334016D01*
X88070732Y-56334021D01*
X88070733Y-56334027D01*
X88102214Y-56451516D01*
X88128698Y-56550358D01*
X88214400Y-56757262D01*
X88214408Y-56757279D01*
X88326381Y-56951220D01*
X88326392Y-56951236D01*
X88462723Y-57128907D01*
X88462729Y-57128914D01*
X88621085Y-57287270D01*
X88621091Y-57287275D01*
X88798772Y-57423614D01*
X88798779Y-57423618D01*
X88992720Y-57535591D01*
X88992725Y-57535593D01*
X88992728Y-57535595D01*
X88992732Y-57535596D01*
X88992737Y-57535599D01*
X89058355Y-57562778D01*
X89199642Y-57621302D01*
X89415973Y-57679267D01*
X89638019Y-57708500D01*
X89638026Y-57708500D01*
X89861974Y-57708500D01*
X89861981Y-57708500D01*
X90084027Y-57679267D01*
X90300358Y-57621302D01*
X90507272Y-57535595D01*
X90701228Y-57423614D01*
X90878909Y-57287275D01*
X91037275Y-57128909D01*
X91173614Y-56951228D01*
X91285595Y-56757272D01*
X91371302Y-56550358D01*
X91429267Y-56334027D01*
X91458500Y-56111981D01*
X91458500Y-55888019D01*
X91429267Y-55665973D01*
X91371302Y-55449642D01*
X91285595Y-55242728D01*
X91173614Y-55048772D01*
X91137844Y-55002156D01*
X91800000Y-55002156D01*
X91800000Y-55625000D01*
X92776473Y-55625000D01*
X92769881Y-55631592D01*
X92690889Y-55768409D01*
X92650000Y-55921009D01*
X92650000Y-56078991D01*
X92690889Y-56231591D01*
X92769881Y-56368408D01*
X92776473Y-56375000D01*
X91800001Y-56375000D01*
X91800001Y-56997830D01*
X91806402Y-57057377D01*
X91856647Y-57192087D01*
X91942811Y-57307188D01*
X92057909Y-57393350D01*
X92192629Y-57443598D01*
X92192628Y-57443598D01*
X92252164Y-57449999D01*
X92874999Y-57449999D01*
X92875000Y-57449998D01*
X92875000Y-56473527D01*
X92881592Y-56480119D01*
X93018409Y-56559111D01*
X93171009Y-56600000D01*
X93328991Y-56600000D01*
X93481591Y-56559111D01*
X93618408Y-56480119D01*
X93625000Y-56473527D01*
X93625000Y-57449999D01*
X94247823Y-57449999D01*
X94247830Y-57449998D01*
X94307377Y-57443597D01*
X94442087Y-57393352D01*
X94557188Y-57307188D01*
X94643350Y-57192090D01*
X94693598Y-57057371D01*
X94699999Y-56997843D01*
X94700000Y-56997826D01*
X94700000Y-56375000D01*
X93723527Y-56375000D01*
X93730119Y-56368408D01*
X93809111Y-56231591D01*
X93850000Y-56078991D01*
X93850000Y-55921009D01*
X93809111Y-55768409D01*
X93730119Y-55631592D01*
X93723527Y-55625000D01*
X94699999Y-55625000D01*
X94699999Y-55002176D01*
X94699998Y-55002169D01*
X94693597Y-54942622D01*
X94662073Y-54858103D01*
X94647046Y-54817816D01*
X97716500Y-54817816D01*
X97716500Y-55182183D01*
X97752213Y-55544795D01*
X97752216Y-55544812D01*
X97823295Y-55902158D01*
X97823298Y-55902169D01*
X97929074Y-56250868D01*
X98068514Y-56587502D01*
X98068516Y-56587507D01*
X98240271Y-56908837D01*
X98240282Y-56908855D01*
X98442707Y-57211806D01*
X98442717Y-57211820D01*
X98673873Y-57493485D01*
X98931514Y-57751126D01*
X98931519Y-57751130D01*
X98931520Y-57751131D01*
X99213185Y-57982287D01*
X99516151Y-58184722D01*
X99516160Y-58184727D01*
X99516162Y-58184728D01*
X99837492Y-58356483D01*
X99837494Y-58356483D01*
X99837500Y-58356487D01*
X100042665Y-58441469D01*
X100174131Y-58495925D01*
X100174135Y-58495926D01*
X100174137Y-58495927D01*
X100522821Y-58601699D01*
X100522827Y-58601700D01*
X100522830Y-58601701D01*
X100522841Y-58601704D01*
X100746927Y-58646276D01*
X100880194Y-58672785D01*
X101242813Y-58708500D01*
X101242816Y-58708500D01*
X101607184Y-58708500D01*
X101607187Y-58708500D01*
X101969806Y-58672785D01*
X102146696Y-58637599D01*
X102327158Y-58601704D01*
X102327169Y-58601701D01*
X102327169Y-58601700D01*
X102327179Y-58601699D01*
X102675863Y-58495927D01*
X103012500Y-58356487D01*
X103333849Y-58184722D01*
X103636815Y-57982287D01*
X103918480Y-57751131D01*
X104176131Y-57493480D01*
X104407287Y-57211815D01*
X104609722Y-56908849D01*
X104781487Y-56587500D01*
X104920927Y-56250863D01*
X105026699Y-55902179D01*
X105026701Y-55902169D01*
X105026704Y-55902158D01*
X105073684Y-55665970D01*
X105097785Y-55544806D01*
X105133500Y-55182187D01*
X105133500Y-54817813D01*
X105097785Y-54455194D01*
X105071039Y-54320731D01*
X105026704Y-54097841D01*
X105026701Y-54097830D01*
X105026700Y-54097827D01*
X105026699Y-54097821D01*
X104920927Y-53749137D01*
X104781487Y-53412500D01*
X104609722Y-53091151D01*
X104407287Y-52788185D01*
X104176131Y-52506520D01*
X104176130Y-52506519D01*
X104176126Y-52506514D01*
X103918485Y-52248873D01*
X103636820Y-52017717D01*
X103636819Y-52017716D01*
X103636815Y-52017713D01*
X103333849Y-51815278D01*
X103333844Y-51815275D01*
X103333837Y-51815271D01*
X103012507Y-51643516D01*
X103012502Y-51643514D01*
X102675868Y-51504074D01*
X102327169Y-51398298D01*
X102327158Y-51398295D01*
X101969812Y-51327216D01*
X101969795Y-51327213D01*
X101695580Y-51300206D01*
X101607187Y-51291500D01*
X101242813Y-51291500D01*
X101161062Y-51299551D01*
X100880204Y-51327213D01*
X100880187Y-51327216D01*
X100522841Y-51398295D01*
X100522830Y-51398298D01*
X100174131Y-51504074D01*
X99837497Y-51643514D01*
X99837492Y-51643516D01*
X99516162Y-51815271D01*
X99516144Y-51815282D01*
X99213193Y-52017707D01*
X99213179Y-52017717D01*
X98931514Y-52248873D01*
X98673873Y-52506514D01*
X98442717Y-52788179D01*
X98442707Y-52788193D01*
X98240282Y-53091144D01*
X98240271Y-53091162D01*
X98068516Y-53412492D01*
X98068514Y-53412497D01*
X97929074Y-53749131D01*
X97823298Y-54097830D01*
X97823295Y-54097841D01*
X97752216Y-54455187D01*
X97752213Y-54455204D01*
X97726850Y-54712725D01*
X97717476Y-54807911D01*
X97716500Y-54817816D01*
X94647046Y-54817816D01*
X94643351Y-54807911D01*
X94557188Y-54692811D01*
X94442090Y-54606649D01*
X94307370Y-54556401D01*
X94307371Y-54556401D01*
X94247843Y-54550000D01*
X93625000Y-54550000D01*
X93625000Y-55526473D01*
X93618408Y-55519881D01*
X93481591Y-55440889D01*
X93328991Y-55400000D01*
X93171009Y-55400000D01*
X93018409Y-55440889D01*
X92881592Y-55519881D01*
X92875000Y-55526473D01*
X92875000Y-54550000D01*
X92252176Y-54550000D01*
X92252169Y-54550001D01*
X92192622Y-54556402D01*
X92057912Y-54606647D01*
X91942811Y-54692811D01*
X91856649Y-54807909D01*
X91806401Y-54942628D01*
X91800000Y-55002156D01*
X91137844Y-55002156D01*
X91092167Y-54942628D01*
X91037276Y-54871092D01*
X91037270Y-54871085D01*
X90878914Y-54712729D01*
X90878907Y-54712723D01*
X90701236Y-54576392D01*
X90701234Y-54576390D01*
X90701228Y-54576386D01*
X90701223Y-54576383D01*
X90701220Y-54576381D01*
X90507279Y-54464408D01*
X90507262Y-54464400D01*
X90300358Y-54378698D01*
X90084027Y-54320733D01*
X90084021Y-54320732D01*
X90084016Y-54320731D01*
X89861990Y-54291501D01*
X89861987Y-54291500D01*
X89861981Y-54291500D01*
X89638019Y-54291500D01*
X89638013Y-54291500D01*
X89638009Y-54291501D01*
X89415983Y-54320731D01*
X89415976Y-54320732D01*
X89415973Y-54320733D01*
X89324535Y-54345233D01*
X89199641Y-54378698D01*
X88992737Y-54464400D01*
X88992720Y-54464408D01*
X88798779Y-54576381D01*
X88798763Y-54576392D01*
X88621092Y-54712723D01*
X88621085Y-54712729D01*
X88462729Y-54871085D01*
X88462723Y-54871092D01*
X88326392Y-55048763D01*
X88326381Y-55048779D01*
X88214408Y-55242720D01*
X88214400Y-55242737D01*
X88128698Y-55449641D01*
X88070734Y-55665970D01*
X88070731Y-55665983D01*
X88041501Y-55888009D01*
X88041500Y-55888025D01*
X83591162Y-55888025D01*
X83559111Y-55768409D01*
X83480119Y-55631592D01*
X83473527Y-55625000D01*
X84449999Y-55625000D01*
X84449999Y-55002176D01*
X84449998Y-55002169D01*
X84443597Y-54942622D01*
X84393352Y-54807912D01*
X84307188Y-54692811D01*
X84192090Y-54606649D01*
X84057370Y-54556401D01*
X84057371Y-54556401D01*
X83997843Y-54550000D01*
X83375000Y-54550000D01*
X83375000Y-55526473D01*
X83368408Y-55519881D01*
X83231591Y-55440889D01*
X83078991Y-55400000D01*
X82921009Y-55400000D01*
X82768409Y-55440889D01*
X82631592Y-55519881D01*
X82625000Y-55526473D01*
X82625000Y-54550000D01*
X82002176Y-54550000D01*
X82002169Y-54550001D01*
X81942622Y-54556402D01*
X81807912Y-54606647D01*
X81692811Y-54692811D01*
X81606649Y-54807909D01*
X81556401Y-54942628D01*
X81550000Y-55002156D01*
X80887844Y-55002156D01*
X80842167Y-54942628D01*
X80787276Y-54871092D01*
X80787270Y-54871085D01*
X80628914Y-54712729D01*
X80628907Y-54712723D01*
X80451236Y-54576392D01*
X80451234Y-54576390D01*
X80451228Y-54576386D01*
X80451223Y-54576383D01*
X80451220Y-54576381D01*
X80257279Y-54464408D01*
X80257262Y-54464400D01*
X80050358Y-54378698D01*
X79834027Y-54320733D01*
X79834021Y-54320732D01*
X79834016Y-54320731D01*
X79611990Y-54291501D01*
X79611987Y-54291500D01*
X79611981Y-54291500D01*
X79388019Y-54291500D01*
X79388013Y-54291500D01*
X79388009Y-54291501D01*
X79165983Y-54320731D01*
X79165976Y-54320732D01*
X79165973Y-54320733D01*
X79074535Y-54345233D01*
X78949641Y-54378698D01*
X78742737Y-54464400D01*
X78742720Y-54464408D01*
X78548779Y-54576381D01*
X78548763Y-54576392D01*
X78371092Y-54712723D01*
X78371085Y-54712729D01*
X78212729Y-54871085D01*
X78212723Y-54871092D01*
X78076392Y-55048763D01*
X78076381Y-55048779D01*
X77964408Y-55242720D01*
X77964400Y-55242737D01*
X77878698Y-55449641D01*
X77869775Y-55482945D01*
X77833410Y-55542606D01*
X77770563Y-55573135D01*
X77701188Y-55564840D01*
X77647310Y-55520355D01*
X77630225Y-55482945D01*
X77621302Y-55449642D01*
X77535595Y-55242728D01*
X77535593Y-55242725D01*
X77535591Y-55242720D01*
X77423618Y-55048779D01*
X77423614Y-55048772D01*
X77342167Y-54942628D01*
X77287276Y-54871092D01*
X77287270Y-54871085D01*
X77128914Y-54712729D01*
X77128907Y-54712723D01*
X76951236Y-54576392D01*
X76951234Y-54576390D01*
X76951228Y-54576386D01*
X76951223Y-54576383D01*
X76951220Y-54576381D01*
X76757279Y-54464408D01*
X76757262Y-54464400D01*
X76550358Y-54378698D01*
X76334027Y-54320733D01*
X76334021Y-54320732D01*
X76334016Y-54320731D01*
X76111990Y-54291501D01*
X76111987Y-54291500D01*
X76111981Y-54291500D01*
X75888019Y-54291500D01*
X75888013Y-54291500D01*
X75888009Y-54291501D01*
X75665983Y-54320731D01*
X75665976Y-54320732D01*
X75665973Y-54320733D01*
X75574535Y-54345233D01*
X75449641Y-54378698D01*
X75242737Y-54464400D01*
X75242720Y-54464408D01*
X75048779Y-54576381D01*
X75048763Y-54576392D01*
X74871092Y-54712723D01*
X74871085Y-54712729D01*
X74712729Y-54871085D01*
X74712723Y-54871092D01*
X74576392Y-55048763D01*
X74576381Y-55048779D01*
X74464408Y-55242720D01*
X74464400Y-55242737D01*
X74378698Y-55449641D01*
X74320734Y-55665970D01*
X74320731Y-55665983D01*
X74291501Y-55888009D01*
X74291500Y-55888025D01*
X70309678Y-55888025D01*
X70309111Y-55885909D01*
X70230119Y-55749092D01*
X70223527Y-55742500D01*
X71200000Y-55742500D01*
X71200000Y-54892873D01*
X71199999Y-54892871D01*
X71185496Y-54819959D01*
X71185494Y-54819955D01*
X71130239Y-54737260D01*
X71047544Y-54682005D01*
X71047540Y-54682003D01*
X70974627Y-54667500D01*
X70125000Y-54667500D01*
X70125000Y-55643973D01*
X70118408Y-55637381D01*
X69981591Y-55558389D01*
X69828991Y-55517500D01*
X69671009Y-55517500D01*
X69518409Y-55558389D01*
X69381592Y-55637381D01*
X69375000Y-55643973D01*
X69375000Y-54667500D01*
X68525373Y-54667500D01*
X68452459Y-54682003D01*
X68452455Y-54682005D01*
X68369760Y-54737260D01*
X68314505Y-54819955D01*
X68314503Y-54819959D01*
X68300000Y-54892871D01*
X67441556Y-54892871D01*
X67378914Y-54830229D01*
X67378907Y-54830223D01*
X67201236Y-54693892D01*
X67201234Y-54693890D01*
X67201228Y-54693886D01*
X67201223Y-54693883D01*
X67201220Y-54693881D01*
X67007279Y-54581908D01*
X67007262Y-54581900D01*
X66800358Y-54496198D01*
X66584027Y-54438233D01*
X66584021Y-54438232D01*
X66584016Y-54438231D01*
X66361990Y-54409001D01*
X66361987Y-54409000D01*
X66361981Y-54409000D01*
X66138019Y-54409000D01*
X66138013Y-54409000D01*
X66138009Y-54409001D01*
X65915983Y-54438231D01*
X65915976Y-54438232D01*
X65915973Y-54438233D01*
X65852699Y-54455187D01*
X65699641Y-54496198D01*
X65492737Y-54581900D01*
X65492720Y-54581908D01*
X65298779Y-54693881D01*
X65298763Y-54693892D01*
X65121092Y-54830223D01*
X65121085Y-54830229D01*
X64962729Y-54988585D01*
X64962723Y-54988592D01*
X64826392Y-55166263D01*
X64826381Y-55166279D01*
X64714408Y-55360220D01*
X64714400Y-55360237D01*
X64628698Y-55567141D01*
X64628698Y-55567142D01*
X64574770Y-55768409D01*
X64570734Y-55783470D01*
X64570731Y-55783483D01*
X64541501Y-56005509D01*
X64541500Y-56005525D01*
X43925500Y-56005525D01*
X43925500Y-55002561D01*
X43925606Y-54997437D01*
X43932522Y-54830223D01*
X43944072Y-54550961D01*
X43944915Y-54540792D01*
X43999874Y-54099881D01*
X44001554Y-54089809D01*
X44092734Y-53654951D01*
X44095241Y-53645055D01*
X44222022Y-53219205D01*
X44225336Y-53209553D01*
X44386840Y-52795654D01*
X44390954Y-52786275D01*
X44586088Y-52387120D01*
X44590949Y-52378136D01*
X44818389Y-51996445D01*
X44823982Y-51987885D01*
X45082153Y-51626294D01*
X45088422Y-51618240D01*
X45375581Y-51279191D01*
X45382500Y-51271675D01*
X45696675Y-50957500D01*
X45704191Y-50950581D01*
X46043240Y-50663422D01*
X46051294Y-50657153D01*
X46412885Y-50398982D01*
X46421445Y-50393389D01*
X46803136Y-50165949D01*
X46812120Y-50161088D01*
X47211280Y-49965951D01*
X47220654Y-49961840D01*
X47634553Y-49800336D01*
X47644205Y-49797022D01*
X48070055Y-49670241D01*
X48079951Y-49667734D01*
X48514809Y-49576554D01*
X48524881Y-49574874D01*
X48965792Y-49519915D01*
X48975961Y-49519072D01*
X49422437Y-49500605D01*
X49427561Y-49500500D01*
X49490892Y-49500500D01*
X102184108Y-49500500D01*
X102247439Y-49500500D01*
X102252562Y-49500605D01*
G37*
%TD.AperFunction*%
%TA.AperFunction,Conductor*%
G36*
X44130703Y-74909928D02*
G01*
X44168159Y-74967643D01*
X44221061Y-75142037D01*
X44254074Y-75250868D01*
X44307024Y-75378698D01*
X44388909Y-75576386D01*
X44393514Y-75587502D01*
X44393516Y-75587507D01*
X44565271Y-75908837D01*
X44565282Y-75908855D01*
X44767707Y-76211806D01*
X44767717Y-76211820D01*
X44998873Y-76493485D01*
X45256514Y-76751126D01*
X45256519Y-76751130D01*
X45256520Y-76751131D01*
X45538185Y-76982287D01*
X45841151Y-77184722D01*
X45841160Y-77184727D01*
X45841162Y-77184728D01*
X46162492Y-77356483D01*
X46162494Y-77356483D01*
X46162500Y-77356487D01*
X46367665Y-77441469D01*
X46499131Y-77495925D01*
X46499135Y-77495926D01*
X46499137Y-77495927D01*
X46847821Y-77601699D01*
X46847827Y-77601700D01*
X46847830Y-77601701D01*
X46847841Y-77601704D01*
X47071927Y-77646276D01*
X47205194Y-77672785D01*
X47567813Y-77708500D01*
X47567816Y-77708500D01*
X47932184Y-77708500D01*
X47932187Y-77708500D01*
X48294806Y-77672785D01*
X48471696Y-77637599D01*
X48652158Y-77601704D01*
X48652169Y-77601701D01*
X48652169Y-77601700D01*
X48652179Y-77601699D01*
X49000863Y-77495927D01*
X49337500Y-77356487D01*
X49658849Y-77184722D01*
X49961815Y-76982287D01*
X50243480Y-76751131D01*
X50501131Y-76493480D01*
X50732287Y-76211815D01*
X50934722Y-75908849D01*
X50934735Y-75908824D01*
X50936137Y-75906487D01*
X50987483Y-75859102D01*
X51056296Y-75846998D01*
X51120729Y-75874019D01*
X51160325Y-75931586D01*
X51166500Y-75970228D01*
X51166500Y-96279771D01*
X51146815Y-96346810D01*
X51094011Y-96392565D01*
X51024853Y-96402509D01*
X50961297Y-96373484D01*
X50936143Y-96343521D01*
X50934727Y-96341159D01*
X50760300Y-96080109D01*
X50732287Y-96038185D01*
X50501131Y-95756520D01*
X50501130Y-95756519D01*
X50501126Y-95756514D01*
X50243485Y-95498873D01*
X49961820Y-95267717D01*
X49961819Y-95267716D01*
X49961815Y-95267713D01*
X49658849Y-95065278D01*
X49658844Y-95065275D01*
X49658837Y-95065271D01*
X49337507Y-94893516D01*
X49337502Y-94893514D01*
X49000868Y-94754074D01*
X48652169Y-94648298D01*
X48652158Y-94648295D01*
X48294812Y-94577216D01*
X48294795Y-94577213D01*
X48018489Y-94550000D01*
X47932187Y-94541500D01*
X47567813Y-94541500D01*
X47486062Y-94549551D01*
X47205204Y-94577213D01*
X47205187Y-94577216D01*
X46847841Y-94648295D01*
X46847830Y-94648298D01*
X46499131Y-94754074D01*
X46162497Y-94893514D01*
X46162492Y-94893516D01*
X45841162Y-95065271D01*
X45841144Y-95065282D01*
X45538193Y-95267707D01*
X45538179Y-95267717D01*
X45256514Y-95498873D01*
X44998873Y-95756514D01*
X44767717Y-96038179D01*
X44767707Y-96038193D01*
X44565282Y-96341144D01*
X44565271Y-96341162D01*
X44393516Y-96662492D01*
X44393514Y-96662497D01*
X44254074Y-96999131D01*
X44236406Y-97057377D01*
X44168160Y-97282354D01*
X44129863Y-97340792D01*
X44066051Y-97369248D01*
X43996984Y-97358688D01*
X43944590Y-97312464D01*
X43925500Y-97246358D01*
X43925500Y-75003641D01*
X43945185Y-74936602D01*
X43997989Y-74890847D01*
X44067147Y-74880903D01*
X44130703Y-74909928D01*
G37*
%TD.AperFunction*%
%TA.AperFunction,Conductor*%
G36*
X58093610Y-64028185D02*
G01*
X58139365Y-64080989D01*
X58149309Y-64150147D01*
X58120284Y-64213703D01*
X58100887Y-64231762D01*
X58094239Y-64236739D01*
X58094238Y-64236740D01*
X58006611Y-64353795D01*
X57955511Y-64490795D01*
X57955511Y-64490797D01*
X57949000Y-64551345D01*
X57949000Y-66148654D01*
X57955511Y-66209202D01*
X57955511Y-66209204D01*
X57989858Y-66301288D01*
X58006611Y-66346204D01*
X58071728Y-66433190D01*
X58096145Y-66498653D01*
X58081294Y-66566926D01*
X58031889Y-66616332D01*
X57972461Y-66631500D01*
X57838449Y-66631500D01*
X57642799Y-66662487D01*
X57454398Y-66723703D01*
X57277901Y-66813634D01*
X57250681Y-66833411D01*
X57117642Y-66930070D01*
X57117640Y-66930072D01*
X57117639Y-66930072D01*
X56977572Y-67070139D01*
X56977572Y-67070140D01*
X56977570Y-67070142D01*
X56939895Y-67121997D01*
X56861134Y-67230401D01*
X56777985Y-67393590D01*
X56730010Y-67444386D01*
X56662189Y-67461181D01*
X56596054Y-67438643D01*
X56557015Y-67393590D01*
X56494681Y-67271254D01*
X56473866Y-67230402D01*
X56357430Y-67070142D01*
X56217358Y-66930070D01*
X56057098Y-66813634D01*
X56044339Y-66807133D01*
X55880601Y-66723703D01*
X55692200Y-66662487D01*
X55496551Y-66631500D01*
X55496546Y-66631500D01*
X55298454Y-66631500D01*
X55298449Y-66631500D01*
X55102798Y-66662488D01*
X55102795Y-66662488D01*
X54978318Y-66702934D01*
X54950198Y-66703737D01*
X54922353Y-66707741D01*
X54915741Y-66704721D01*
X54908477Y-66704929D01*
X54884387Y-66690402D01*
X54858797Y-66678716D01*
X54854867Y-66672602D01*
X54848644Y-66668849D01*
X54836231Y-66643602D01*
X54821023Y-66619938D01*
X54819546Y-66609667D01*
X54817816Y-66606148D01*
X54816000Y-66585003D01*
X54816000Y-66468547D01*
X54835685Y-66401508D01*
X54867109Y-66368233D01*
X54947358Y-66309930D01*
X54986592Y-66270696D01*
X56277131Y-66270696D01*
X56375810Y-66311570D01*
X56375818Y-66311572D01*
X56569004Y-66349999D01*
X56569008Y-66350000D01*
X56765992Y-66350000D01*
X56765995Y-66349999D01*
X56959181Y-66311572D01*
X56959189Y-66311570D01*
X57057867Y-66270696D01*
X56667501Y-65880330D01*
X56667500Y-65880330D01*
X56277131Y-66270696D01*
X54986592Y-66270696D01*
X55087430Y-66169858D01*
X55203866Y-66009598D01*
X55293798Y-65833097D01*
X55355012Y-65644700D01*
X55369954Y-65550358D01*
X55386000Y-65449051D01*
X55386000Y-65251504D01*
X55667500Y-65251504D01*
X55667500Y-65448495D01*
X55705927Y-65641680D01*
X55705929Y-65641687D01*
X55746801Y-65740366D01*
X56137170Y-65350000D01*
X56087142Y-65299972D01*
X56287500Y-65299972D01*
X56287500Y-65400028D01*
X56313396Y-65496675D01*
X56363424Y-65583325D01*
X56434175Y-65654076D01*
X56520825Y-65704104D01*
X56617472Y-65730000D01*
X56717528Y-65730000D01*
X56814175Y-65704104D01*
X56900825Y-65654076D01*
X56971576Y-65583325D01*
X57021604Y-65496675D01*
X57047500Y-65400028D01*
X57047500Y-65349999D01*
X57197830Y-65349999D01*
X57197830Y-65350001D01*
X57588196Y-65740367D01*
X57629070Y-65641689D01*
X57629072Y-65641681D01*
X57667499Y-65448495D01*
X57667500Y-65448492D01*
X57667500Y-65251508D01*
X57667499Y-65251504D01*
X57629072Y-65058318D01*
X57629070Y-65058310D01*
X57588196Y-64959631D01*
X57197830Y-65349999D01*
X57047500Y-65349999D01*
X57047500Y-65299972D01*
X57021604Y-65203325D01*
X56971576Y-65116675D01*
X56900825Y-65045924D01*
X56814175Y-64995896D01*
X56717528Y-64970000D01*
X56617472Y-64970000D01*
X56520825Y-64995896D01*
X56434175Y-65045924D01*
X56363424Y-65116675D01*
X56313396Y-65203325D01*
X56287500Y-65299972D01*
X56087142Y-65299972D01*
X55746802Y-64959632D01*
X55746801Y-64959632D01*
X55705932Y-65058300D01*
X55705927Y-65058317D01*
X55667500Y-65251504D01*
X55386000Y-65251504D01*
X55386000Y-65250949D01*
X55385999Y-65250947D01*
X55355012Y-65055299D01*
X55326610Y-64967888D01*
X55293798Y-64866903D01*
X55293796Y-64866900D01*
X55293796Y-64866898D01*
X55203865Y-64690401D01*
X55087430Y-64530142D01*
X54986589Y-64429301D01*
X56277132Y-64429301D01*
X56277132Y-64429302D01*
X56667500Y-64819670D01*
X56667501Y-64819670D01*
X57057867Y-64429302D01*
X56959187Y-64388429D01*
X56959180Y-64388427D01*
X56765995Y-64350000D01*
X56569004Y-64350000D01*
X56375817Y-64388427D01*
X56375800Y-64388432D01*
X56277132Y-64429301D01*
X54986589Y-64429301D01*
X54947358Y-64390070D01*
X54787098Y-64273634D01*
X54726945Y-64242984D01*
X54676150Y-64195010D01*
X54659355Y-64127189D01*
X54681893Y-64061054D01*
X54736608Y-64017603D01*
X54783241Y-64008500D01*
X58026571Y-64008500D01*
X58093610Y-64028185D01*
G37*
%TD.AperFunction*%
%TD*%
M02*
