%TF.GenerationSoftware,KiCad,Pcbnew,9.0.1*%
%TF.CreationDate,2026-01-14T23:07:50-05:00*%
%TF.ProjectId,pcb,7063622e-6b69-4636-9164-5f7063625858,1.0*%
%TF.SameCoordinates,Original*%
%TF.FileFunction,Soldermask,Top*%
%TF.FilePolarity,Negative*%
%FSLAX46Y46*%
G04 Gerber Fmt 4.6, Leading zero omitted, Abs format (unit mm)*
G04 Created by KiCad (PCBNEW 9.0.1) date 2026-01-14 23:07:50*
%MOMM*%
%LPD*%
G01*
G04 APERTURE LIST*
G04 Aperture macros list*
%AMRoundRect*
0 Rectangle with rounded corners*
0 $1 Rounding radius*
0 $2 $3 $4 $5 $6 $7 $8 $9 X,Y pos of 4 corners*
0 Add a 4 corners polygon primitive as box body*
4,1,4,$2,$3,$4,$5,$6,$7,$8,$9,$2,$3,0*
0 Add four circle primitives for the rounded corners*
1,1,$1+$1,$2,$3*
1,1,$1+$1,$4,$5*
1,1,$1+$1,$6,$7*
1,1,$1+$1,$8,$9*
0 Add four rect primitives between the rounded corners*
20,1,$1+$1,$2,$3,$4,$5,0*
20,1,$1+$1,$4,$5,$6,$7,0*
20,1,$1+$1,$6,$7,$8,$9,0*
20,1,$1+$1,$8,$9,$2,$3,0*%
%AMFreePoly0*
4,1,23,0.500000,-0.750000,0.000000,-0.750000,0.000000,-0.745722,-0.065263,-0.745722,-0.191342,-0.711940,-0.304381,-0.646677,-0.396677,-0.554381,-0.461940,-0.441342,-0.495722,-0.315263,-0.495722,-0.250000,-0.500000,-0.250000,-0.500000,0.250000,-0.495722,0.250000,-0.495722,0.315263,-0.461940,0.441342,-0.396677,0.554381,-0.304381,0.646677,-0.191342,0.711940,-0.065263,0.745722,0.000000,0.745722,
0.000000,0.750000,0.500000,0.750000,0.500000,-0.750000,0.500000,-0.750000,$1*%
%AMFreePoly1*
4,1,23,0.000000,0.745722,0.065263,0.745722,0.191342,0.711940,0.304381,0.646677,0.396677,0.554381,0.461940,0.441342,0.495722,0.315263,0.495722,0.250000,0.500000,0.250000,0.500000,-0.250000,0.495722,-0.250000,0.495722,-0.315263,0.461940,-0.441342,0.396677,-0.554381,0.304381,-0.646677,0.191342,-0.711940,0.065263,-0.745722,0.000000,-0.745722,0.000000,-0.750000,-0.500000,-0.750000,
-0.500000,0.750000,0.000000,0.750000,0.000000,0.745722,0.000000,0.745722,$1*%
G04 Aperture macros list end*
%ADD10RoundRect,0.200000X-0.200000X-0.275000X0.200000X-0.275000X0.200000X0.275000X-0.200000X0.275000X0*%
%ADD11RoundRect,0.250000X0.475000X-0.337500X0.475000X0.337500X-0.475000X0.337500X-0.475000X-0.337500X0*%
%ADD12RoundRect,0.250000X-0.475000X0.337500X-0.475000X-0.337500X0.475000X-0.337500X0.475000X0.337500X0*%
%ADD13RoundRect,0.200000X-0.275000X0.200000X-0.275000X-0.200000X0.275000X-0.200000X0.275000X0.200000X0*%
%ADD14RoundRect,0.225000X-0.225000X-0.250000X0.225000X-0.250000X0.225000X0.250000X-0.225000X0.250000X0*%
%ADD15C,6.400000*%
%ADD16RoundRect,0.225000X0.250000X-0.225000X0.250000X0.225000X-0.250000X0.225000X-0.250000X-0.225000X0*%
%ADD17RoundRect,0.200000X0.200000X0.275000X-0.200000X0.275000X-0.200000X-0.275000X0.200000X-0.275000X0*%
%ADD18RoundRect,0.218750X-0.218750X-0.256250X0.218750X-0.256250X0.218750X0.256250X-0.218750X0.256250X0*%
%ADD19R,1.250000X1.000000*%
%ADD20RoundRect,0.375000X-0.375000X0.625000X-0.375000X-0.625000X0.375000X-0.625000X0.375000X0.625000X0*%
%ADD21RoundRect,0.500000X-1.400000X0.500000X-1.400000X-0.500000X1.400000X-0.500000X1.400000X0.500000X0*%
%ADD22RoundRect,0.225000X0.225000X0.250000X-0.225000X0.250000X-0.225000X-0.250000X0.225000X-0.250000X0*%
%ADD23RoundRect,0.150000X0.825000X0.150000X-0.825000X0.150000X-0.825000X-0.150000X0.825000X-0.150000X0*%
%ADD24RoundRect,0.250001X0.949999X0.949999X-0.949999X0.949999X-0.949999X-0.949999X0.949999X-0.949999X0*%
%ADD25C,2.400000*%
%ADD26O,3.000000X2.000000*%
%ADD27RoundRect,0.150000X-0.150000X0.587500X-0.150000X-0.587500X0.150000X-0.587500X0.150000X0.587500X0*%
%ADD28FreePoly0,180.000000*%
%ADD29FreePoly1,180.000000*%
%ADD30RoundRect,0.200000X0.275000X-0.200000X0.275000X0.200000X-0.275000X0.200000X-0.275000X-0.200000X0*%
%ADD31C,3.200000*%
%ADD32R,1.500000X1.500000*%
%ADD33C,1.500000*%
%ADD34RoundRect,0.102000X-1.000000X-1.500000X1.000000X-1.500000X1.000000X1.500000X-1.000000X1.500000X0*%
%ADD35RoundRect,0.250000X-1.250000X-0.550000X1.250000X-0.550000X1.250000X0.550000X-1.250000X0.550000X0*%
%ADD36RoundRect,0.250001X0.949999X-0.949999X0.949999X0.949999X-0.949999X0.949999X-0.949999X-0.949999X0*%
%ADD37C,1.000000*%
%ADD38RoundRect,0.100000X0.100000X-0.350000X0.100000X0.350000X-0.100000X0.350000X-0.100000X-0.350000X0*%
%ADD39RoundRect,0.237500X0.237500X-0.287500X0.237500X0.287500X-0.237500X0.287500X-0.237500X-0.287500X0*%
%ADD40R,1.000000X1.250000*%
%ADD41RoundRect,0.250000X-0.550000X1.250000X-0.550000X-1.250000X0.550000X-1.250000X0.550000X1.250000X0*%
%ADD42RoundRect,0.218750X0.218750X0.256250X-0.218750X0.256250X-0.218750X-0.256250X0.218750X-0.256250X0*%
%ADD43R,1.700000X1.700000*%
%ADD44C,1.700000*%
%ADD45R,2.400000X2.400000*%
%ADD46RoundRect,0.237500X-0.237500X0.287500X-0.237500X-0.287500X0.237500X-0.287500X0.237500X0.287500X0*%
%ADD47R,0.250000X1.100000*%
%ADD48RoundRect,0.150000X-0.150000X0.512500X-0.150000X-0.512500X0.150000X-0.512500X0.150000X0.512500X0*%
G04 APERTURE END LIST*
%TO.C,JP1*%
G36*
X87000000Y-78750000D02*
G01*
X86700000Y-78750000D01*
X86700000Y-77250000D01*
X87000000Y-77250000D01*
X87000000Y-78750000D01*
G37*
%TO.C,JP2*%
G36*
X86850000Y-75250000D02*
G01*
X86550000Y-75250000D01*
X86550000Y-73750000D01*
X86850000Y-73750000D01*
X86850000Y-75250000D01*
G37*
%TD*%
D10*
%TO.C,R20*%
X84925000Y-60500000D03*
X86575000Y-60500000D03*
%TD*%
D11*
%TO.C,C17*%
X85000000Y-68787500D03*
X85000000Y-66712500D03*
%TD*%
D12*
%TO.C,C16*%
X83250000Y-62212500D03*
X83250000Y-64287500D03*
%TD*%
D13*
%TO.C,R18*%
X93000000Y-90425000D03*
X93000000Y-92075000D03*
%TD*%
D14*
%TO.C,C11*%
X89225000Y-112375000D03*
X90775000Y-112375000D03*
%TD*%
D15*
%TO.C,H1*%
X101425000Y-55000000D03*
%TD*%
D16*
%TO.C,C10*%
X73000000Y-95300000D03*
X73000000Y-93750000D03*
%TD*%
D17*
%TO.C,R29*%
X81325000Y-86750000D03*
X79675000Y-86750000D03*
%TD*%
D18*
%TO.C,D24*%
X53287500Y-88500000D03*
X54862500Y-88500000D03*
%TD*%
D19*
%TO.C,SW2*%
X74750000Y-93775000D03*
X82500000Y-93775000D03*
%TD*%
D20*
%TO.C,U5*%
X81225000Y-71350000D03*
X78925000Y-71350000D03*
D21*
X78925000Y-77650000D03*
D20*
X76625000Y-71350000D03*
%TD*%
D22*
%TO.C,C13*%
X53950000Y-71000000D03*
X52400000Y-71000000D03*
%TD*%
D23*
%TO.C,U7*%
X61150000Y-74905000D03*
X61150000Y-73635000D03*
X61150000Y-72365000D03*
X61150000Y-71095000D03*
X56200000Y-71095000D03*
X56200000Y-72365000D03*
X56200000Y-73635000D03*
X56200000Y-74905000D03*
%TD*%
D24*
%TO.C,J10*%
X83000000Y-56000000D03*
D25*
X79500000Y-56000000D03*
X76000000Y-56000000D03*
%TD*%
D17*
%TO.C,R19*%
X93825000Y-60500000D03*
X92175000Y-60500000D03*
%TD*%
D22*
%TO.C,C12*%
X60175000Y-88500000D03*
X58625000Y-88500000D03*
%TD*%
D26*
%TO.C,U8*%
X81665000Y-118120000D03*
X81665000Y-115580000D03*
X81665000Y-113040000D03*
X81665000Y-110500000D03*
X81665000Y-107960000D03*
X81665000Y-105420000D03*
X81665000Y-102880000D03*
X66425000Y-102880000D03*
X66425000Y-105420000D03*
X66425000Y-107960000D03*
X66425000Y-110500000D03*
X66425000Y-113040000D03*
X66425000Y-115580000D03*
X66425000Y-118120000D03*
%TD*%
D18*
%TO.C,D25*%
X53287500Y-83750000D03*
X54862500Y-83750000D03*
%TD*%
D27*
%TO.C,D15*%
X57850000Y-77312500D03*
X55950000Y-77312500D03*
X56900000Y-79187500D03*
%TD*%
D28*
%TO.C,JP1*%
X87500000Y-78000000D03*
D29*
X86200000Y-78000000D03*
%TD*%
D30*
%TO.C,R17*%
X91250000Y-92075000D03*
X91250000Y-90425000D03*
%TD*%
D31*
%TO.C,J3*%
X49155000Y-113250000D03*
X60585000Y-113250000D03*
D32*
X50425000Y-106900000D03*
D33*
X51695000Y-104360000D03*
X52965000Y-106900000D03*
X54235000Y-104360000D03*
X55505000Y-106900000D03*
X56775000Y-104360000D03*
X58045000Y-106900000D03*
X59315000Y-104360000D03*
%TD*%
D34*
%TO.C,L1*%
X66725000Y-72500000D03*
X73125000Y-72500000D03*
%TD*%
D35*
%TO.C,C9*%
X76725000Y-82250000D03*
X81125000Y-82250000D03*
%TD*%
D15*
%TO.C,H2*%
X101424996Y-117500000D03*
%TD*%
D22*
%TO.C,C6*%
X76700000Y-62750000D03*
X75150000Y-62750000D03*
%TD*%
D36*
%TO.C,J8*%
X100500000Y-84000000D03*
D25*
X100500000Y-80500000D03*
X100500000Y-77000000D03*
%TD*%
D28*
%TO.C,JP2*%
X87350000Y-74500000D03*
D29*
X86050000Y-74500000D03*
%TD*%
D37*
%TO.C,FID2*%
X103250000Y-60000000D03*
%TD*%
D14*
%TO.C,C15*%
X88975000Y-60500000D03*
X90525000Y-60500000D03*
%TD*%
D38*
%TO.C,U1*%
X85100000Y-64350000D03*
X85750000Y-64350000D03*
X86400000Y-64350000D03*
X86400000Y-62150000D03*
X85100000Y-62150000D03*
%TD*%
D39*
%TO.C,FB2*%
X94750000Y-92250000D03*
X94750000Y-90500000D03*
%TD*%
D12*
%TO.C,C3*%
X92750000Y-78462500D03*
X92750000Y-80537500D03*
%TD*%
D11*
%TO.C,C2*%
X89750000Y-87537500D03*
X89750000Y-85462500D03*
%TD*%
D16*
%TO.C,C14*%
X63675000Y-72390000D03*
X63675000Y-70840000D03*
%TD*%
D11*
%TO.C,C4*%
X91750000Y-87537500D03*
X91750000Y-85462500D03*
%TD*%
D15*
%TO.C,H4*%
X47750000Y-74000000D03*
%TD*%
D37*
%TO.C,FID3*%
X103250000Y-112500000D03*
%TD*%
D24*
%TO.C,J6*%
X93250000Y-56000000D03*
D25*
X89750000Y-56000000D03*
%TD*%
D40*
%TO.C,SW4*%
X92500000Y-63625000D03*
X92500000Y-71375000D03*
%TD*%
D36*
%TO.C,J7*%
X100500000Y-96000000D03*
D25*
X100500000Y-92500000D03*
X100500000Y-89000000D03*
%TD*%
D36*
%TO.C,J2*%
X100500000Y-108000000D03*
D25*
X100500000Y-104500000D03*
X100500000Y-101000000D03*
%TD*%
D17*
%TO.C,R16*%
X94075000Y-112375000D03*
X92425000Y-112375000D03*
%TD*%
D14*
%TO.C,C7*%
X75150000Y-61000000D03*
X76700000Y-61000000D03*
%TD*%
D41*
%TO.C,C1*%
X66925000Y-62050000D03*
X66925000Y-66450000D03*
%TD*%
D36*
%TO.C,J9*%
X100500000Y-72000000D03*
D25*
X100500000Y-68500000D03*
X100500000Y-65000000D03*
%TD*%
D42*
%TO.C,D1*%
X71537500Y-97000000D03*
X69962500Y-97000000D03*
%TD*%
D30*
%TO.C,R44*%
X51575000Y-85325000D03*
X51575000Y-83675000D03*
%TD*%
%TO.C,R10*%
X73000000Y-98575000D03*
X73000000Y-96925000D03*
%TD*%
D35*
%TO.C,C8*%
X76725000Y-66750000D03*
X81125000Y-66750000D03*
%TD*%
D43*
%TO.C,J11*%
X86775000Y-82950000D03*
D44*
X86775000Y-85490000D03*
X86775000Y-88030000D03*
X86775000Y-90570000D03*
%TD*%
D45*
%TO.C,J5*%
X89750000Y-116875000D03*
D25*
X93250000Y-116875000D03*
%TD*%
D23*
%TO.C,U6*%
X63625000Y-86655000D03*
X63625000Y-85385000D03*
X63625000Y-84115000D03*
X63625000Y-82845000D03*
X58675000Y-82845000D03*
X58675000Y-84115000D03*
X58675000Y-85385000D03*
X58675000Y-86655000D03*
%TD*%
D45*
%TO.C,J1*%
X69750000Y-56117500D03*
D25*
X66250000Y-56117500D03*
%TD*%
D13*
%TO.C,R43*%
X51575000Y-86887500D03*
X51575000Y-88537500D03*
%TD*%
D46*
%TO.C,FB1*%
X94750000Y-80625000D03*
X94750000Y-82375000D03*
%TD*%
D10*
%TO.C,R15*%
X69925000Y-93775000D03*
X71575000Y-93775000D03*
%TD*%
D31*
%TO.C,J4*%
X60477500Y-59000000D03*
X49047500Y-59000000D03*
D32*
X59207500Y-65350000D03*
D33*
X57937500Y-67890000D03*
X56667500Y-65350000D03*
X55397500Y-67890000D03*
X54127500Y-65350000D03*
X52857500Y-67890000D03*
X51587500Y-65350000D03*
X50317500Y-67890000D03*
%TD*%
D47*
%TO.C,U2*%
X93750000Y-88650000D03*
X94250000Y-88650000D03*
X94750000Y-88650000D03*
X95250000Y-88650000D03*
X95750000Y-88650000D03*
X95750000Y-84350000D03*
X95250000Y-84350000D03*
X94750000Y-84350000D03*
X94250000Y-84350000D03*
X93750000Y-84350000D03*
%TD*%
D17*
%TO.C,R30*%
X81325000Y-88500000D03*
X79675000Y-88500000D03*
%TD*%
D14*
%TO.C,C5*%
X71150000Y-65500000D03*
X72700000Y-65500000D03*
%TD*%
D40*
%TO.C,SW3*%
X91500000Y-110375000D03*
X91500000Y-102625000D03*
%TD*%
D15*
%TO.C,H3*%
X47750000Y-98250000D03*
%TD*%
D37*
%TO.C,FID1*%
X64000000Y-78500000D03*
%TD*%
D48*
%TO.C,U4*%
X72875000Y-61112500D03*
X71925000Y-61112500D03*
X70975000Y-61112500D03*
X70975000Y-63387500D03*
X71925000Y-63387500D03*
X72875000Y-63387500D03*
%TD*%
M02*
