%TF.GenerationSoftware,KiCad,Pcbnew,9.0.1*%
%TF.CreationDate,2025-04-25T16:38:00-04:00*%
%TF.ProjectId,pcb,7063622e-6b69-4636-9164-5f7063625858,1.0*%
%TF.SameCoordinates,Original*%
%TF.FileFunction,Soldermask,Top*%
%TF.FilePolarity,Negative*%
%FSLAX46Y46*%
G04 Gerber Fmt 4.6, Leading zero omitted, Abs format (unit mm)*
G04 Created by KiCad (PCBNEW 9.0.1) date 2025-04-25 16:38:00*
%MOMM*%
%LPD*%
G01*
G04 APERTURE LIST*
G04 Aperture macros list*
%AMRoundRect*
0 Rectangle with rounded corners*
0 $1 Rounding radius*
0 $2 $3 $4 $5 $6 $7 $8 $9 X,Y pos of 4 corners*
0 Add a 4 corners polygon primitive as box body*
4,1,4,$2,$3,$4,$5,$6,$7,$8,$9,$2,$3,0*
0 Add four circle primitives for the rounded corners*
1,1,$1+$1,$2,$3*
1,1,$1+$1,$4,$5*
1,1,$1+$1,$6,$7*
1,1,$1+$1,$8,$9*
0 Add four rect primitives between the rounded corners*
20,1,$1+$1,$2,$3,$4,$5,0*
20,1,$1+$1,$4,$5,$6,$7,0*
20,1,$1+$1,$6,$7,$8,$9,0*
20,1,$1+$1,$8,$9,$2,$3,0*%
%AMFreePoly0*
4,1,23,0.500000,-0.750000,0.000000,-0.750000,0.000000,-0.745722,-0.065263,-0.745722,-0.191342,-0.711940,-0.304381,-0.646677,-0.396677,-0.554381,-0.461940,-0.441342,-0.495722,-0.315263,-0.495722,-0.250000,-0.500000,-0.250000,-0.500000,0.250000,-0.495722,0.250000,-0.495722,0.315263,-0.461940,0.441342,-0.396677,0.554381,-0.304381,0.646677,-0.191342,0.711940,-0.065263,0.745722,0.000000,0.745722,
0.000000,0.750000,0.500000,0.750000,0.500000,-0.750000,0.500000,-0.750000,$1*%
%AMFreePoly1*
4,1,23,0.000000,0.745722,0.065263,0.745722,0.191342,0.711940,0.304381,0.646677,0.396677,0.554381,0.461940,0.441342,0.495722,0.315263,0.495722,0.250000,0.500000,0.250000,0.500000,-0.250000,0.495722,-0.250000,0.495722,-0.315263,0.461940,-0.441342,0.396677,-0.554381,0.304381,-0.646677,0.191342,-0.711940,0.065263,-0.745722,0.000000,-0.745722,0.000000,-0.750000,-0.500000,-0.750000,
-0.500000,0.750000,0.000000,0.750000,0.000000,0.745722,0.000000,0.745722,$1*%
G04 Aperture macros list end*
%ADD10RoundRect,0.375000X-0.375000X0.625000X-0.375000X-0.625000X0.375000X-0.625000X0.375000X0.625000X0*%
%ADD11RoundRect,0.500000X-1.400000X0.500000X-1.400000X-0.500000X1.400000X-0.500000X1.400000X0.500000X0*%
%ADD12C,2.400000*%
%ADD13RoundRect,0.250001X0.949999X-0.949999X0.949999X0.949999X-0.949999X0.949999X-0.949999X-0.949999X0*%
%ADD14C,6.400000*%
%ADD15C,1.000000*%
%ADD16C,1.500000*%
%ADD17R,1.500000X1.500000*%
%ADD18C,3.200000*%
%ADD19FreePoly0,180.000000*%
%ADD20FreePoly1,180.000000*%
%ADD21R,1.700000X1.700000*%
%ADD22C,1.700000*%
%ADD23R,0.250000X1.100000*%
%ADD24RoundRect,0.100000X0.100000X-0.350000X0.100000X0.350000X-0.100000X0.350000X-0.100000X-0.350000X0*%
%ADD25R,1.000000X1.250000*%
%ADD26RoundRect,0.200000X0.200000X0.275000X-0.200000X0.275000X-0.200000X-0.275000X0.200000X-0.275000X0*%
%ADD27RoundRect,0.200000X-0.275000X0.200000X-0.275000X-0.200000X0.275000X-0.200000X0.275000X0.200000X0*%
%ADD28RoundRect,0.200000X0.275000X-0.200000X0.275000X0.200000X-0.275000X0.200000X-0.275000X-0.200000X0*%
%ADD29RoundRect,0.250001X0.949999X0.949999X-0.949999X0.949999X-0.949999X-0.949999X0.949999X-0.949999X0*%
%ADD30RoundRect,0.237500X0.237500X-0.287500X0.237500X0.287500X-0.237500X0.287500X-0.237500X-0.287500X0*%
%ADD31RoundRect,0.237500X-0.237500X0.287500X-0.237500X-0.287500X0.237500X-0.287500X0.237500X0.287500X0*%
%ADD32RoundRect,0.225000X-0.225000X-0.250000X0.225000X-0.250000X0.225000X0.250000X-0.225000X0.250000X0*%
%ADD33RoundRect,0.250000X0.475000X-0.337500X0.475000X0.337500X-0.475000X0.337500X-0.475000X-0.337500X0*%
%ADD34RoundRect,0.250000X-0.475000X0.337500X-0.475000X-0.337500X0.475000X-0.337500X0.475000X0.337500X0*%
%ADD35RoundRect,0.225000X0.250000X-0.225000X0.250000X0.225000X-0.250000X0.225000X-0.250000X-0.225000X0*%
%ADD36RoundRect,0.218750X-0.218750X-0.256250X0.218750X-0.256250X0.218750X0.256250X-0.218750X0.256250X0*%
%ADD37R,1.250000X1.000000*%
%ADD38RoundRect,0.225000X0.225000X0.250000X-0.225000X0.250000X-0.225000X-0.250000X0.225000X-0.250000X0*%
%ADD39RoundRect,0.150000X0.825000X0.150000X-0.825000X0.150000X-0.825000X-0.150000X0.825000X-0.150000X0*%
%ADD40O,3.000000X2.000000*%
%ADD41RoundRect,0.150000X-0.150000X0.587500X-0.150000X-0.587500X0.150000X-0.587500X0.150000X0.587500X0*%
%ADD42RoundRect,0.102000X-1.000000X-1.500000X1.000000X-1.500000X1.000000X1.500000X-1.000000X1.500000X0*%
%ADD43RoundRect,0.250000X-1.250000X-0.550000X1.250000X-0.550000X1.250000X0.550000X-1.250000X0.550000X0*%
%ADD44RoundRect,0.250000X-0.550000X1.250000X-0.550000X-1.250000X0.550000X-1.250000X0.550000X1.250000X0*%
%ADD45RoundRect,0.218750X0.218750X0.256250X-0.218750X0.256250X-0.218750X-0.256250X0.218750X-0.256250X0*%
%ADD46R,2.400000X2.400000*%
%ADD47RoundRect,0.200000X-0.200000X-0.275000X0.200000X-0.275000X0.200000X0.275000X-0.200000X0.275000X0*%
%ADD48RoundRect,0.150000X-0.150000X0.512500X-0.150000X-0.512500X0.150000X-0.512500X0.150000X0.512500X0*%
G04 APERTURE END LIST*
%TO.C,JP2*%
G36*
X122600000Y-99750000D02*
G01*
X122300000Y-99750000D01*
X122300000Y-98250000D01*
X122600000Y-98250000D01*
X122600000Y-99750000D01*
G37*
%TO.C,JP1*%
G36*
X122750000Y-103250000D02*
G01*
X122450000Y-103250000D01*
X122450000Y-101750000D01*
X122750000Y-101750000D01*
X122750000Y-103250000D01*
G37*
%TD*%
D10*
%TO.C,U5*%
X112375000Y-95850000D03*
D11*
X114675000Y-102150000D03*
D10*
X114675000Y-95850000D03*
X116975000Y-95850000D03*
%TD*%
D12*
%TO.C,J7*%
X136250000Y-113500000D03*
X136250000Y-117000000D03*
D13*
X136250000Y-120500000D03*
%TD*%
%TO.C,J2*%
X136250000Y-132500000D03*
D12*
X136250000Y-129000000D03*
X136250000Y-125500000D03*
%TD*%
D14*
%TO.C,H1*%
X137175000Y-79500000D03*
%TD*%
%TO.C,H2*%
X137174996Y-142000000D03*
%TD*%
D15*
%TO.C,FID2*%
X139000000Y-84500000D03*
%TD*%
%TO.C,FID3*%
X139000000Y-137000000D03*
%TD*%
D16*
%TO.C,J4*%
X86067500Y-92390000D03*
X87337500Y-89850000D03*
X88607500Y-92390000D03*
X89877500Y-89850000D03*
X91147500Y-92390000D03*
X92417500Y-89850000D03*
X93687500Y-92390000D03*
D17*
X94957500Y-89850000D03*
D18*
X84797500Y-83500000D03*
X96227500Y-83500000D03*
%TD*%
D19*
%TO.C,JP2*%
X123100000Y-99000000D03*
D20*
X121800000Y-99000000D03*
%TD*%
D19*
%TO.C,JP1*%
X123250000Y-102500000D03*
D20*
X121950000Y-102500000D03*
%TD*%
D21*
%TO.C,J11*%
X122525000Y-107450000D03*
D22*
X122525000Y-109990000D03*
X122525000Y-112530000D03*
X122525000Y-115070000D03*
%TD*%
D23*
%TO.C,U2*%
X129500000Y-113150000D03*
X130000000Y-113150000D03*
X130500000Y-113150000D03*
X131000000Y-113150000D03*
X131500000Y-113150000D03*
X131500000Y-108850000D03*
X131000000Y-108850000D03*
X130500000Y-108850000D03*
X130000000Y-108850000D03*
X129500000Y-108850000D03*
%TD*%
D24*
%TO.C,U1*%
X118600000Y-87100000D03*
X119250000Y-87100000D03*
X119900000Y-87100000D03*
X119900000Y-84900000D03*
X118600000Y-84900000D03*
%TD*%
D25*
%TO.C,SW4*%
X127250000Y-86625000D03*
X127250000Y-94375000D03*
%TD*%
D26*
%TO.C,R19*%
X129575000Y-85000000D03*
X127925000Y-85000000D03*
%TD*%
D27*
%TO.C,R18*%
X128750000Y-114925000D03*
X128750000Y-116575000D03*
%TD*%
D28*
%TO.C,R17*%
X127000000Y-116575000D03*
X127000000Y-114925000D03*
%TD*%
D29*
%TO.C,J10*%
X118750000Y-80500000D03*
D12*
X115250000Y-80500000D03*
X111750000Y-80500000D03*
%TD*%
D13*
%TO.C,J9*%
X136250000Y-96500000D03*
D12*
X136250000Y-93000000D03*
X136250000Y-89500000D03*
%TD*%
D13*
%TO.C,J8*%
X136250000Y-108500000D03*
D12*
X136250000Y-105000000D03*
X136250000Y-101500000D03*
%TD*%
D29*
%TO.C,J6*%
X129000000Y-80500000D03*
D12*
X125500000Y-80500000D03*
%TD*%
D30*
%TO.C,FB2*%
X130500000Y-116750000D03*
X130500000Y-115000000D03*
%TD*%
D31*
%TO.C,FB1*%
X130500000Y-105125000D03*
X130500000Y-106875000D03*
%TD*%
D32*
%TO.C,C15*%
X124725000Y-85000000D03*
X126275000Y-85000000D03*
%TD*%
D33*
%TO.C,C4*%
X127500000Y-112037500D03*
X127500000Y-109962500D03*
%TD*%
D34*
%TO.C,C3*%
X128500000Y-102962500D03*
X128500000Y-105037500D03*
%TD*%
D33*
%TO.C,C2*%
X125500000Y-112037500D03*
X125500000Y-109962500D03*
%TD*%
D32*
%TO.C,C11*%
X124975000Y-136875000D03*
X126525000Y-136875000D03*
%TD*%
D35*
%TO.C,C10*%
X108750000Y-119800000D03*
X108750000Y-118250000D03*
%TD*%
D26*
%TO.C,R29*%
X117075000Y-111250000D03*
X115425000Y-111250000D03*
%TD*%
D36*
%TO.C,D24*%
X89037500Y-113000000D03*
X90612500Y-113000000D03*
%TD*%
D37*
%TO.C,SW2*%
X110500000Y-118275000D03*
X118250000Y-118275000D03*
%TD*%
D38*
%TO.C,C13*%
X89700000Y-95500000D03*
X88150000Y-95500000D03*
%TD*%
D39*
%TO.C,U7*%
X96900000Y-99405000D03*
X96900000Y-98135000D03*
X96900000Y-96865000D03*
X96900000Y-95595000D03*
X91950000Y-95595000D03*
X91950000Y-96865000D03*
X91950000Y-98135000D03*
X91950000Y-99405000D03*
%TD*%
D38*
%TO.C,C12*%
X95925000Y-113000000D03*
X94375000Y-113000000D03*
%TD*%
D40*
%TO.C,U8*%
X117415000Y-142620000D03*
X117415000Y-140080000D03*
X117415000Y-137540000D03*
X117415000Y-135000000D03*
X117415000Y-132460000D03*
X117415000Y-129920000D03*
X117415000Y-127380000D03*
X102175000Y-127380000D03*
X102175000Y-129920000D03*
X102175000Y-132460000D03*
X102175000Y-135000000D03*
X102175000Y-137540000D03*
X102175000Y-140080000D03*
X102175000Y-142620000D03*
%TD*%
D36*
%TO.C,D25*%
X89037500Y-108250000D03*
X90612500Y-108250000D03*
%TD*%
D41*
%TO.C,D15*%
X93600000Y-101812500D03*
X91700000Y-101812500D03*
X92650000Y-103687500D03*
%TD*%
D18*
%TO.C,J3*%
X84905000Y-137750000D03*
X96335000Y-137750000D03*
D17*
X86175000Y-131400000D03*
D16*
X87445000Y-128860000D03*
X88715000Y-131400000D03*
X89985000Y-128860000D03*
X91255000Y-131400000D03*
X92525000Y-128860000D03*
X93795000Y-131400000D03*
X95065000Y-128860000D03*
%TD*%
D42*
%TO.C,L1*%
X102475000Y-97000000D03*
X108875000Y-97000000D03*
%TD*%
D43*
%TO.C,C9*%
X112475000Y-106750000D03*
X116875000Y-106750000D03*
%TD*%
D38*
%TO.C,C6*%
X112450000Y-87250000D03*
X110900000Y-87250000D03*
%TD*%
D35*
%TO.C,C14*%
X99425000Y-96890000D03*
X99425000Y-95340000D03*
%TD*%
D14*
%TO.C,H4*%
X83500000Y-98500000D03*
%TD*%
D26*
%TO.C,R16*%
X129825000Y-136875000D03*
X128175000Y-136875000D03*
%TD*%
D32*
%TO.C,C7*%
X110900000Y-85500000D03*
X112450000Y-85500000D03*
%TD*%
D44*
%TO.C,C1*%
X102675000Y-86550000D03*
X102675000Y-90950000D03*
%TD*%
D45*
%TO.C,D1*%
X107287500Y-121500000D03*
X105712500Y-121500000D03*
%TD*%
D28*
%TO.C,R44*%
X87325000Y-109825000D03*
X87325000Y-108175000D03*
%TD*%
%TO.C,R10*%
X108750000Y-123075000D03*
X108750000Y-121425000D03*
%TD*%
D43*
%TO.C,C8*%
X112475000Y-91250000D03*
X116875000Y-91250000D03*
%TD*%
D46*
%TO.C,J5*%
X125500000Y-141375000D03*
D12*
X129000000Y-141375000D03*
%TD*%
D39*
%TO.C,U6*%
X99375000Y-111155000D03*
X99375000Y-109885000D03*
X99375000Y-108615000D03*
X99375000Y-107345000D03*
X94425000Y-107345000D03*
X94425000Y-108615000D03*
X94425000Y-109885000D03*
X94425000Y-111155000D03*
%TD*%
D46*
%TO.C,J1*%
X105500000Y-80617500D03*
D12*
X102000000Y-80617500D03*
%TD*%
D27*
%TO.C,R43*%
X87325000Y-111387500D03*
X87325000Y-113037500D03*
%TD*%
D47*
%TO.C,R15*%
X105675000Y-118275000D03*
X107325000Y-118275000D03*
%TD*%
D26*
%TO.C,R30*%
X117075000Y-113000000D03*
X115425000Y-113000000D03*
%TD*%
D32*
%TO.C,C5*%
X106900000Y-90000000D03*
X108450000Y-90000000D03*
%TD*%
D25*
%TO.C,SW3*%
X127250000Y-134875000D03*
X127250000Y-127125000D03*
%TD*%
D14*
%TO.C,H3*%
X83500000Y-122750000D03*
%TD*%
D15*
%TO.C,FID1*%
X99750000Y-103000000D03*
%TD*%
D48*
%TO.C,U4*%
X108625000Y-85612500D03*
X107675000Y-85612500D03*
X106725000Y-85612500D03*
X106725000Y-87887500D03*
X107675000Y-87887500D03*
X108625000Y-87887500D03*
%TD*%
M02*
