%TF.GenerationSoftware,KiCad,Pcbnew,9.0.1*%
%TF.CreationDate,2025-04-25T16:38:00-04:00*%
%TF.ProjectId,pcb,7063622e-6b69-4636-9164-5f7063625858,1.0*%
%TF.SameCoordinates,Original*%
%TF.FileFunction,Copper,L2,Bot*%
%TF.FilePolarity,Positive*%
%FSLAX46Y46*%
G04 Gerber Fmt 4.6, Leading zero omitted, Abs format (unit mm)*
G04 Created by KiCad (PCBNEW 9.0.1) date 2025-04-25 16:38:00*
%MOMM*%
%LPD*%
G01*
G04 APERTURE LIST*
G04 Aperture macros list*
%AMRoundRect*
0 Rectangle with rounded corners*
0 $1 Rounding radius*
0 $2 $3 $4 $5 $6 $7 $8 $9 X,Y pos of 4 corners*
0 Add a 4 corners polygon primitive as box body*
4,1,4,$2,$3,$4,$5,$6,$7,$8,$9,$2,$3,0*
0 Add four circle primitives for the rounded corners*
1,1,$1+$1,$2,$3*
1,1,$1+$1,$4,$5*
1,1,$1+$1,$6,$7*
1,1,$1+$1,$8,$9*
0 Add four rect primitives between the rounded corners*
20,1,$1+$1,$2,$3,$4,$5,0*
20,1,$1+$1,$4,$5,$6,$7,0*
20,1,$1+$1,$6,$7,$8,$9,0*
20,1,$1+$1,$8,$9,$2,$3,0*%
G04 Aperture macros list end*
%TA.AperFunction,ComponentPad*%
%ADD10C,2.400000*%
%TD*%
%TA.AperFunction,ComponentPad*%
%ADD11RoundRect,0.250001X0.949999X-0.949999X0.949999X0.949999X-0.949999X0.949999X-0.949999X-0.949999X0*%
%TD*%
%TA.AperFunction,ComponentPad*%
%ADD12C,6.400000*%
%TD*%
%TA.AperFunction,ComponentPad*%
%ADD13C,1.500000*%
%TD*%
%TA.AperFunction,ComponentPad*%
%ADD14R,1.500000X1.500000*%
%TD*%
%TA.AperFunction,ComponentPad*%
%ADD15R,1.700000X1.700000*%
%TD*%
%TA.AperFunction,ComponentPad*%
%ADD16C,1.700000*%
%TD*%
%TA.AperFunction,ComponentPad*%
%ADD17RoundRect,0.250001X0.949999X0.949999X-0.949999X0.949999X-0.949999X-0.949999X0.949999X-0.949999X0*%
%TD*%
%TA.AperFunction,ComponentPad*%
%ADD18O,3.000000X2.000000*%
%TD*%
%TA.AperFunction,ComponentPad*%
%ADD19R,2.400000X2.400000*%
%TD*%
%TA.AperFunction,ViaPad*%
%ADD20C,0.600000*%
%TD*%
%TA.AperFunction,Conductor*%
%ADD21C,0.200000*%
%TD*%
%TA.AperFunction,Conductor*%
%ADD22C,0.500000*%
%TD*%
%TA.AperFunction,Conductor*%
%ADD23C,2.000000*%
%TD*%
%TA.AperFunction,Conductor*%
%ADD24C,0.750000*%
%TD*%
G04 APERTURE END LIST*
D10*
%TO.P,J7,3,Pin_3*%
%TO.N,POT1*%
X136250000Y-113500000D03*
%TO.P,J7,2,Pin_2*%
%TO.N,+3V3*%
X136250000Y-117000000D03*
D11*
%TO.P,J7,1,Pin_1*%
%TO.N,GND*%
X136250000Y-120500000D03*
%TD*%
%TO.P,J2,1,Pin_1*%
%TO.N,GND*%
X136250000Y-132500000D03*
D10*
%TO.P,J2,2,Pin_2*%
%TO.N,+3V3*%
X136250000Y-129000000D03*
%TO.P,J2,3,Pin_3*%
%TO.N,POT0*%
X136250000Y-125500000D03*
%TD*%
D12*
%TO.P,H1,1*%
%TO.N,N/C*%
X137175000Y-79500000D03*
%TD*%
%TO.P,H2,1*%
%TO.N,N/C*%
X137174996Y-142000000D03*
%TD*%
D13*
%TO.P,J4,8*%
%TO.N,VDDA*%
X86067500Y-92390000D03*
%TO.P,J4,7*%
%TO.N,GND*%
X87337500Y-89850000D03*
%TO.P,J4,6*%
X88607500Y-92390000D03*
%TO.P,J4,5*%
%TO.N,ALT-B*%
X89877500Y-89850000D03*
%TO.P,J4,4*%
%TO.N,ALT-A*%
X91147500Y-92390000D03*
%TO.P,J4,3*%
%TO.N,GND*%
X92417500Y-89850000D03*
%TO.P,J4,2*%
%TO.N,CAN-L*%
X93687500Y-92390000D03*
D14*
%TO.P,J4,1*%
%TO.N,CAN-H*%
X94957500Y-89850000D03*
%TD*%
D15*
%TO.P,J11,1,Pin_1*%
%TO.N,GND*%
X122525000Y-107450000D03*
D16*
%TO.P,J11,2,Pin_2*%
%TO.N,Net-(J11-Pin_2)*%
X122525000Y-109990000D03*
%TO.P,J11,3,Pin_3*%
%TO.N,I2C_SCL*%
X122525000Y-112530000D03*
%TO.P,J11,4,Pin_4*%
%TO.N,I2C_SDA*%
X122525000Y-115070000D03*
%TD*%
D17*
%TO.P,J10,1,Pin_1*%
%TO.N,NEOPIXEL_DOUT*%
X118750000Y-80500000D03*
D10*
%TO.P,J10,2,Pin_2*%
%TO.N,+12v*%
X115250000Y-80500000D03*
%TO.P,J10,3,Pin_3*%
%TO.N,GND*%
X111750000Y-80500000D03*
%TD*%
D11*
%TO.P,J9,1,Pin_1*%
%TO.N,GND*%
X136250000Y-96500000D03*
D10*
%TO.P,J9,2,Pin_2*%
%TO.N,+3V3*%
X136250000Y-93000000D03*
%TO.P,J9,3,Pin_3*%
%TO.N,POT3*%
X136250000Y-89500000D03*
%TD*%
D11*
%TO.P,J8,1,Pin_1*%
%TO.N,GND*%
X136250000Y-108500000D03*
D10*
%TO.P,J8,2,Pin_2*%
%TO.N,+3V3*%
X136250000Y-105000000D03*
%TO.P,J8,3,Pin_3*%
%TO.N,POT2*%
X136250000Y-101500000D03*
%TD*%
D17*
%TO.P,J6,1,Pin_1*%
%TO.N,GND*%
X129000000Y-80500000D03*
D10*
%TO.P,J6,2,Pin_2*%
%TO.N,USER_BTN_1*%
X125500000Y-80500000D03*
%TD*%
D18*
%TO.P,U8,1,PA02_A0_D0*%
%TO.N,WIFI_LED*%
X117415000Y-142620000D03*
%TO.P,U8,2,PA4_A1_D1*%
%TO.N,USER_BTN_0*%
X117415000Y-140080000D03*
%TO.P,U8,3,PA10_A2_D2*%
%TO.N,FACTORY_RESET*%
X117415000Y-137540000D03*
%TO.P,U8,4,PA11_A3_D3*%
%TO.N,USER_BTN_1*%
X117415000Y-135000000D03*
%TO.P,U8,5,PA8_A4_D4_SDA*%
%TO.N,I2C_SDA*%
X117415000Y-132460000D03*
%TO.P,U8,6,PA9_A5_D5_SCL*%
%TO.N,I2C_SCL*%
X117415000Y-129920000D03*
%TO.P,U8,7,PB08_A6_TX*%
%TO.N,unconnected-(U8-PB08_A6_TX-Pad7)*%
X117415000Y-127380000D03*
%TO.P,U8,8,PB09_D7_RX*%
%TO.N,unconnected-(U8-PB09_D7_RX-Pad8)*%
X102175000Y-127380000D03*
%TO.P,U8,9,PA7_A8_D8_SCK*%
%TO.N,CAN-RX*%
X102175000Y-129920000D03*
%TO.P,U8,10,PA5_A9_D9_MISO*%
%TO.N,CAN-TX*%
X102175000Y-132460000D03*
%TO.P,U8,11,PA6_A10_D10_MOSI*%
%TO.N,DOUT_3V*%
X102175000Y-135000000D03*
%TO.P,U8,12,3V3*%
%TO.N,+3V3*%
X102175000Y-137540000D03*
%TO.P,U8,13,GND*%
%TO.N,GND*%
X102175000Y-140080000D03*
%TO.P,U8,14,5V*%
%TO.N,unconnected-(U8-5V-Pad14)*%
X102175000Y-142620000D03*
%TD*%
D14*
%TO.P,J3,1*%
%TO.N,CAN-H*%
X86175000Y-131400000D03*
D13*
%TO.P,J3,2*%
%TO.N,CAN-L*%
X87445000Y-128860000D03*
%TO.P,J3,3*%
%TO.N,GND*%
X88715000Y-131400000D03*
%TO.P,J3,4*%
%TO.N,ALT-A*%
X89985000Y-128860000D03*
%TO.P,J3,5*%
%TO.N,ALT-B*%
X91255000Y-131400000D03*
%TO.P,J3,6*%
%TO.N,GND*%
X92525000Y-128860000D03*
%TO.P,J3,7*%
X93795000Y-131400000D03*
%TO.P,J3,8*%
%TO.N,VDDA*%
X95065000Y-128860000D03*
%TD*%
D12*
%TO.P,H4,1*%
%TO.N,N/C*%
X83500000Y-98500000D03*
%TD*%
D19*
%TO.P,J5,1,Pin_1*%
%TO.N,GND*%
X125500000Y-141375000D03*
D10*
%TO.P,J5,2,Pin_2*%
%TO.N,USER_BTN_0*%
X129000000Y-141375000D03*
%TD*%
D19*
%TO.P,J1,1,Pin_1*%
%TO.N,GND*%
X105500000Y-80617500D03*
D10*
%TO.P,J1,2,Pin_2*%
%TO.N,+12v*%
X102000000Y-80617500D03*
%TD*%
D12*
%TO.P,H3,1*%
%TO.N,N/C*%
X83500000Y-122750000D03*
%TD*%
D20*
%TO.N,GND*%
X115000000Y-139250000D03*
X112750000Y-137000000D03*
X110250000Y-134500000D03*
X110000000Y-125750000D03*
X110000000Y-120000000D03*
X107000000Y-120000000D03*
X132250000Y-117750000D03*
X126250000Y-117750000D03*
X130500000Y-117750000D03*
X130000000Y-101500000D03*
X140750000Y-123000000D03*
X140750000Y-99000000D03*
X140750000Y-111000000D03*
X134500000Y-138750000D03*
X115000000Y-86250000D03*
X116500000Y-82750000D03*
X115750000Y-89750000D03*
X142500000Y-84250000D03*
X108500000Y-74500000D03*
X122250000Y-74500000D03*
X131250000Y-74500000D03*
X137250000Y-74500000D03*
X137000000Y-85000000D03*
X140000000Y-87000000D03*
X141750000Y-78750000D03*
X129250000Y-77500000D03*
X133750000Y-82250000D03*
X127000000Y-82500000D03*
X133500000Y-77500000D03*
X122250000Y-86000000D03*
X122250000Y-80250000D03*
X109000000Y-80250000D03*
X124750000Y-77500000D03*
X118750000Y-77500000D03*
X113000000Y-77500000D03*
X108000000Y-77500000D03*
X103250000Y-77500000D03*
X95750000Y-74750000D03*
X85500000Y-74750000D03*
X90750000Y-74750000D03*
X95500000Y-80250000D03*
X85500000Y-80250000D03*
X83250000Y-77500000D03*
X97750000Y-77500000D03*
X93000000Y-77500000D03*
X88250000Y-77500000D03*
X90750000Y-80250000D03*
X93000000Y-83500000D03*
X88250000Y-83500000D03*
X96750000Y-94250000D03*
X96750000Y-90750000D03*
X99500000Y-93750000D03*
X134000000Y-89250000D03*
X133750000Y-86250000D03*
X131000000Y-90500000D03*
X130000000Y-86250000D03*
X127000000Y-88500000D03*
X123750000Y-90250000D03*
X127000000Y-93000000D03*
X130000000Y-96000000D03*
X127000000Y-99000000D03*
X124000000Y-96000000D03*
X121000000Y-93250000D03*
X119500000Y-97250000D03*
X121250000Y-100750000D03*
X126500000Y-105000000D03*
X142250000Y-140500000D03*
X142250000Y-135250000D03*
X139750000Y-132000000D03*
X136000000Y-135250000D03*
X132000000Y-141500000D03*
X132000000Y-136000000D03*
X137250000Y-147000000D03*
X131250000Y-147000000D03*
X123250000Y-147000000D03*
X127250000Y-139500000D03*
X123500000Y-138250000D03*
X123250000Y-142500000D03*
X132000000Y-131500000D03*
X128500000Y-133000000D03*
X121000000Y-132500000D03*
X124750000Y-131000000D03*
X122000000Y-127500000D03*
X128000000Y-128750000D03*
X125250000Y-125500000D03*
X122000000Y-122750000D03*
X129000000Y-120500000D03*
X132000000Y-123000000D03*
X132000000Y-127250000D03*
X128750000Y-124250000D03*
X123500000Y-118000000D03*
X126000000Y-121500000D03*
X124500000Y-115250000D03*
X126500000Y-113500000D03*
X119500000Y-105000000D03*
X123250000Y-105000000D03*
X118500000Y-114000000D03*
X118750000Y-120250000D03*
X116750000Y-122250000D03*
X116750000Y-117750000D03*
X110000000Y-116250000D03*
X112000000Y-118000000D03*
X112000000Y-122250000D03*
X112250000Y-132000000D03*
X114500000Y-134000000D03*
X111750000Y-128500000D03*
X113500000Y-130250000D03*
X113500000Y-126500000D03*
X80500000Y-82000000D03*
X80500000Y-88000000D03*
X83750000Y-144250000D03*
X80500000Y-143000000D03*
X97750000Y-144500000D03*
X92750000Y-144500000D03*
X88500000Y-144250000D03*
X80500000Y-138250000D03*
X80500000Y-132500000D03*
X107000000Y-113000000D03*
%TO.N,USER_BTN_1*%
X122250000Y-88750000D03*
%TO.N,POT1*%
X132500000Y-114500000D03*
%TO.N,POT0*%
X131291267Y-114219303D03*
%TO.N,POT2*%
X132500000Y-107250000D03*
%TO.N,POT3*%
X131500000Y-107250000D03*
%TO.N,I2C_SCL*%
X126500000Y-108750000D03*
%TO.N,I2C_SDA*%
X129000000Y-107750000D03*
%TO.N,DOUT_3V*%
X119250000Y-88000000D03*
%TO.N,VDDA*%
X86250000Y-87000000D03*
%TO.N,GND*%
X114000000Y-145500000D03*
X92925000Y-125000000D03*
X107000000Y-143000000D03*
X91000000Y-126750000D03*
X86250000Y-141000000D03*
X117175000Y-98750000D03*
X104425000Y-95750000D03*
X105500000Y-108250000D03*
X97925000Y-106000000D03*
X100000000Y-133750000D03*
X104250000Y-111250000D03*
X97925000Y-103000000D03*
X108175000Y-104750000D03*
X120000000Y-136500000D03*
X104500000Y-140500000D03*
X95925000Y-118250000D03*
X100175000Y-104750000D03*
X109500000Y-140500000D03*
X99500000Y-119250000D03*
X98675000Y-131500000D03*
X80500000Y-126750000D03*
X80500000Y-119000000D03*
X104000000Y-105000000D03*
X104175000Y-101500000D03*
X108175000Y-108250000D03*
X94750000Y-135250000D03*
X96425000Y-111250000D03*
X88500000Y-138000000D03*
X98425000Y-127750000D03*
X117675000Y-103250000D03*
X105425000Y-97500000D03*
X98425000Y-98250000D03*
X94750000Y-141000000D03*
X106250000Y-103250000D03*
X86000000Y-118500000D03*
X86000000Y-95000000D03*
X118250000Y-110000000D03*
X80500000Y-102250000D03*
X90750000Y-141000000D03*
X95925000Y-123000000D03*
X95750000Y-132000000D03*
X119175000Y-90000000D03*
X86000000Y-102250000D03*
X111500000Y-143000000D03*
X91925000Y-100250000D03*
X90750000Y-135250000D03*
X117500000Y-125000000D03*
X105425000Y-93250000D03*
X85750000Y-109250000D03*
X107000000Y-132500000D03*
X107000000Y-127750000D03*
X92750000Y-138000000D03*
X120000000Y-140500000D03*
X107000000Y-137500000D03*
X104000000Y-118500000D03*
X99500000Y-115750000D03*
X104425000Y-99000000D03*
X99925000Y-101500000D03*
X80500000Y-109250000D03*
X80500000Y-95000000D03*
X92500000Y-105500000D03*
X107000000Y-124500000D03*
X95925000Y-114500000D03*
X108175000Y-100750000D03*
X105000000Y-145500000D03*
X120000000Y-144750000D03*
X86250000Y-135250000D03*
X109500000Y-145500000D03*
X104250000Y-114500000D03*
X100750000Y-145500000D03*
%TO.N,Net-(U6A--)*%
X99400000Y-112500000D03*
X89650000Y-111250000D03*
%TO.N,Net-(U6B--)*%
X89650000Y-109750000D03*
X96400000Y-109750000D03*
%TD*%
D21*
%TO.N,POT0*%
X131250000Y-120500000D02*
X136250000Y-125500000D01*
X131250000Y-114260570D02*
X131250000Y-120500000D01*
X131291267Y-114219303D02*
X131250000Y-114260570D01*
%TO.N,DOUT_3V*%
X105825000Y-132425000D02*
X105750000Y-132425000D01*
X113500000Y-124750000D02*
X105825000Y-132425000D01*
X113500000Y-93750000D02*
X113500000Y-124750000D01*
X119250000Y-88000000D02*
X113500000Y-93750000D01*
X105750000Y-132425000D02*
X103175000Y-135000000D01*
%TO.N,USER_BTN_1*%
X114750000Y-132335000D02*
X117415000Y-135000000D01*
X122250000Y-88750000D02*
X114750000Y-96250000D01*
X114750000Y-96250000D02*
X114750000Y-132335000D01*
%TO.N,POT1*%
X133500000Y-113500000D02*
X136250000Y-113500000D01*
X132500000Y-114500000D02*
X133500000Y-113500000D01*
%TO.N,POT2*%
X132500000Y-105250000D02*
X136250000Y-101500000D01*
X132500000Y-107250000D02*
X132500000Y-105250000D01*
%TO.N,POT3*%
X131500000Y-94250000D02*
X136250000Y-89500000D01*
X131500000Y-107250000D02*
X131500000Y-94250000D01*
%TO.N,I2C_SCL*%
X122720000Y-112530000D02*
X122525000Y-112530000D01*
X126500000Y-108750000D02*
X122720000Y-112530000D01*
%TO.N,I2C_SDA*%
X122525000Y-114975000D02*
X129000000Y-108500000D01*
X129000000Y-108500000D02*
X129000000Y-107750000D01*
X122525000Y-115070000D02*
X122525000Y-114975000D01*
X121000000Y-116595000D02*
X122525000Y-115070000D01*
X121000000Y-128875000D02*
X121000000Y-116595000D01*
X117415000Y-132460000D02*
X121000000Y-128875000D01*
%TO.N,I2C_SCL*%
X119750000Y-128000000D02*
X119750000Y-115305000D01*
X119750000Y-115305000D02*
X122525000Y-112530000D01*
X117830000Y-129920000D02*
X119750000Y-128000000D01*
X117415000Y-129920000D02*
X117830000Y-129920000D01*
D22*
%TO.N,DOUT_3V*%
X103175000Y-135000000D02*
X102175000Y-135000000D01*
D23*
%TO.N,VDDA*%
X95065000Y-127860000D02*
X95065000Y-128860000D01*
X102175000Y-120750000D02*
X95065000Y-127860000D01*
X102175000Y-92925000D02*
X102175000Y-120750000D01*
X96250000Y-87000000D02*
X102175000Y-92925000D01*
X86250000Y-87000000D02*
X96250000Y-87000000D01*
D24*
%TO.N,GND*%
X102175000Y-140080000D02*
X103420000Y-140080000D01*
X103420000Y-140080000D02*
X104500000Y-139000000D01*
X102175000Y-140080000D02*
X99580000Y-140080000D01*
D22*
%TO.N,ALT-A*%
X91147500Y-93277500D02*
X88675000Y-95750000D01*
X89985000Y-127712993D02*
X89985000Y-128860000D01*
X88675000Y-126402993D02*
X89985000Y-127712993D01*
X88675000Y-95750000D02*
X88675000Y-126402993D01*
X91147500Y-92390000D02*
X91147500Y-93277500D01*
%TO.N,ALT-B*%
X88645000Y-127362943D02*
X88645000Y-129217057D01*
X87675000Y-126392943D02*
X88645000Y-127362943D01*
X90827943Y-131400000D02*
X91255000Y-131400000D01*
X89877500Y-89850000D02*
X89807500Y-89920000D01*
X87675000Y-95019557D02*
X87675000Y-126392943D01*
X88645000Y-129217057D02*
X90827943Y-131400000D01*
X89807500Y-89920000D02*
X89807500Y-92887057D01*
X89807500Y-92887057D02*
X87675000Y-95019557D01*
D21*
%TO.N,Net-(U6A--)*%
X90900000Y-112500000D02*
X89650000Y-111250000D01*
X99400000Y-112500000D02*
X90900000Y-112500000D01*
%TO.N,Net-(U6B--)*%
X96400000Y-109750000D02*
X89650000Y-109750000D01*
%TD*%
%TA.AperFunction,Conductor*%
%TO.N,GND*%
G36*
X138002562Y-74000605D02*
G01*
X138449036Y-74019072D01*
X138459209Y-74019915D01*
X138900114Y-74074873D01*
X138910194Y-74076555D01*
X139345042Y-74167733D01*
X139354950Y-74170242D01*
X139780786Y-74297019D01*
X139790454Y-74300338D01*
X140131430Y-74433388D01*
X140204339Y-74461838D01*
X140213724Y-74465954D01*
X140612869Y-74661083D01*
X140621877Y-74665958D01*
X141003544Y-74893383D01*
X141012123Y-74898989D01*
X141373693Y-75157144D01*
X141381775Y-75163435D01*
X141720796Y-75450571D01*
X141728336Y-75457512D01*
X142042487Y-75771663D01*
X142049428Y-75779203D01*
X142336564Y-76118224D01*
X142342859Y-76126312D01*
X142601010Y-76487876D01*
X142606616Y-76496455D01*
X142834041Y-76878122D01*
X142838919Y-76887136D01*
X143034045Y-77286275D01*
X143038161Y-77295660D01*
X143199656Y-77709533D01*
X143202984Y-77719226D01*
X143329753Y-78145036D01*
X143332269Y-78154971D01*
X143423441Y-78589791D01*
X143425128Y-78599900D01*
X143480082Y-79040769D01*
X143480928Y-79050983D01*
X143499394Y-79497437D01*
X143499500Y-79502561D01*
X143499500Y-141997438D01*
X143499394Y-142002562D01*
X143480928Y-142449016D01*
X143480082Y-142459230D01*
X143425128Y-142900099D01*
X143423441Y-142910208D01*
X143332269Y-143345028D01*
X143329753Y-143354963D01*
X143202984Y-143780773D01*
X143199656Y-143790466D01*
X143038161Y-144204339D01*
X143034045Y-144213724D01*
X142838919Y-144612863D01*
X142834041Y-144621877D01*
X142606616Y-145003544D01*
X142601010Y-145012123D01*
X142342859Y-145373687D01*
X142336564Y-145381775D01*
X142049428Y-145720796D01*
X142042487Y-145728336D01*
X141728336Y-146042487D01*
X141720796Y-146049428D01*
X141381775Y-146336564D01*
X141373687Y-146342859D01*
X141012123Y-146601010D01*
X141003544Y-146606616D01*
X140621877Y-146834041D01*
X140612863Y-146838919D01*
X140213724Y-147034045D01*
X140204339Y-147038161D01*
X139790466Y-147199656D01*
X139780773Y-147202984D01*
X139354963Y-147329753D01*
X139345028Y-147332269D01*
X138910208Y-147423441D01*
X138900099Y-147425128D01*
X138459230Y-147480082D01*
X138449016Y-147480928D01*
X138002563Y-147499394D01*
X137997439Y-147499500D01*
X85177561Y-147499500D01*
X85172437Y-147499394D01*
X84725983Y-147480928D01*
X84715769Y-147480082D01*
X84274900Y-147425128D01*
X84264791Y-147423441D01*
X83829971Y-147332269D01*
X83820036Y-147329753D01*
X83394226Y-147202984D01*
X83384533Y-147199656D01*
X82970660Y-147038161D01*
X82961275Y-147034045D01*
X82562136Y-146838919D01*
X82553122Y-146834041D01*
X82171455Y-146606616D01*
X82162876Y-146601010D01*
X81801312Y-146342859D01*
X81793224Y-146336564D01*
X81454203Y-146049428D01*
X81446663Y-146042487D01*
X81132512Y-145728336D01*
X81125571Y-145720796D01*
X80838435Y-145381775D01*
X80832140Y-145373687D01*
X80819859Y-145356487D01*
X80573989Y-145012123D01*
X80568383Y-145003544D01*
X80340958Y-144621877D01*
X80336080Y-144612863D01*
X80140954Y-144213724D01*
X80136838Y-144204339D01*
X80022058Y-143910185D01*
X79975338Y-143790454D01*
X79972019Y-143780786D01*
X79845242Y-143354950D01*
X79842733Y-143345042D01*
X79751555Y-142910194D01*
X79749873Y-142900114D01*
X79694915Y-142459209D01*
X79694072Y-142449036D01*
X79675606Y-142002562D01*
X79675500Y-141997438D01*
X79675500Y-137628711D01*
X83054500Y-137628711D01*
X83054500Y-137871288D01*
X83086161Y-138111785D01*
X83148947Y-138346104D01*
X83170567Y-138398298D01*
X83241776Y-138570212D01*
X83363064Y-138780289D01*
X83363066Y-138780292D01*
X83363067Y-138780293D01*
X83510733Y-138972736D01*
X83510739Y-138972743D01*
X83682256Y-139144260D01*
X83682262Y-139144265D01*
X83874711Y-139291936D01*
X84084788Y-139413224D01*
X84308900Y-139506054D01*
X84543211Y-139568838D01*
X84723586Y-139592584D01*
X84783711Y-139600500D01*
X84783712Y-139600500D01*
X85026289Y-139600500D01*
X85074388Y-139594167D01*
X85266789Y-139568838D01*
X85501100Y-139506054D01*
X85725212Y-139413224D01*
X85935289Y-139291936D01*
X86127738Y-139144265D01*
X86299265Y-138972738D01*
X86446936Y-138780289D01*
X86568224Y-138570212D01*
X86661054Y-138346100D01*
X86723838Y-138111789D01*
X86755500Y-137871288D01*
X86755500Y-137628712D01*
X86755500Y-137628711D01*
X94484500Y-137628711D01*
X94484500Y-137871288D01*
X94516161Y-138111785D01*
X94578947Y-138346104D01*
X94600567Y-138398298D01*
X94671776Y-138570212D01*
X94793064Y-138780289D01*
X94793066Y-138780292D01*
X94793067Y-138780293D01*
X94940733Y-138972736D01*
X94940739Y-138972743D01*
X95112256Y-139144260D01*
X95112262Y-139144265D01*
X95304711Y-139291936D01*
X95514788Y-139413224D01*
X95738900Y-139506054D01*
X95973211Y-139568838D01*
X96153586Y-139592584D01*
X96213711Y-139600500D01*
X96213712Y-139600500D01*
X96456289Y-139600500D01*
X96504388Y-139594167D01*
X96696789Y-139568838D01*
X96931100Y-139506054D01*
X97155212Y-139413224D01*
X97365289Y-139291936D01*
X97557738Y-139144265D01*
X97729265Y-138972738D01*
X97876936Y-138780289D01*
X97998224Y-138570212D01*
X98091054Y-138346100D01*
X98153838Y-138111789D01*
X98185500Y-137871288D01*
X98185500Y-137628712D01*
X98153838Y-137388211D01*
X98091054Y-137153900D01*
X97998224Y-136929788D01*
X97876936Y-136719711D01*
X97729265Y-136527262D01*
X97729260Y-136527256D01*
X97557743Y-136355739D01*
X97557736Y-136355733D01*
X97365293Y-136208067D01*
X97365292Y-136208066D01*
X97365289Y-136208064D01*
X97155212Y-136086776D01*
X97155205Y-136086773D01*
X96931104Y-135993947D01*
X96696785Y-135931161D01*
X96456289Y-135899500D01*
X96456288Y-135899500D01*
X96213712Y-135899500D01*
X96213711Y-135899500D01*
X95973214Y-135931161D01*
X95738895Y-135993947D01*
X95514794Y-136086773D01*
X95514785Y-136086777D01*
X95304706Y-136208067D01*
X95112263Y-136355733D01*
X95112256Y-136355739D01*
X94940739Y-136527256D01*
X94940733Y-136527263D01*
X94793067Y-136719706D01*
X94671777Y-136929785D01*
X94671773Y-136929794D01*
X94578947Y-137153895D01*
X94516161Y-137388214D01*
X94484500Y-137628711D01*
X86755500Y-137628711D01*
X86723838Y-137388211D01*
X86661054Y-137153900D01*
X86568224Y-136929788D01*
X86446936Y-136719711D01*
X86299265Y-136527262D01*
X86299260Y-136527256D01*
X86127743Y-136355739D01*
X86127736Y-136355733D01*
X85935293Y-136208067D01*
X85935292Y-136208066D01*
X85935289Y-136208064D01*
X85725212Y-136086776D01*
X85725205Y-136086773D01*
X85501104Y-135993947D01*
X85266785Y-135931161D01*
X85026289Y-135899500D01*
X85026288Y-135899500D01*
X84783712Y-135899500D01*
X84783711Y-135899500D01*
X84543214Y-135931161D01*
X84308895Y-135993947D01*
X84084794Y-136086773D01*
X84084785Y-136086777D01*
X83874706Y-136208067D01*
X83682263Y-136355733D01*
X83682256Y-136355739D01*
X83510739Y-136527256D01*
X83510733Y-136527263D01*
X83363067Y-136719706D01*
X83241777Y-136929785D01*
X83241773Y-136929794D01*
X83148947Y-137153895D01*
X83086161Y-137388214D01*
X83054500Y-137628711D01*
X79675500Y-137628711D01*
X79675500Y-123753641D01*
X79695185Y-123686602D01*
X79747989Y-123640847D01*
X79817147Y-123630903D01*
X79880703Y-123659928D01*
X79918159Y-123717643D01*
X79949432Y-123820734D01*
X80004074Y-124000868D01*
X80143514Y-124337502D01*
X80143516Y-124337507D01*
X80315271Y-124658837D01*
X80315282Y-124658855D01*
X80517707Y-124961806D01*
X80517717Y-124961820D01*
X80748873Y-125243485D01*
X81006514Y-125501126D01*
X81006519Y-125501130D01*
X81006520Y-125501131D01*
X81288185Y-125732287D01*
X81591151Y-125934722D01*
X81591160Y-125934727D01*
X81591162Y-125934728D01*
X81912492Y-126106483D01*
X81912494Y-126106483D01*
X81912500Y-126106487D01*
X82074998Y-126173796D01*
X82249131Y-126245925D01*
X82249135Y-126245926D01*
X82249137Y-126245927D01*
X82597821Y-126351699D01*
X82597827Y-126351700D01*
X82597830Y-126351701D01*
X82597841Y-126351704D01*
X82821927Y-126396276D01*
X82955194Y-126422785D01*
X83317813Y-126458500D01*
X83317816Y-126458500D01*
X83682184Y-126458500D01*
X83682187Y-126458500D01*
X84044806Y-126422785D01*
X84221696Y-126387599D01*
X84402158Y-126351704D01*
X84402169Y-126351701D01*
X84402169Y-126351700D01*
X84402179Y-126351699D01*
X84750863Y-126245927D01*
X85087500Y-126106487D01*
X85408849Y-125934722D01*
X85711815Y-125732287D01*
X85993480Y-125501131D01*
X86251131Y-125243480D01*
X86482287Y-124961815D01*
X86684722Y-124658849D01*
X86684735Y-124658824D01*
X86686137Y-124656487D01*
X86737483Y-124609102D01*
X86806296Y-124596998D01*
X86870729Y-124624019D01*
X86910325Y-124681586D01*
X86916500Y-124720228D01*
X86916500Y-126467652D01*
X86945647Y-126614182D01*
X86945649Y-126614190D01*
X87002826Y-126752227D01*
X87035373Y-126800937D01*
X87085835Y-126876460D01*
X87085836Y-126876461D01*
X87599195Y-127389819D01*
X87632680Y-127451142D01*
X87627696Y-127520833D01*
X87585825Y-127576767D01*
X87520360Y-127601184D01*
X87511514Y-127601500D01*
X87345949Y-127601500D01*
X87150299Y-127632487D01*
X86961898Y-127693703D01*
X86785401Y-127783634D01*
X86711543Y-127837296D01*
X86625142Y-127900070D01*
X86625140Y-127900072D01*
X86625139Y-127900072D01*
X86485072Y-128040139D01*
X86485072Y-128040140D01*
X86485070Y-128040142D01*
X86475727Y-128053002D01*
X86368634Y-128200401D01*
X86278703Y-128376898D01*
X86217487Y-128565299D01*
X86186500Y-128760948D01*
X86186500Y-128959051D01*
X86217487Y-129154700D01*
X86278703Y-129343101D01*
X86357869Y-129498470D01*
X86368634Y-129519598D01*
X86485070Y-129679858D01*
X86625142Y-129819930D01*
X86730438Y-129896432D01*
X86758998Y-129917182D01*
X86801663Y-129972512D01*
X86807642Y-130042126D01*
X86775036Y-130103921D01*
X86714197Y-130138278D01*
X86686112Y-130141500D01*
X85376345Y-130141500D01*
X85315797Y-130148011D01*
X85315795Y-130148011D01*
X85178795Y-130199111D01*
X85061739Y-130286739D01*
X84974111Y-130403795D01*
X84923011Y-130540795D01*
X84923011Y-130540797D01*
X84916500Y-130601345D01*
X84916500Y-132198654D01*
X84923011Y-132259202D01*
X84923011Y-132259204D01*
X84953622Y-132341272D01*
X84974111Y-132396204D01*
X85061739Y-132513261D01*
X85178796Y-132600889D01*
X85315799Y-132651989D01*
X85343050Y-132654918D01*
X85376345Y-132658499D01*
X85376362Y-132658500D01*
X86973638Y-132658500D01*
X86973654Y-132658499D01*
X87000692Y-132655591D01*
X87034201Y-132651989D01*
X87171204Y-132600889D01*
X87288261Y-132513261D01*
X87375889Y-132396204D01*
X87404052Y-132320696D01*
X88324631Y-132320696D01*
X88423310Y-132361570D01*
X88423318Y-132361572D01*
X88616504Y-132399999D01*
X88616508Y-132400000D01*
X88813492Y-132400000D01*
X88813495Y-132399999D01*
X89006681Y-132361572D01*
X89006689Y-132361570D01*
X89105367Y-132320696D01*
X88715001Y-131930330D01*
X88715000Y-131930330D01*
X88324631Y-132320696D01*
X87404052Y-132320696D01*
X87426989Y-132259201D01*
X87427834Y-132251335D01*
X87433499Y-132198654D01*
X87433500Y-132198637D01*
X87433500Y-131301504D01*
X87715000Y-131301504D01*
X87715000Y-131498495D01*
X87753427Y-131691680D01*
X87753429Y-131691687D01*
X87794301Y-131790366D01*
X88184670Y-131400000D01*
X87794302Y-131009632D01*
X87794301Y-131009632D01*
X87753432Y-131108300D01*
X87753427Y-131108317D01*
X87715000Y-131301504D01*
X87433500Y-131301504D01*
X87433500Y-130601362D01*
X87433499Y-130601345D01*
X87430157Y-130570270D01*
X87426989Y-130540799D01*
X87425049Y-130535599D01*
X87389419Y-130440072D01*
X87375889Y-130403796D01*
X87310771Y-130316809D01*
X87286355Y-130251347D01*
X87301206Y-130183074D01*
X87350611Y-130133668D01*
X87410039Y-130118500D01*
X87544051Y-130118500D01*
X87739700Y-130087512D01*
X87808778Y-130065067D01*
X87928097Y-130026298D01*
X88104598Y-129936366D01*
X88127243Y-129919912D01*
X88193049Y-129896432D01*
X88261103Y-129912256D01*
X88287811Y-129932549D01*
X88568201Y-130212939D01*
X88601686Y-130274262D01*
X88596702Y-130343954D01*
X88554830Y-130399887D01*
X88504712Y-130422237D01*
X88423315Y-130438428D01*
X88423300Y-130438432D01*
X88324632Y-130479301D01*
X88324632Y-130479302D01*
X88931594Y-131086264D01*
X88861675Y-131045896D01*
X88765028Y-131020000D01*
X88664972Y-131020000D01*
X88568325Y-131045896D01*
X88481675Y-131095924D01*
X88410924Y-131166675D01*
X88360896Y-131253325D01*
X88335000Y-131349972D01*
X88335000Y-131450028D01*
X88360896Y-131546675D01*
X88410924Y-131633325D01*
X88481675Y-131704076D01*
X88568325Y-131754104D01*
X88664972Y-131780000D01*
X88765028Y-131780000D01*
X88861675Y-131754104D01*
X88948325Y-131704076D01*
X89019076Y-131633325D01*
X89069104Y-131546675D01*
X89095000Y-131450028D01*
X89095000Y-131349972D01*
X89069104Y-131253325D01*
X89028735Y-131183405D01*
X89635696Y-131790367D01*
X89676570Y-131691689D01*
X89692761Y-131610289D01*
X89697471Y-131601282D01*
X89698197Y-131591145D01*
X89713393Y-131570845D01*
X89725146Y-131548378D01*
X89733977Y-131543348D01*
X89740069Y-131535212D01*
X89763826Y-131526350D01*
X89785861Y-131513803D01*
X89796010Y-131514346D01*
X89805533Y-131510795D01*
X89830310Y-131516185D01*
X89855630Y-131517542D01*
X89865691Y-131523881D01*
X89873806Y-131525647D01*
X89902060Y-131546798D01*
X89995659Y-131640397D01*
X90023886Y-131690748D01*
X90025983Y-131690067D01*
X90027487Y-131694697D01*
X90027488Y-131694700D01*
X90088702Y-131883097D01*
X90178634Y-132059598D01*
X90295070Y-132219858D01*
X90435142Y-132359930D01*
X90595402Y-132476366D01*
X90667810Y-132513260D01*
X90771898Y-132566296D01*
X90771900Y-132566296D01*
X90771903Y-132566298D01*
X90872888Y-132599110D01*
X90960299Y-132627512D01*
X91155949Y-132658500D01*
X91155954Y-132658500D01*
X91354051Y-132658500D01*
X91549700Y-132627512D01*
X91738097Y-132566298D01*
X91914598Y-132476366D01*
X92074858Y-132359930D01*
X92114092Y-132320696D01*
X93404631Y-132320696D01*
X93503310Y-132361570D01*
X93503318Y-132361572D01*
X93696504Y-132399999D01*
X93696508Y-132400000D01*
X93893492Y-132400000D01*
X93893495Y-132399999D01*
X94086681Y-132361572D01*
X94086689Y-132361570D01*
X94185367Y-132320696D01*
X93795001Y-131930330D01*
X93795000Y-131930330D01*
X93404631Y-132320696D01*
X92114092Y-132320696D01*
X92214930Y-132219858D01*
X92331366Y-132059598D01*
X92421298Y-131883097D01*
X92482512Y-131694700D01*
X92486523Y-131669373D01*
X92513500Y-131499051D01*
X92513500Y-131301504D01*
X92795000Y-131301504D01*
X92795000Y-131498495D01*
X92833427Y-131691680D01*
X92833429Y-131691687D01*
X92874301Y-131790366D01*
X93264670Y-131400000D01*
X93214642Y-131349972D01*
X93415000Y-131349972D01*
X93415000Y-131450028D01*
X93440896Y-131546675D01*
X93490924Y-131633325D01*
X93561675Y-131704076D01*
X93648325Y-131754104D01*
X93744972Y-131780000D01*
X93845028Y-131780000D01*
X93941675Y-131754104D01*
X94028325Y-131704076D01*
X94099076Y-131633325D01*
X94149104Y-131546675D01*
X94175000Y-131450028D01*
X94175000Y-131399999D01*
X94325330Y-131399999D01*
X94325330Y-131400001D01*
X94715696Y-131790367D01*
X94756570Y-131691689D01*
X94756572Y-131691681D01*
X94794999Y-131498495D01*
X94795000Y-131498492D01*
X94795000Y-131301508D01*
X94794999Y-131301504D01*
X94756572Y-131108318D01*
X94756570Y-131108310D01*
X94715696Y-131009631D01*
X94325330Y-131399999D01*
X94175000Y-131399999D01*
X94175000Y-131349972D01*
X94149104Y-131253325D01*
X94099076Y-131166675D01*
X94028325Y-131095924D01*
X93941675Y-131045896D01*
X93845028Y-131020000D01*
X93744972Y-131020000D01*
X93648325Y-131045896D01*
X93561675Y-131095924D01*
X93490924Y-131166675D01*
X93440896Y-131253325D01*
X93415000Y-131349972D01*
X93214642Y-131349972D01*
X92874302Y-131009632D01*
X92874301Y-131009632D01*
X92833432Y-131108300D01*
X92833427Y-131108317D01*
X92795000Y-131301504D01*
X92513500Y-131301504D01*
X92513500Y-131300949D01*
X92513499Y-131300947D01*
X92482512Y-131105299D01*
X92454110Y-131017888D01*
X92421298Y-130916903D01*
X92421296Y-130916900D01*
X92421296Y-130916898D01*
X92331365Y-130740401D01*
X92309733Y-130710627D01*
X92214930Y-130580142D01*
X92114089Y-130479301D01*
X93404632Y-130479301D01*
X93404632Y-130479302D01*
X93795000Y-130869670D01*
X93795001Y-130869670D01*
X94185367Y-130479302D01*
X94086687Y-130438429D01*
X94086680Y-130438427D01*
X93893495Y-130400000D01*
X93696504Y-130400000D01*
X93503317Y-130438427D01*
X93503300Y-130438432D01*
X93404632Y-130479301D01*
X92114089Y-130479301D01*
X92074858Y-130440070D01*
X91914598Y-130323634D01*
X91843240Y-130287275D01*
X91738101Y-130233703D01*
X91549700Y-130172487D01*
X91354051Y-130141500D01*
X91354046Y-130141500D01*
X91155954Y-130141500D01*
X91155949Y-130141500D01*
X90960298Y-130172488D01*
X90960295Y-130172488D01*
X90815808Y-130219435D01*
X90800595Y-130219869D01*
X90786336Y-130225188D01*
X90766380Y-130220846D01*
X90745966Y-130221430D01*
X90731879Y-130213341D01*
X90718063Y-130210336D01*
X90689809Y-130189185D01*
X90627014Y-130126390D01*
X90593529Y-130065067D01*
X90598513Y-129995375D01*
X90640385Y-129939442D01*
X90641810Y-129938391D01*
X90644595Y-129936367D01*
X90644598Y-129936366D01*
X90804858Y-129819930D01*
X90844092Y-129780696D01*
X92134631Y-129780696D01*
X92233310Y-129821570D01*
X92233318Y-129821572D01*
X92426504Y-129859999D01*
X92426508Y-129860000D01*
X92623492Y-129860000D01*
X92623495Y-129859999D01*
X92816681Y-129821572D01*
X92816689Y-129821570D01*
X92915367Y-129780696D01*
X92525001Y-129390330D01*
X92525000Y-129390330D01*
X92134631Y-129780696D01*
X90844092Y-129780696D01*
X90944930Y-129679858D01*
X91061366Y-129519598D01*
X91151298Y-129343097D01*
X91212512Y-129154700D01*
X91216523Y-129129373D01*
X91243500Y-128959051D01*
X91243500Y-128761504D01*
X91525000Y-128761504D01*
X91525000Y-128958495D01*
X91563427Y-129151680D01*
X91563429Y-129151687D01*
X91604301Y-129250366D01*
X91994670Y-128860000D01*
X91944642Y-128809972D01*
X92145000Y-128809972D01*
X92145000Y-128910028D01*
X92170896Y-129006675D01*
X92220924Y-129093325D01*
X92291675Y-129164076D01*
X92378325Y-129214104D01*
X92474972Y-129240000D01*
X92575028Y-129240000D01*
X92671675Y-129214104D01*
X92758325Y-129164076D01*
X92829076Y-129093325D01*
X92879104Y-129006675D01*
X92905000Y-128910028D01*
X92905000Y-128809972D01*
X92879104Y-128713325D01*
X92829076Y-128626675D01*
X92758325Y-128555924D01*
X92671675Y-128505896D01*
X92575028Y-128480000D01*
X92474972Y-128480000D01*
X92378325Y-128505896D01*
X92291675Y-128555924D01*
X92220924Y-128626675D01*
X92170896Y-128713325D01*
X92145000Y-128809972D01*
X91944642Y-128809972D01*
X91604302Y-128469632D01*
X91604301Y-128469632D01*
X91563432Y-128568300D01*
X91563427Y-128568317D01*
X91525000Y-128761504D01*
X91243500Y-128761504D01*
X91243500Y-128760949D01*
X91243499Y-128760947D01*
X91212512Y-128565299D01*
X91184110Y-128477888D01*
X91151298Y-128376903D01*
X91151296Y-128376900D01*
X91151296Y-128376898D01*
X91061365Y-128200401D01*
X91039733Y-128170627D01*
X90944930Y-128040142D01*
X90844089Y-127939301D01*
X92134632Y-127939301D01*
X92134632Y-127939302D01*
X92525000Y-128329670D01*
X92525001Y-128329670D01*
X92915367Y-127939302D01*
X92816687Y-127898429D01*
X92816680Y-127898427D01*
X92623495Y-127860000D01*
X92426504Y-127860000D01*
X92233317Y-127898427D01*
X92233300Y-127898432D01*
X92134632Y-127939301D01*
X90844089Y-127939301D01*
X90804858Y-127900070D01*
X90804855Y-127900067D01*
X90794613Y-127892626D01*
X90751948Y-127837296D01*
X90743500Y-127792309D01*
X90743500Y-127638284D01*
X90714352Y-127491752D01*
X90714351Y-127491751D01*
X90714351Y-127491747D01*
X90697532Y-127451142D01*
X90657177Y-127353715D01*
X90657169Y-127353701D01*
X90635141Y-127320734D01*
X90635140Y-127320732D01*
X90574167Y-127229479D01*
X90574161Y-127229472D01*
X89469819Y-126125130D01*
X89436334Y-126063807D01*
X89433500Y-126037449D01*
X89433500Y-112193411D01*
X89453185Y-112126372D01*
X89505989Y-112080617D01*
X89575147Y-112070673D01*
X89638703Y-112099698D01*
X89645181Y-112105730D01*
X90526373Y-112986922D01*
X90665127Y-113067032D01*
X90683668Y-113072000D01*
X90692938Y-113074484D01*
X90692939Y-113074484D01*
X90819889Y-113108500D01*
X90819890Y-113108500D01*
X90980110Y-113108500D01*
X98817808Y-113108500D01*
X98884847Y-113128185D01*
X98886698Y-113129398D01*
X99017030Y-113216482D01*
X99017031Y-113216482D01*
X99017032Y-113216483D01*
X99164169Y-113277430D01*
X99320365Y-113308499D01*
X99320369Y-113308500D01*
X99320370Y-113308500D01*
X99479631Y-113308500D01*
X99479632Y-113308499D01*
X99635831Y-113277430D01*
X99782968Y-113216483D01*
X99915389Y-113128003D01*
X100028003Y-113015389D01*
X100116483Y-112882968D01*
X100177430Y-112735831D01*
X100208500Y-112579630D01*
X100208500Y-112420370D01*
X100177430Y-112264169D01*
X100116483Y-112117032D01*
X100108931Y-112105730D01*
X100028004Y-111984612D01*
X100027998Y-111984605D01*
X99915394Y-111872001D01*
X99915387Y-111871995D01*
X99782969Y-111783517D01*
X99635831Y-111722570D01*
X99635823Y-111722568D01*
X99479634Y-111691500D01*
X99479630Y-111691500D01*
X99320370Y-111691500D01*
X99320365Y-111691500D01*
X99164176Y-111722568D01*
X99164168Y-111722570D01*
X99017030Y-111783517D01*
X99017029Y-111783517D01*
X98886698Y-111870602D01*
X98820021Y-111891480D01*
X98817808Y-111891500D01*
X91203411Y-111891500D01*
X91136372Y-111871815D01*
X91115730Y-111855181D01*
X90491946Y-111231397D01*
X90458461Y-111170074D01*
X90458032Y-111168019D01*
X90427430Y-111014169D01*
X90366483Y-110867032D01*
X90278003Y-110734611D01*
X90277998Y-110734605D01*
X90165394Y-110622001D01*
X90165389Y-110621997D01*
X90137109Y-110603101D01*
X90116067Y-110577924D01*
X90094142Y-110553514D01*
X90093775Y-110551251D01*
X90092305Y-110549492D01*
X90088213Y-110516926D01*
X90082967Y-110484543D01*
X90083881Y-110482441D01*
X90083596Y-110480167D01*
X90097761Y-110450557D01*
X90110855Y-110420481D01*
X90113127Y-110418439D01*
X90113750Y-110417139D01*
X90137107Y-110396899D01*
X90163304Y-110379395D01*
X90229982Y-110358520D01*
X90232192Y-110358500D01*
X95817808Y-110358500D01*
X95884847Y-110378185D01*
X95886698Y-110379398D01*
X96017030Y-110466482D01*
X96017031Y-110466482D01*
X96017032Y-110466483D01*
X96164169Y-110527430D01*
X96320365Y-110558499D01*
X96320369Y-110558500D01*
X96320370Y-110558500D01*
X96479631Y-110558500D01*
X96479632Y-110558499D01*
X96635831Y-110527430D01*
X96782968Y-110466483D01*
X96915389Y-110378003D01*
X97028003Y-110265389D01*
X97116483Y-110132968D01*
X97177430Y-109985831D01*
X97208500Y-109829630D01*
X97208500Y-109670370D01*
X97177430Y-109514169D01*
X97116483Y-109367032D01*
X97056988Y-109277991D01*
X97028004Y-109234612D01*
X97027998Y-109234605D01*
X96915394Y-109122001D01*
X96915387Y-109121995D01*
X96782969Y-109033517D01*
X96635831Y-108972570D01*
X96635823Y-108972568D01*
X96479634Y-108941500D01*
X96479630Y-108941500D01*
X96320370Y-108941500D01*
X96320365Y-108941500D01*
X96164176Y-108972568D01*
X96164168Y-108972570D01*
X96017030Y-109033517D01*
X96017029Y-109033517D01*
X95886698Y-109120602D01*
X95820021Y-109141480D01*
X95817808Y-109141500D01*
X90232192Y-109141500D01*
X90165153Y-109121815D01*
X90163302Y-109120602D01*
X90032969Y-109033517D01*
X89885831Y-108972570D01*
X89885823Y-108972568D01*
X89729634Y-108941500D01*
X89729630Y-108941500D01*
X89570370Y-108941500D01*
X89570364Y-108941500D01*
X89569642Y-108941571D01*
X89569268Y-108941500D01*
X89564279Y-108941500D01*
X89564279Y-108940553D01*
X89500997Y-108928546D01*
X89450292Y-108880476D01*
X89433500Y-108818167D01*
X89433500Y-96115543D01*
X89453185Y-96048504D01*
X89469819Y-96027862D01*
X91736663Y-93761018D01*
X91736666Y-93761015D01*
X91819674Y-93636785D01*
X91876851Y-93498747D01*
X91886695Y-93449254D01*
X91919078Y-93387345D01*
X91935420Y-93373133D01*
X91967358Y-93349930D01*
X92107430Y-93209858D01*
X92223866Y-93049598D01*
X92307015Y-92886408D01*
X92354990Y-92835613D01*
X92422811Y-92818818D01*
X92488946Y-92841355D01*
X92527984Y-92886408D01*
X92611134Y-93049598D01*
X92727570Y-93209858D01*
X92867642Y-93349930D01*
X93027902Y-93466366D01*
X93091449Y-93498745D01*
X93204398Y-93556296D01*
X93204400Y-93556296D01*
X93204403Y-93556298D01*
X93261485Y-93574845D01*
X93392799Y-93617512D01*
X93588449Y-93648500D01*
X93588454Y-93648500D01*
X93786551Y-93648500D01*
X93982200Y-93617512D01*
X94170597Y-93556298D01*
X94347098Y-93466366D01*
X94507358Y-93349930D01*
X94647430Y-93209858D01*
X94763866Y-93049598D01*
X94853798Y-92873097D01*
X94915012Y-92684700D01*
X94915490Y-92681680D01*
X94946000Y-92489051D01*
X94946000Y-92290948D01*
X94915012Y-92095299D01*
X94886610Y-92007888D01*
X94853798Y-91906903D01*
X94853796Y-91906900D01*
X94853796Y-91906898D01*
X94763865Y-91730401D01*
X94647430Y-91570142D01*
X94507358Y-91430070D01*
X94373501Y-91332817D01*
X94330837Y-91277488D01*
X94324858Y-91207874D01*
X94357464Y-91146079D01*
X94418303Y-91111722D01*
X94446388Y-91108500D01*
X95756138Y-91108500D01*
X95756154Y-91108499D01*
X95783192Y-91105591D01*
X95816701Y-91101989D01*
X95953704Y-91050889D01*
X96070761Y-90963261D01*
X96158389Y-90846204D01*
X96209489Y-90709201D01*
X96213091Y-90675692D01*
X96215999Y-90648654D01*
X96216000Y-90648637D01*
X96216000Y-89398703D01*
X96235685Y-89331664D01*
X96288489Y-89285909D01*
X96357647Y-89275965D01*
X96421203Y-89304990D01*
X96427681Y-89311022D01*
X100630181Y-93513522D01*
X100663666Y-93574845D01*
X100666500Y-93601203D01*
X100666500Y-120073796D01*
X100646815Y-120140835D01*
X100630181Y-120161477D01*
X93914378Y-126877279D01*
X93914374Y-126877283D01*
X93838217Y-126982107D01*
X93838217Y-126982108D01*
X93774815Y-127069372D01*
X93667019Y-127280934D01*
X93593643Y-127506761D01*
X93593643Y-127506762D01*
X93556499Y-127741278D01*
X93556499Y-127983832D01*
X93556500Y-127983857D01*
X93556500Y-128340577D01*
X93536815Y-128407616D01*
X93484011Y-128453371D01*
X93458253Y-128457074D01*
X93055330Y-128859999D01*
X93055330Y-128860000D01*
X93445696Y-129250367D01*
X93487920Y-129241968D01*
X93557512Y-129248195D01*
X93612689Y-129291058D01*
X93630043Y-129325266D01*
X93667019Y-129439067D01*
X93732082Y-129566759D01*
X93774815Y-129650627D01*
X93914380Y-129842722D01*
X94082278Y-130010620D01*
X94274373Y-130150185D01*
X94350915Y-130189185D01*
X94485932Y-130257980D01*
X94485934Y-130257980D01*
X94485937Y-130257982D01*
X94576092Y-130287275D01*
X94711758Y-130331356D01*
X94946273Y-130368500D01*
X94946278Y-130368500D01*
X95183727Y-130368500D01*
X95418241Y-130331356D01*
X95442007Y-130323634D01*
X95644063Y-130257982D01*
X95855627Y-130150185D01*
X96047722Y-130010620D01*
X96215620Y-129842722D01*
X96355185Y-129650627D01*
X96462982Y-129439063D01*
X96536356Y-129213241D01*
X96539745Y-129191843D01*
X96573500Y-128978727D01*
X96573500Y-128536202D01*
X96593185Y-128469163D01*
X96609814Y-128448526D01*
X97797068Y-127261272D01*
X100166500Y-127261272D01*
X100166500Y-127498727D01*
X100203643Y-127733241D01*
X100277019Y-127959067D01*
X100381668Y-128164451D01*
X100384815Y-128170627D01*
X100524380Y-128362722D01*
X100692278Y-128530620D01*
X100692284Y-128530624D01*
X100718515Y-128549683D01*
X100761181Y-128605013D01*
X100767159Y-128674626D01*
X100734553Y-128736421D01*
X100718515Y-128750317D01*
X100692284Y-128769375D01*
X100692275Y-128769382D01*
X100524382Y-128937275D01*
X100384815Y-129129372D01*
X100277019Y-129340932D01*
X100203643Y-129566758D01*
X100166500Y-129801272D01*
X100166500Y-130038727D01*
X100203643Y-130273241D01*
X100277019Y-130499067D01*
X100347510Y-130637412D01*
X100384815Y-130710627D01*
X100524380Y-130902722D01*
X100692278Y-131070620D01*
X100692284Y-131070624D01*
X100718515Y-131089683D01*
X100761181Y-131145013D01*
X100767159Y-131214626D01*
X100734553Y-131276421D01*
X100718515Y-131290317D01*
X100692284Y-131309375D01*
X100692275Y-131309382D01*
X100524382Y-131477275D01*
X100384815Y-131669372D01*
X100277019Y-131880932D01*
X100203643Y-132106758D01*
X100166500Y-132341272D01*
X100166500Y-132578727D01*
X100203643Y-132813241D01*
X100277019Y-133039067D01*
X100384815Y-133250627D01*
X100524380Y-133442722D01*
X100692278Y-133610620D01*
X100692284Y-133610624D01*
X100718515Y-133629683D01*
X100761181Y-133685013D01*
X100767159Y-133754626D01*
X100734553Y-133816421D01*
X100718515Y-133830317D01*
X100692284Y-133849375D01*
X100692275Y-133849382D01*
X100524382Y-134017275D01*
X100384815Y-134209372D01*
X100277019Y-134420932D01*
X100203643Y-134646758D01*
X100166500Y-134881272D01*
X100166500Y-135118727D01*
X100203643Y-135353241D01*
X100277019Y-135579067D01*
X100384815Y-135790627D01*
X100524380Y-135982722D01*
X100692278Y-136150620D01*
X100692284Y-136150624D01*
X100718515Y-136169683D01*
X100761181Y-136225013D01*
X100767159Y-136294626D01*
X100734553Y-136356421D01*
X100718515Y-136370317D01*
X100692284Y-136389375D01*
X100692275Y-136389382D01*
X100524382Y-136557275D01*
X100384815Y-136749372D01*
X100277019Y-136960932D01*
X100203643Y-137186758D01*
X100166500Y-137421272D01*
X100166500Y-137658727D01*
X100203643Y-137893241D01*
X100277019Y-138119067D01*
X100383077Y-138327216D01*
X100384815Y-138330627D01*
X100524380Y-138522722D01*
X100692278Y-138690620D01*
X100822699Y-138785376D01*
X100884374Y-138830186D01*
X100913199Y-138844873D01*
X100929918Y-138853391D01*
X100980714Y-138901364D01*
X100997510Y-138969185D01*
X100974973Y-139035320D01*
X100946511Y-139064193D01*
X100860680Y-139126553D01*
X100721555Y-139265678D01*
X100605904Y-139424856D01*
X100516581Y-139600164D01*
X100455778Y-139787294D01*
X100425000Y-139981617D01*
X100425000Y-140178382D01*
X100455778Y-140372705D01*
X100516581Y-140559835D01*
X100605904Y-140735143D01*
X100721555Y-140894321D01*
X100860677Y-141033443D01*
X100946510Y-141095805D01*
X100989175Y-141151135D01*
X100995154Y-141220749D01*
X100962548Y-141282544D01*
X100929919Y-141306608D01*
X100884372Y-141329815D01*
X100692275Y-141469382D01*
X100524382Y-141637275D01*
X100384815Y-141829372D01*
X100277019Y-142040932D01*
X100203643Y-142266758D01*
X100166500Y-142501272D01*
X100166500Y-142738727D01*
X100203643Y-142973241D01*
X100277019Y-143199067D01*
X100353948Y-143350047D01*
X100384815Y-143410627D01*
X100524380Y-143602722D01*
X100692278Y-143770620D01*
X100884373Y-143910185D01*
X100984328Y-143961114D01*
X101095932Y-144017980D01*
X101095934Y-144017980D01*
X101095937Y-144017982D01*
X101216984Y-144057312D01*
X101321758Y-144091356D01*
X101556273Y-144128500D01*
X101556278Y-144128500D01*
X102793727Y-144128500D01*
X103028241Y-144091356D01*
X103254063Y-144017982D01*
X103465627Y-143910185D01*
X103657722Y-143770620D01*
X103825620Y-143602722D01*
X103965185Y-143410627D01*
X104072982Y-143199063D01*
X104146356Y-142973241D01*
X104183500Y-142738727D01*
X104183500Y-142501272D01*
X104146356Y-142266758D01*
X104102661Y-142132279D01*
X104072982Y-142040937D01*
X104072980Y-142040934D01*
X104072980Y-142040932D01*
X103965184Y-141829372D01*
X103956786Y-141817813D01*
X103825620Y-141637278D01*
X103657722Y-141469380D01*
X103465627Y-141329815D01*
X103420081Y-141306608D01*
X103369285Y-141258633D01*
X103352490Y-141190812D01*
X103375028Y-141124677D01*
X103403490Y-141095805D01*
X103489321Y-141033443D01*
X103489322Y-141033443D01*
X103628444Y-140894321D01*
X103744095Y-140735143D01*
X103833418Y-140559835D01*
X103894221Y-140372705D01*
X103925000Y-140178382D01*
X103925000Y-139981617D01*
X103894221Y-139787294D01*
X103833418Y-139600164D01*
X103744095Y-139424856D01*
X103628444Y-139265678D01*
X103489319Y-139126553D01*
X103403489Y-139064193D01*
X103360824Y-139008863D01*
X103354846Y-138939249D01*
X103387453Y-138877455D01*
X103420080Y-138853391D01*
X103465627Y-138830185D01*
X103657722Y-138690620D01*
X103825620Y-138522722D01*
X103965185Y-138330627D01*
X104072982Y-138119063D01*
X104146356Y-137893241D01*
X104149833Y-137871288D01*
X104183500Y-137658727D01*
X104183500Y-137421272D01*
X104146356Y-137186758D01*
X104072980Y-136960932D01*
X103965184Y-136749372D01*
X103943634Y-136719711D01*
X103825620Y-136557278D01*
X103657722Y-136389380D01*
X103657718Y-136389376D01*
X103631487Y-136370319D01*
X103588820Y-136314990D01*
X103582840Y-136245376D01*
X103615446Y-136183581D01*
X103631487Y-136169681D01*
X103657718Y-136150623D01*
X103657718Y-136150622D01*
X103657722Y-136150620D01*
X103825620Y-135982722D01*
X103965185Y-135790627D01*
X104072982Y-135579063D01*
X104146356Y-135353241D01*
X104183500Y-135118727D01*
X104183500Y-134903410D01*
X104203185Y-134836371D01*
X104219819Y-134815729D01*
X105091951Y-133943597D01*
X106014512Y-133021035D01*
X106054747Y-132994154D01*
X106059863Y-132992034D01*
X106059873Y-132992032D01*
X106198627Y-132911922D01*
X113929819Y-125180730D01*
X113991142Y-125147245D01*
X114060834Y-125152229D01*
X114116767Y-125194101D01*
X114141184Y-125259565D01*
X114141500Y-125268411D01*
X114141500Y-132415109D01*
X114182968Y-132569874D01*
X114200875Y-132600889D01*
X114263078Y-132708627D01*
X114263080Y-132708629D01*
X115608510Y-134054059D01*
X115641995Y-134115382D01*
X115637011Y-134185074D01*
X115626562Y-134206521D01*
X115624817Y-134209367D01*
X115517019Y-134420932D01*
X115443643Y-134646758D01*
X115406500Y-134881272D01*
X115406500Y-135118727D01*
X115443643Y-135353241D01*
X115517019Y-135579067D01*
X115624815Y-135790627D01*
X115764380Y-135982722D01*
X115932278Y-136150620D01*
X115932284Y-136150624D01*
X115958515Y-136169683D01*
X116001181Y-136225013D01*
X116007159Y-136294626D01*
X115974553Y-136356421D01*
X115958515Y-136370317D01*
X115932284Y-136389375D01*
X115932275Y-136389382D01*
X115764382Y-136557275D01*
X115624815Y-136749372D01*
X115517019Y-136960932D01*
X115443643Y-137186758D01*
X115406500Y-137421272D01*
X115406500Y-137658727D01*
X115443643Y-137893241D01*
X115517019Y-138119067D01*
X115623077Y-138327216D01*
X115624815Y-138330627D01*
X115764380Y-138522722D01*
X115932278Y-138690620D01*
X115932284Y-138690624D01*
X115958515Y-138709683D01*
X116001181Y-138765013D01*
X116007159Y-138834626D01*
X115974553Y-138896421D01*
X115958515Y-138910317D01*
X115932284Y-138929375D01*
X115932275Y-138929382D01*
X115764382Y-139097275D01*
X115624815Y-139289372D01*
X115517019Y-139500932D01*
X115443643Y-139726758D01*
X115406500Y-139961272D01*
X115406500Y-140198727D01*
X115443643Y-140433241D01*
X115517019Y-140659067D01*
X115624815Y-140870627D01*
X115764380Y-141062722D01*
X115932278Y-141230620D01*
X115932284Y-141230624D01*
X115958515Y-141249683D01*
X116001181Y-141305013D01*
X116007159Y-141374626D01*
X115974553Y-141436421D01*
X115958515Y-141450317D01*
X115932284Y-141469375D01*
X115932275Y-141469382D01*
X115764382Y-141637275D01*
X115624815Y-141829372D01*
X115517019Y-142040932D01*
X115443643Y-142266758D01*
X115406500Y-142501272D01*
X115406500Y-142738727D01*
X115443643Y-142973241D01*
X115517019Y-143199067D01*
X115593948Y-143350047D01*
X115624815Y-143410627D01*
X115764380Y-143602722D01*
X115932278Y-143770620D01*
X116124373Y-143910185D01*
X116224328Y-143961114D01*
X116335932Y-144017980D01*
X116335934Y-144017980D01*
X116335937Y-144017982D01*
X116456984Y-144057312D01*
X116561758Y-144091356D01*
X116796273Y-144128500D01*
X116796278Y-144128500D01*
X118033727Y-144128500D01*
X118268241Y-144091356D01*
X118494063Y-144017982D01*
X118705627Y-143910185D01*
X118897722Y-143770620D01*
X119065620Y-143602722D01*
X119205185Y-143410627D01*
X119312982Y-143199063D01*
X119386356Y-142973241D01*
X119423500Y-142738727D01*
X119423500Y-142501272D01*
X119386356Y-142266758D01*
X119342661Y-142132279D01*
X119312982Y-142040937D01*
X119312980Y-142040934D01*
X119312980Y-142040932D01*
X119205184Y-141829372D01*
X119196786Y-141817813D01*
X119065620Y-141637278D01*
X118897722Y-141469380D01*
X118897718Y-141469376D01*
X118871487Y-141450319D01*
X118858272Y-141433183D01*
X118841603Y-141419388D01*
X118837360Y-141406065D01*
X118828820Y-141394990D01*
X118826967Y-141373427D01*
X118820403Y-141352812D01*
X118824036Y-141339310D01*
X118822840Y-141325376D01*
X118832938Y-141306237D01*
X118838562Y-141285343D01*
X118851167Y-141271689D01*
X118855446Y-141263581D01*
X118861064Y-141258153D01*
X118866047Y-141253632D01*
X118897722Y-141230620D01*
X119065620Y-141062722D01*
X119205185Y-140870627D01*
X119312982Y-140659063D01*
X119386356Y-140433241D01*
X119411737Y-140272993D01*
X119423500Y-140198727D01*
X119423500Y-140150371D01*
X124050000Y-140150371D01*
X124050000Y-141000000D01*
X125026473Y-141000000D01*
X125019881Y-141006592D01*
X124940889Y-141143409D01*
X124900000Y-141296009D01*
X124900000Y-141453991D01*
X124940889Y-141606591D01*
X125019881Y-141743408D01*
X125026473Y-141750000D01*
X124050000Y-141750000D01*
X124050000Y-142599628D01*
X124064503Y-142672540D01*
X124064505Y-142672544D01*
X124119760Y-142755239D01*
X124202455Y-142810494D01*
X124202459Y-142810496D01*
X124275371Y-142824999D01*
X124275374Y-142825000D01*
X125125000Y-142825000D01*
X125125000Y-141848527D01*
X125131592Y-141855119D01*
X125268409Y-141934111D01*
X125421009Y-141975000D01*
X125578991Y-141975000D01*
X125731591Y-141934111D01*
X125868408Y-141855119D01*
X125875000Y-141848527D01*
X125875000Y-142825000D01*
X126724626Y-142825000D01*
X126724628Y-142824999D01*
X126797540Y-142810496D01*
X126797544Y-142810494D01*
X126880239Y-142755239D01*
X126935494Y-142672544D01*
X126935496Y-142672540D01*
X126949999Y-142599628D01*
X126950000Y-142599626D01*
X126950000Y-141750000D01*
X125973527Y-141750000D01*
X125980119Y-141743408D01*
X126059111Y-141606591D01*
X126100000Y-141453991D01*
X126100000Y-141296009D01*
X126091162Y-141263025D01*
X127291500Y-141263025D01*
X127291500Y-141486974D01*
X127291501Y-141486990D01*
X127320731Y-141709016D01*
X127320732Y-141709021D01*
X127320733Y-141709027D01*
X127337479Y-141771524D01*
X127378698Y-141925358D01*
X127464400Y-142132262D01*
X127464408Y-142132279D01*
X127576381Y-142326220D01*
X127576392Y-142326236D01*
X127712723Y-142503907D01*
X127712729Y-142503914D01*
X127871085Y-142662270D01*
X127871092Y-142662276D01*
X127884474Y-142672544D01*
X128048772Y-142798614D01*
X128048779Y-142798618D01*
X128242720Y-142910591D01*
X128242725Y-142910593D01*
X128242728Y-142910595D01*
X128242732Y-142910596D01*
X128242737Y-142910599D01*
X128308355Y-142937778D01*
X128449642Y-142996302D01*
X128665973Y-143054267D01*
X128888019Y-143083500D01*
X128888026Y-143083500D01*
X129111974Y-143083500D01*
X129111981Y-143083500D01*
X129334027Y-143054267D01*
X129550358Y-142996302D01*
X129757272Y-142910595D01*
X129951228Y-142798614D01*
X130128909Y-142662275D01*
X130287275Y-142503909D01*
X130423614Y-142326228D01*
X130535595Y-142132272D01*
X130621302Y-141925358D01*
X130650118Y-141817813D01*
X133466496Y-141817813D01*
X133466496Y-142182187D01*
X133474826Y-142266758D01*
X133502209Y-142544795D01*
X133502212Y-142544812D01*
X133573291Y-142902158D01*
X133573294Y-142902169D01*
X133679070Y-143250868D01*
X133818510Y-143587502D01*
X133818512Y-143587507D01*
X133990267Y-143908837D01*
X133990278Y-143908855D01*
X134192703Y-144211806D01*
X134192713Y-144211820D01*
X134423869Y-144493485D01*
X134681510Y-144751126D01*
X134681515Y-144751130D01*
X134681516Y-144751131D01*
X134963181Y-144982287D01*
X135266147Y-145184722D01*
X135266156Y-145184727D01*
X135266158Y-145184728D01*
X135587488Y-145356483D01*
X135587490Y-145356483D01*
X135587496Y-145356487D01*
X135792661Y-145441469D01*
X135924127Y-145495925D01*
X135924131Y-145495926D01*
X135924133Y-145495927D01*
X136272817Y-145601699D01*
X136272823Y-145601700D01*
X136272826Y-145601701D01*
X136272837Y-145601704D01*
X136496923Y-145646276D01*
X136630190Y-145672785D01*
X136992809Y-145708500D01*
X136992812Y-145708500D01*
X137357180Y-145708500D01*
X137357183Y-145708500D01*
X137719802Y-145672785D01*
X137896692Y-145637599D01*
X138077154Y-145601704D01*
X138077165Y-145601701D01*
X138077165Y-145601700D01*
X138077175Y-145601699D01*
X138425859Y-145495927D01*
X138762496Y-145356487D01*
X139083845Y-145184722D01*
X139386811Y-144982287D01*
X139668476Y-144751131D01*
X139926127Y-144493480D01*
X140157283Y-144211815D01*
X140359718Y-143908849D01*
X140531483Y-143587500D01*
X140670923Y-143250863D01*
X140776695Y-142902179D01*
X140776697Y-142902169D01*
X140776700Y-142902158D01*
X140822373Y-142672540D01*
X140847781Y-142544806D01*
X140883496Y-142182187D01*
X140883496Y-141817813D01*
X140847781Y-141455194D01*
X140816117Y-141296009D01*
X140776700Y-141097841D01*
X140776697Y-141097830D01*
X140776696Y-141097827D01*
X140776695Y-141097821D01*
X140670923Y-140749137D01*
X140665126Y-140735143D01*
X140592511Y-140559835D01*
X140531483Y-140412500D01*
X140442535Y-140246091D01*
X140359724Y-140091162D01*
X140359723Y-140091160D01*
X140359718Y-140091151D01*
X140157283Y-139788185D01*
X139926127Y-139506520D01*
X139926126Y-139506519D01*
X139926122Y-139506514D01*
X139668481Y-139248873D01*
X139386816Y-139017717D01*
X139386815Y-139017716D01*
X139386811Y-139017713D01*
X139083845Y-138815278D01*
X139083840Y-138815275D01*
X139083833Y-138815271D01*
X138762503Y-138643516D01*
X138762498Y-138643514D01*
X138425864Y-138504074D01*
X138077165Y-138398298D01*
X138077154Y-138398295D01*
X137719808Y-138327216D01*
X137719791Y-138327213D01*
X137445576Y-138300206D01*
X137357183Y-138291500D01*
X136992809Y-138291500D01*
X136911058Y-138299551D01*
X136630200Y-138327213D01*
X136630183Y-138327216D01*
X136272837Y-138398295D01*
X136272826Y-138398298D01*
X135924127Y-138504074D01*
X135587493Y-138643514D01*
X135587488Y-138643516D01*
X135266158Y-138815271D01*
X135266140Y-138815282D01*
X134963189Y-139017707D01*
X134963175Y-139017717D01*
X134681510Y-139248873D01*
X134423869Y-139506514D01*
X134192713Y-139788179D01*
X134192703Y-139788193D01*
X133990278Y-140091144D01*
X133990267Y-140091162D01*
X133818512Y-140412492D01*
X133818510Y-140412497D01*
X133679070Y-140749131D01*
X133573294Y-141097830D01*
X133573291Y-141097841D01*
X133502212Y-141455187D01*
X133502209Y-141455204D01*
X133477210Y-141709029D01*
X133466496Y-141817813D01*
X130650118Y-141817813D01*
X130679267Y-141709027D01*
X130708500Y-141486981D01*
X130708500Y-141263019D01*
X130679267Y-141040973D01*
X130621302Y-140824642D01*
X130535595Y-140617728D01*
X130535593Y-140617725D01*
X130535591Y-140617720D01*
X130423618Y-140423779D01*
X130423614Y-140423772D01*
X130287275Y-140246091D01*
X130287270Y-140246085D01*
X130128914Y-140087729D01*
X130128907Y-140087723D01*
X129951236Y-139951392D01*
X129951234Y-139951390D01*
X129951228Y-139951386D01*
X129951223Y-139951383D01*
X129951220Y-139951381D01*
X129757279Y-139839408D01*
X129757262Y-139839400D01*
X129550358Y-139753698D01*
X129334027Y-139695733D01*
X129334021Y-139695732D01*
X129334016Y-139695731D01*
X129111990Y-139666501D01*
X129111987Y-139666500D01*
X129111981Y-139666500D01*
X128888019Y-139666500D01*
X128888013Y-139666500D01*
X128888009Y-139666501D01*
X128665983Y-139695731D01*
X128665976Y-139695732D01*
X128665973Y-139695733D01*
X128574535Y-139720233D01*
X128449641Y-139753698D01*
X128242737Y-139839400D01*
X128242720Y-139839408D01*
X128048779Y-139951381D01*
X128048763Y-139951392D01*
X127871092Y-140087723D01*
X127871085Y-140087729D01*
X127712729Y-140246085D01*
X127712723Y-140246092D01*
X127576392Y-140423763D01*
X127576381Y-140423779D01*
X127464408Y-140617720D01*
X127464400Y-140617737D01*
X127378698Y-140824641D01*
X127320734Y-141040970D01*
X127320731Y-141040983D01*
X127291501Y-141263009D01*
X127291500Y-141263025D01*
X126091162Y-141263025D01*
X126059111Y-141143409D01*
X125980119Y-141006592D01*
X125973527Y-141000000D01*
X126950000Y-141000000D01*
X126950000Y-140150373D01*
X126949999Y-140150371D01*
X126935496Y-140077459D01*
X126935494Y-140077455D01*
X126880239Y-139994760D01*
X126797544Y-139939505D01*
X126797540Y-139939503D01*
X126724627Y-139925000D01*
X125875000Y-139925000D01*
X125875000Y-140901473D01*
X125868408Y-140894881D01*
X125731591Y-140815889D01*
X125578991Y-140775000D01*
X125421009Y-140775000D01*
X125268409Y-140815889D01*
X125131592Y-140894881D01*
X125125000Y-140901473D01*
X125125000Y-139925000D01*
X124275373Y-139925000D01*
X124202459Y-139939503D01*
X124202455Y-139939505D01*
X124119760Y-139994760D01*
X124064505Y-140077455D01*
X124064503Y-140077459D01*
X124050000Y-140150371D01*
X119423500Y-140150371D01*
X119423500Y-139961272D01*
X119386356Y-139726758D01*
X119314794Y-139506514D01*
X119312982Y-139500937D01*
X119312980Y-139500934D01*
X119312980Y-139500932D01*
X119256114Y-139389328D01*
X119205185Y-139289373D01*
X119065620Y-139097278D01*
X118897722Y-138929380D01*
X118897718Y-138929376D01*
X118871487Y-138910319D01*
X118828820Y-138854990D01*
X118822840Y-138785376D01*
X118855446Y-138723581D01*
X118871487Y-138709681D01*
X118897718Y-138690623D01*
X118897718Y-138690622D01*
X118897722Y-138690620D01*
X119065620Y-138522722D01*
X119205185Y-138330627D01*
X119312982Y-138119063D01*
X119386356Y-137893241D01*
X119389833Y-137871288D01*
X119423500Y-137658727D01*
X119423500Y-137421272D01*
X119386356Y-137186758D01*
X119312980Y-136960932D01*
X119205184Y-136749372D01*
X119183634Y-136719711D01*
X119065620Y-136557278D01*
X118897722Y-136389380D01*
X118897718Y-136389376D01*
X118871487Y-136370319D01*
X118828820Y-136314990D01*
X118822840Y-136245376D01*
X118855446Y-136183581D01*
X118871487Y-136169681D01*
X118897718Y-136150623D01*
X118897718Y-136150622D01*
X118897722Y-136150620D01*
X119065620Y-135982722D01*
X119205185Y-135790627D01*
X119312982Y-135579063D01*
X119386356Y-135353241D01*
X119423500Y-135118727D01*
X119423500Y-134881272D01*
X119386356Y-134646758D01*
X119312980Y-134420932D01*
X119205184Y-134209372D01*
X119065620Y-134017278D01*
X118897722Y-133849380D01*
X118897718Y-133849376D01*
X118871487Y-133830319D01*
X118828820Y-133774990D01*
X118822840Y-133705376D01*
X118855446Y-133643581D01*
X118871487Y-133629681D01*
X118897718Y-133610623D01*
X118897718Y-133610622D01*
X118897722Y-133610620D01*
X119065620Y-133442722D01*
X119205185Y-133250627D01*
X119312982Y-133039063D01*
X119386356Y-132813241D01*
X119402925Y-132708627D01*
X119423500Y-132578727D01*
X119423500Y-132341272D01*
X119386356Y-132106758D01*
X119352312Y-132001984D01*
X119312982Y-131880937D01*
X119312980Y-131880934D01*
X119312980Y-131880932D01*
X119257140Y-131771340D01*
X119205185Y-131669373D01*
X119205181Y-131669367D01*
X119203450Y-131666543D01*
X119203118Y-131665316D01*
X119202973Y-131665032D01*
X119203032Y-131665001D01*
X119195764Y-131638147D01*
X119185485Y-131610586D01*
X119186741Y-131604808D01*
X119185197Y-131599100D01*
X119194084Y-131571053D01*
X119200337Y-131542313D01*
X119205288Y-131535698D01*
X119206304Y-131532495D01*
X119221483Y-131514064D01*
X119233391Y-131502156D01*
X134800000Y-131502156D01*
X134800000Y-132125000D01*
X135776473Y-132125000D01*
X135769881Y-132131592D01*
X135690889Y-132268409D01*
X135650000Y-132421009D01*
X135650000Y-132578991D01*
X135690889Y-132731591D01*
X135769881Y-132868408D01*
X135776473Y-132875000D01*
X134800001Y-132875000D01*
X134800001Y-133497830D01*
X134806402Y-133557377D01*
X134856647Y-133692087D01*
X134942811Y-133807188D01*
X135057909Y-133893350D01*
X135192629Y-133943598D01*
X135192628Y-133943598D01*
X135252164Y-133949999D01*
X135874999Y-133949999D01*
X135875000Y-133949998D01*
X135875000Y-132973527D01*
X135881592Y-132980119D01*
X136018409Y-133059111D01*
X136171009Y-133100000D01*
X136328991Y-133100000D01*
X136481591Y-133059111D01*
X136618408Y-132980119D01*
X136625000Y-132973527D01*
X136625000Y-133949999D01*
X137247823Y-133949999D01*
X137247830Y-133949998D01*
X137307377Y-133943597D01*
X137442087Y-133893352D01*
X137557188Y-133807188D01*
X137643350Y-133692090D01*
X137693598Y-133557371D01*
X137699999Y-133497843D01*
X137700000Y-133497826D01*
X137700000Y-132875000D01*
X136723527Y-132875000D01*
X136730119Y-132868408D01*
X136809111Y-132731591D01*
X136850000Y-132578991D01*
X136850000Y-132421009D01*
X136809111Y-132268409D01*
X136730119Y-132131592D01*
X136723527Y-132125000D01*
X137699999Y-132125000D01*
X137699999Y-131502176D01*
X137699998Y-131502169D01*
X137693597Y-131442622D01*
X137643352Y-131307912D01*
X137557188Y-131192811D01*
X137442090Y-131106649D01*
X137307370Y-131056401D01*
X137307371Y-131056401D01*
X137247843Y-131050000D01*
X136625000Y-131050000D01*
X136625000Y-132026473D01*
X136618408Y-132019881D01*
X136481591Y-131940889D01*
X136328991Y-131900000D01*
X136171009Y-131900000D01*
X136018409Y-131940889D01*
X135881592Y-132019881D01*
X135875000Y-132026473D01*
X135875000Y-131050000D01*
X135252176Y-131050000D01*
X135252169Y-131050001D01*
X135192622Y-131056402D01*
X135057912Y-131106647D01*
X134942811Y-131192811D01*
X134856649Y-131307909D01*
X134806401Y-131442628D01*
X134800000Y-131502156D01*
X119233391Y-131502156D01*
X121486922Y-129248627D01*
X121567032Y-129109872D01*
X121574702Y-129081246D01*
X121608500Y-128955111D01*
X121608500Y-116898410D01*
X121628185Y-116831371D01*
X121644815Y-116810733D01*
X122042668Y-116412879D01*
X122103989Y-116379396D01*
X122168665Y-116382630D01*
X122185128Y-116387980D01*
X122206883Y-116395049D01*
X122312484Y-116411774D01*
X122418084Y-116428500D01*
X122418085Y-116428500D01*
X122631915Y-116428500D01*
X122631916Y-116428500D01*
X122843116Y-116395049D01*
X123046483Y-116328972D01*
X123237009Y-116231894D01*
X123410004Y-116106206D01*
X123561206Y-115955004D01*
X123686894Y-115782009D01*
X123783972Y-115591483D01*
X123850049Y-115388116D01*
X123883500Y-115176916D01*
X123883500Y-114963084D01*
X123850049Y-114751884D01*
X123814334Y-114641962D01*
X123812339Y-114572120D01*
X123844582Y-114515965D01*
X124220879Y-114139668D01*
X130482767Y-114139668D01*
X130482767Y-114298937D01*
X130513835Y-114455126D01*
X130513837Y-114455134D01*
X130565405Y-114579630D01*
X130574784Y-114602271D01*
X130620603Y-114670844D01*
X130641480Y-114737519D01*
X130641500Y-114739733D01*
X130641500Y-120580109D01*
X130682968Y-120734874D01*
X130708890Y-120779771D01*
X130763078Y-120873627D01*
X130763080Y-120873629D01*
X134631734Y-124742283D01*
X134665219Y-124803606D01*
X134660235Y-124873298D01*
X134658614Y-124877416D01*
X134628703Y-124949626D01*
X134628698Y-124949642D01*
X134570734Y-125165970D01*
X134570731Y-125165983D01*
X134541501Y-125388009D01*
X134541500Y-125388025D01*
X134541500Y-125611974D01*
X134541501Y-125611990D01*
X134570731Y-125834016D01*
X134570732Y-125834021D01*
X134570733Y-125834027D01*
X134610387Y-125982018D01*
X134628698Y-126050358D01*
X134714400Y-126257262D01*
X134714408Y-126257279D01*
X134826381Y-126451220D01*
X134826392Y-126451236D01*
X134962723Y-126628907D01*
X134962729Y-126628914D01*
X135121085Y-126787270D01*
X135121092Y-126787276D01*
X135237321Y-126876461D01*
X135298772Y-126923614D01*
X135298779Y-126923618D01*
X135492720Y-127035591D01*
X135492725Y-127035593D01*
X135492728Y-127035595D01*
X135492732Y-127035596D01*
X135492737Y-127035599D01*
X135558355Y-127062778D01*
X135699642Y-127121302D01*
X135732946Y-127130225D01*
X135792606Y-127166590D01*
X135823135Y-127229437D01*
X135814840Y-127298812D01*
X135770355Y-127352690D01*
X135732947Y-127369774D01*
X135712968Y-127375127D01*
X135699641Y-127378698D01*
X135492737Y-127464400D01*
X135492720Y-127464408D01*
X135298779Y-127576381D01*
X135298763Y-127576392D01*
X135121092Y-127712723D01*
X135121085Y-127712729D01*
X134962729Y-127871085D01*
X134962723Y-127871092D01*
X134826392Y-128048763D01*
X134826381Y-128048779D01*
X134714408Y-128242720D01*
X134714400Y-128242737D01*
X134628698Y-128449641D01*
X134570734Y-128665970D01*
X134570731Y-128665983D01*
X134541501Y-128888009D01*
X134541500Y-128888025D01*
X134541500Y-129111974D01*
X134541501Y-129111990D01*
X134570731Y-129334016D01*
X134570732Y-129334021D01*
X134570733Y-129334027D01*
X134607158Y-129469969D01*
X134628698Y-129550358D01*
X134714400Y-129757262D01*
X134714408Y-129757279D01*
X134826381Y-129951220D01*
X134826392Y-129951236D01*
X134962723Y-130128907D01*
X134962729Y-130128914D01*
X135121085Y-130287270D01*
X135121092Y-130287276D01*
X135194957Y-130343954D01*
X135298772Y-130423614D01*
X135298779Y-130423618D01*
X135492720Y-130535591D01*
X135492725Y-130535593D01*
X135492728Y-130535595D01*
X135492732Y-130535596D01*
X135492737Y-130535599D01*
X135558355Y-130562778D01*
X135699642Y-130621302D01*
X135915973Y-130679267D01*
X136138019Y-130708500D01*
X136138026Y-130708500D01*
X136361974Y-130708500D01*
X136361981Y-130708500D01*
X136584027Y-130679267D01*
X136800358Y-130621302D01*
X137007272Y-130535595D01*
X137201228Y-130423614D01*
X137378909Y-130287275D01*
X137537275Y-130128909D01*
X137673614Y-129951228D01*
X137785595Y-129757272D01*
X137871302Y-129550358D01*
X137929267Y-129334027D01*
X137958500Y-129111981D01*
X137958500Y-128888019D01*
X137929267Y-128665973D01*
X137871302Y-128449642D01*
X137785595Y-128242728D01*
X137785593Y-128242725D01*
X137785591Y-128242720D01*
X137673618Y-128048779D01*
X137673614Y-128048772D01*
X137559509Y-127900067D01*
X137537276Y-127871092D01*
X137537270Y-127871085D01*
X137378914Y-127712729D01*
X137378907Y-127712723D01*
X137201236Y-127576392D01*
X137201234Y-127576390D01*
X137201228Y-127576386D01*
X137201223Y-127576383D01*
X137201220Y-127576381D01*
X137007279Y-127464408D01*
X137007262Y-127464400D01*
X136800358Y-127378698D01*
X136800355Y-127378697D01*
X136789427Y-127375769D01*
X136767053Y-127369774D01*
X136707394Y-127333411D01*
X136676864Y-127270564D01*
X136685158Y-127201189D01*
X136729643Y-127147310D01*
X136767052Y-127130225D01*
X136800358Y-127121302D01*
X137007272Y-127035595D01*
X137201228Y-126923614D01*
X137378909Y-126787275D01*
X137537275Y-126628909D01*
X137673614Y-126451228D01*
X137785595Y-126257272D01*
X137871302Y-126050358D01*
X137929267Y-125834027D01*
X137958500Y-125611981D01*
X137958500Y-125388019D01*
X137929267Y-125165973D01*
X137871302Y-124949642D01*
X137785595Y-124742728D01*
X137785593Y-124742725D01*
X137785591Y-124742720D01*
X137673618Y-124548779D01*
X137673614Y-124548772D01*
X137537275Y-124371091D01*
X137537270Y-124371085D01*
X137378914Y-124212729D01*
X137378907Y-124212723D01*
X137201236Y-124076392D01*
X137201234Y-124076390D01*
X137201228Y-124076386D01*
X137201223Y-124076383D01*
X137201220Y-124076381D01*
X137007279Y-123964408D01*
X137007262Y-123964400D01*
X136800358Y-123878698D01*
X136584027Y-123820733D01*
X136584021Y-123820732D01*
X136584016Y-123820731D01*
X136361990Y-123791501D01*
X136361987Y-123791500D01*
X136361981Y-123791500D01*
X136138019Y-123791500D01*
X136138013Y-123791500D01*
X136138009Y-123791501D01*
X135915983Y-123820731D01*
X135915976Y-123820732D01*
X135915973Y-123820733D01*
X135699642Y-123878698D01*
X135699626Y-123878703D01*
X135627416Y-123908614D01*
X135557947Y-123916083D01*
X135495468Y-123884808D01*
X135492283Y-123881734D01*
X131894819Y-120284270D01*
X131861334Y-120222947D01*
X131858500Y-120196589D01*
X131858500Y-119502156D01*
X134800000Y-119502156D01*
X134800000Y-120125000D01*
X135776473Y-120125000D01*
X135769881Y-120131592D01*
X135690889Y-120268409D01*
X135650000Y-120421009D01*
X135650000Y-120578991D01*
X135690889Y-120731591D01*
X135769881Y-120868408D01*
X135776473Y-120875000D01*
X134800001Y-120875000D01*
X134800001Y-121497830D01*
X134806402Y-121557377D01*
X134856647Y-121692087D01*
X134942811Y-121807188D01*
X135057909Y-121893350D01*
X135192629Y-121943598D01*
X135192628Y-121943598D01*
X135252164Y-121949999D01*
X135874999Y-121949999D01*
X135875000Y-121949998D01*
X135875000Y-120973527D01*
X135881592Y-120980119D01*
X136018409Y-121059111D01*
X136171009Y-121100000D01*
X136328991Y-121100000D01*
X136481591Y-121059111D01*
X136618408Y-120980119D01*
X136625000Y-120973527D01*
X136625000Y-121949999D01*
X137247823Y-121949999D01*
X137247830Y-121949998D01*
X137307377Y-121943597D01*
X137442087Y-121893352D01*
X137557188Y-121807188D01*
X137643350Y-121692090D01*
X137693598Y-121557371D01*
X137699999Y-121497843D01*
X137700000Y-121497826D01*
X137700000Y-120875000D01*
X136723527Y-120875000D01*
X136730119Y-120868408D01*
X136809111Y-120731591D01*
X136850000Y-120578991D01*
X136850000Y-120421009D01*
X136809111Y-120268409D01*
X136730119Y-120131592D01*
X136723527Y-120125000D01*
X137699999Y-120125000D01*
X137699999Y-119502176D01*
X137699998Y-119502169D01*
X137693597Y-119442622D01*
X137643352Y-119307912D01*
X137557188Y-119192811D01*
X137442090Y-119106649D01*
X137307370Y-119056401D01*
X137307371Y-119056401D01*
X137247843Y-119050000D01*
X136625000Y-119050000D01*
X136625000Y-120026473D01*
X136618408Y-120019881D01*
X136481591Y-119940889D01*
X136328991Y-119900000D01*
X136171009Y-119900000D01*
X136018409Y-119940889D01*
X135881592Y-120019881D01*
X135875000Y-120026473D01*
X135875000Y-119050000D01*
X135252176Y-119050000D01*
X135252169Y-119050001D01*
X135192622Y-119056402D01*
X135057912Y-119106647D01*
X134942811Y-119192811D01*
X134856649Y-119307909D01*
X134806401Y-119442628D01*
X134800000Y-119502156D01*
X131858500Y-119502156D01*
X131858500Y-115275725D01*
X131878185Y-115208686D01*
X131930989Y-115162931D01*
X132000147Y-115152987D01*
X132051389Y-115172622D01*
X132117032Y-115216483D01*
X132264169Y-115277430D01*
X132371665Y-115298812D01*
X132420365Y-115308499D01*
X132420369Y-115308500D01*
X132420370Y-115308500D01*
X132579631Y-115308500D01*
X132579632Y-115308499D01*
X132735831Y-115277430D01*
X132882968Y-115216483D01*
X133015389Y-115128003D01*
X133128003Y-115015389D01*
X133216483Y-114882968D01*
X133277430Y-114735831D01*
X133308010Y-114582089D01*
X133340394Y-114520181D01*
X133341888Y-114518660D01*
X133715730Y-114144819D01*
X133777053Y-114111334D01*
X133803411Y-114108500D01*
X134569927Y-114108500D01*
X134636966Y-114128185D01*
X134682721Y-114180989D01*
X134684487Y-114185046D01*
X134714404Y-114257271D01*
X134714409Y-114257280D01*
X134826381Y-114451220D01*
X134826392Y-114451236D01*
X134962723Y-114628907D01*
X134962729Y-114628914D01*
X135121085Y-114787270D01*
X135121091Y-114787275D01*
X135298772Y-114923614D01*
X135298779Y-114923618D01*
X135492720Y-115035591D01*
X135492725Y-115035593D01*
X135492728Y-115035595D01*
X135492732Y-115035596D01*
X135492737Y-115035599D01*
X135523666Y-115048410D01*
X135699642Y-115121302D01*
X135732946Y-115130225D01*
X135792606Y-115166590D01*
X135823135Y-115229437D01*
X135814840Y-115298812D01*
X135770355Y-115352690D01*
X135732947Y-115369774D01*
X135712968Y-115375127D01*
X135699641Y-115378698D01*
X135492737Y-115464400D01*
X135492720Y-115464408D01*
X135298779Y-115576381D01*
X135298763Y-115576392D01*
X135121092Y-115712723D01*
X135121085Y-115712729D01*
X134962729Y-115871085D01*
X134962723Y-115871092D01*
X134826392Y-116048763D01*
X134826381Y-116048779D01*
X134714408Y-116242720D01*
X134714400Y-116242737D01*
X134628698Y-116449641D01*
X134570734Y-116665970D01*
X134570731Y-116665983D01*
X134541501Y-116888009D01*
X134541500Y-116888025D01*
X134541500Y-117111974D01*
X134541501Y-117111990D01*
X134570731Y-117334016D01*
X134570732Y-117334021D01*
X134570733Y-117334027D01*
X134570734Y-117334029D01*
X134628698Y-117550358D01*
X134714400Y-117757262D01*
X134714408Y-117757279D01*
X134826381Y-117951220D01*
X134826392Y-117951236D01*
X134962723Y-118128907D01*
X134962729Y-118128914D01*
X135121085Y-118287270D01*
X135121091Y-118287275D01*
X135298772Y-118423614D01*
X135298779Y-118423618D01*
X135492720Y-118535591D01*
X135492725Y-118535593D01*
X135492728Y-118535595D01*
X135492732Y-118535596D01*
X135492737Y-118535599D01*
X135558355Y-118562778D01*
X135699642Y-118621302D01*
X135915973Y-118679267D01*
X136138019Y-118708500D01*
X136138026Y-118708500D01*
X136361974Y-118708500D01*
X136361981Y-118708500D01*
X136584027Y-118679267D01*
X136800358Y-118621302D01*
X137007272Y-118535595D01*
X137201228Y-118423614D01*
X137378909Y-118287275D01*
X137537275Y-118128909D01*
X137673614Y-117951228D01*
X137785595Y-117757272D01*
X137871302Y-117550358D01*
X137929267Y-117334027D01*
X137958500Y-117111981D01*
X137958500Y-116888019D01*
X137929267Y-116665973D01*
X137871302Y-116449642D01*
X137785595Y-116242728D01*
X137785593Y-116242725D01*
X137785591Y-116242720D01*
X137673618Y-116048779D01*
X137673614Y-116048772D01*
X137537275Y-115871091D01*
X137537270Y-115871085D01*
X137378914Y-115712729D01*
X137378907Y-115712723D01*
X137201236Y-115576392D01*
X137201234Y-115576390D01*
X137201228Y-115576386D01*
X137201223Y-115576383D01*
X137201220Y-115576381D01*
X137007279Y-115464408D01*
X137007262Y-115464400D01*
X136800358Y-115378698D01*
X136800355Y-115378697D01*
X136789427Y-115375769D01*
X136767053Y-115369774D01*
X136707394Y-115333411D01*
X136676864Y-115270564D01*
X136685158Y-115201189D01*
X136729643Y-115147310D01*
X136767052Y-115130225D01*
X136800358Y-115121302D01*
X137007272Y-115035595D01*
X137201228Y-114923614D01*
X137378909Y-114787275D01*
X137537275Y-114628909D01*
X137673614Y-114451228D01*
X137785595Y-114257272D01*
X137871302Y-114050358D01*
X137929267Y-113834027D01*
X137958500Y-113611981D01*
X137958500Y-113388019D01*
X137929267Y-113165973D01*
X137871302Y-112949642D01*
X137785595Y-112742728D01*
X137785593Y-112742725D01*
X137785591Y-112742720D01*
X137673618Y-112548779D01*
X137673614Y-112548772D01*
X137537275Y-112371091D01*
X137537270Y-112371085D01*
X137378914Y-112212729D01*
X137378907Y-112212723D01*
X137201236Y-112076392D01*
X137201234Y-112076390D01*
X137201228Y-112076386D01*
X137201223Y-112076383D01*
X137201220Y-112076381D01*
X137007279Y-111964408D01*
X137007262Y-111964400D01*
X136800358Y-111878698D01*
X136712590Y-111855181D01*
X136584027Y-111820733D01*
X136584021Y-111820732D01*
X136584016Y-111820731D01*
X136361990Y-111791501D01*
X136361987Y-111791500D01*
X136361981Y-111791500D01*
X136138019Y-111791500D01*
X136138013Y-111791500D01*
X136138009Y-111791501D01*
X135915983Y-111820731D01*
X135915976Y-111820732D01*
X135915973Y-111820733D01*
X135824535Y-111845233D01*
X135699641Y-111878698D01*
X135492737Y-111964400D01*
X135492720Y-111964408D01*
X135298779Y-112076381D01*
X135298763Y-112076392D01*
X135121092Y-112212723D01*
X135121085Y-112212729D01*
X134962729Y-112371085D01*
X134962723Y-112371092D01*
X134826392Y-112548763D01*
X134826381Y-112548779D01*
X134714409Y-112742719D01*
X134714404Y-112742728D01*
X134684487Y-112814954D01*
X134640646Y-112869357D01*
X134574351Y-112891421D01*
X134569927Y-112891500D01*
X133419889Y-112891500D01*
X133265128Y-112932968D01*
X133265125Y-112932969D01*
X133126376Y-113013075D01*
X133126371Y-113013079D01*
X132481397Y-113658053D01*
X132420074Y-113691538D01*
X132417907Y-113691989D01*
X132264176Y-113722568D01*
X132264168Y-113722570D01*
X132117030Y-113783517D01*
X132111662Y-113786387D01*
X132110608Y-113784416D01*
X132053466Y-113802289D01*
X131986092Y-113783782D01*
X131948193Y-113747201D01*
X131919270Y-113703914D01*
X131919267Y-113703911D01*
X131919265Y-113703908D01*
X131806661Y-113591304D01*
X131806654Y-113591298D01*
X131674236Y-113502820D01*
X131527098Y-113441873D01*
X131527090Y-113441871D01*
X131370901Y-113410803D01*
X131370897Y-113410803D01*
X131211637Y-113410803D01*
X131211632Y-113410803D01*
X131055443Y-113441871D01*
X131055435Y-113441873D01*
X130908297Y-113502820D01*
X130775879Y-113591298D01*
X130775872Y-113591304D01*
X130663268Y-113703908D01*
X130663262Y-113703915D01*
X130574784Y-113836333D01*
X130513837Y-113983471D01*
X130513835Y-113983479D01*
X130482767Y-114139668D01*
X124220879Y-114139668D01*
X129486922Y-108873627D01*
X129567032Y-108734872D01*
X129608500Y-108580110D01*
X129608500Y-108419890D01*
X129608500Y-108332191D01*
X129628185Y-108265152D01*
X129629357Y-108263361D01*
X129716483Y-108132968D01*
X129777430Y-107985831D01*
X129808500Y-107829630D01*
X129808500Y-107670370D01*
X129777430Y-107514169D01*
X129716483Y-107367032D01*
X129628003Y-107234611D01*
X129628002Y-107234610D01*
X129628000Y-107234607D01*
X129563758Y-107170365D01*
X130691500Y-107170365D01*
X130691500Y-107329634D01*
X130722568Y-107485823D01*
X130722570Y-107485831D01*
X130783517Y-107632969D01*
X130871995Y-107765387D01*
X130872001Y-107765394D01*
X130984605Y-107877998D01*
X130984612Y-107878004D01*
X131117030Y-107966482D01*
X131117031Y-107966482D01*
X131117032Y-107966483D01*
X131264169Y-108027430D01*
X131420365Y-108058499D01*
X131420369Y-108058500D01*
X131420370Y-108058500D01*
X131579631Y-108058500D01*
X131579632Y-108058499D01*
X131735831Y-108027430D01*
X131882968Y-107966483D01*
X131882973Y-107966479D01*
X131882976Y-107966478D01*
X131931108Y-107934317D01*
X131997785Y-107913438D01*
X132065166Y-107931922D01*
X132068892Y-107934317D01*
X132117023Y-107966478D01*
X132117029Y-107966481D01*
X132117032Y-107966483D01*
X132264169Y-108027430D01*
X132420365Y-108058499D01*
X132420369Y-108058500D01*
X132420370Y-108058500D01*
X132579631Y-108058500D01*
X132579632Y-108058499D01*
X132735831Y-108027430D01*
X132882968Y-107966483D01*
X133015389Y-107878003D01*
X133128003Y-107765389D01*
X133216483Y-107632968D01*
X133270668Y-107502156D01*
X134800000Y-107502156D01*
X134800000Y-108125000D01*
X135776473Y-108125000D01*
X135769881Y-108131592D01*
X135690889Y-108268409D01*
X135650000Y-108421009D01*
X135650000Y-108578991D01*
X135690889Y-108731591D01*
X135769881Y-108868408D01*
X135776473Y-108875000D01*
X134800001Y-108875000D01*
X134800001Y-109497830D01*
X134806402Y-109557377D01*
X134856647Y-109692087D01*
X134942811Y-109807188D01*
X135057909Y-109893350D01*
X135192629Y-109943598D01*
X135192628Y-109943598D01*
X135252164Y-109949999D01*
X135874999Y-109949999D01*
X135875000Y-109949998D01*
X135875000Y-108973527D01*
X135881592Y-108980119D01*
X136018409Y-109059111D01*
X136171009Y-109100000D01*
X136328991Y-109100000D01*
X136481591Y-109059111D01*
X136618408Y-108980119D01*
X136625000Y-108973527D01*
X136625000Y-109949999D01*
X137247823Y-109949999D01*
X137247830Y-109949998D01*
X137307377Y-109943597D01*
X137442087Y-109893352D01*
X137557188Y-109807188D01*
X137643350Y-109692090D01*
X137693598Y-109557371D01*
X137699999Y-109497843D01*
X137700000Y-109497826D01*
X137700000Y-108875000D01*
X136723527Y-108875000D01*
X136730119Y-108868408D01*
X136809111Y-108731591D01*
X136850000Y-108578991D01*
X136850000Y-108421009D01*
X136809111Y-108268409D01*
X136730119Y-108131592D01*
X136723527Y-108125000D01*
X137699999Y-108125000D01*
X137699999Y-107502176D01*
X137699998Y-107502169D01*
X137693597Y-107442622D01*
X137643352Y-107307912D01*
X137557188Y-107192811D01*
X137442090Y-107106649D01*
X137307370Y-107056401D01*
X137307371Y-107056401D01*
X137247843Y-107050000D01*
X136625000Y-107050000D01*
X136625000Y-108026473D01*
X136618408Y-108019881D01*
X136481591Y-107940889D01*
X136328991Y-107900000D01*
X136171009Y-107900000D01*
X136018409Y-107940889D01*
X135881592Y-108019881D01*
X135875000Y-108026473D01*
X135875000Y-107050000D01*
X135252176Y-107050000D01*
X135252169Y-107050001D01*
X135192622Y-107056402D01*
X135057912Y-107106647D01*
X134942811Y-107192811D01*
X134856649Y-107307909D01*
X134806401Y-107442628D01*
X134800000Y-107502156D01*
X133270668Y-107502156D01*
X133277430Y-107485831D01*
X133308500Y-107329630D01*
X133308500Y-107170370D01*
X133277430Y-107014169D01*
X133216483Y-106867032D01*
X133216482Y-106867030D01*
X133216482Y-106867029D01*
X133129398Y-106736698D01*
X133108520Y-106670021D01*
X133108500Y-106667808D01*
X133108500Y-105553410D01*
X133128185Y-105486371D01*
X133144814Y-105465734D01*
X134521843Y-104088704D01*
X134583166Y-104055220D01*
X134652858Y-104060204D01*
X134708791Y-104102076D01*
X134733208Y-104167540D01*
X134718356Y-104235813D01*
X134716913Y-104238384D01*
X134714404Y-104242729D01*
X134714400Y-104242737D01*
X134628698Y-104449641D01*
X134570734Y-104665970D01*
X134570731Y-104665983D01*
X134541501Y-104888009D01*
X134541500Y-104888025D01*
X134541500Y-105111974D01*
X134541501Y-105111990D01*
X134570731Y-105334016D01*
X134570732Y-105334021D01*
X134570733Y-105334027D01*
X134570734Y-105334029D01*
X134628698Y-105550358D01*
X134714400Y-105757262D01*
X134714408Y-105757279D01*
X134826381Y-105951220D01*
X134826392Y-105951236D01*
X134962723Y-106128907D01*
X134962729Y-106128914D01*
X135121085Y-106287270D01*
X135121091Y-106287275D01*
X135298772Y-106423614D01*
X135298779Y-106423618D01*
X135492720Y-106535591D01*
X135492725Y-106535593D01*
X135492728Y-106535595D01*
X135492732Y-106535596D01*
X135492737Y-106535599D01*
X135558355Y-106562778D01*
X135699642Y-106621302D01*
X135915973Y-106679267D01*
X136138019Y-106708500D01*
X136138026Y-106708500D01*
X136361974Y-106708500D01*
X136361981Y-106708500D01*
X136584027Y-106679267D01*
X136800358Y-106621302D01*
X137007272Y-106535595D01*
X137201228Y-106423614D01*
X137378909Y-106287275D01*
X137537275Y-106128909D01*
X137673614Y-105951228D01*
X137785595Y-105757272D01*
X137871302Y-105550358D01*
X137929267Y-105334027D01*
X137958500Y-105111981D01*
X137958500Y-104888019D01*
X137929267Y-104665973D01*
X137871302Y-104449642D01*
X137785595Y-104242728D01*
X137785593Y-104242725D01*
X137785591Y-104242720D01*
X137673618Y-104048779D01*
X137673614Y-104048772D01*
X137537275Y-103871091D01*
X137537270Y-103871085D01*
X137378914Y-103712729D01*
X137378907Y-103712723D01*
X137201236Y-103576392D01*
X137201234Y-103576390D01*
X137201228Y-103576386D01*
X137201223Y-103576383D01*
X137201220Y-103576381D01*
X137007279Y-103464408D01*
X137007262Y-103464400D01*
X136800358Y-103378698D01*
X136800355Y-103378697D01*
X136789427Y-103375769D01*
X136767053Y-103369774D01*
X136707394Y-103333411D01*
X136676864Y-103270564D01*
X136685158Y-103201189D01*
X136729643Y-103147310D01*
X136767052Y-103130225D01*
X136800358Y-103121302D01*
X137007272Y-103035595D01*
X137201228Y-102923614D01*
X137378909Y-102787275D01*
X137537275Y-102628909D01*
X137673614Y-102451228D01*
X137785595Y-102257272D01*
X137871302Y-102050358D01*
X137929267Y-101834027D01*
X137958500Y-101611981D01*
X137958500Y-101388019D01*
X137929267Y-101165973D01*
X137871302Y-100949642D01*
X137785595Y-100742728D01*
X137785593Y-100742725D01*
X137785591Y-100742720D01*
X137673618Y-100548779D01*
X137673614Y-100548772D01*
X137566248Y-100408849D01*
X137537276Y-100371092D01*
X137537270Y-100371085D01*
X137378914Y-100212729D01*
X137378907Y-100212723D01*
X137201236Y-100076392D01*
X137201234Y-100076390D01*
X137201228Y-100076386D01*
X137201223Y-100076383D01*
X137201220Y-100076381D01*
X137007279Y-99964408D01*
X137007262Y-99964400D01*
X136800358Y-99878698D01*
X136584027Y-99820733D01*
X136584021Y-99820732D01*
X136584016Y-99820731D01*
X136361990Y-99791501D01*
X136361987Y-99791500D01*
X136361981Y-99791500D01*
X136138019Y-99791500D01*
X136138013Y-99791500D01*
X136138009Y-99791501D01*
X135915983Y-99820731D01*
X135915976Y-99820732D01*
X135915973Y-99820733D01*
X135824535Y-99845233D01*
X135699641Y-99878698D01*
X135492737Y-99964400D01*
X135492720Y-99964408D01*
X135298779Y-100076381D01*
X135298763Y-100076392D01*
X135121092Y-100212723D01*
X135121085Y-100212729D01*
X134962729Y-100371085D01*
X134962723Y-100371092D01*
X134826392Y-100548763D01*
X134826381Y-100548779D01*
X134714408Y-100742720D01*
X134714400Y-100742737D01*
X134628698Y-100949641D01*
X134570734Y-101165970D01*
X134570731Y-101165983D01*
X134541501Y-101388009D01*
X134541500Y-101388025D01*
X134541500Y-101611974D01*
X134541501Y-101611990D01*
X134570731Y-101834016D01*
X134570732Y-101834021D01*
X134570733Y-101834027D01*
X134628698Y-102050357D01*
X134628701Y-102050367D01*
X134658614Y-102122581D01*
X134666083Y-102192050D01*
X134634808Y-102254529D01*
X134631734Y-102257715D01*
X132320181Y-104569269D01*
X132258858Y-104602754D01*
X132189166Y-104597770D01*
X132133233Y-104555898D01*
X132108816Y-104490434D01*
X132108500Y-104481588D01*
X132108500Y-95502156D01*
X134800000Y-95502156D01*
X134800000Y-96125000D01*
X135776473Y-96125000D01*
X135769881Y-96131592D01*
X135690889Y-96268409D01*
X135650000Y-96421009D01*
X135650000Y-96578991D01*
X135690889Y-96731591D01*
X135769881Y-96868408D01*
X135776473Y-96875000D01*
X134800001Y-96875000D01*
X134800001Y-97497830D01*
X134806402Y-97557377D01*
X134856647Y-97692087D01*
X134942811Y-97807188D01*
X135057909Y-97893350D01*
X135192629Y-97943598D01*
X135192628Y-97943598D01*
X135252164Y-97949999D01*
X135874999Y-97949999D01*
X135875000Y-97949998D01*
X135875000Y-96973527D01*
X135881592Y-96980119D01*
X136018409Y-97059111D01*
X136171009Y-97100000D01*
X136328991Y-97100000D01*
X136481591Y-97059111D01*
X136618408Y-96980119D01*
X136625000Y-96973527D01*
X136625000Y-97949999D01*
X137247823Y-97949999D01*
X137247830Y-97949998D01*
X137307377Y-97943597D01*
X137442087Y-97893352D01*
X137557188Y-97807188D01*
X137643350Y-97692090D01*
X137693598Y-97557371D01*
X137699999Y-97497843D01*
X137700000Y-97497826D01*
X137700000Y-96875000D01*
X136723527Y-96875000D01*
X136730119Y-96868408D01*
X136809111Y-96731591D01*
X136850000Y-96578991D01*
X136850000Y-96421009D01*
X136809111Y-96268409D01*
X136730119Y-96131592D01*
X136723527Y-96125000D01*
X137699999Y-96125000D01*
X137699999Y-95502176D01*
X137699998Y-95502169D01*
X137693597Y-95442622D01*
X137643352Y-95307912D01*
X137557188Y-95192811D01*
X137442090Y-95106649D01*
X137307370Y-95056401D01*
X137307371Y-95056401D01*
X137247843Y-95050000D01*
X136625000Y-95050000D01*
X136625000Y-96026473D01*
X136618408Y-96019881D01*
X136481591Y-95940889D01*
X136328991Y-95900000D01*
X136171009Y-95900000D01*
X136018409Y-95940889D01*
X135881592Y-96019881D01*
X135875000Y-96026473D01*
X135875000Y-95050000D01*
X135252176Y-95050000D01*
X135252169Y-95050001D01*
X135192622Y-95056402D01*
X135057912Y-95106647D01*
X134942811Y-95192811D01*
X134856649Y-95307909D01*
X134806401Y-95442628D01*
X134800000Y-95502156D01*
X132108500Y-95502156D01*
X132108500Y-94553410D01*
X132128185Y-94486371D01*
X132144814Y-94465734D01*
X134521843Y-92088704D01*
X134583166Y-92055220D01*
X134652858Y-92060204D01*
X134708791Y-92102076D01*
X134733208Y-92167540D01*
X134718356Y-92235813D01*
X134716913Y-92238384D01*
X134714404Y-92242729D01*
X134714400Y-92242737D01*
X134628698Y-92449641D01*
X134570734Y-92665970D01*
X134570731Y-92665983D01*
X134541501Y-92888009D01*
X134541500Y-92888025D01*
X134541500Y-93111974D01*
X134541501Y-93111990D01*
X134570731Y-93334016D01*
X134570732Y-93334021D01*
X134570733Y-93334027D01*
X134606193Y-93466366D01*
X134628698Y-93550358D01*
X134714400Y-93757262D01*
X134714408Y-93757279D01*
X134826381Y-93951220D01*
X134826392Y-93951236D01*
X134962723Y-94128907D01*
X134962729Y-94128914D01*
X135121085Y-94287270D01*
X135121091Y-94287275D01*
X135298772Y-94423614D01*
X135298779Y-94423618D01*
X135492720Y-94535591D01*
X135492725Y-94535593D01*
X135492728Y-94535595D01*
X135492732Y-94535596D01*
X135492737Y-94535599D01*
X135493807Y-94536042D01*
X135699642Y-94621302D01*
X135915973Y-94679267D01*
X136138019Y-94708500D01*
X136138026Y-94708500D01*
X136361974Y-94708500D01*
X136361981Y-94708500D01*
X136584027Y-94679267D01*
X136800358Y-94621302D01*
X137007272Y-94535595D01*
X137201228Y-94423614D01*
X137378909Y-94287275D01*
X137537275Y-94128909D01*
X137673614Y-93951228D01*
X137785595Y-93757272D01*
X137871302Y-93550358D01*
X137929267Y-93334027D01*
X137958500Y-93111981D01*
X137958500Y-92888019D01*
X137929267Y-92665973D01*
X137871302Y-92449642D01*
X137805569Y-92290949D01*
X137785599Y-92242737D01*
X137785591Y-92242720D01*
X137673618Y-92048779D01*
X137673614Y-92048772D01*
X137591896Y-91942275D01*
X137537276Y-91871092D01*
X137537270Y-91871085D01*
X137378914Y-91712729D01*
X137378907Y-91712723D01*
X137201236Y-91576392D01*
X137201234Y-91576390D01*
X137201228Y-91576386D01*
X137201223Y-91576383D01*
X137201220Y-91576381D01*
X137007279Y-91464408D01*
X137007262Y-91464400D01*
X136800358Y-91378698D01*
X136800355Y-91378697D01*
X136789427Y-91375769D01*
X136767053Y-91369774D01*
X136707394Y-91333411D01*
X136676864Y-91270564D01*
X136685158Y-91201189D01*
X136729643Y-91147310D01*
X136767052Y-91130225D01*
X136800358Y-91121302D01*
X137007272Y-91035595D01*
X137201228Y-90923614D01*
X137378909Y-90787275D01*
X137537275Y-90628909D01*
X137673614Y-90451228D01*
X137785595Y-90257272D01*
X137871302Y-90050358D01*
X137929267Y-89834027D01*
X137958500Y-89611981D01*
X137958500Y-89388019D01*
X137929267Y-89165973D01*
X137871302Y-88949642D01*
X137798397Y-88773634D01*
X137785599Y-88742737D01*
X137785591Y-88742720D01*
X137673618Y-88548779D01*
X137673614Y-88548772D01*
X137537275Y-88371091D01*
X137537270Y-88371085D01*
X137378914Y-88212729D01*
X137378907Y-88212723D01*
X137201236Y-88076392D01*
X137201234Y-88076390D01*
X137201228Y-88076386D01*
X137201223Y-88076383D01*
X137201220Y-88076381D01*
X137007279Y-87964408D01*
X137007262Y-87964400D01*
X136800358Y-87878698D01*
X136584027Y-87820733D01*
X136584021Y-87820732D01*
X136584016Y-87820731D01*
X136361990Y-87791501D01*
X136361987Y-87791500D01*
X136361981Y-87791500D01*
X136138019Y-87791500D01*
X136138013Y-87791500D01*
X136138009Y-87791501D01*
X135915983Y-87820731D01*
X135915976Y-87820732D01*
X135915973Y-87820733D01*
X135824535Y-87845233D01*
X135699641Y-87878698D01*
X135492737Y-87964400D01*
X135492720Y-87964408D01*
X135298779Y-88076381D01*
X135298763Y-88076392D01*
X135121092Y-88212723D01*
X135121085Y-88212729D01*
X134962729Y-88371085D01*
X134962723Y-88371092D01*
X134826392Y-88548763D01*
X134826381Y-88548779D01*
X134714408Y-88742720D01*
X134714400Y-88742737D01*
X134628698Y-88949641D01*
X134570734Y-89165970D01*
X134570731Y-89165983D01*
X134541501Y-89388009D01*
X134541500Y-89388025D01*
X134541500Y-89611974D01*
X134541501Y-89611990D01*
X134570731Y-89834016D01*
X134570732Y-89834021D01*
X134570733Y-89834027D01*
X134614314Y-89996675D01*
X134628698Y-90050357D01*
X134628701Y-90050367D01*
X134658614Y-90122581D01*
X134666083Y-90192050D01*
X134634808Y-90254529D01*
X134631734Y-90257715D01*
X131013080Y-93876370D01*
X131013076Y-93876376D01*
X130932967Y-94015128D01*
X130915263Y-94081204D01*
X130891500Y-94169889D01*
X130891500Y-106667808D01*
X130871815Y-106734847D01*
X130870602Y-106736698D01*
X130783517Y-106867029D01*
X130783517Y-106867030D01*
X130722570Y-107014168D01*
X130722568Y-107014176D01*
X130691500Y-107170365D01*
X129563758Y-107170365D01*
X129515394Y-107122001D01*
X129515387Y-107121995D01*
X129382969Y-107033517D01*
X129235831Y-106972570D01*
X129235823Y-106972568D01*
X129079634Y-106941500D01*
X129079630Y-106941500D01*
X128920370Y-106941500D01*
X128920365Y-106941500D01*
X128764176Y-106972568D01*
X128764168Y-106972570D01*
X128617030Y-107033517D01*
X128484612Y-107121995D01*
X128484605Y-107122001D01*
X128372001Y-107234605D01*
X128371995Y-107234612D01*
X128283517Y-107367030D01*
X128222570Y-107514168D01*
X128222568Y-107514176D01*
X128191500Y-107670365D01*
X128191500Y-107829634D01*
X128222568Y-107985823D01*
X128222570Y-107985831D01*
X128283517Y-108132968D01*
X128316287Y-108182014D01*
X128337164Y-108248692D01*
X128318678Y-108316071D01*
X128300865Y-108338584D01*
X127452226Y-109187223D01*
X127390903Y-109220708D01*
X127321211Y-109215724D01*
X127265278Y-109173852D01*
X127240861Y-109108388D01*
X127249983Y-109052092D01*
X127277430Y-108985831D01*
X127308500Y-108829630D01*
X127308500Y-108670370D01*
X127277430Y-108514169D01*
X127216483Y-108367032D01*
X127193203Y-108332191D01*
X127128004Y-108234612D01*
X127127998Y-108234605D01*
X127015394Y-108122001D01*
X127015387Y-108121995D01*
X126882969Y-108033517D01*
X126735831Y-107972570D01*
X126735823Y-107972568D01*
X126579634Y-107941500D01*
X126579630Y-107941500D01*
X126420370Y-107941500D01*
X126420365Y-107941500D01*
X126264176Y-107972568D01*
X126264168Y-107972570D01*
X126117030Y-108033517D01*
X125984612Y-108121995D01*
X125984605Y-108122001D01*
X125872001Y-108234605D01*
X125871995Y-108234612D01*
X125783517Y-108367030D01*
X125722570Y-108514168D01*
X125722568Y-108514176D01*
X125691989Y-108667907D01*
X125659604Y-108729818D01*
X125658053Y-108731397D01*
X124076377Y-110313072D01*
X124015054Y-110346557D01*
X123945362Y-110341573D01*
X123889429Y-110299701D01*
X123865012Y-110234237D01*
X123866222Y-110206000D01*
X123883500Y-110096916D01*
X123883500Y-109883084D01*
X123850049Y-109671884D01*
X123803114Y-109527430D01*
X123783973Y-109468519D01*
X123783972Y-109468516D01*
X123686893Y-109277990D01*
X123655377Y-109234612D01*
X123561206Y-109104996D01*
X123410004Y-108953794D01*
X123237009Y-108828106D01*
X123151397Y-108784484D01*
X123100602Y-108736510D01*
X123083807Y-108668689D01*
X123106344Y-108602554D01*
X123161060Y-108559103D01*
X123207693Y-108550000D01*
X123399626Y-108550000D01*
X123399628Y-108549999D01*
X123472540Y-108535496D01*
X123472544Y-108535494D01*
X123555239Y-108480239D01*
X123610494Y-108397544D01*
X123610496Y-108397540D01*
X123624999Y-108324628D01*
X123625000Y-108324626D01*
X123625000Y-107825000D01*
X122857106Y-107825000D01*
X122925099Y-107757007D01*
X122990925Y-107642993D01*
X123025000Y-107515826D01*
X123025000Y-107384174D01*
X122990925Y-107257007D01*
X122925099Y-107142993D01*
X122857106Y-107075000D01*
X122900000Y-107075000D01*
X123625000Y-107075000D01*
X123625000Y-106575373D01*
X123624999Y-106575371D01*
X123610496Y-106502459D01*
X123610494Y-106502455D01*
X123555239Y-106419760D01*
X123472544Y-106364505D01*
X123472540Y-106364503D01*
X123399627Y-106350000D01*
X122900000Y-106350000D01*
X122900000Y-107075000D01*
X122857106Y-107075000D01*
X122832007Y-107049901D01*
X122717993Y-106984075D01*
X122590826Y-106950000D01*
X122459174Y-106950000D01*
X122332007Y-106984075D01*
X122217993Y-107049901D01*
X122124901Y-107142993D01*
X122059075Y-107257007D01*
X122025000Y-107384174D01*
X122025000Y-107515826D01*
X122059075Y-107642993D01*
X122124901Y-107757007D01*
X122192894Y-107825000D01*
X121425000Y-107825000D01*
X121425000Y-108324628D01*
X121439503Y-108397540D01*
X121439505Y-108397544D01*
X121494760Y-108480239D01*
X121577455Y-108535494D01*
X121577459Y-108535496D01*
X121650371Y-108549999D01*
X121650374Y-108550000D01*
X121842307Y-108550000D01*
X121909346Y-108569685D01*
X121955101Y-108622489D01*
X121965045Y-108691647D01*
X121936020Y-108755203D01*
X121898602Y-108784485D01*
X121812990Y-108828106D01*
X121639993Y-108953796D01*
X121488796Y-109104993D01*
X121363106Y-109277990D01*
X121266027Y-109468516D01*
X121266026Y-109468519D01*
X121199951Y-109671882D01*
X121166500Y-109883084D01*
X121166500Y-110096915D01*
X121199951Y-110308117D01*
X121266026Y-110511480D01*
X121266027Y-110511483D01*
X121363106Y-110702009D01*
X121488794Y-110875004D01*
X121639996Y-111026206D01*
X121810987Y-111150438D01*
X121812991Y-111151894D01*
X121816873Y-111154273D01*
X121863748Y-111206086D01*
X121875169Y-111275016D01*
X121847512Y-111339178D01*
X121816873Y-111365727D01*
X121812991Y-111368105D01*
X121639993Y-111493796D01*
X121488796Y-111644993D01*
X121363106Y-111817990D01*
X121266027Y-112008516D01*
X121266026Y-112008519D01*
X121199951Y-112211882D01*
X121166500Y-112423084D01*
X121166500Y-112636915D01*
X121199950Y-112848114D01*
X121199951Y-112848116D01*
X121211275Y-112882969D01*
X121212368Y-112886331D01*
X121214363Y-112956173D01*
X121182118Y-113012331D01*
X119263080Y-114931370D01*
X119263076Y-114931376D01*
X119182967Y-115070126D01*
X119182968Y-115070126D01*
X119182968Y-115070127D01*
X119141500Y-115224889D01*
X119141500Y-126173796D01*
X119121815Y-126240835D01*
X119069011Y-126286590D01*
X118999853Y-126296534D01*
X118936297Y-126267509D01*
X118929819Y-126261477D01*
X118897724Y-126229382D01*
X118897722Y-126229380D01*
X118705627Y-126089815D01*
X118494067Y-125982019D01*
X118268241Y-125908643D01*
X118033727Y-125871500D01*
X118033722Y-125871500D01*
X116796278Y-125871500D01*
X116796273Y-125871500D01*
X116561758Y-125908643D01*
X116335932Y-125982019D01*
X116124372Y-126089815D01*
X115932275Y-126229382D01*
X115764382Y-126397275D01*
X115624815Y-126589372D01*
X115592985Y-126651843D01*
X115545010Y-126702639D01*
X115477189Y-126719434D01*
X115411054Y-126696897D01*
X115367603Y-126642181D01*
X115358500Y-126595548D01*
X115358500Y-106575371D01*
X121425000Y-106575371D01*
X121425000Y-107075000D01*
X122150000Y-107075000D01*
X122150000Y-106350000D01*
X121650373Y-106350000D01*
X121577459Y-106364503D01*
X121577455Y-106364505D01*
X121494760Y-106419760D01*
X121439505Y-106502455D01*
X121439503Y-106502459D01*
X121425000Y-106575371D01*
X115358500Y-106575371D01*
X115358500Y-96553411D01*
X115378185Y-96486372D01*
X115394819Y-96465730D01*
X118810951Y-93049598D01*
X122268604Y-89591944D01*
X122329925Y-89558461D01*
X122331979Y-89558032D01*
X122485831Y-89527430D01*
X122632968Y-89466483D01*
X122765389Y-89378003D01*
X122878003Y-89265389D01*
X122966483Y-89132968D01*
X123027430Y-88985831D01*
X123058500Y-88829630D01*
X123058500Y-88670370D01*
X123027430Y-88514169D01*
X122966483Y-88367032D01*
X122915135Y-88290184D01*
X122878004Y-88234612D01*
X122877998Y-88234605D01*
X122765394Y-88122001D01*
X122765387Y-88121995D01*
X122632969Y-88033517D01*
X122485831Y-87972570D01*
X122485823Y-87972568D01*
X122329634Y-87941500D01*
X122329630Y-87941500D01*
X122170370Y-87941500D01*
X122170365Y-87941500D01*
X122014176Y-87972568D01*
X122014168Y-87972570D01*
X121867030Y-88033517D01*
X121734612Y-88121995D01*
X121734605Y-88122001D01*
X121622001Y-88234605D01*
X121621995Y-88234612D01*
X121533517Y-88367030D01*
X121472570Y-88514168D01*
X121472568Y-88514176D01*
X121441989Y-88667907D01*
X121409604Y-88729818D01*
X121408053Y-88731397D01*
X114320181Y-95819270D01*
X114258858Y-95852755D01*
X114189166Y-95847771D01*
X114133233Y-95805899D01*
X114108816Y-95740435D01*
X114108500Y-95731589D01*
X114108500Y-94053411D01*
X114128185Y-93986372D01*
X114144819Y-93965730D01*
X116704948Y-91405601D01*
X119268604Y-88841944D01*
X119329925Y-88808461D01*
X119331979Y-88808032D01*
X119485831Y-88777430D01*
X119632968Y-88716483D01*
X119765389Y-88628003D01*
X119878003Y-88515389D01*
X119966483Y-88382968D01*
X120027430Y-88235831D01*
X120058500Y-88079630D01*
X120058500Y-87920370D01*
X120027430Y-87764169D01*
X119966483Y-87617032D01*
X119941113Y-87579063D01*
X119878004Y-87484612D01*
X119877998Y-87484605D01*
X119765394Y-87372001D01*
X119765387Y-87371995D01*
X119632969Y-87283517D01*
X119485831Y-87222570D01*
X119485823Y-87222568D01*
X119329634Y-87191500D01*
X119329630Y-87191500D01*
X119170370Y-87191500D01*
X119170365Y-87191500D01*
X119014176Y-87222568D01*
X119014168Y-87222570D01*
X118867030Y-87283517D01*
X118734612Y-87371995D01*
X118734605Y-87372001D01*
X118622001Y-87484605D01*
X118621995Y-87484612D01*
X118533517Y-87617030D01*
X118472570Y-87764168D01*
X118472568Y-87764176D01*
X118441989Y-87917907D01*
X118409604Y-87979818D01*
X118408053Y-87981397D01*
X113013080Y-93376370D01*
X113013076Y-93376376D01*
X112932967Y-93515128D01*
X112932966Y-93515129D01*
X112921151Y-93559229D01*
X112921151Y-93559230D01*
X112891500Y-93669889D01*
X112891500Y-124446588D01*
X112871815Y-124513627D01*
X112855181Y-124534269D01*
X105560488Y-131828961D01*
X105520271Y-131855836D01*
X105515133Y-131857964D01*
X105376376Y-131938076D01*
X105376370Y-131938080D01*
X104340782Y-132973668D01*
X104279459Y-133007153D01*
X104209767Y-133002169D01*
X104153834Y-132960297D01*
X104129417Y-132894833D01*
X104135170Y-132847668D01*
X104146356Y-132813241D01*
X104183500Y-132578727D01*
X104183500Y-132341272D01*
X104146356Y-132106758D01*
X104112312Y-132001984D01*
X104072982Y-131880937D01*
X104072980Y-131880934D01*
X104072980Y-131880932D01*
X104016114Y-131769328D01*
X103965185Y-131669373D01*
X103825620Y-131477278D01*
X103657722Y-131309380D01*
X103657718Y-131309376D01*
X103631487Y-131290319D01*
X103588820Y-131234990D01*
X103582840Y-131165376D01*
X103615446Y-131103581D01*
X103631487Y-131089681D01*
X103657718Y-131070623D01*
X103657718Y-131070622D01*
X103657722Y-131070620D01*
X103825620Y-130902722D01*
X103965185Y-130710627D01*
X104072982Y-130499063D01*
X104146356Y-130273241D01*
X104165846Y-130150185D01*
X104183500Y-130038727D01*
X104183500Y-129801272D01*
X104146356Y-129566758D01*
X104073685Y-129343101D01*
X104072982Y-129340937D01*
X104072980Y-129340934D01*
X104072980Y-129340932D01*
X104016114Y-129229328D01*
X103965185Y-129129373D01*
X103825620Y-128937278D01*
X103657722Y-128769380D01*
X103657718Y-128769376D01*
X103631487Y-128750319D01*
X103588820Y-128694990D01*
X103582840Y-128625376D01*
X103615446Y-128563581D01*
X103631487Y-128549681D01*
X103657718Y-128530623D01*
X103657718Y-128530622D01*
X103657722Y-128530620D01*
X103825620Y-128362722D01*
X103965185Y-128170627D01*
X104072982Y-127959063D01*
X104146356Y-127733241D01*
X104171139Y-127576767D01*
X104183500Y-127498727D01*
X104183500Y-127261272D01*
X104146356Y-127026758D01*
X104072980Y-126800932D01*
X103985332Y-126628914D01*
X103965185Y-126589373D01*
X103825620Y-126397278D01*
X103657722Y-126229380D01*
X103465627Y-126089815D01*
X103254067Y-125982019D01*
X103028241Y-125908643D01*
X102793727Y-125871500D01*
X102793722Y-125871500D01*
X101556278Y-125871500D01*
X101556273Y-125871500D01*
X101321758Y-125908643D01*
X101095932Y-125982019D01*
X100884372Y-126089815D01*
X100692275Y-126229382D01*
X100524382Y-126397275D01*
X100384815Y-126589372D01*
X100277019Y-126800932D01*
X100203643Y-127026758D01*
X100166500Y-127261272D01*
X97797068Y-127261272D01*
X103150653Y-121907686D01*
X103150660Y-121907681D01*
X103157720Y-121900621D01*
X103157722Y-121900620D01*
X103325620Y-121732722D01*
X103465185Y-121540627D01*
X103572982Y-121329063D01*
X103646356Y-121103241D01*
X103646869Y-121100000D01*
X103683500Y-120868727D01*
X103683500Y-92806272D01*
X103646356Y-92571758D01*
X103572980Y-92345932D01*
X103465184Y-92134372D01*
X103439105Y-92098477D01*
X103325620Y-91942278D01*
X103254427Y-91871085D01*
X103154626Y-91771283D01*
X103154595Y-91771254D01*
X97404960Y-86021619D01*
X97404940Y-86021597D01*
X97232725Y-85849383D01*
X97232724Y-85849382D01*
X97232722Y-85849380D01*
X97040627Y-85709815D01*
X96829063Y-85602018D01*
X96641178Y-85540970D01*
X96583503Y-85501533D01*
X96556305Y-85437175D01*
X96568220Y-85368329D01*
X96615464Y-85316853D01*
X96647397Y-85303267D01*
X96823600Y-85256054D01*
X97047712Y-85163224D01*
X97257789Y-85041936D01*
X97450238Y-84894265D01*
X97621765Y-84722738D01*
X97769436Y-84530289D01*
X97890724Y-84320212D01*
X97983554Y-84096100D01*
X98046338Y-83861789D01*
X98078000Y-83621288D01*
X98078000Y-83378712D01*
X98046338Y-83138211D01*
X97983554Y-82903900D01*
X97890724Y-82679788D01*
X97769436Y-82469711D01*
X97659163Y-82326000D01*
X97621766Y-82277263D01*
X97621760Y-82277256D01*
X97450243Y-82105739D01*
X97450236Y-82105733D01*
X97257793Y-81958067D01*
X97257792Y-81958066D01*
X97257789Y-81958064D01*
X97056982Y-81842128D01*
X97047714Y-81836777D01*
X97047705Y-81836773D01*
X96823604Y-81743947D01*
X96589285Y-81681161D01*
X96348789Y-81649500D01*
X96348788Y-81649500D01*
X96106212Y-81649500D01*
X96106211Y-81649500D01*
X95865714Y-81681161D01*
X95631395Y-81743947D01*
X95407294Y-81836773D01*
X95407285Y-81836777D01*
X95197206Y-81958067D01*
X95004763Y-82105733D01*
X95004756Y-82105739D01*
X94833239Y-82277256D01*
X94833233Y-82277263D01*
X94685567Y-82469706D01*
X94564277Y-82679785D01*
X94564273Y-82679794D01*
X94471447Y-82903895D01*
X94408661Y-83138214D01*
X94377000Y-83378711D01*
X94377000Y-83621288D01*
X94408661Y-83861785D01*
X94471447Y-84096104D01*
X94564273Y-84320205D01*
X94564276Y-84320212D01*
X94685564Y-84530289D01*
X94685566Y-84530292D01*
X94685567Y-84530293D01*
X94833233Y-84722736D01*
X94833239Y-84722743D01*
X95004756Y-84894260D01*
X95004762Y-84894265D01*
X95197211Y-85041936D01*
X95407288Y-85163224D01*
X95542429Y-85219201D01*
X95623879Y-85252939D01*
X95678282Y-85296780D01*
X95700347Y-85363074D01*
X95683068Y-85430773D01*
X95631931Y-85478384D01*
X95576426Y-85491500D01*
X86131273Y-85491500D01*
X85896758Y-85528643D01*
X85670932Y-85602019D01*
X85459372Y-85709815D01*
X85267275Y-85849382D01*
X85099382Y-86017275D01*
X84959815Y-86209372D01*
X84852019Y-86420932D01*
X84778643Y-86646758D01*
X84741500Y-86881272D01*
X84741500Y-87118727D01*
X84778643Y-87353241D01*
X84852019Y-87579067D01*
X84959815Y-87790627D01*
X85099380Y-87982722D01*
X85267278Y-88150620D01*
X85459373Y-88290185D01*
X85559328Y-88341114D01*
X85670932Y-88397980D01*
X85670934Y-88397980D01*
X85670937Y-88397982D01*
X85791984Y-88437312D01*
X85896758Y-88471356D01*
X86131273Y-88508500D01*
X86131278Y-88508500D01*
X89221759Y-88508500D01*
X89288798Y-88528185D01*
X89334553Y-88580989D01*
X89344497Y-88650147D01*
X89315472Y-88713703D01*
X89278054Y-88742985D01*
X89217901Y-88773634D01*
X89169913Y-88808500D01*
X89057642Y-88890070D01*
X89057640Y-88890072D01*
X89057639Y-88890072D01*
X88917572Y-89030139D01*
X88917572Y-89030140D01*
X88917570Y-89030142D01*
X88908227Y-89043002D01*
X88801134Y-89190401D01*
X88711203Y-89366898D01*
X88649987Y-89555299D01*
X88619000Y-89750948D01*
X88619000Y-89949051D01*
X88649987Y-90144700D01*
X88711203Y-90333101D01*
X88771393Y-90451228D01*
X88801134Y-90509598D01*
X88917570Y-90669858D01*
X88917572Y-90669860D01*
X89012681Y-90764969D01*
X89046166Y-90826292D01*
X89049000Y-90852650D01*
X89049000Y-91307133D01*
X89029315Y-91374172D01*
X88976511Y-91419927D01*
X88907353Y-91429871D01*
X88900810Y-91428751D01*
X88705990Y-91390000D01*
X88509004Y-91390000D01*
X88315817Y-91428427D01*
X88315800Y-91428432D01*
X88217132Y-91469301D01*
X88217132Y-91469302D01*
X88784984Y-92037154D01*
X88798165Y-92061294D01*
X88754175Y-92035896D01*
X88657528Y-92010000D01*
X88557472Y-92010000D01*
X88460825Y-92035896D01*
X88374175Y-92085924D01*
X88303424Y-92156675D01*
X88253396Y-92243325D01*
X88227500Y-92339972D01*
X88227500Y-92440028D01*
X88253396Y-92536675D01*
X88303424Y-92623325D01*
X88374175Y-92694076D01*
X88460825Y-92744104D01*
X88557472Y-92770000D01*
X88657528Y-92770000D01*
X88754175Y-92744104D01*
X88801872Y-92716565D01*
X88784983Y-92742845D01*
X88217131Y-93310697D01*
X88219804Y-93324134D01*
X88213577Y-93393726D01*
X88185868Y-93436006D01*
X87085835Y-94536039D01*
X87002825Y-94660274D01*
X86945649Y-94798309D01*
X86945647Y-94798317D01*
X86931074Y-94871581D01*
X86916500Y-94944847D01*
X86916500Y-96529771D01*
X86896815Y-96596810D01*
X86844011Y-96642565D01*
X86774853Y-96652509D01*
X86711297Y-96623484D01*
X86686143Y-96593521D01*
X86684727Y-96591159D01*
X86600919Y-96465730D01*
X86482287Y-96288185D01*
X86251131Y-96006520D01*
X86251130Y-96006519D01*
X86251126Y-96006514D01*
X85993485Y-95748873D01*
X85711820Y-95517717D01*
X85711819Y-95517716D01*
X85711815Y-95517713D01*
X85408849Y-95315278D01*
X85408844Y-95315275D01*
X85408837Y-95315271D01*
X85087507Y-95143516D01*
X85087502Y-95143514D01*
X84750868Y-95004074D01*
X84402169Y-94898298D01*
X84402158Y-94898295D01*
X84044812Y-94827216D01*
X84044795Y-94827213D01*
X83770580Y-94800206D01*
X83682187Y-94791500D01*
X83317813Y-94791500D01*
X83236062Y-94799551D01*
X82955204Y-94827213D01*
X82955187Y-94827216D01*
X82597841Y-94898295D01*
X82597830Y-94898298D01*
X82249131Y-95004074D01*
X81912497Y-95143514D01*
X81912492Y-95143516D01*
X81591162Y-95315271D01*
X81591144Y-95315282D01*
X81288193Y-95517707D01*
X81288179Y-95517717D01*
X81006514Y-95748873D01*
X80748873Y-96006514D01*
X80517717Y-96288179D01*
X80517707Y-96288193D01*
X80315282Y-96591144D01*
X80315271Y-96591162D01*
X80143516Y-96912492D01*
X80143514Y-96912497D01*
X80004074Y-97249131D01*
X79951681Y-97421850D01*
X79918160Y-97532354D01*
X79879863Y-97590792D01*
X79816051Y-97619248D01*
X79746984Y-97608688D01*
X79694590Y-97562464D01*
X79675500Y-97496358D01*
X79675500Y-92290948D01*
X84809000Y-92290948D01*
X84809000Y-92489051D01*
X84839987Y-92684700D01*
X84901203Y-92873101D01*
X84991134Y-93049598D01*
X85107570Y-93209858D01*
X85247642Y-93349930D01*
X85407902Y-93466366D01*
X85471449Y-93498745D01*
X85584398Y-93556296D01*
X85584400Y-93556296D01*
X85584403Y-93556298D01*
X85641485Y-93574845D01*
X85772799Y-93617512D01*
X85968449Y-93648500D01*
X85968454Y-93648500D01*
X86166551Y-93648500D01*
X86362200Y-93617512D01*
X86550597Y-93556298D01*
X86727098Y-93466366D01*
X86887358Y-93349930D01*
X87027430Y-93209858D01*
X87143866Y-93049598D01*
X87233798Y-92873097D01*
X87295012Y-92684700D01*
X87295490Y-92681680D01*
X87326000Y-92489051D01*
X87326000Y-92291504D01*
X87607500Y-92291504D01*
X87607500Y-92488495D01*
X87645927Y-92681680D01*
X87645929Y-92681687D01*
X87686801Y-92780366D01*
X88077170Y-92390000D01*
X87686802Y-91999632D01*
X87686801Y-91999632D01*
X87645932Y-92098300D01*
X87645927Y-92098317D01*
X87607500Y-92291504D01*
X87326000Y-92291504D01*
X87326000Y-92290949D01*
X87325999Y-92290947D01*
X87295012Y-92095299D01*
X87266610Y-92007888D01*
X87233798Y-91906903D01*
X87233796Y-91906900D01*
X87233796Y-91906898D01*
X87143865Y-91730401D01*
X87027430Y-91570142D01*
X86887358Y-91430070D01*
X86727098Y-91313634D01*
X86714339Y-91307133D01*
X86550601Y-91223703D01*
X86362200Y-91162487D01*
X86166551Y-91131500D01*
X86166546Y-91131500D01*
X85968454Y-91131500D01*
X85968449Y-91131500D01*
X85772799Y-91162487D01*
X85584398Y-91223703D01*
X85407901Y-91313634D01*
X85380681Y-91333411D01*
X85247642Y-91430070D01*
X85247640Y-91430072D01*
X85247639Y-91430072D01*
X85107572Y-91570139D01*
X85107572Y-91570140D01*
X85107570Y-91570142D01*
X85057565Y-91638967D01*
X84991134Y-91730401D01*
X84901203Y-91906898D01*
X84839987Y-92095299D01*
X84809000Y-92290948D01*
X79675500Y-92290948D01*
X79675500Y-90770696D01*
X86947131Y-90770696D01*
X87045810Y-90811570D01*
X87045818Y-90811572D01*
X87239004Y-90849999D01*
X87239008Y-90850000D01*
X87435992Y-90850000D01*
X87435995Y-90849999D01*
X87629181Y-90811572D01*
X87629189Y-90811570D01*
X87727867Y-90770696D01*
X87337501Y-90380330D01*
X87337500Y-90380330D01*
X86947131Y-90770696D01*
X79675500Y-90770696D01*
X79675500Y-89751504D01*
X86337500Y-89751504D01*
X86337500Y-89948495D01*
X86375927Y-90141680D01*
X86375929Y-90141687D01*
X86416801Y-90240366D01*
X86807170Y-89850000D01*
X86757142Y-89799972D01*
X86957500Y-89799972D01*
X86957500Y-89900028D01*
X86983396Y-89996675D01*
X87033424Y-90083325D01*
X87104175Y-90154076D01*
X87190825Y-90204104D01*
X87287472Y-90230000D01*
X87387528Y-90230000D01*
X87484175Y-90204104D01*
X87570825Y-90154076D01*
X87641576Y-90083325D01*
X87691604Y-89996675D01*
X87717500Y-89900028D01*
X87717500Y-89849999D01*
X87867830Y-89849999D01*
X87867830Y-89850000D01*
X88258196Y-90240367D01*
X88299070Y-90141689D01*
X88299072Y-90141681D01*
X88337499Y-89948495D01*
X88337500Y-89948492D01*
X88337500Y-89751508D01*
X88337499Y-89751504D01*
X88299072Y-89558318D01*
X88299070Y-89558310D01*
X88258196Y-89459631D01*
X87867830Y-89849999D01*
X87717500Y-89849999D01*
X87717500Y-89799972D01*
X87691604Y-89703325D01*
X87641576Y-89616675D01*
X87570825Y-89545924D01*
X87484175Y-89495896D01*
X87387528Y-89470000D01*
X87287472Y-89470000D01*
X87190825Y-89495896D01*
X87104175Y-89545924D01*
X87033424Y-89616675D01*
X86983396Y-89703325D01*
X86957500Y-89799972D01*
X86757142Y-89799972D01*
X86416802Y-89459632D01*
X86416801Y-89459632D01*
X86375932Y-89558300D01*
X86375927Y-89558317D01*
X86337500Y-89751504D01*
X79675500Y-89751504D01*
X79675500Y-88929301D01*
X86947132Y-88929301D01*
X86947132Y-88929302D01*
X87337500Y-89319670D01*
X87337501Y-89319670D01*
X87727867Y-88929302D01*
X87629187Y-88888429D01*
X87629180Y-88888427D01*
X87435995Y-88850000D01*
X87239004Y-88850000D01*
X87045817Y-88888427D01*
X87045800Y-88888432D01*
X86947132Y-88929301D01*
X79675500Y-88929301D01*
X79675500Y-83378711D01*
X82947000Y-83378711D01*
X82947000Y-83621288D01*
X82978661Y-83861785D01*
X83041447Y-84096104D01*
X83134273Y-84320205D01*
X83134276Y-84320212D01*
X83255564Y-84530289D01*
X83255566Y-84530292D01*
X83255567Y-84530293D01*
X83403233Y-84722736D01*
X83403239Y-84722743D01*
X83574756Y-84894260D01*
X83574762Y-84894265D01*
X83767211Y-85041936D01*
X83977288Y-85163224D01*
X84201400Y-85256054D01*
X84435711Y-85318838D01*
X84616086Y-85342584D01*
X84676211Y-85350500D01*
X84676212Y-85350500D01*
X84918789Y-85350500D01*
X84966888Y-85344167D01*
X85159289Y-85318838D01*
X85393600Y-85256054D01*
X85617712Y-85163224D01*
X85827789Y-85041936D01*
X86020238Y-84894265D01*
X86191765Y-84722738D01*
X86339436Y-84530289D01*
X86460724Y-84320212D01*
X86553554Y-84096100D01*
X86616338Y-83861789D01*
X86648000Y-83621288D01*
X86648000Y-83378712D01*
X86616338Y-83138211D01*
X86553554Y-82903900D01*
X86460724Y-82679788D01*
X86339436Y-82469711D01*
X86229163Y-82326000D01*
X86191766Y-82277263D01*
X86191760Y-82277256D01*
X86020243Y-82105739D01*
X86020236Y-82105733D01*
X85827793Y-81958067D01*
X85827792Y-81958066D01*
X85827789Y-81958064D01*
X85626982Y-81842128D01*
X85617714Y-81836777D01*
X85617705Y-81836773D01*
X85393604Y-81743947D01*
X85159285Y-81681161D01*
X84918789Y-81649500D01*
X84918788Y-81649500D01*
X84676212Y-81649500D01*
X84676211Y-81649500D01*
X84435714Y-81681161D01*
X84201395Y-81743947D01*
X83977294Y-81836773D01*
X83977285Y-81836777D01*
X83767206Y-81958067D01*
X83574763Y-82105733D01*
X83574756Y-82105739D01*
X83403239Y-82277256D01*
X83403233Y-82277263D01*
X83255567Y-82469706D01*
X83134277Y-82679785D01*
X83134273Y-82679794D01*
X83041447Y-82903895D01*
X82978661Y-83138214D01*
X82947000Y-83378711D01*
X79675500Y-83378711D01*
X79675500Y-80505525D01*
X100291500Y-80505525D01*
X100291500Y-80729474D01*
X100291501Y-80729490D01*
X100320731Y-80951516D01*
X100320732Y-80951521D01*
X100320733Y-80951527D01*
X100357167Y-81087502D01*
X100378698Y-81167858D01*
X100464400Y-81374762D01*
X100464408Y-81374779D01*
X100576381Y-81568720D01*
X100576392Y-81568736D01*
X100712723Y-81746407D01*
X100712729Y-81746414D01*
X100871085Y-81904770D01*
X100871092Y-81904776D01*
X100940539Y-81958064D01*
X101048772Y-82041114D01*
X101048779Y-82041118D01*
X101242720Y-82153091D01*
X101242725Y-82153093D01*
X101242728Y-82153095D01*
X101242732Y-82153096D01*
X101242737Y-82153099D01*
X101305908Y-82179265D01*
X101449642Y-82238802D01*
X101665973Y-82296767D01*
X101888019Y-82326000D01*
X101888026Y-82326000D01*
X102111974Y-82326000D01*
X102111981Y-82326000D01*
X102334027Y-82296767D01*
X102550358Y-82238802D01*
X102757272Y-82153095D01*
X102951228Y-82041114D01*
X103128909Y-81904775D01*
X103287275Y-81746409D01*
X103423614Y-81568728D01*
X103535595Y-81374772D01*
X103621302Y-81167858D01*
X103679267Y-80951527D01*
X103708500Y-80729481D01*
X103708500Y-80505519D01*
X103679267Y-80283473D01*
X103621302Y-80067142D01*
X103535595Y-79860228D01*
X103535593Y-79860225D01*
X103535591Y-79860220D01*
X103423618Y-79666279D01*
X103423614Y-79666272D01*
X103384354Y-79615108D01*
X103287276Y-79488592D01*
X103287270Y-79488585D01*
X103191556Y-79392871D01*
X104050000Y-79392871D01*
X104050000Y-80242500D01*
X105026473Y-80242500D01*
X105019881Y-80249092D01*
X104940889Y-80385909D01*
X104900000Y-80538509D01*
X104900000Y-80696491D01*
X104940889Y-80849091D01*
X105019881Y-80985908D01*
X105026473Y-80992500D01*
X104050000Y-80992500D01*
X104050000Y-81842128D01*
X104064503Y-81915040D01*
X104064505Y-81915044D01*
X104119760Y-81997739D01*
X104202455Y-82052994D01*
X104202459Y-82052996D01*
X104275371Y-82067499D01*
X104275374Y-82067500D01*
X105125000Y-82067500D01*
X105125000Y-81091027D01*
X105131592Y-81097619D01*
X105268409Y-81176611D01*
X105421009Y-81217500D01*
X105578991Y-81217500D01*
X105731591Y-81176611D01*
X105868408Y-81097619D01*
X105875000Y-81091027D01*
X105875000Y-82067500D01*
X106724626Y-82067500D01*
X106724628Y-82067499D01*
X106797540Y-82052996D01*
X106797544Y-82052994D01*
X106880239Y-81997739D01*
X106935494Y-81915044D01*
X106935496Y-81915040D01*
X106949999Y-81842128D01*
X106950000Y-81842126D01*
X106950000Y-80992500D01*
X105973527Y-80992500D01*
X105980119Y-80985908D01*
X106059111Y-80849091D01*
X106100000Y-80696491D01*
X106100000Y-80538509D01*
X106059111Y-80385909D01*
X106059096Y-80385883D01*
X110300000Y-80385883D01*
X110300000Y-80614116D01*
X110335704Y-80839544D01*
X110406233Y-81056609D01*
X110492922Y-81226745D01*
X111150000Y-80569669D01*
X111150000Y-80578991D01*
X111190889Y-80731591D01*
X111269881Y-80868408D01*
X111381592Y-80980119D01*
X111518409Y-81059111D01*
X111671009Y-81100000D01*
X111680330Y-81100000D01*
X111023252Y-81757075D01*
X111193395Y-81843768D01*
X111410455Y-81914295D01*
X111635884Y-81950000D01*
X111864116Y-81950000D01*
X112089544Y-81914295D01*
X112306605Y-81843768D01*
X112306612Y-81843765D01*
X112476746Y-81757075D01*
X111819670Y-81100000D01*
X111828991Y-81100000D01*
X111981591Y-81059111D01*
X112118408Y-80980119D01*
X112230119Y-80868408D01*
X112309111Y-80731591D01*
X112350000Y-80578991D01*
X112350000Y-80569671D01*
X113007075Y-81226746D01*
X113093765Y-81056612D01*
X113093768Y-81056605D01*
X113164295Y-80839544D01*
X113200000Y-80614116D01*
X113200000Y-80388025D01*
X113541500Y-80388025D01*
X113541500Y-80611974D01*
X113541501Y-80611990D01*
X113570731Y-80834016D01*
X113570732Y-80834021D01*
X113570733Y-80834027D01*
X113602214Y-80951516D01*
X113628698Y-81050358D01*
X113714400Y-81257262D01*
X113714408Y-81257279D01*
X113826381Y-81451220D01*
X113826392Y-81451236D01*
X113962723Y-81628907D01*
X113962729Y-81628914D01*
X114121085Y-81787270D01*
X114121091Y-81787275D01*
X114298772Y-81923614D01*
X114298779Y-81923618D01*
X114492720Y-82035591D01*
X114492725Y-82035593D01*
X114492728Y-82035595D01*
X114492732Y-82035596D01*
X114492737Y-82035599D01*
X114558355Y-82062778D01*
X114699642Y-82121302D01*
X114915973Y-82179267D01*
X115138019Y-82208500D01*
X115138026Y-82208500D01*
X115361974Y-82208500D01*
X115361981Y-82208500D01*
X115584027Y-82179267D01*
X115800358Y-82121302D01*
X116007272Y-82035595D01*
X116201228Y-81923614D01*
X116378909Y-81787275D01*
X116537275Y-81628909D01*
X116673614Y-81451228D01*
X116785595Y-81257272D01*
X116785599Y-81257262D01*
X116802939Y-81215401D01*
X116846780Y-81160997D01*
X116913074Y-81138932D01*
X116980773Y-81156211D01*
X117028384Y-81207348D01*
X117041500Y-81262853D01*
X117041500Y-81500551D01*
X117052113Y-81604428D01*
X117107883Y-81772735D01*
X117107884Y-81772738D01*
X117200967Y-81923647D01*
X117200970Y-81923651D01*
X117326348Y-82049029D01*
X117326352Y-82049032D01*
X117477261Y-82142115D01*
X117477264Y-82142116D01*
X117645571Y-82197886D01*
X117645572Y-82197886D01*
X117645575Y-82197887D01*
X117749456Y-82208500D01*
X117749461Y-82208500D01*
X119750539Y-82208500D01*
X119750544Y-82208500D01*
X119854425Y-82197887D01*
X120022738Y-82142115D01*
X120173651Y-82049030D01*
X120299030Y-81923651D01*
X120392115Y-81772738D01*
X120447887Y-81604425D01*
X120458500Y-81500544D01*
X120458500Y-80388025D01*
X123791500Y-80388025D01*
X123791500Y-80611974D01*
X123791501Y-80611990D01*
X123820731Y-80834016D01*
X123820732Y-80834021D01*
X123820733Y-80834027D01*
X123852214Y-80951516D01*
X123878698Y-81050358D01*
X123964400Y-81257262D01*
X123964408Y-81257279D01*
X124076381Y-81451220D01*
X124076392Y-81451236D01*
X124212723Y-81628907D01*
X124212729Y-81628914D01*
X124371085Y-81787270D01*
X124371091Y-81787275D01*
X124548772Y-81923614D01*
X124548779Y-81923618D01*
X124742720Y-82035591D01*
X124742725Y-82035593D01*
X124742728Y-82035595D01*
X124742732Y-82035596D01*
X124742737Y-82035599D01*
X124808355Y-82062778D01*
X124949642Y-82121302D01*
X125165973Y-82179267D01*
X125388019Y-82208500D01*
X125388026Y-82208500D01*
X125611974Y-82208500D01*
X125611981Y-82208500D01*
X125834027Y-82179267D01*
X126050358Y-82121302D01*
X126257272Y-82035595D01*
X126451228Y-81923614D01*
X126628909Y-81787275D01*
X126787275Y-81628909D01*
X126923614Y-81451228D01*
X127035595Y-81257272D01*
X127121302Y-81050358D01*
X127179267Y-80834027D01*
X127208500Y-80611981D01*
X127208500Y-80388019D01*
X127179267Y-80165973D01*
X127121302Y-79949642D01*
X127035595Y-79742728D01*
X126923614Y-79548772D01*
X126887844Y-79502156D01*
X127550000Y-79502156D01*
X127550000Y-80125000D01*
X128526473Y-80125000D01*
X128519881Y-80131592D01*
X128440889Y-80268409D01*
X128400000Y-80421009D01*
X128400000Y-80578991D01*
X128440889Y-80731591D01*
X128519881Y-80868408D01*
X128526473Y-80875000D01*
X127550001Y-80875000D01*
X127550001Y-81497830D01*
X127556402Y-81557377D01*
X127606647Y-81692087D01*
X127692811Y-81807188D01*
X127807909Y-81893350D01*
X127942629Y-81943598D01*
X127942628Y-81943598D01*
X128002164Y-81949999D01*
X128624999Y-81949999D01*
X128625000Y-81949998D01*
X128625000Y-80973527D01*
X128631592Y-80980119D01*
X128768409Y-81059111D01*
X128921009Y-81100000D01*
X129078991Y-81100000D01*
X129231591Y-81059111D01*
X129368408Y-80980119D01*
X129375000Y-80973527D01*
X129375000Y-81949999D01*
X129997823Y-81949999D01*
X129997830Y-81949998D01*
X130057377Y-81943597D01*
X130192087Y-81893352D01*
X130307188Y-81807188D01*
X130393350Y-81692090D01*
X130443598Y-81557371D01*
X130449999Y-81497843D01*
X130450000Y-81497826D01*
X130450000Y-80875000D01*
X129473527Y-80875000D01*
X129480119Y-80868408D01*
X129559111Y-80731591D01*
X129600000Y-80578991D01*
X129600000Y-80421009D01*
X129559111Y-80268409D01*
X129480119Y-80131592D01*
X129473527Y-80125000D01*
X130449999Y-80125000D01*
X130449999Y-79502176D01*
X130449998Y-79502169D01*
X130443597Y-79442622D01*
X130412073Y-79358103D01*
X130397046Y-79317816D01*
X133466500Y-79317816D01*
X133466500Y-79682183D01*
X133502213Y-80044795D01*
X133502216Y-80044812D01*
X133573295Y-80402158D01*
X133573298Y-80402169D01*
X133679074Y-80750868D01*
X133794832Y-81030330D01*
X133805717Y-81056609D01*
X133818514Y-81087502D01*
X133818516Y-81087507D01*
X133990271Y-81408837D01*
X133990282Y-81408855D01*
X134192707Y-81711806D01*
X134192717Y-81711820D01*
X134423873Y-81993485D01*
X134681514Y-82251126D01*
X134681519Y-82251130D01*
X134681520Y-82251131D01*
X134963185Y-82482287D01*
X135266151Y-82684722D01*
X135266160Y-82684727D01*
X135266162Y-82684728D01*
X135587492Y-82856483D01*
X135587494Y-82856483D01*
X135587500Y-82856487D01*
X135792665Y-82941469D01*
X135924131Y-82995925D01*
X135924135Y-82995926D01*
X135924137Y-82995927D01*
X136272821Y-83101699D01*
X136272827Y-83101700D01*
X136272830Y-83101701D01*
X136272841Y-83101704D01*
X136496927Y-83146276D01*
X136630194Y-83172785D01*
X136992813Y-83208500D01*
X136992816Y-83208500D01*
X137357184Y-83208500D01*
X137357187Y-83208500D01*
X137719806Y-83172785D01*
X137896696Y-83137599D01*
X138077158Y-83101704D01*
X138077169Y-83101701D01*
X138077169Y-83101700D01*
X138077179Y-83101699D01*
X138425863Y-82995927D01*
X138762500Y-82856487D01*
X139083849Y-82684722D01*
X139386815Y-82482287D01*
X139668480Y-82251131D01*
X139926131Y-81993480D01*
X140157287Y-81711815D01*
X140359722Y-81408849D01*
X140531487Y-81087500D01*
X140670927Y-80750863D01*
X140776699Y-80402179D01*
X140776701Y-80402169D01*
X140776704Y-80402158D01*
X140824781Y-80160455D01*
X140847785Y-80044806D01*
X140883500Y-79682187D01*
X140883500Y-79317813D01*
X140847785Y-78955194D01*
X140817335Y-78802113D01*
X140776704Y-78597841D01*
X140776701Y-78597830D01*
X140776700Y-78597827D01*
X140776699Y-78597821D01*
X140670927Y-78249137D01*
X140531487Y-77912500D01*
X140359722Y-77591151D01*
X140157287Y-77288185D01*
X139926131Y-77006520D01*
X139926130Y-77006519D01*
X139926126Y-77006514D01*
X139668485Y-76748873D01*
X139386820Y-76517717D01*
X139386819Y-76517716D01*
X139386815Y-76517713D01*
X139083849Y-76315278D01*
X139083844Y-76315275D01*
X139083837Y-76315271D01*
X138762507Y-76143516D01*
X138762502Y-76143514D01*
X138425868Y-76004074D01*
X138077169Y-75898298D01*
X138077158Y-75898295D01*
X137719812Y-75827216D01*
X137719795Y-75827213D01*
X137445580Y-75800206D01*
X137357187Y-75791500D01*
X136992813Y-75791500D01*
X136911062Y-75799551D01*
X136630204Y-75827213D01*
X136630187Y-75827216D01*
X136272841Y-75898295D01*
X136272830Y-75898298D01*
X135924131Y-76004074D01*
X135587497Y-76143514D01*
X135587492Y-76143516D01*
X135266162Y-76315271D01*
X135266144Y-76315282D01*
X134963193Y-76517707D01*
X134963179Y-76517717D01*
X134681514Y-76748873D01*
X134423873Y-77006514D01*
X134192717Y-77288179D01*
X134192707Y-77288193D01*
X133990282Y-77591144D01*
X133990271Y-77591162D01*
X133818516Y-77912492D01*
X133818514Y-77912497D01*
X133679074Y-78249131D01*
X133573298Y-78597830D01*
X133573295Y-78597841D01*
X133502216Y-78955187D01*
X133502213Y-78955204D01*
X133475418Y-79227264D01*
X133467476Y-79307911D01*
X133466500Y-79317816D01*
X130397046Y-79317816D01*
X130393351Y-79307911D01*
X130307188Y-79192811D01*
X130192090Y-79106649D01*
X130057370Y-79056401D01*
X130057371Y-79056401D01*
X129997843Y-79050000D01*
X129375000Y-79050000D01*
X129375000Y-80026473D01*
X129368408Y-80019881D01*
X129231591Y-79940889D01*
X129078991Y-79900000D01*
X128921009Y-79900000D01*
X128768409Y-79940889D01*
X128631592Y-80019881D01*
X128625000Y-80026473D01*
X128625000Y-79050000D01*
X128002176Y-79050000D01*
X128002169Y-79050001D01*
X127942622Y-79056402D01*
X127807912Y-79106647D01*
X127692811Y-79192811D01*
X127606649Y-79307909D01*
X127556401Y-79442628D01*
X127550000Y-79502156D01*
X126887844Y-79502156D01*
X126842167Y-79442628D01*
X126787276Y-79371092D01*
X126787270Y-79371085D01*
X126628914Y-79212729D01*
X126628907Y-79212723D01*
X126451236Y-79076392D01*
X126451234Y-79076390D01*
X126451228Y-79076386D01*
X126451223Y-79076383D01*
X126451220Y-79076381D01*
X126257279Y-78964408D01*
X126257262Y-78964400D01*
X126050358Y-78878698D01*
X125834027Y-78820733D01*
X125834021Y-78820732D01*
X125834016Y-78820731D01*
X125611990Y-78791501D01*
X125611987Y-78791500D01*
X125611981Y-78791500D01*
X125388019Y-78791500D01*
X125388013Y-78791500D01*
X125388009Y-78791501D01*
X125165983Y-78820731D01*
X125165976Y-78820732D01*
X125165973Y-78820733D01*
X125074535Y-78845233D01*
X124949641Y-78878698D01*
X124742737Y-78964400D01*
X124742720Y-78964408D01*
X124548779Y-79076381D01*
X124548763Y-79076392D01*
X124371092Y-79212723D01*
X124371085Y-79212729D01*
X124212729Y-79371085D01*
X124212723Y-79371092D01*
X124076392Y-79548763D01*
X124076381Y-79548779D01*
X123964408Y-79742720D01*
X123964400Y-79742737D01*
X123878698Y-79949641D01*
X123820734Y-80165970D01*
X123820731Y-80165983D01*
X123791501Y-80388009D01*
X123791500Y-80388025D01*
X120458500Y-80388025D01*
X120458500Y-79499456D01*
X120447887Y-79395575D01*
X120446991Y-79392871D01*
X120392116Y-79227264D01*
X120392115Y-79227261D01*
X120299032Y-79076352D01*
X120299029Y-79076348D01*
X120173651Y-78950970D01*
X120173647Y-78950967D01*
X120022738Y-78857884D01*
X120022735Y-78857883D01*
X119854428Y-78802113D01*
X119750551Y-78791500D01*
X119750544Y-78791500D01*
X117749456Y-78791500D01*
X117749448Y-78791500D01*
X117645571Y-78802113D01*
X117477264Y-78857883D01*
X117477261Y-78857884D01*
X117326352Y-78950967D01*
X117326348Y-78950970D01*
X117200970Y-79076348D01*
X117200967Y-79076352D01*
X117107884Y-79227261D01*
X117107883Y-79227264D01*
X117052113Y-79395571D01*
X117041500Y-79499448D01*
X117041500Y-79737146D01*
X117021815Y-79804185D01*
X116969011Y-79849940D01*
X116899853Y-79859884D01*
X116836297Y-79830859D01*
X116802939Y-79784599D01*
X116796583Y-79769256D01*
X116785595Y-79742728D01*
X116785592Y-79742723D01*
X116785591Y-79742720D01*
X116673618Y-79548779D01*
X116673614Y-79548772D01*
X116592167Y-79442628D01*
X116537276Y-79371092D01*
X116537270Y-79371085D01*
X116378914Y-79212729D01*
X116378907Y-79212723D01*
X116201236Y-79076392D01*
X116201234Y-79076390D01*
X116201228Y-79076386D01*
X116201223Y-79076383D01*
X116201220Y-79076381D01*
X116007279Y-78964408D01*
X116007262Y-78964400D01*
X115800358Y-78878698D01*
X115584027Y-78820733D01*
X115584021Y-78820732D01*
X115584016Y-78820731D01*
X115361990Y-78791501D01*
X115361987Y-78791500D01*
X115361981Y-78791500D01*
X115138019Y-78791500D01*
X115138013Y-78791500D01*
X115138009Y-78791501D01*
X114915983Y-78820731D01*
X114915976Y-78820732D01*
X114915973Y-78820733D01*
X114824535Y-78845233D01*
X114699641Y-78878698D01*
X114492737Y-78964400D01*
X114492720Y-78964408D01*
X114298779Y-79076381D01*
X114298763Y-79076392D01*
X114121092Y-79212723D01*
X114121085Y-79212729D01*
X113962729Y-79371085D01*
X113962723Y-79371092D01*
X113826392Y-79548763D01*
X113826381Y-79548779D01*
X113714408Y-79742720D01*
X113714400Y-79742737D01*
X113628698Y-79949641D01*
X113570734Y-80165970D01*
X113570731Y-80165983D01*
X113541501Y-80388009D01*
X113541500Y-80388025D01*
X113200000Y-80388025D01*
X113200000Y-80385883D01*
X113164295Y-80160455D01*
X113093768Y-79943395D01*
X113007075Y-79773252D01*
X112350000Y-80430328D01*
X112350000Y-80421009D01*
X112309111Y-80268409D01*
X112230119Y-80131592D01*
X112118408Y-80019881D01*
X111981591Y-79940889D01*
X111828991Y-79900000D01*
X111819671Y-79900000D01*
X112476746Y-79242923D01*
X112306609Y-79156233D01*
X112089544Y-79085704D01*
X111864116Y-79050000D01*
X111635884Y-79050000D01*
X111410455Y-79085704D01*
X111193395Y-79156230D01*
X111023253Y-79242923D01*
X111680330Y-79900000D01*
X111671009Y-79900000D01*
X111518409Y-79940889D01*
X111381592Y-80019881D01*
X111269881Y-80131592D01*
X111190889Y-80268409D01*
X111150000Y-80421009D01*
X111150000Y-80430330D01*
X110492923Y-79773253D01*
X110406230Y-79943395D01*
X110335704Y-80160455D01*
X110300000Y-80385883D01*
X106059096Y-80385883D01*
X105980119Y-80249092D01*
X105973527Y-80242500D01*
X106950000Y-80242500D01*
X106950000Y-79392873D01*
X106935495Y-79319957D01*
X106935494Y-79319955D01*
X106880239Y-79237260D01*
X106797544Y-79182005D01*
X106797540Y-79182003D01*
X106724627Y-79167500D01*
X105875000Y-79167500D01*
X105875000Y-80143973D01*
X105868408Y-80137381D01*
X105731591Y-80058389D01*
X105578991Y-80017500D01*
X105421009Y-80017500D01*
X105268409Y-80058389D01*
X105131592Y-80137381D01*
X105125000Y-80143973D01*
X105125000Y-79167500D01*
X104275373Y-79167500D01*
X104202459Y-79182003D01*
X104202455Y-79182005D01*
X104119760Y-79237260D01*
X104064505Y-79319955D01*
X104064503Y-79319959D01*
X104050000Y-79392871D01*
X103191556Y-79392871D01*
X103128914Y-79330229D01*
X103128907Y-79330223D01*
X102951236Y-79193892D01*
X102951234Y-79193890D01*
X102951228Y-79193886D01*
X102951223Y-79193883D01*
X102951220Y-79193881D01*
X102757279Y-79081908D01*
X102757262Y-79081900D01*
X102550358Y-78996198D01*
X102334027Y-78938233D01*
X102334021Y-78938232D01*
X102334016Y-78938231D01*
X102111990Y-78909001D01*
X102111987Y-78909000D01*
X102111981Y-78909000D01*
X101888019Y-78909000D01*
X101888013Y-78909000D01*
X101888009Y-78909001D01*
X101665983Y-78938231D01*
X101665976Y-78938232D01*
X101665973Y-78938233D01*
X101602699Y-78955187D01*
X101449641Y-78996198D01*
X101242737Y-79081900D01*
X101242720Y-79081908D01*
X101048779Y-79193881D01*
X101048763Y-79193892D01*
X100871092Y-79330223D01*
X100871085Y-79330229D01*
X100712729Y-79488585D01*
X100712723Y-79488592D01*
X100576392Y-79666263D01*
X100576381Y-79666279D01*
X100464408Y-79860220D01*
X100464400Y-79860237D01*
X100378698Y-80067141D01*
X100378698Y-80067142D01*
X100324770Y-80268409D01*
X100320734Y-80283470D01*
X100320731Y-80283483D01*
X100291501Y-80505509D01*
X100291500Y-80505525D01*
X79675500Y-80505525D01*
X79675500Y-79502561D01*
X79675606Y-79497437D01*
X79682522Y-79330223D01*
X79694072Y-79050961D01*
X79694915Y-79040792D01*
X79749874Y-78599881D01*
X79751554Y-78589809D01*
X79842734Y-78154951D01*
X79845241Y-78145055D01*
X79972022Y-77719205D01*
X79975336Y-77709553D01*
X80136840Y-77295654D01*
X80140954Y-77286275D01*
X80336088Y-76887120D01*
X80340949Y-76878136D01*
X80568389Y-76496445D01*
X80573982Y-76487885D01*
X80832153Y-76126294D01*
X80838422Y-76118240D01*
X81125581Y-75779191D01*
X81132500Y-75771675D01*
X81446675Y-75457500D01*
X81454191Y-75450581D01*
X81793240Y-75163422D01*
X81801294Y-75157153D01*
X82162885Y-74898982D01*
X82171445Y-74893389D01*
X82553136Y-74665949D01*
X82562120Y-74661088D01*
X82961280Y-74465951D01*
X82970654Y-74461840D01*
X83384553Y-74300336D01*
X83394205Y-74297022D01*
X83820055Y-74170241D01*
X83829951Y-74167734D01*
X84264809Y-74076554D01*
X84274881Y-74074874D01*
X84715792Y-74019915D01*
X84725961Y-74019072D01*
X85172437Y-74000605D01*
X85177561Y-74000500D01*
X85240892Y-74000500D01*
X137934108Y-74000500D01*
X137997439Y-74000500D01*
X138002562Y-74000605D01*
G37*
%TD.AperFunction*%
%TA.AperFunction,Conductor*%
G36*
X79880703Y-99409928D02*
G01*
X79918159Y-99467643D01*
X79971061Y-99642037D01*
X80004074Y-99750868D01*
X80057024Y-99878698D01*
X80138909Y-100076386D01*
X80143514Y-100087502D01*
X80143516Y-100087507D01*
X80315271Y-100408837D01*
X80315282Y-100408855D01*
X80517707Y-100711806D01*
X80517717Y-100711820D01*
X80748873Y-100993485D01*
X81006514Y-101251126D01*
X81006519Y-101251130D01*
X81006520Y-101251131D01*
X81288185Y-101482287D01*
X81591151Y-101684722D01*
X81591160Y-101684727D01*
X81591162Y-101684728D01*
X81912492Y-101856483D01*
X81912494Y-101856483D01*
X81912500Y-101856487D01*
X82117665Y-101941469D01*
X82249131Y-101995925D01*
X82249135Y-101995926D01*
X82249137Y-101995927D01*
X82597821Y-102101699D01*
X82597827Y-102101700D01*
X82597830Y-102101701D01*
X82597841Y-102101704D01*
X82821927Y-102146276D01*
X82955194Y-102172785D01*
X83317813Y-102208500D01*
X83317816Y-102208500D01*
X83682184Y-102208500D01*
X83682187Y-102208500D01*
X84044806Y-102172785D01*
X84221696Y-102137599D01*
X84402158Y-102101704D01*
X84402169Y-102101701D01*
X84402169Y-102101700D01*
X84402179Y-102101699D01*
X84750863Y-101995927D01*
X85087500Y-101856487D01*
X85408849Y-101684722D01*
X85711815Y-101482287D01*
X85993480Y-101251131D01*
X86251131Y-100993480D01*
X86482287Y-100711815D01*
X86684722Y-100408849D01*
X86684735Y-100408824D01*
X86686137Y-100406487D01*
X86737483Y-100359102D01*
X86806296Y-100346998D01*
X86870729Y-100374019D01*
X86910325Y-100431586D01*
X86916500Y-100470228D01*
X86916500Y-120779771D01*
X86896815Y-120846810D01*
X86844011Y-120892565D01*
X86774853Y-120902509D01*
X86711297Y-120873484D01*
X86686143Y-120843521D01*
X86684727Y-120841159D01*
X86510300Y-120580109D01*
X86482287Y-120538185D01*
X86251131Y-120256520D01*
X86251130Y-120256519D01*
X86251126Y-120256514D01*
X85993485Y-119998873D01*
X85711820Y-119767717D01*
X85711819Y-119767716D01*
X85711815Y-119767713D01*
X85408849Y-119565278D01*
X85408844Y-119565275D01*
X85408837Y-119565271D01*
X85087507Y-119393516D01*
X85087502Y-119393514D01*
X84750868Y-119254074D01*
X84402169Y-119148298D01*
X84402158Y-119148295D01*
X84044812Y-119077216D01*
X84044795Y-119077213D01*
X83768489Y-119050000D01*
X83682187Y-119041500D01*
X83317813Y-119041500D01*
X83236062Y-119049551D01*
X82955204Y-119077213D01*
X82955187Y-119077216D01*
X82597841Y-119148295D01*
X82597830Y-119148298D01*
X82249131Y-119254074D01*
X81912497Y-119393514D01*
X81912492Y-119393516D01*
X81591162Y-119565271D01*
X81591144Y-119565282D01*
X81288193Y-119767707D01*
X81288179Y-119767717D01*
X81006514Y-119998873D01*
X80748873Y-120256514D01*
X80517717Y-120538179D01*
X80517707Y-120538193D01*
X80315282Y-120841144D01*
X80315271Y-120841162D01*
X80143516Y-121162492D01*
X80143514Y-121162497D01*
X80004074Y-121499131D01*
X79986406Y-121557377D01*
X79918160Y-121782354D01*
X79879863Y-121840792D01*
X79816051Y-121869248D01*
X79746984Y-121858688D01*
X79694590Y-121812464D01*
X79675500Y-121746358D01*
X79675500Y-99503641D01*
X79695185Y-99436602D01*
X79747989Y-99390847D01*
X79817147Y-99380903D01*
X79880703Y-99409928D01*
G37*
%TD.AperFunction*%
%TA.AperFunction,Conductor*%
G36*
X93843610Y-88528185D02*
G01*
X93889365Y-88580989D01*
X93899309Y-88650147D01*
X93870284Y-88713703D01*
X93850887Y-88731762D01*
X93844239Y-88736739D01*
X93844238Y-88736740D01*
X93756611Y-88853795D01*
X93705511Y-88990795D01*
X93705511Y-88990797D01*
X93699000Y-89051345D01*
X93699000Y-90648654D01*
X93705511Y-90709202D01*
X93705511Y-90709204D01*
X93739858Y-90801288D01*
X93756611Y-90846204D01*
X93821728Y-90933190D01*
X93846145Y-90998653D01*
X93831294Y-91066926D01*
X93781889Y-91116332D01*
X93722461Y-91131500D01*
X93588449Y-91131500D01*
X93392799Y-91162487D01*
X93204398Y-91223703D01*
X93027901Y-91313634D01*
X93000681Y-91333411D01*
X92867642Y-91430070D01*
X92867640Y-91430072D01*
X92867639Y-91430072D01*
X92727572Y-91570139D01*
X92727572Y-91570140D01*
X92727570Y-91570142D01*
X92677565Y-91638967D01*
X92611134Y-91730401D01*
X92527985Y-91893590D01*
X92480010Y-91944386D01*
X92412189Y-91961181D01*
X92346054Y-91938643D01*
X92307015Y-91893590D01*
X92223865Y-91730401D01*
X92107430Y-91570142D01*
X91967358Y-91430070D01*
X91807098Y-91313634D01*
X91794339Y-91307133D01*
X91630601Y-91223703D01*
X91442200Y-91162487D01*
X91246551Y-91131500D01*
X91246546Y-91131500D01*
X91048454Y-91131500D01*
X91048449Y-91131500D01*
X90852798Y-91162488D01*
X90852795Y-91162488D01*
X90728318Y-91202934D01*
X90700198Y-91203737D01*
X90672353Y-91207741D01*
X90665741Y-91204721D01*
X90658477Y-91204929D01*
X90634387Y-91190402D01*
X90608797Y-91178716D01*
X90604867Y-91172602D01*
X90598644Y-91168849D01*
X90586231Y-91143602D01*
X90571023Y-91119938D01*
X90569546Y-91109667D01*
X90567816Y-91106148D01*
X90566000Y-91085003D01*
X90566000Y-90968547D01*
X90585685Y-90901508D01*
X90617109Y-90868233D01*
X90697358Y-90809930D01*
X90736592Y-90770696D01*
X92027131Y-90770696D01*
X92125810Y-90811570D01*
X92125818Y-90811572D01*
X92319004Y-90849999D01*
X92319008Y-90850000D01*
X92515992Y-90850000D01*
X92515995Y-90849999D01*
X92709181Y-90811572D01*
X92709189Y-90811570D01*
X92807867Y-90770696D01*
X92417501Y-90380330D01*
X92417500Y-90380330D01*
X92027131Y-90770696D01*
X90736592Y-90770696D01*
X90837430Y-90669858D01*
X90953866Y-90509598D01*
X91043798Y-90333097D01*
X91105012Y-90144700D01*
X91119954Y-90050358D01*
X91136000Y-89949051D01*
X91136000Y-89751504D01*
X91417500Y-89751504D01*
X91417500Y-89948495D01*
X91455927Y-90141680D01*
X91455929Y-90141687D01*
X91496801Y-90240366D01*
X91887170Y-89850000D01*
X91837142Y-89799972D01*
X92037500Y-89799972D01*
X92037500Y-89900028D01*
X92063396Y-89996675D01*
X92113424Y-90083325D01*
X92184175Y-90154076D01*
X92270825Y-90204104D01*
X92367472Y-90230000D01*
X92467528Y-90230000D01*
X92564175Y-90204104D01*
X92650825Y-90154076D01*
X92721576Y-90083325D01*
X92771604Y-89996675D01*
X92797500Y-89900028D01*
X92797500Y-89849999D01*
X92947830Y-89849999D01*
X92947830Y-89850001D01*
X93338196Y-90240367D01*
X93379070Y-90141689D01*
X93379072Y-90141681D01*
X93417499Y-89948495D01*
X93417500Y-89948492D01*
X93417500Y-89751508D01*
X93417499Y-89751504D01*
X93379072Y-89558318D01*
X93379070Y-89558310D01*
X93338196Y-89459631D01*
X92947830Y-89849999D01*
X92797500Y-89849999D01*
X92797500Y-89799972D01*
X92771604Y-89703325D01*
X92721576Y-89616675D01*
X92650825Y-89545924D01*
X92564175Y-89495896D01*
X92467528Y-89470000D01*
X92367472Y-89470000D01*
X92270825Y-89495896D01*
X92184175Y-89545924D01*
X92113424Y-89616675D01*
X92063396Y-89703325D01*
X92037500Y-89799972D01*
X91837142Y-89799972D01*
X91496802Y-89459632D01*
X91496801Y-89459632D01*
X91455932Y-89558300D01*
X91455927Y-89558317D01*
X91417500Y-89751504D01*
X91136000Y-89751504D01*
X91136000Y-89750949D01*
X91135999Y-89750947D01*
X91105012Y-89555299D01*
X91076153Y-89466482D01*
X91043798Y-89366903D01*
X91043796Y-89366900D01*
X91043796Y-89366898D01*
X90953865Y-89190401D01*
X90837430Y-89030142D01*
X90736589Y-88929301D01*
X92027132Y-88929301D01*
X92027132Y-88929302D01*
X92417500Y-89319670D01*
X92417501Y-89319670D01*
X92807867Y-88929302D01*
X92709187Y-88888429D01*
X92709180Y-88888427D01*
X92515995Y-88850000D01*
X92319004Y-88850000D01*
X92125817Y-88888427D01*
X92125800Y-88888432D01*
X92027132Y-88929301D01*
X90736589Y-88929301D01*
X90697358Y-88890070D01*
X90537098Y-88773634D01*
X90476945Y-88742984D01*
X90426150Y-88695010D01*
X90409355Y-88627189D01*
X90431893Y-88561054D01*
X90486608Y-88517603D01*
X90533241Y-88508500D01*
X93776571Y-88508500D01*
X93843610Y-88528185D01*
G37*
%TD.AperFunction*%
%TD*%
M02*
