%TF.GenerationSoftware,KiCad,Pcbnew,9.0.1*%
%TF.CreationDate,2025-04-25T16:38:00-04:00*%
%TF.ProjectId,pcb,7063622e-6b69-4636-9164-5f7063625858,1.0*%
%TF.SameCoordinates,Original*%
%TF.FileFunction,Legend,Bot*%
%TF.FilePolarity,Positive*%
%FSLAX46Y46*%
G04 Gerber Fmt 4.6, Leading zero omitted, Abs format (unit mm)*
G04 Created by KiCad (PCBNEW 9.0.1) date 2025-04-25 16:38:00*
%MOMM*%
%LPD*%
G01*
G04 APERTURE LIST*
%ADD10C,0.125000*%
G04 APERTURE END LIST*
D10*
X142621119Y-91820331D02*
X141621119Y-91820331D01*
X142621119Y-92248902D02*
X142097309Y-92248902D01*
X142097309Y-92248902D02*
X142002071Y-92201283D01*
X142002071Y-92201283D02*
X141954452Y-92106045D01*
X141954452Y-92106045D02*
X141954452Y-91963188D01*
X141954452Y-91963188D02*
X142002071Y-91867950D01*
X142002071Y-91867950D02*
X142049690Y-91820331D01*
X141954452Y-92582236D02*
X141954452Y-92963188D01*
X141621119Y-92725093D02*
X142478261Y-92725093D01*
X142478261Y-92725093D02*
X142573500Y-92772712D01*
X142573500Y-92772712D02*
X142621119Y-92867950D01*
X142621119Y-92867950D02*
X142621119Y-92963188D01*
X141954452Y-93153665D02*
X141954452Y-93534617D01*
X141621119Y-93296522D02*
X142478261Y-93296522D01*
X142478261Y-93296522D02*
X142573500Y-93344141D01*
X142573500Y-93344141D02*
X142621119Y-93439379D01*
X142621119Y-93439379D02*
X142621119Y-93534617D01*
X141954452Y-93867951D02*
X142954452Y-93867951D01*
X142002071Y-93867951D02*
X141954452Y-93963189D01*
X141954452Y-93963189D02*
X141954452Y-94153665D01*
X141954452Y-94153665D02*
X142002071Y-94248903D01*
X142002071Y-94248903D02*
X142049690Y-94296522D01*
X142049690Y-94296522D02*
X142144928Y-94344141D01*
X142144928Y-94344141D02*
X142430642Y-94344141D01*
X142430642Y-94344141D02*
X142525880Y-94296522D01*
X142525880Y-94296522D02*
X142573500Y-94248903D01*
X142573500Y-94248903D02*
X142621119Y-94153665D01*
X142621119Y-94153665D02*
X142621119Y-93963189D01*
X142621119Y-93963189D02*
X142573500Y-93867951D01*
X142573500Y-94725094D02*
X142621119Y-94820332D01*
X142621119Y-94820332D02*
X142621119Y-95010808D01*
X142621119Y-95010808D02*
X142573500Y-95106046D01*
X142573500Y-95106046D02*
X142478261Y-95153665D01*
X142478261Y-95153665D02*
X142430642Y-95153665D01*
X142430642Y-95153665D02*
X142335404Y-95106046D01*
X142335404Y-95106046D02*
X142287785Y-95010808D01*
X142287785Y-95010808D02*
X142287785Y-94867951D01*
X142287785Y-94867951D02*
X142240166Y-94772713D01*
X142240166Y-94772713D02*
X142144928Y-94725094D01*
X142144928Y-94725094D02*
X142097309Y-94725094D01*
X142097309Y-94725094D02*
X142002071Y-94772713D01*
X142002071Y-94772713D02*
X141954452Y-94867951D01*
X141954452Y-94867951D02*
X141954452Y-95010808D01*
X141954452Y-95010808D02*
X142002071Y-95106046D01*
X142525880Y-95582237D02*
X142573500Y-95629856D01*
X142573500Y-95629856D02*
X142621119Y-95582237D01*
X142621119Y-95582237D02*
X142573500Y-95534618D01*
X142573500Y-95534618D02*
X142525880Y-95582237D01*
X142525880Y-95582237D02*
X142621119Y-95582237D01*
X142002071Y-95582237D02*
X142049690Y-95629856D01*
X142049690Y-95629856D02*
X142097309Y-95582237D01*
X142097309Y-95582237D02*
X142049690Y-95534618D01*
X142049690Y-95534618D02*
X142002071Y-95582237D01*
X142002071Y-95582237D02*
X142097309Y-95582237D01*
X141573500Y-96772712D02*
X142859214Y-95915570D01*
X141573500Y-97820331D02*
X142859214Y-96963189D01*
X141954452Y-98582236D02*
X142763976Y-98582236D01*
X142763976Y-98582236D02*
X142859214Y-98534617D01*
X142859214Y-98534617D02*
X142906833Y-98486998D01*
X142906833Y-98486998D02*
X142954452Y-98391760D01*
X142954452Y-98391760D02*
X142954452Y-98248903D01*
X142954452Y-98248903D02*
X142906833Y-98153665D01*
X142573500Y-98582236D02*
X142621119Y-98486998D01*
X142621119Y-98486998D02*
X142621119Y-98296522D01*
X142621119Y-98296522D02*
X142573500Y-98201284D01*
X142573500Y-98201284D02*
X142525880Y-98153665D01*
X142525880Y-98153665D02*
X142430642Y-98106046D01*
X142430642Y-98106046D02*
X142144928Y-98106046D01*
X142144928Y-98106046D02*
X142049690Y-98153665D01*
X142049690Y-98153665D02*
X142002071Y-98201284D01*
X142002071Y-98201284D02*
X141954452Y-98296522D01*
X141954452Y-98296522D02*
X141954452Y-98486998D01*
X141954452Y-98486998D02*
X142002071Y-98582236D01*
X142621119Y-99058427D02*
X141954452Y-99058427D01*
X141621119Y-99058427D02*
X141668738Y-99010808D01*
X141668738Y-99010808D02*
X141716357Y-99058427D01*
X141716357Y-99058427D02*
X141668738Y-99106046D01*
X141668738Y-99106046D02*
X141621119Y-99058427D01*
X141621119Y-99058427D02*
X141716357Y-99058427D01*
X141954452Y-99391760D02*
X141954452Y-99772712D01*
X141621119Y-99534617D02*
X142478261Y-99534617D01*
X142478261Y-99534617D02*
X142573500Y-99582236D01*
X142573500Y-99582236D02*
X142621119Y-99677474D01*
X142621119Y-99677474D02*
X142621119Y-99772712D01*
X142621119Y-100106046D02*
X141621119Y-100106046D01*
X142621119Y-100534617D02*
X142097309Y-100534617D01*
X142097309Y-100534617D02*
X142002071Y-100486998D01*
X142002071Y-100486998D02*
X141954452Y-100391760D01*
X141954452Y-100391760D02*
X141954452Y-100248903D01*
X141954452Y-100248903D02*
X142002071Y-100153665D01*
X142002071Y-100153665D02*
X142049690Y-100106046D01*
X141954452Y-101439379D02*
X142621119Y-101439379D01*
X141954452Y-101010808D02*
X142478261Y-101010808D01*
X142478261Y-101010808D02*
X142573500Y-101058427D01*
X142573500Y-101058427D02*
X142621119Y-101153665D01*
X142621119Y-101153665D02*
X142621119Y-101296522D01*
X142621119Y-101296522D02*
X142573500Y-101391760D01*
X142573500Y-101391760D02*
X142525880Y-101439379D01*
X142621119Y-101915570D02*
X141621119Y-101915570D01*
X142002071Y-101915570D02*
X141954452Y-102010808D01*
X141954452Y-102010808D02*
X141954452Y-102201284D01*
X141954452Y-102201284D02*
X142002071Y-102296522D01*
X142002071Y-102296522D02*
X142049690Y-102344141D01*
X142049690Y-102344141D02*
X142144928Y-102391760D01*
X142144928Y-102391760D02*
X142430642Y-102391760D01*
X142430642Y-102391760D02*
X142525880Y-102344141D01*
X142525880Y-102344141D02*
X142573500Y-102296522D01*
X142573500Y-102296522D02*
X142621119Y-102201284D01*
X142621119Y-102201284D02*
X142621119Y-102010808D01*
X142621119Y-102010808D02*
X142573500Y-101915570D01*
X142525880Y-102820332D02*
X142573500Y-102867951D01*
X142573500Y-102867951D02*
X142621119Y-102820332D01*
X142621119Y-102820332D02*
X142573500Y-102772713D01*
X142573500Y-102772713D02*
X142525880Y-102820332D01*
X142525880Y-102820332D02*
X142621119Y-102820332D01*
X142573500Y-103725093D02*
X142621119Y-103629855D01*
X142621119Y-103629855D02*
X142621119Y-103439379D01*
X142621119Y-103439379D02*
X142573500Y-103344141D01*
X142573500Y-103344141D02*
X142525880Y-103296522D01*
X142525880Y-103296522D02*
X142430642Y-103248903D01*
X142430642Y-103248903D02*
X142144928Y-103248903D01*
X142144928Y-103248903D02*
X142049690Y-103296522D01*
X142049690Y-103296522D02*
X142002071Y-103344141D01*
X142002071Y-103344141D02*
X141954452Y-103439379D01*
X141954452Y-103439379D02*
X141954452Y-103629855D01*
X141954452Y-103629855D02*
X142002071Y-103725093D01*
X142621119Y-104296522D02*
X142573500Y-104201284D01*
X142573500Y-104201284D02*
X142525880Y-104153665D01*
X142525880Y-104153665D02*
X142430642Y-104106046D01*
X142430642Y-104106046D02*
X142144928Y-104106046D01*
X142144928Y-104106046D02*
X142049690Y-104153665D01*
X142049690Y-104153665D02*
X142002071Y-104201284D01*
X142002071Y-104201284D02*
X141954452Y-104296522D01*
X141954452Y-104296522D02*
X141954452Y-104439379D01*
X141954452Y-104439379D02*
X142002071Y-104534617D01*
X142002071Y-104534617D02*
X142049690Y-104582236D01*
X142049690Y-104582236D02*
X142144928Y-104629855D01*
X142144928Y-104629855D02*
X142430642Y-104629855D01*
X142430642Y-104629855D02*
X142525880Y-104582236D01*
X142525880Y-104582236D02*
X142573500Y-104534617D01*
X142573500Y-104534617D02*
X142621119Y-104439379D01*
X142621119Y-104439379D02*
X142621119Y-104296522D01*
X142621119Y-105058427D02*
X141954452Y-105058427D01*
X142049690Y-105058427D02*
X142002071Y-105106046D01*
X142002071Y-105106046D02*
X141954452Y-105201284D01*
X141954452Y-105201284D02*
X141954452Y-105344141D01*
X141954452Y-105344141D02*
X142002071Y-105439379D01*
X142002071Y-105439379D02*
X142097309Y-105486998D01*
X142097309Y-105486998D02*
X142621119Y-105486998D01*
X142097309Y-105486998D02*
X142002071Y-105534617D01*
X142002071Y-105534617D02*
X141954452Y-105629855D01*
X141954452Y-105629855D02*
X141954452Y-105772712D01*
X141954452Y-105772712D02*
X142002071Y-105867951D01*
X142002071Y-105867951D02*
X142097309Y-105915570D01*
X142097309Y-105915570D02*
X142621119Y-105915570D01*
X141573500Y-107106045D02*
X142859214Y-106248903D01*
X141954452Y-107344141D02*
X142621119Y-107582236D01*
X142621119Y-107582236D02*
X141954452Y-107820331D01*
X142573500Y-108153665D02*
X142621119Y-108248903D01*
X142621119Y-108248903D02*
X142621119Y-108439379D01*
X142621119Y-108439379D02*
X142573500Y-108534617D01*
X142573500Y-108534617D02*
X142478261Y-108582236D01*
X142478261Y-108582236D02*
X142430642Y-108582236D01*
X142430642Y-108582236D02*
X142335404Y-108534617D01*
X142335404Y-108534617D02*
X142287785Y-108439379D01*
X142287785Y-108439379D02*
X142287785Y-108296522D01*
X142287785Y-108296522D02*
X142240166Y-108201284D01*
X142240166Y-108201284D02*
X142144928Y-108153665D01*
X142144928Y-108153665D02*
X142097309Y-108153665D01*
X142097309Y-108153665D02*
X142002071Y-108201284D01*
X142002071Y-108201284D02*
X141954452Y-108296522D01*
X141954452Y-108296522D02*
X141954452Y-108439379D01*
X141954452Y-108439379D02*
X142002071Y-108534617D01*
X142621119Y-109010808D02*
X141954452Y-109010808D01*
X141621119Y-109010808D02*
X141668738Y-108963189D01*
X141668738Y-108963189D02*
X141716357Y-109010808D01*
X141716357Y-109010808D02*
X141668738Y-109058427D01*
X141668738Y-109058427D02*
X141621119Y-109010808D01*
X141621119Y-109010808D02*
X141716357Y-109010808D01*
X141621119Y-109963188D02*
X141621119Y-109486998D01*
X141621119Y-109486998D02*
X142097309Y-109439379D01*
X142097309Y-109439379D02*
X142049690Y-109486998D01*
X142049690Y-109486998D02*
X142002071Y-109582236D01*
X142002071Y-109582236D02*
X142002071Y-109820331D01*
X142002071Y-109820331D02*
X142049690Y-109915569D01*
X142049690Y-109915569D02*
X142097309Y-109963188D01*
X142097309Y-109963188D02*
X142192547Y-110010807D01*
X142192547Y-110010807D02*
X142430642Y-110010807D01*
X142430642Y-110010807D02*
X142525880Y-109963188D01*
X142525880Y-109963188D02*
X142573500Y-109915569D01*
X142573500Y-109915569D02*
X142621119Y-109820331D01*
X142621119Y-109820331D02*
X142621119Y-109582236D01*
X142621119Y-109582236D02*
X142573500Y-109486998D01*
X142573500Y-109486998D02*
X142525880Y-109439379D01*
X141621119Y-110629855D02*
X141621119Y-110725093D01*
X141621119Y-110725093D02*
X141668738Y-110820331D01*
X141668738Y-110820331D02*
X141716357Y-110867950D01*
X141716357Y-110867950D02*
X141811595Y-110915569D01*
X141811595Y-110915569D02*
X142002071Y-110963188D01*
X142002071Y-110963188D02*
X142240166Y-110963188D01*
X142240166Y-110963188D02*
X142430642Y-110915569D01*
X142430642Y-110915569D02*
X142525880Y-110867950D01*
X142525880Y-110867950D02*
X142573500Y-110820331D01*
X142573500Y-110820331D02*
X142621119Y-110725093D01*
X142621119Y-110725093D02*
X142621119Y-110629855D01*
X142621119Y-110629855D02*
X142573500Y-110534617D01*
X142573500Y-110534617D02*
X142525880Y-110486998D01*
X142525880Y-110486998D02*
X142430642Y-110439379D01*
X142430642Y-110439379D02*
X142240166Y-110391760D01*
X142240166Y-110391760D02*
X142002071Y-110391760D01*
X142002071Y-110391760D02*
X141811595Y-110439379D01*
X141811595Y-110439379D02*
X141716357Y-110486998D01*
X141716357Y-110486998D02*
X141668738Y-110534617D01*
X141668738Y-110534617D02*
X141621119Y-110629855D01*
X141621119Y-111582236D02*
X141621119Y-111677474D01*
X141621119Y-111677474D02*
X141668738Y-111772712D01*
X141668738Y-111772712D02*
X141716357Y-111820331D01*
X141716357Y-111820331D02*
X141811595Y-111867950D01*
X141811595Y-111867950D02*
X142002071Y-111915569D01*
X142002071Y-111915569D02*
X142240166Y-111915569D01*
X142240166Y-111915569D02*
X142430642Y-111867950D01*
X142430642Y-111867950D02*
X142525880Y-111820331D01*
X142525880Y-111820331D02*
X142573500Y-111772712D01*
X142573500Y-111772712D02*
X142621119Y-111677474D01*
X142621119Y-111677474D02*
X142621119Y-111582236D01*
X142621119Y-111582236D02*
X142573500Y-111486998D01*
X142573500Y-111486998D02*
X142525880Y-111439379D01*
X142525880Y-111439379D02*
X142430642Y-111391760D01*
X142430642Y-111391760D02*
X142240166Y-111344141D01*
X142240166Y-111344141D02*
X142002071Y-111344141D01*
X142002071Y-111344141D02*
X141811595Y-111391760D01*
X141811595Y-111391760D02*
X141716357Y-111439379D01*
X141716357Y-111439379D02*
X141668738Y-111486998D01*
X141668738Y-111486998D02*
X141621119Y-111582236D01*
X141954452Y-112772712D02*
X142621119Y-112772712D01*
X141573500Y-112534617D02*
X142287785Y-112296522D01*
X142287785Y-112296522D02*
X142287785Y-112915569D01*
X141573500Y-114010807D02*
X142859214Y-113153665D01*
X142621119Y-114820331D02*
X142621119Y-114344141D01*
X142621119Y-114344141D02*
X141621119Y-114344141D01*
X142525880Y-115725093D02*
X142573500Y-115677474D01*
X142573500Y-115677474D02*
X142621119Y-115534617D01*
X142621119Y-115534617D02*
X142621119Y-115439379D01*
X142621119Y-115439379D02*
X142573500Y-115296522D01*
X142573500Y-115296522D02*
X142478261Y-115201284D01*
X142478261Y-115201284D02*
X142383023Y-115153665D01*
X142383023Y-115153665D02*
X142192547Y-115106046D01*
X142192547Y-115106046D02*
X142049690Y-115106046D01*
X142049690Y-115106046D02*
X141859214Y-115153665D01*
X141859214Y-115153665D02*
X141763976Y-115201284D01*
X141763976Y-115201284D02*
X141668738Y-115296522D01*
X141668738Y-115296522D02*
X141621119Y-115439379D01*
X141621119Y-115439379D02*
X141621119Y-115534617D01*
X141621119Y-115534617D02*
X141668738Y-115677474D01*
X141668738Y-115677474D02*
X141716357Y-115725093D01*
X142525880Y-116725093D02*
X142573500Y-116677474D01*
X142573500Y-116677474D02*
X142621119Y-116534617D01*
X142621119Y-116534617D02*
X142621119Y-116439379D01*
X142621119Y-116439379D02*
X142573500Y-116296522D01*
X142573500Y-116296522D02*
X142478261Y-116201284D01*
X142478261Y-116201284D02*
X142383023Y-116153665D01*
X142383023Y-116153665D02*
X142192547Y-116106046D01*
X142192547Y-116106046D02*
X142049690Y-116106046D01*
X142049690Y-116106046D02*
X141859214Y-116153665D01*
X141859214Y-116153665D02*
X141763976Y-116201284D01*
X141763976Y-116201284D02*
X141668738Y-116296522D01*
X141668738Y-116296522D02*
X141621119Y-116439379D01*
X141621119Y-116439379D02*
X141621119Y-116534617D01*
X141621119Y-116534617D02*
X141668738Y-116677474D01*
X141668738Y-116677474D02*
X141716357Y-116725093D01*
X142621119Y-117629855D02*
X142621119Y-117153665D01*
X142621119Y-117153665D02*
X141621119Y-117153665D01*
X142621119Y-117963189D02*
X141954452Y-117963189D01*
X141621119Y-117963189D02*
X141668738Y-117915570D01*
X141668738Y-117915570D02*
X141716357Y-117963189D01*
X141716357Y-117963189D02*
X141668738Y-118010808D01*
X141668738Y-118010808D02*
X141621119Y-117963189D01*
X141621119Y-117963189D02*
X141716357Y-117963189D01*
X141954452Y-118867950D02*
X142763976Y-118867950D01*
X142763976Y-118867950D02*
X142859214Y-118820331D01*
X142859214Y-118820331D02*
X142906833Y-118772712D01*
X142906833Y-118772712D02*
X142954452Y-118677474D01*
X142954452Y-118677474D02*
X142954452Y-118534617D01*
X142954452Y-118534617D02*
X142906833Y-118439379D01*
X142573500Y-118867950D02*
X142621119Y-118772712D01*
X142621119Y-118772712D02*
X142621119Y-118582236D01*
X142621119Y-118582236D02*
X142573500Y-118486998D01*
X142573500Y-118486998D02*
X142525880Y-118439379D01*
X142525880Y-118439379D02*
X142430642Y-118391760D01*
X142430642Y-118391760D02*
X142144928Y-118391760D01*
X142144928Y-118391760D02*
X142049690Y-118439379D01*
X142049690Y-118439379D02*
X142002071Y-118486998D01*
X142002071Y-118486998D02*
X141954452Y-118582236D01*
X141954452Y-118582236D02*
X141954452Y-118772712D01*
X141954452Y-118772712D02*
X142002071Y-118867950D01*
X142621119Y-119344141D02*
X141621119Y-119344141D01*
X142621119Y-119772712D02*
X142097309Y-119772712D01*
X142097309Y-119772712D02*
X142002071Y-119725093D01*
X142002071Y-119725093D02*
X141954452Y-119629855D01*
X141954452Y-119629855D02*
X141954452Y-119486998D01*
X141954452Y-119486998D02*
X142002071Y-119391760D01*
X142002071Y-119391760D02*
X142049690Y-119344141D01*
X141954452Y-120106046D02*
X141954452Y-120486998D01*
X141621119Y-120248903D02*
X142478261Y-120248903D01*
X142478261Y-120248903D02*
X142573500Y-120296522D01*
X142573500Y-120296522D02*
X142621119Y-120391760D01*
X142621119Y-120391760D02*
X142621119Y-120486998D01*
X142621119Y-120820332D02*
X141954452Y-120820332D01*
X141621119Y-120820332D02*
X141668738Y-120772713D01*
X141668738Y-120772713D02*
X141716357Y-120820332D01*
X141716357Y-120820332D02*
X141668738Y-120867951D01*
X141668738Y-120867951D02*
X141621119Y-120820332D01*
X141621119Y-120820332D02*
X141716357Y-120820332D01*
X141954452Y-121296522D02*
X142621119Y-121296522D01*
X142049690Y-121296522D02*
X142002071Y-121344141D01*
X142002071Y-121344141D02*
X141954452Y-121439379D01*
X141954452Y-121439379D02*
X141954452Y-121582236D01*
X141954452Y-121582236D02*
X142002071Y-121677474D01*
X142002071Y-121677474D02*
X142097309Y-121725093D01*
X142097309Y-121725093D02*
X142621119Y-121725093D01*
X141954452Y-122629855D02*
X142763976Y-122629855D01*
X142763976Y-122629855D02*
X142859214Y-122582236D01*
X142859214Y-122582236D02*
X142906833Y-122534617D01*
X142906833Y-122534617D02*
X142954452Y-122439379D01*
X142954452Y-122439379D02*
X142954452Y-122296522D01*
X142954452Y-122296522D02*
X142906833Y-122201284D01*
X142573500Y-122629855D02*
X142621119Y-122534617D01*
X142621119Y-122534617D02*
X142621119Y-122344141D01*
X142621119Y-122344141D02*
X142573500Y-122248903D01*
X142573500Y-122248903D02*
X142525880Y-122201284D01*
X142525880Y-122201284D02*
X142430642Y-122153665D01*
X142430642Y-122153665D02*
X142144928Y-122153665D01*
X142144928Y-122153665D02*
X142049690Y-122201284D01*
X142049690Y-122201284D02*
X142002071Y-122248903D01*
X142002071Y-122248903D02*
X141954452Y-122344141D01*
X141954452Y-122344141D02*
X141954452Y-122534617D01*
X141954452Y-122534617D02*
X142002071Y-122629855D01*
X142525880Y-123677474D02*
X142573500Y-123629855D01*
X142573500Y-123629855D02*
X142621119Y-123486998D01*
X142621119Y-123486998D02*
X142621119Y-123391760D01*
X142621119Y-123391760D02*
X142573500Y-123248903D01*
X142573500Y-123248903D02*
X142478261Y-123153665D01*
X142478261Y-123153665D02*
X142383023Y-123106046D01*
X142383023Y-123106046D02*
X142192547Y-123058427D01*
X142192547Y-123058427D02*
X142049690Y-123058427D01*
X142049690Y-123058427D02*
X141859214Y-123106046D01*
X141859214Y-123106046D02*
X141763976Y-123153665D01*
X141763976Y-123153665D02*
X141668738Y-123248903D01*
X141668738Y-123248903D02*
X141621119Y-123391760D01*
X141621119Y-123391760D02*
X141621119Y-123486998D01*
X141621119Y-123486998D02*
X141668738Y-123629855D01*
X141668738Y-123629855D02*
X141716357Y-123677474D01*
X142621119Y-124248903D02*
X142573500Y-124153665D01*
X142573500Y-124153665D02*
X142525880Y-124106046D01*
X142525880Y-124106046D02*
X142430642Y-124058427D01*
X142430642Y-124058427D02*
X142144928Y-124058427D01*
X142144928Y-124058427D02*
X142049690Y-124106046D01*
X142049690Y-124106046D02*
X142002071Y-124153665D01*
X142002071Y-124153665D02*
X141954452Y-124248903D01*
X141954452Y-124248903D02*
X141954452Y-124391760D01*
X141954452Y-124391760D02*
X142002071Y-124486998D01*
X142002071Y-124486998D02*
X142049690Y-124534617D01*
X142049690Y-124534617D02*
X142144928Y-124582236D01*
X142144928Y-124582236D02*
X142430642Y-124582236D01*
X142430642Y-124582236D02*
X142525880Y-124534617D01*
X142525880Y-124534617D02*
X142573500Y-124486998D01*
X142573500Y-124486998D02*
X142621119Y-124391760D01*
X142621119Y-124391760D02*
X142621119Y-124248903D01*
X141954452Y-125010808D02*
X142621119Y-125010808D01*
X142049690Y-125010808D02*
X142002071Y-125058427D01*
X142002071Y-125058427D02*
X141954452Y-125153665D01*
X141954452Y-125153665D02*
X141954452Y-125296522D01*
X141954452Y-125296522D02*
X142002071Y-125391760D01*
X142002071Y-125391760D02*
X142097309Y-125439379D01*
X142097309Y-125439379D02*
X142621119Y-125439379D01*
X141954452Y-125772713D02*
X141954452Y-126153665D01*
X141621119Y-125915570D02*
X142478261Y-125915570D01*
X142478261Y-125915570D02*
X142573500Y-125963189D01*
X142573500Y-125963189D02*
X142621119Y-126058427D01*
X142621119Y-126058427D02*
X142621119Y-126153665D01*
X142621119Y-126486999D02*
X141954452Y-126486999D01*
X142144928Y-126486999D02*
X142049690Y-126534618D01*
X142049690Y-126534618D02*
X142002071Y-126582237D01*
X142002071Y-126582237D02*
X141954452Y-126677475D01*
X141954452Y-126677475D02*
X141954452Y-126772713D01*
X142621119Y-127248904D02*
X142573500Y-127153666D01*
X142573500Y-127153666D02*
X142525880Y-127106047D01*
X142525880Y-127106047D02*
X142430642Y-127058428D01*
X142430642Y-127058428D02*
X142144928Y-127058428D01*
X142144928Y-127058428D02*
X142049690Y-127106047D01*
X142049690Y-127106047D02*
X142002071Y-127153666D01*
X142002071Y-127153666D02*
X141954452Y-127248904D01*
X141954452Y-127248904D02*
X141954452Y-127391761D01*
X141954452Y-127391761D02*
X142002071Y-127486999D01*
X142002071Y-127486999D02*
X142049690Y-127534618D01*
X142049690Y-127534618D02*
X142144928Y-127582237D01*
X142144928Y-127582237D02*
X142430642Y-127582237D01*
X142430642Y-127582237D02*
X142525880Y-127534618D01*
X142525880Y-127534618D02*
X142573500Y-127486999D01*
X142573500Y-127486999D02*
X142621119Y-127391761D01*
X142621119Y-127391761D02*
X142621119Y-127248904D01*
X142621119Y-128153666D02*
X142573500Y-128058428D01*
X142573500Y-128058428D02*
X142478261Y-128010809D01*
X142478261Y-128010809D02*
X141621119Y-128010809D01*
X142621119Y-128677476D02*
X142573500Y-128582238D01*
X142573500Y-128582238D02*
X142478261Y-128534619D01*
X142478261Y-128534619D02*
X141621119Y-128534619D01*
X142573500Y-129439381D02*
X142621119Y-129344143D01*
X142621119Y-129344143D02*
X142621119Y-129153667D01*
X142621119Y-129153667D02*
X142573500Y-129058429D01*
X142573500Y-129058429D02*
X142478261Y-129010810D01*
X142478261Y-129010810D02*
X142097309Y-129010810D01*
X142097309Y-129010810D02*
X142002071Y-129058429D01*
X142002071Y-129058429D02*
X141954452Y-129153667D01*
X141954452Y-129153667D02*
X141954452Y-129344143D01*
X141954452Y-129344143D02*
X142002071Y-129439381D01*
X142002071Y-129439381D02*
X142097309Y-129487000D01*
X142097309Y-129487000D02*
X142192547Y-129487000D01*
X142192547Y-129487000D02*
X142287785Y-129010810D01*
X142621119Y-129915572D02*
X141954452Y-129915572D01*
X142144928Y-129915572D02*
X142049690Y-129963191D01*
X142049690Y-129963191D02*
X142002071Y-130010810D01*
X142002071Y-130010810D02*
X141954452Y-130106048D01*
X141954452Y-130106048D02*
X141954452Y-130201286D01*
M02*
