M48
; DRILL file {KiCad 9.0.1} date 2025-04-25T16:38:14-0400
; FORMAT={-:-/ absolute / metric / decimal}
; #@! TF.CreationDate,2025-04-25T16:38:14-04:00
; #@! TF.GenerationSoftware,Kicad,Pcbnew,9.0.1
; #@! TF.FileFunction,Plated,1,2,PTH
FMAT,2
METRIC
; #@! TA.AperFunction,Plated,PTH,ViaDrill
T1C0.400
; #@! TA.AperFunction,Plated,PTH,ComponentDrill
T2C0.760
; #@! TA.AperFunction,Plated,PTH,ComponentDrill
T3C1.000
; #@! TA.AperFunction,Plated,PTH,ComponentDrill
T4C1.200
; #@! TA.AperFunction,Plated,PTH,ComponentDrill
T5C3.200
%
G90
G05
T1
X80.5Y-82.0
X80.5Y-88.0
X80.5Y-95.0
X80.5Y-102.25
X80.5Y-109.25
X80.5Y-119.0
X80.5Y-126.75
X80.5Y-132.5
X80.5Y-138.25
X80.5Y-143.0
X83.25Y-77.5
X83.75Y-144.25
X85.5Y-74.75
X85.5Y-80.25
X85.75Y-109.25
X86.0Y-95.0
X86.0Y-102.25
X86.0Y-118.5
X86.25Y-87.0
X86.25Y-135.25
X86.25Y-141.0
X88.25Y-77.5
X88.25Y-83.5
X88.5Y-138.0
X88.5Y-144.25
X89.65Y-109.75
X89.65Y-111.25
X90.75Y-74.75
X90.75Y-80.25
X90.75Y-135.25
X90.75Y-141.0
X91.0Y-126.75
X91.925Y-100.25
X92.5Y-105.5
X92.75Y-138.0
X92.75Y-144.5
X92.925Y-125.0
X93.0Y-77.5
X93.0Y-83.5
X94.75Y-135.25
X94.75Y-141.0
X95.5Y-80.25
X95.75Y-74.75
X95.75Y-132.0
X95.925Y-114.5
X95.925Y-118.25
X95.925Y-123.0
X96.4Y-109.75
X96.425Y-111.25
X96.75Y-90.75
X96.75Y-94.25
X97.75Y-77.5
X97.75Y-144.5
X97.925Y-103.0
X97.925Y-106.0
X98.425Y-98.25
X98.425Y-127.75
X98.675Y-131.5
X99.4Y-112.5
X99.5Y-93.75
X99.5Y-115.75
X99.5Y-119.25
X99.925Y-101.5
X100.0Y-133.75
X100.175Y-104.75
X100.75Y-145.5
X103.25Y-77.5
X104.0Y-105.0
X104.0Y-118.5
X104.175Y-101.5
X104.25Y-111.25
X104.25Y-114.5
X104.425Y-95.75
X104.425Y-99.0
X104.5Y-140.5
X105.0Y-145.5
X105.425Y-93.25
X105.425Y-97.5
X105.5Y-108.25
X106.25Y-103.25
X107.0Y-113.0
X107.0Y-120.0
X107.0Y-124.5
X107.0Y-127.75
X107.0Y-132.5
X107.0Y-137.5
X107.0Y-143.0
X108.0Y-77.5
X108.175Y-100.75
X108.175Y-104.75
X108.175Y-108.25
X108.5Y-74.5
X109.0Y-80.25
X109.5Y-140.5
X109.5Y-145.5
X110.0Y-116.25
X110.0Y-120.0
X110.0Y-125.75
X110.25Y-134.5
X111.5Y-143.0
X111.75Y-128.5
X112.0Y-118.0
X112.0Y-122.25
X112.25Y-132.0
X112.75Y-137.0
X113.0Y-77.5
X113.5Y-126.5
X113.5Y-130.25
X114.0Y-145.5
X114.5Y-134.0
X115.0Y-86.25
X115.0Y-139.25
X115.75Y-89.75
X116.5Y-82.75
X116.75Y-117.75
X116.75Y-122.25
X117.175Y-98.75
X117.5Y-125.0
X117.675Y-103.25
X118.25Y-110.0
X118.5Y-114.0
X118.75Y-77.5
X118.75Y-120.25
X119.175Y-90.0
X119.25Y-88.0
X119.5Y-97.25
X119.5Y-105.0
X120.0Y-136.5
X120.0Y-140.5
X120.0Y-144.75
X121.0Y-93.25
X121.0Y-132.5
X121.25Y-100.75
X122.0Y-122.75
X122.0Y-127.5
X122.25Y-74.5
X122.25Y-80.25
X122.25Y-86.0
X122.25Y-88.75
X123.25Y-105.0
X123.25Y-142.5
X123.25Y-147.0
X123.5Y-118.0
X123.5Y-138.25
X123.75Y-90.25
X124.0Y-96.0
X124.5Y-115.25
X124.75Y-77.5
X124.75Y-131.0
X125.25Y-125.5
X126.0Y-121.5
X126.25Y-117.75
X126.5Y-105.0
X126.5Y-108.75
X126.5Y-113.5
X127.0Y-82.5
X127.0Y-88.5
X127.0Y-93.0
X127.0Y-99.0
X127.25Y-139.5
X128.0Y-128.75
X128.5Y-133.0
X128.75Y-124.25
X129.0Y-107.75
X129.0Y-120.5
X129.25Y-77.5
X130.0Y-86.25
X130.0Y-96.0
X130.0Y-101.5
X130.5Y-117.75
X131.0Y-90.5
X131.25Y-74.5
X131.25Y-147.0
X131.291Y-114.219
X131.5Y-107.25
X132.0Y-123.0
X132.0Y-127.25
X132.0Y-131.5
X132.0Y-136.0
X132.0Y-141.5
X132.25Y-117.75
X132.5Y-107.25
X132.5Y-114.5
X133.5Y-77.5
X133.75Y-82.25
X133.75Y-86.25
X134.0Y-89.25
X134.5Y-138.75
X136.0Y-135.25
X137.0Y-85.0
X137.25Y-74.5
X137.25Y-147.0
X139.75Y-132.0
X140.0Y-87.0
X140.75Y-99.0
X140.75Y-111.0
X140.75Y-123.0
X141.75Y-78.75
X142.25Y-135.25
X142.25Y-140.5
X142.5Y-84.25
T2
X86.067Y-92.39
X86.175Y-131.4
X87.337Y-89.85
X87.445Y-128.86
X88.608Y-92.39
X88.715Y-131.4
X89.877Y-89.85
X89.985Y-128.86
X91.147Y-92.39
X91.255Y-131.4
X92.417Y-89.85
X92.525Y-128.86
X93.688Y-92.39
X93.795Y-131.4
X94.957Y-89.85
X95.065Y-128.86
T3
X102.175Y-127.38
X102.175Y-129.92
X102.175Y-132.46
X102.175Y-135.0
X102.175Y-137.54
X102.175Y-140.08
X102.175Y-142.62
X117.415Y-127.38
X117.415Y-129.92
X117.415Y-132.46
X117.415Y-135.0
X117.415Y-137.54
X117.415Y-140.08
X117.415Y-142.62
X122.525Y-107.45
X122.525Y-109.99
X122.525Y-112.53
X122.525Y-115.07
T4
X102.0Y-80.617
X105.5Y-80.617
X111.75Y-80.5
X115.25Y-80.5
X118.75Y-80.5
X125.5Y-80.5
X125.5Y-141.375
X129.0Y-80.5
X129.0Y-141.375
X136.25Y-89.5
X136.25Y-93.0
X136.25Y-96.5
X136.25Y-101.5
X136.25Y-105.0
X136.25Y-108.5
X136.25Y-113.5
X136.25Y-117.0
X136.25Y-120.5
X136.25Y-125.5
X136.25Y-129.0
X136.25Y-132.5
T5
X83.5Y-98.5
X83.5Y-122.75
X137.175Y-142.0
X137.175Y-79.5
M30
